<?xml version="1.0" encoding="UTF-8" standalone="no"?>
<!-- Generator: Adobe Illustrator 16.0.0, SVG Export Plug-In . SVG Version: 6.00 Build 0)  -->

<svg
   version="1.1"
   id="Layer_1"
   x="0px"
   y="0px"
   width="280px"
   height="280px"
   viewBox="0 0 280 280"
   enable-background="new 0 0 280 280"
   xml:space="preserve"
   sodipodi:docname="fx.svg"
   inkscape:version="1.1.2 (0a00cf5339, 2022-02-04)"
   xmlns:inkscape="http://www.inkscape.org/namespaces/inkscape"
   xmlns:sodipodi="http://sodipodi.sourceforge.net/DTD/sodipodi-0.dtd"
   xmlns="http://www.w3.org/2000/svg"
   xmlns:svg="http://www.w3.org/2000/svg"><defs
   id="defs216276">
	
	
	
</defs><sodipodi:namedview
   id="namedview216274"
   pagecolor="#ffffff"
   bordercolor="#666666"
   borderopacity="1.0"
   inkscape:pageshadow="2"
   inkscape:pageopacity="0.0"
   inkscape:pagecheckerboard="0"
   showgrid="false"
   inkscape:zoom="2.1011173"
   inkscape:cx="138.0218"
   inkscape:cy="139.44962"
   inkscape:window-width="1600"
   inkscape:window-height="828"
   inkscape:window-x="0"
   inkscape:window-y="0"
   inkscape:window-maximized="1"
   inkscape:current-layer="layer1"
   inkscape:showpageshadow="2"
   inkscape:deskcolor="#d1d1d1" />
<g
   inkscape:groupmode="layer"
   id="layer2"
   inkscape:label="BG"><rect
     y="-280"
     fill-rule="evenodd"
     clip-rule="evenodd"
     fill="#164E86"
     width="280"
     height="280"
     id="rect4994-7"
     style="fill:#2b2b2b;fill-opacity:1;stroke:none;stroke-width:0.999999;stroke-opacity:1"
     x="0"
     transform="scale(1,-1)" /></g>
<g
   inkscape:groupmode="layer"
   id="layer1"
   inkscape:label="Logo"><g
     id="g923"
     transform="translate(4.2207114,1.9013551)"
     style="fill:#ffffff"><path
       style="fill:#ffffff;stroke-width:0.232354"
       d="M 21.592414,137.194 V 67.836029 l 71.507259,0.0047 71.507257,0.0047 8.57433,15.33783 c 4.71587,8.435803 8.66623,15.307203 8.7786,15.269743 0.11243,-0.0374 3.94344,-6.915678 8.51349,-15.284962 l 8.30923,-15.21684 27.57927,-0.05899 27.57926,-0.05899 -22.0099,32.93728 c -12.10545,18.11549 -22.00591,33.14639 -22.00102,33.40198 0.005,0.2556 9.29986,15.73044 20.65552,34.38855 11.35565,18.65811 21.20305,34.83873 21.88308,35.95695 l 1.23641,2.0331 -27.35486,-0.005 -27.35486,-0.005 -8.48095,-16.2571 c -4.66453,-8.94141 -8.56052,-16.23203 -8.65776,-16.20135 -0.0973,0.0307 -4.02242,7.32231 -8.72261,16.2036 l -8.54576,16.14784 -27.23436,0.059 c -14.97889,0.0326 -27.23437,0.0118 -27.23437,-0.0446 0,-0.0569 9.98426,-16.32714 22.18724,-36.15595 l 22.18722,-36.05178 -9.19845,-13.68518 -9.19845,-13.68515 H 103.00975 69.922261 v 8.36478 8.36478 h 23.46786 23.467859 v 18.93694 18.93693 H 93.390121 69.922261 v 22.53844 22.53845 H 45.757339 21.592414 Z"
       id="path1029" /></g></g></svg>
