<?xml version="1.0" encoding="UTF-8" standalone="no"?>
<!-- Generator: Adobe Illustrator 16.0.0, SVG Export Plug-In . SVG Version: 6.00 Build 0)  -->

<svg
   version="1.1"
   id="Layer_1"
   x="0px"
   y="0px"
   width="280px"
   height="280px"
   viewBox="0 0 280 280"
   enable-background="new 0 0 280 280"
   xml:space="preserve"
   sodipodi:docname="anime.svg"
   inkscape:version="1.4 (e7c3feb100, 2024-10-09)"
   xmlns:inkscape="http://www.inkscape.org/namespaces/inkscape"
   xmlns:sodipodi="http://sodipodi.sourceforge.net/DTD/sodipodi-0.dtd"
   xmlns:xlink="http://www.w3.org/1999/xlink"
   xmlns="http://www.w3.org/2000/svg"
   xmlns:svg="http://www.w3.org/2000/svg"><defs
   id="defs216276"><linearGradient
   id="linearGradient1"
   inkscape:collect="always"><stop
     style="stop-color:#eca99e;stop-opacity:1;"
     offset="0"
     id="stop1" /><stop
     style="stop-color:#d63b28;stop-opacity:1;"
     offset="0.49000001"
     id="stop3" /><stop
     style="stop-color:#a31c1f;stop-opacity:1;"
     offset="0.5"
     id="stop4" /><stop
     style="stop-color:#cb2e38;stop-opacity:1;"
     offset="1"
     id="stop2" /></linearGradient>
	
	
	
<linearGradient
   inkscape:collect="always"
   xlink:href="#linearGradient1"
   id="linearGradient2"
   x1="128.74606"
   y1="76.780418"
   x2="130.15446"
   y2="194.56888"
   gradientUnits="userSpaceOnUse" /></defs><sodipodi:namedview
   id="namedview216274"
   pagecolor="#ffffff"
   bordercolor="#666666"
   borderopacity="1.0"
   inkscape:pageshadow="2"
   inkscape:pageopacity="0.0"
   inkscape:pagecheckerboard="0"
   showgrid="false"
   inkscape:zoom="1.4857143"
   inkscape:cx="196.53846"
   inkscape:cy="193.50961"
   inkscape:window-width="1600"
   inkscape:window-height="837"
   inkscape:window-x="0"
   inkscape:window-y="0"
   inkscape:window-maximized="1"
   inkscape:current-layer="layer2"
   inkscape:showpageshadow="2"
   inkscape:deskcolor="#d1d1d1" />
<g
   inkscape:groupmode="layer"
   id="layer2"
   inkscape:label="BG" />
<g
   inkscape:groupmode="layer"
   id="layer1"
   inkscape:label="Logo" /><path
   style="fill:#000000"
   d="m -940.6263,418.91809 v -74 h 341.5 341.5 v 74 74 h -341.5 -341.5 z m 278.76051,12.75 0.26051,-43.75 h 16.98949 16.98949 v -10.5 -10.5 h -47 -47 v 10.5 10.5 h 17 17 v 44.02988 44.02987 l 12.75,-0.27987 12.75,-0.27988 z m 149.55956,40 c 0.87549,-2.3375 5.91865,-16.625 11.20703,-31.75 5.28838,-15.125 13.18321,-37.59718 17.54407,-49.93818 4.36086,-12.34101 7.92883,-22.57851 7.92883,-22.75 0,-0.1715 -6.02082,-0.31182 -13.3796,-0.31182 h -13.37959 l -11.78726,34.75 c -13.74533,40.52255 -13.29904,39.25 -13.7652,39.25 -0.19863,0 -5.94727,-16.64734 -12.77475,-36.99409 l -12.4136,-36.99408 -13.25,-0.006 c -7.98824,-0.004 -13.25,0.38317 -13.25,0.97385 0,0.53887 0.65751,2.67637 1.46114,4.75 0.80363,2.07363 8.69174,24.92024 17.52913,50.77024 8.83739,25.85 16.55947,48.2375 17.16018,49.75 l 1.09219,2.75 h 14.24282 14.24282 l 1.59179,-4.25 z M -717.18154,304.97966 c -14.62426,-2.3018 -23.11209,-10.67185 -27.1672,-26.79025 -2.14078,-8.50925 -2.51201,-52.15883 -0.52445,-61.6655 2.6189,-12.52646 8.80451,-21.82774 17.4191,-26.19309 9.64652,-4.88826 27.6589,-5.30603 38.23555,-0.88682 8.69739,3.634 16.05931,13.94913 18.64568,26.12532 1.57704,7.42443 2.31135,42.56865 1.10423,52.84877 -2.42383,20.642 -9.04272,30.95254 -22.46286,34.99141 -5.87455,1.76798 -18.86205,2.5756 -25.25005,1.57016 z m 17.13528,-17.94725 c 6.93919,-4.23151 8.81594,-14.69878 8.16666,-45.54827 -0.51901,-24.66043 -1.56412,-30.10082 -6.73385,-35.05374 -2.5642,-2.45666 -3.87266,-2.91508 -8.44752,-2.95961 -13.17,-0.12821 -16.52571,8.59269 -16.52571,42.9473 0,33.7606 3.2303,42.35354 15.96038,42.45622 2.69935,0.0218 5.73246,-0.71525 7.58004,-1.8419 z m -181.47765,11.63568 c -0.57167,-2.8875 -4.63929,-25.05 -9.03915,-49.25 -4.39987,-24.2 -8.68896,-47.6 -9.53133,-52 -0.84236,-4.4 -1.53164,-8.1125 -1.53174,-8.25 -9e-5,-0.1375 4.94126,-0.25 10.98078,-0.25 10.57485,0 10.99919,0.0832 11.47415,2.25 0.27127,1.2375 1.83701,11.475 3.47944,22.75 1.64243,11.275 4.20196,28.825 5.68785,39 1.48588,10.175 2.98148,18.83028 3.32356,19.23395 0.34207,0.40367 3.45338,-17.14633 6.91402,-39 3.46064,-21.85367 6.53164,-40.74645 6.82446,-41.98395 0.51174,-2.16273 0.95411,-2.25 11.40493,-2.25 10.45459,0 10.89251,0.0865 11.39215,2.25 0.28579,1.2375 3.2396,19.575 6.56403,40.75 3.32442,21.175 6.30794,39.175 6.63004,40 0.4195,1.07448 12.82181,-75.78477 13.27217,-82.25 0.0287,-0.4125 5.038,-0.75 11.13171,-0.75 h 11.07945 l -0.57026,2.75 c -0.31364,1.5125 -4.84243,26.375 -10.06397,55.25 -5.22155,28.875 -9.73426,53.5125 -10.02825,54.75 -0.52036,2.19033 -0.8788,2.25 -13.51548,2.25 -9.71534,0 -12.98225,-0.31446 -12.98612,-1.25 -0.003,-0.6875 -1.30789,-9.575 -2.90011,-19.75 -1.59222,-10.175 -4.38512,-28.28228 -6.20644,-40.23839 -1.82132,-11.95612 -3.59817,-21.40612 -3.94856,-21 -0.35039,0.40611 -2.30025,11.76339 -4.33301,25.23839 -2.03277,13.475 -4.86161,31.8125 -6.28631,40.75 l -2.59036,16.25 h -12.79412 -12.79412 z m 262.89761,-52.25 v -57.5 h 25.3185 c 28.6295,0 32.57756,0.65129 39.41237,6.50163 5.61308,4.80459 8.26913,11.99208 8.26913,22.37695 0,14.04667 -4.20007,22.4529 -13.33231,26.68392 -4.08274,1.89157 -4.6879,2.46628 -3.11703,2.96018 12.94257,4.0693 14.24989,6.67403 15.91382,31.70703 1.10822,16.67243 1.51223,19.24751 3.42589,21.83587 l 2.1695,2.93442 h -12.99139 -12.99139 l -0.94117,-3.75 c -0.51765,-2.0625 -1.17327,-10.53906 -1.45694,-18.8368 -0.79143,-23.15039 -2.47847,-25.71383 -17.28198,-26.25973 l -9.397,-0.34653 v 24.59653 24.59653 h -11.5 -11.5 z m 42.41007,-9.52633 c 5.11646,-2.591 7.02082,-6.27684 7.37514,-14.2744 0.54646,-12.33479 -3.84727,-16.48677 -18.3985,-17.38618 l -8.38671,-0.51839 v 17.20527 17.20526 l 8.25,-0.37895 c 4.5375,-0.20842 9.55953,-1.0421 11.16007,-1.85261 z m 87.58993,9.52633 v -57.5 h 11.5 11.5 v 48 48 h 20.5 20.5 v 9.5 9.5 h -32 -32 z m 117,0.11199 v -57.56971 l 19.75,-0.27114 c 23.67546,-0.32503 30.59068,0.34772 36.9434,3.59404 8.80309,4.49849 13.86496,11.74563 17.01705,24.3635 1.33162,5.33053 1.68599,11.34605 1.66542,28.27132 -0.0293,24.10071 -1.16006,31.69112 -6.19985,41.61701 -3.72111,7.32875 -7.02627,10.49859 -14.67602,14.07517 -5.97513,2.79362 -6.1005,2.80667 -30.25,3.14738 l -24.25,0.34214 z m 43.67836,37.83604 c 7.17755,-5.21972 9.90489,-18.78337 9.03801,-44.94803 -0.58376,-17.61915 -2.03035,-23.97696 -6.56439,-28.85064 -3.50455,-3.76707 -6.11772,-4.67394 -15.39301,-5.34193 l -7.75897,-0.55878 v 41.22517 41.22518 l 8.92836,-0.3495 c 7.04524,-0.27579 9.52349,-0.78229 11.75,-2.40147 z M -896.1263,122.03925 c -8.80158,-4.03754 -15.06718,-14.31933 -14.29905,-23.46459 0.26944,-3.20797 7.96015,-26.8851 20.35184,-62.65657 l 19.91874,-57.5 5.01423,-5.05536 c 8.20405,-8.27133 20.00767,-9.86175 29.94958,-4.0354 5.34519,3.13249 5.48088,3.32876 32.55525,47.09076 9.52757,15.4 17.63379,28.35897 18.01384,28.79771 0.38004,0.43873 5.55309,-13.28627 11.49567,-30.5 5.94258,-17.21374 11.85455,-33.40731 13.13772,-35.9857 4.00175,-8.04112 12.26441,-12.82733 22.08006,-12.79005 13.70859,0.0521 24.20747,10.51257 24.26016,24.17148 0.0228,5.90353 0.99343,2.9307 -31.66677,96.98545 -9.44903,27.21132 -11.13451,30.17763 -19.57837,34.45646 -4.3457,2.20213 -6.08427,2.51501 -12.2462,2.20385 -5.86699,-0.29627 -8.07884,-0.91724 -12.08409,-3.39256 -4.54394,-2.80825 -6.54868,-5.67778 -27.40261,-39.22348 -12.375,-19.90645 -22.73974,-36.20022 -23.03275,-36.20836 -0.29301,-0.008 -5.41629,14.0477 -11.38506,31.2352 -5.96877,17.1875 -11.6463,32.8309 -12.61672,34.76311 -4.26533,8.49268 -11.81789,12.94297 -21.96547,12.94297 -4.18511,0 -7.92455,-0.65348 -10.5,-1.83492 z m 214.66838,-0.72454 c -8.42067,-4.1962 -13.16838,-12.05164 -13.16838,-21.78808 0,-4.50088 3.50451,-15.57541 20.02419,-63.27806 14.70114,-42.45143 20.77739,-58.75386 22.85759,-61.32643 4.38703,-5.42541 12.10414,-9.00405 19.41669,-9.00405 7.48033,0 13.14943,2.53961 18.23513,8.16887 8.08003,8.94363 8.48325,16.017 1.9664,34.49551 -2.475,7.01786 -4.5,12.88932 -4.5,13.04768 0,0.15837 12.7322,0.28794 28.29379,0.28794 h 28.29378 l 5.87133,-17.25 c 3.22923,-9.4875 6.9454,-19.725 8.25816,-22.75 4.65841,-10.73437 12.17292,-15.93996 23.06506,-15.97804 7.31649,-0.0256 11.4183,1.45909 16.59952,6.00826 5.77908,5.07411 7.99127,10.21255 7.95154,18.46978 -0.0312,6.4758 -1.43823,11.00638 -18.78946,60.5 -10.31568,29.425 -19.1634,54.9052 -19.6616,56.62267 -1.28002,4.41268 -8.5647,12.32817 -13.34341,14.49886 -4.69501,2.13266 -12.98297,2.42005 -18.92269,0.65615 -6.2601,-1.85905 -13.10633,-9.21658 -15.16475,-16.29732 -2.05204,-7.05875 -1.61751,-10.11957 3.57396,-25.17542 2.18613,-6.33999 3.97477,-12.15223 3.97477,-12.9161 0,-1.1519 -4.7548,-1.38884 -27.87064,-1.38884 h -27.87064 l -6.78855,19.75 c -9.66562,28.12032 -11.10501,30.54294 -21.17051,35.63195 -5.13662,2.59701 -14.85149,2.14402 -21.13128,-0.98533 z m 215.26076,0.22261 c -6.3319,-2.94843 -11.02881,-8.51646 -13.07113,-15.49539 -2.02227,-6.91043 -1.47331,-10.20662 4.60053,-27.62384 7.46369,-21.40271 22.21661,-64.0491 28.65139,-82.8228 6.38909,-18.64043 9.62123,-23.67432 17.71706,-27.59345 5.83796,-2.8261 15.48436,-2.83758 21.29371,-0.0253 5.89772,2.85504 10.96517,8.80796 12.82286,15.06348 2.25335,7.58783 2.03379,9.37629 -2.94536,23.9927 -2.47599,7.26832 -4.38849,13.31631 -4.25,13.43998 0.13849,0.12365 17.1268,-10.54111 37.7518,-23.69949 45.41453,-28.97365 45.19768,-28.85512 52.78744,-28.85512 19.38599,0 30.61515,20.76608 19.87046,36.74643 -2.72351,4.05062 -7.17708,7.24539 -32.37623,23.22512 -16.07009,10.19065 -30.01142,19.02203 -30.98075,19.62529 -1.54831,0.9636 0.23965,3.18779 14.71834,18.30937 20.05815,20.94879 21.48874,23.12178 21.45808,32.59379 -0.0472,14.59257 -9.73464,24.42657 -24.11315,24.47804 -10.39534,0.0372 -12.85041,-1.89461 -43.81676,-34.47804 -15.15842,-15.95 -27.89527,-29.1069 -28.3041,-29.23756 -0.40883,-0.13066 -4.78884,11.51619 -9.73336,25.8819 -7.67399,22.29585 -9.5421,26.74664 -12.76126,30.4038 -7.54113,8.56717 -18.90553,10.92036 -29.31957,6.07109 z M -596.9018,-72.69074 c -0.33485,-0.33486 -0.6473,-26.65986 -0.69431,-58.5 l -0.0855,-57.89117 h 169.54291 169.54291 l -0.0468,57.0005 c -0.0258,31.35027 -0.30578,57.67527 -0.62225,58.5 -0.50827,1.32445 -20.21445,1.4995 -168.80179,1.4995 -92.52449,0 -168.50032,-0.27397 -168.83518,-0.60883 z"
   id="path1105" /><path
   style="fill:url(#linearGradient2);stroke-width:0.741202;fill-opacity:1"
   d="m 194.73505,193.67963 c -1.44517,-1.01223 -8.44197,-1.1408 -59.6464,-1.09597 -64.184306,0.0562 -59.333341,0.43564 -63.008291,-4.92847 -1.710393,-2.49655 -1.868712,-3.22718 -1.326033,-6.11957 0.503449,-2.6833 0.328888,-3.87603 -0.953615,-6.5158 -1.165808,-2.39959 -1.372238,-3.54458 -0.802025,-4.44855 0.608769,-0.9651 2.602139,-2.45812 3.818034,-2.85968 0.101448,-0.0335 0.489727,-1.69499 0.862844,-3.69218 0.664264,-3.55564 0.619554,-3.6951 -2.146618,-6.69605 -1.553757,-1.68562 -3.73745,-4.44356 -4.852651,-6.12875 l -2.02764,-3.06396 H 58.196118 51.73958 l -3.589616,4.47543 c -5.613474,6.99873 -14.425548,14.05462 -17.552739,14.05462 -2.20494,0 -17.637886,-15.32119 -17.620379,-17.49278 0.01571,-1.94846 0.607849,-2.65155 4.435863,-5.26698 6.652863,-4.54547 18.530054,-18.87404 18.530054,-22.35455 0,-0.45039 -1.493145,-1.19486 -3.318101,-1.65439 -2.361331,-0.59458 -4.17799,-1.76837 -6.300218,-4.07072 l -2.982118,-3.23521 v -7.84792 c 0,-4.31634 0.345276,-8.49306 0.767281,-9.281581 0.925445,-1.72921 3.098619,-1.816353 8.761359,-0.351322 11.591933,2.999 33.624892,5.009023 53.487586,4.879563 l 11.502672,-0.07497 2.854686,2.92346 c 2.52264,2.58343 2.91177,3.47489 3.34537,7.66417 0.30223,2.92002 1.11715,5.71953 2.1219,7.28939 l 1.63121,2.54871 0.0125,-9.02678 c 0.01,-6.98641 0.26153,-9.27583 1.11426,-10.12855 0.60597,-0.60597 4.69184,-3.020549 9.07972,-5.365727 13.63933,-7.289783 13.12034,-6.825123 15.41296,-13.799272 3.24971,-9.885621 5.25071,-10.928226 10.33836,-5.386717 l 3.08417,3.359284 6.07313,-3.359284 c 3.34024,-1.847609 6.87644,-3.359291 7.85824,-3.359291 2.30704,0 7.08902,5.455915 7.08902,8.088079 0,1.401243 -1.8526,3.751217 -7.14633,9.064873 -8.68575,8.718465 -8.74566,9.530326 -0.7033,9.530326 3.11865,0 5.75172,0.344939 6.02646,0.789479 0.32813,0.53093 0.88865,0.44083 1.71145,-0.27508 2.41342,-2.099883 13.2592,-7.926421 14.75461,-7.926421 0.89926,0 2.93826,1.57057 4.96379,3.823447 l 3.43761,3.823444 16.82883,-0.479844 c 18.32299,-0.522451 25.04835,-1.163094 37.78046,-3.598877 l 8.35117,-1.597669 2.27712,2.164859 c 3.70985,3.526931 4.3684,5.498951 4.3684,13.081161 0,8.17797 -0.8637,9.97298 -5.12663,10.65465 -4.62386,0.73939 -5.02673,1.31824 -2.7777,3.99106 1.08609,1.29074 1.97471,2.67244 1.97471,3.07043 0,0.398 -1.82694,3.88795 -4.05987,7.75545 -2.63141,4.55767 -3.73977,7.13146 -3.15011,7.31505 0.50037,0.15579 2.74424,0.6817 4.98637,1.16869 3.09044,0.67125 4.83866,1.61906 7.22672,3.918 l 3.15011,3.03257 v 9.08461 c 0,11.2528 -0.20048,11.47232 -8.3814,9.17675 -7.4381,-2.08713 -18.40322,-3.65369 -29.60521,-4.22962 l -9.45032,-0.48587 v 1.78047 c 0,2.83555 -5.2324,17.76308 -6.76273,19.29341 -0.76478,0.76478 -1.39561,2.14097 -1.40185,3.05821 -0.0179,2.62183 -0.87111,3.39414 -5.51525,4.99195 -5.19942,1.78887 -4.86404,1.77201 -6.89881,0.34681 z m 1.89822,-8.54753 c 2.0079,-0.69995 2.32257,-1.18595 2.51951,-3.89131 0.17924,-2.46213 0.53462,-3.13575 1.74572,-3.30904 1.21457,-0.17378 1.99786,-1.67343 3.89132,-7.45006 1.30384,-3.97787 2.37063,-7.48565 2.37063,-7.79508 0,-0.30943 -1.23383,-0.45909 -2.74186,-0.33257 -2.66045,0.22322 -2.78573,0.3676 -4.21932,4.86256 -1.41957,4.451 -1.57353,4.63252 -3.92896,4.63252 -1.34832,0 -2.45149,-0.32103 -2.45149,-0.7134 0,-0.39237 -0.69105,-2.56039 -1.53566,-4.81782 -1.4523,-3.8816 -1.6736,-4.10441 -4.07662,-4.10441 -1.53594,0 -2.54095,0.36573 -2.54095,0.92467 0,0.50857 1.02813,4.01075 2.28473,7.78262 1.82273,5.47118 2.57213,6.85795 3.70601,6.85795 1.22863,0 1.42128,0.55258 1.42128,4.07662 0,4.38994 0.0994,4.48159 3.55566,3.27675 z m -115.80903,-4.01796 0.500171,-3.33541 h 3.992456 3.992448 v 3.33541 3.33541 h 2.964809 2.964809 v -11.11803 -11.11803 h -8.473876 c -9.471597,0 -8.805207,-0.41891 -9.727514,6.11492 -0.434457,3.07779 -0.719509,3.52071 -2.265826,3.52071 -2.092307,0 -2.119041,0.13762 -0.598103,3.07878 0.854908,1.65321 1.0361,3.24293 0.671649,5.89281 l -0.499094,3.62884 h 2.988946 c 2.97422,0 2.991408,-0.0165 3.489125,-3.33541 z m 1.948006,-10.93273 c 0.1969,-1.38636 0.768278,-1.70615 3.38696,-1.89562 2.944285,-0.21302 3.150109,-0.10406 3.150109,1.6677 0,1.75681 -0.248028,1.89563 -3.38696,1.89563 -3.088449,0 -3.366081,-0.14699 -3.150109,-1.66771 z m 30.889104,11.33639 1.64773,-2.93176 -5.40255,-0.21835 -5.40257,-0.21835 -0.21082,-8.01115 -0.21081,-8.01115 -2.75399,0.22853 -2.753998,0.22852 -0.205113,10.93273 -0.205112,10.93273 h 6.924743 6.92475 z m 18.45579,-0.006 1.67111,-2.92656 -5.37712,-0.21784 -5.37712,-0.21813 -0.21081,-8.01115 -0.21082,-8.01115 -2.75399,0.22853 -2.754,0.22852 -0.20511,10.93273 -0.20512,10.93273 6.87594,-0.006 6.87593,-0.006 z m 27.46699,0.74438 c 1.39285,-1.88392 1.62179,-3.15995 1.62179,-9.03916 0,-6.41915 -0.12407,-6.97507 -1.99168,-8.92444 -1.93006,-2.01455 -2.22816,-2.07886 -9.63562,-2.07886 h -7.64396 v 11.11803 11.11803 h 8.01384 8.01383 z m -11.56841,-8.73943 0.21916,-5.00311 3.52071,-0.22591 3.52071,-0.22591 v 5.22902 5.22903 h -3.73987 -3.73988 z m 22.08463,7.59732 v -3.33541 h 3.99016 c 4.24741,0 4.86762,0.63403 4.89415,5.00312 0.009,1.45856 0.3939,1.6677 3.07041,1.6677 h 3.0603 l -0.49425,-3.72581 c -0.36897,-2.78144 -0.2053,-4.13835 0.64571,-5.35334 1.58118,-2.25744 1.42521,-3.37721 -0.5091,-3.65503 -1.39081,-0.19976 -1.76805,-0.9333 -2.40891,-4.68407 l -0.75984,-4.44721 -8.70913,-0.20883 -8.70912,-0.20882 v 11.14156 11.14155 h 2.96481 2.96481 z m 0,-11.16065 c 0,-1.76489 0.21168,-1.8799 3.06951,-1.6677 2.3937,0.17774 3.20441,0.59511 3.68213,1.89562 0.58329,1.58788 0.43636,1.66771 -3.06951,1.66771 -3.45555,0 -3.68213,-0.11665 -3.68213,-1.89563 z m 85.23825,-14.66709 v -6.9271 l -5.58502,-1.22721 c -3.07175,-0.67497 -9.82596,-1.76567 -15.00934,-2.4238 -5.18338,-0.65812 -9.53241,-1.29382 -9.6645,-1.41265 -0.13209,-0.11885 0.36312,-1.91468 1.10047,-3.99075 l 1.34065,-3.77468 h 5.97878 5.97876 l 3.18931,-5.60552 c 1.75412,-3.08304 3.01339,-5.78145 2.79838,-5.99646 -0.215,-0.215 -3.76856,-0.57704 -7.8968,-0.80451 -6.10313,-0.33631 -7.42967,-0.61219 -7.09812,-1.47619 0.22426,-0.58444 0.40775,-2.18228 0.40775,-3.55077 0,-2.40852 0.11271,-2.50316 3.52071,-2.95624 1.93639,-0.25744 6.68935,-1.03049 10.56213,-1.7179 l 7.04143,-1.24983 0.21389,-6.91037 c 0.19653,-6.34924 0.10625,-6.877028 -1.1118,-6.499822 -6.39551,1.980532 -20.24878,3.806732 -34.8651,4.596062 l -9.07973,0.49033 v 6.20498 6.20499 h 4.77407 c 2.62574,0 4.94802,0.28144 5.16061,0.62542 0.21259,0.34398 0.18863,1.84491 -0.0532,3.33541 -0.31491,1.94058 -0.8147,2.70999 -1.76033,2.70999 -0.87089,0 -2.47837,2.00731 -4.72083,5.89508 -1.87016,3.24229 -3.40028,6.07739 -3.40028,6.30022 0,0.22282 1.33416,0.40513 2.96481,0.40513 3.33673,0 3.44131,0.26151 1.77252,4.43221 -0.93408,2.33451 -1.58239,2.97981 -2.99366,2.97981 -1.78678,0 -1.79965,0.0525 -1.58722,6.48552 l 0.21414,6.48552 11.62842,0.50415 c 13.75378,0.59629 29.26824,3.063 35.99381,5.72279 0.10192,0.0403 0.18531,-3.04391 0.18531,-6.85381 z m -4.07662,3.81759 c -6.15111,-1.73563 -20.45082,-3.66708 -30.15836,-4.07348 -5.98791,-0.25066 -11.16278,-0.65491 -11.49971,-0.8983 -0.33694,-0.2434 -0.49621,-2.49561 -0.35393,-5.0049 0.20368,-3.59245 0.53535,-4.63471 1.56015,-4.9027 0.77032,-0.20145 2.0763,-2.27194 3.2,-5.07328 l 1.89851,-4.73292 -2.89169,-0.22792 c -1.59042,-0.12535 -2.89169,-0.41829 -2.89169,-0.65098 0,-0.23268 1.02511,-2.21474 2.27801,-4.40459 1.71727,-3.00149 2.69792,-3.98154 3.98396,-3.98154 1.87771,0 2.63246,-2.15166 2.63246,-7.50467 v -2.87209 h -4.81781 -4.81782 v -4.81781 -4.81782 l 5.00312,-6.2e-4 c 9.25735,-0.001 29.11729,-2.348 35.2071,-4.16044 1.14772,-0.34158 1.2971,0.20571 1.2971,4.75234 v 5.13839 l -8.33852,1.25321 c -4.58619,0.68927 -9.37813,1.40812 -10.64875,1.59746 -2.11564,0.31524 -2.34976,0.63263 -2.77951,3.76802 -0.25811,1.88309 -0.46928,4.36619 -0.46928,5.51802 v 2.09422 l 7.40673,0.21124 7.40673,0.21122 -2.44612,4.07662 -2.44611,4.07661 -6.13058,0.3706 -6.13056,0.3706 -2.05112,5.28021 -2.05112,5.28019 8.96539,0.89445 c 8.553,0.85331 21.58865,3.14495 22.37764,3.93394 0.20444,0.20444 0.2722,2.52103 0.15056,5.14796 l -0.22117,4.77626 z M 30.664862,155.97896 c 10.341887,-7.59164 21.541958,-24.08434 24.582682,-36.19929 0.977063,-3.89285 2.925438,-4.87523 2.940081,-1.48241 0.0048,1.12107 0.501191,3.87278 1.103006,6.11492 0.601814,2.24214 1.098167,4.14082 1.103006,4.21929 0.0048,0.0785 -1.337869,0.24525 -2.983794,0.3706 -2.880895,0.21942 -3.103152,0.42849 -5.954772,5.60164 l -2.962183,5.37372 h 8.165893 8.165893 l 1.789609,3.53161 c 0.984286,1.9424 3.351654,5.60961 5.26082,8.14936 l 3.47121,4.61773 3.155311,-1.84913 c 3.907959,-2.29022 4.136872,-2.29001 4.136872,0.004 0,1.83928 0.04944,1.85301 6.670819,1.85301 h 6.67082 l 0.0052,-10.56213 0.0052,-10.56213 3.138694,3.70601 c 1.726271,2.03831 5.207301,5.65252 7.735621,8.0316 3.46391,3.25945 4.65301,4.90363 4.82444,6.67082 l 0.22745,2.34523 6.85612,0.21312 6.85612,0.21311 V 126.23883 96.138149 l -6.85612,3.716603 -6.85612,3.716598 -0.3706,14.68232 -0.3706,14.68234 -3.26212,-4.07662 c -7.17324,-8.96334 -11.933285,-17.82377 -11.933285,-22.21142 v -2.98945 h -7.125436 -7.125443 l 0.548393,19.74356 c 0.397729,14.31924 0.32395,19.60484 -0.26853,19.23866 -2.486578,-1.53678 -8.785301,-16.19219 -10.14399,-23.60228 -0.499738,-2.7255 -0.464834,-2.7795 1.796455,-2.7795 h 2.306095 v -6.21755 -6.21754 l -9.820928,-0.51463 c -12.265532,-0.64271 -24.278402,-2.16665 -32.289247,-4.096169 -3.389029,-0.816294 -6.320029,-1.484169 -6.513333,-1.484169 -0.193304,0 -0.255561,3.064238 -0.138348,6.809418 l 0.213115,6.80942 3.700963,0.94239 c 2.03553,0.51831 5.451134,1.16106 7.590231,1.42833 3.736864,0.46689 3.872049,0.56249 3.449851,2.43971 -0.911036,4.05076 -7.007938,15.46821 -10.620645,19.8889 -3.390056,4.14823 -10.10558,10.24372 -13.272752,12.04729 -1.038373,0.59131 -0.495486,1.43563 3.571924,5.55521 2.638021,2.67184 4.92812,4.85791 5.089111,4.85791 0.16099,0 1.842748,-1.13784 3.737241,-2.52852 z m -7.580354,-3.2866 -3.537502,-3.5915 2.082961,-1.36257 c 6.256133,-4.09244 14.259365,-13.58692 18.398785,-21.82704 2.728019,-5.43053 4.958492,-12.0432 4.260779,-12.6319 -0.31028,-0.2618 -3.81617,-1.06798 -7.790867,-1.7915 l -7.226721,-1.31548 v -5.18923 c 0,-4.2266 0.199204,-5.112794 1.073841,-4.77716 4.818155,1.8489 20.791209,4.03075 34.318562,4.68777 l 9.820929,0.47699 v 4.70291 4.7029 h -2.644156 c -2.169262,0 -2.575722,0.23296 -2.263125,1.29711 0.209566,0.7134 0.610565,2.63126 0.89111,4.26191 0.960672,5.58384 4.917325,15.24946 8.470497,20.69238 1.954142,2.99344 3.919358,5.66906 4.367148,5.94581 0.584149,0.36102 0.814151,-5.47703 0.814151,-20.66483 v -21.16801 h 5.188415 5.188415 v 2.61885 c 0,4.54307 7.36392,16.96922 14.74957,24.88897 l 3.72397,3.99328 0.0335,-11.11804 c 0.0185,-6.11492 0.24721,-13.38067 0.50837,-16.14612 l 0.47485,-5.02807 4.59423,-2.56925 c 2.52682,-1.41308 4.81639,-2.569233 5.08792,-2.569233 0.27153,0 0.40625,12.424403 0.29937,27.609783 l -0.19432,27.60978 -5.00312,0.21916 c -4.8893,0.21418 -5.00311,0.1774 -5.00311,-1.61706 0,-1.26428 -1.20642,-2.94862 -3.87322,-5.40758 -6.26434,-5.77613 -9.42623,-9.24688 -12.312741,-13.5155 l -2.71469,-4.01452 -0.203215,12.35304 -0.203223,12.35306 h -5.170493 -5.1705 v -2.22361 c 0,-2.72929 -0.669113,-2.76271 -4.96057,-0.24775 l -3.371544,1.97586 -1.417939,-1.79056 c -0.779866,-0.98481 -3.12598,-4.54227 -5.213587,-7.90547 l -3.795647,-6.11492 h -6.98857 c -3.843713,0 -6.869678,-0.25015 -6.724367,-0.5559 3.542477,-7.45364 3.681658,-7.59732 7.359303,-7.59732 h 3.498568 l -0.775586,-2.77951 c -0.426573,-1.52873 -1.172481,-5.1143 -1.657574,-7.96792 -0.837377,-4.926 -0.983278,-5.18842 -2.884718,-5.18842 -1.868341,0 -2.168149,0.48126 -4.467845,7.17181 -4.234969,12.32087 -11.761402,23.68197 -20.514304,30.96621 -2.471668,2.05695 -4.73932,3.7399 -5.039226,3.7399 -0.299907,0 -2.13716,-1.61617 -4.082787,-3.59151 z M 144.15827,129.43075 v -26.85313 l -6.67082,6.63992 -6.67082,6.63991 v 20.21321 20.21321 h 6.67082 6.67082 z m -11.85923,6.24989 v -19.12083 l 2.7795,-2.56996 c 1.52873,-1.41348 3.86352,-3.54482 5.18842,-4.73631 l 2.40891,-2.16635 v 23.85714 23.85714 h -5.18842 -5.18841 z m 31.30237,3.34645 0.19872,-17.25678 3.15011,0.62335 3.15011,0.62335 v 14.40983 c 0,7.9254 0.18248,14.40982 0.40551,14.40982 0.22303,0 2.89136,-1.36431 5.92962,-3.03181 l 5.5241,-3.0318 v -11.37802 -11.37802 l 3.15011,-0.62335 3.15011,-0.62335 0.19878,17.28442 0.19878,17.28441 6.84264,-0.21293 6.84264,-0.21294 0.19478,-26.12737 0.19479,-26.12738 h -7.05091 c -6.89782,0 -7.0509,0.0376 -7.0509,1.73403 0,1.81762 -2.47491,3.45438 -5.22329,3.45438 -1.31528,0 -1.44753,-0.54176 -1.44753,-5.92961 0,-3.261292 -0.2168,-5.92962 -0.48178,-5.92962 -0.26498,0 -2.92922,1.417549 -5.92053,3.15011 -5.22516,3.0264 -5.4391,3.25926 -5.44784,5.92962 -0.01,3.04973 -0.54371,3.29117 -4.34569,1.96579 -1.74452,-0.60814 -2.33421,-1.26352 -2.33421,-2.59421 0,-1.7549 -0.10118,-1.78049 -7.04142,-1.78049 h -7.04142 v 26.31268 26.31267 h 7.028 7.02801 z m -12.03112,-9.02203 v -24.86414 h 5.18842 c 5.0184,0 5.18841,0.0597 5.18841,1.82429 0,1.5568 0.56315,1.99153 3.84054,2.96481 5.52898,1.64194 5.68454,1.58262 5.93978,-2.26499 0.218,-3.28623 0.37521,-3.49325 4.48782,-5.91013 l 4.26192,-2.504614 v 5.910134 c 0,6.65628 -0.14797,6.5345 5.79509,4.7696 3.27739,-0.97328 3.84053,-1.40801 3.84053,-2.96481 0,-1.76451 0.17002,-1.82429 5.18842,-1.82429 h 5.18842 v 24.86414 24.86414 l -5.00312,-0.21917 -5.00311,-0.21916 -0.19836,-17.45377 -0.19836,-17.45377 -4.80476,1.11048 -4.80475,1.11049 v 11.53968 11.53968 l -4.44722,2.44487 -4.44721,2.44487 v -14.06875 -14.06876 l -4.63251,-0.99941 -4.63252,-0.9994 -0.3706,17.42689 -0.3706,17.4269 -5.00311,0.21916 -5.00312,0.21917 z m -16.95618,-27.60594 4.42864,-4.224199 4.41077,1.181802 c 2.42592,0.649997 4.41076,0.910837 4.41076,0.579642 0,-0.331184 -0.68199,-2.193195 -1.51555,-4.13779 l -1.51554,-3.535631 7.25986,-7.300048 7.25987,-7.300056 -8.15014,4.440038 c -4.48258,2.442024 -8.35783,4.205174 -8.61166,3.918114 -0.25384,-0.287061 -1.05693,-2.121729 -1.78463,-4.077042 -0.72771,-1.955306 -1.55693,-3.28947 -1.84273,-2.964809 -0.28578,0.324669 -1.44951,3.312811 -2.58606,6.640319 -1.89943,5.561047 -2.29752,6.154209 -4.92556,7.339288 -3.11943,1.406668 -3.72526,2.546548 -1.35345,2.546548 2.23369,0 2.39959,1.41242 0.73438,6.252444 -0.82436,2.39605 -1.49884,4.47101 -1.49884,4.61102 0,0.80016 1.31866,-0.19126 5.27988,-3.96964 z"
   id="path1" /></svg>
