<?xml version="1.0" encoding="UTF-8" standalone="no"?>
<!-- Generator: Adobe Illustrator 16.0.0, SVG Export Plug-In . SVG Version: 6.00 Build 0)  -->

<svg
   version="1.1"
   id="Layer_1"
   x="0px"
   y="0px"
   width="280px"
   height="280px"
   viewBox="0 0 280 280"
   enable-background="new 0 0 280 280"
   xml:space="preserve"
   sodipodi:docname="bbcus.svg"
   inkscape:version="1.4 (e7c3feb100, 2024-10-09)"
   xmlns:inkscape="http://www.inkscape.org/namespaces/inkscape"
   xmlns:sodipodi="http://sodipodi.sourceforge.net/DTD/sodipodi-0.dtd"
   xmlns="http://www.w3.org/2000/svg"
   xmlns:svg="http://www.w3.org/2000/svg"><defs
   id="defs216276">
	
	
	
</defs><sodipodi:namedview
   id="namedview216274"
   pagecolor="#ffffff"
   bordercolor="#666666"
   borderopacity="1.0"
   inkscape:pageshadow="2"
   inkscape:pageopacity="0.0"
   inkscape:pagecheckerboard="0"
   showgrid="false"
   inkscape:zoom="1.4857143"
   inkscape:cx="147.74038"
   inkscape:cy="185.09615"
   inkscape:window-width="1600"
   inkscape:window-height="824"
   inkscape:window-x="0"
   inkscape:window-y="0"
   inkscape:window-maximized="1"
   inkscape:current-layer="Layer_1"
   inkscape:showpageshadow="2"
   inkscape:deskcolor="#d1d1d1" />
<g
   inkscape:groupmode="layer"
   id="layer2"
   inkscape:label="BG" />
<g
   inkscape:groupmode="layer"
   id="layer1"
   inkscape:label="Logo" /><g
   id="g1"><rect
     style="fill:#e60012;fill-opacity:1;stroke-width:4.52076"
     id="rect1"
     width="280"
     height="280"
     x="0"
     y="0" /></g><path
   style="fill:#ffffff;stroke-width:0.864783;fill-opacity:1"
   d="m 13.147459,130.95794 v -15.5661 h 16.430885 16.430884 v 15.5661 15.5661 H 29.578344 13.147459 Z m 23.443007,8.74668 c 2.220271,-2.74192 2.056377,-5.6959 -0.424297,-7.64721 -1.893219,-1.4892 -1.963301,-1.80498 -0.865579,-3.90007 1.555762,-2.96927 0.306548,-6.43542 -2.736296,-7.59231 -1.228572,-0.4671 -4.154186,-0.84928 -6.501381,-0.84928 h -4.26762 v 11.33671 11.3367 l 6.579731,-0.33226 c 5.628313,-0.28422 6.816248,-0.62434 8.215442,-2.35228 z M 26.11921,135.71424 c 0,-2.76767 0.216006,-3.02674 2.52362,-3.02674 3.633422,0 5.259431,0.82127 5.259431,2.65645 0,1.89719 -2.456712,3.39704 -5.564242,3.39704 -1.959261,0 -2.218809,-0.35405 -2.218809,-3.02675 z m 0,-9.57005 c 0,-2.82844 0.189967,-3.06149 2.290932,-2.81055 3.282018,0.39202 4.705892,3.02226 2.516287,4.6482 -3.058471,2.27114 -4.807219,1.60265 -4.807219,-1.83765 z m 25.078719,4.81375 v -15.5661 h 16.430885 16.430884 v 15.5661 15.5661 H 67.628814 51.197929 Z m 21.051137,10.28204 c 4.213553,-1.91982 4.70955,-7.97141 0.832587,-10.15838 -1.250649,-0.70548 -1.346225,-1.09793 -0.480335,-1.97233 0.594539,-0.60038 1.080979,-2.3658 1.080979,-3.92318 0,-3.59907 -3.23934,-5.47034 -9.469672,-5.47034 h -4.366862 v 11.24219 11.24218 h 5.148012 c 2.831405,0 6.096282,-0.43206 7.255291,-0.96014 z m -8.367644,-3.07551 c -0.31709,-0.31709 -0.576525,-1.7015 -0.576525,-3.07647 0,-2.3977 0.146719,-2.48906 3.587251,-2.23402 4.46575,0.33104 6.418465,2.70671 3.814317,4.64048 -1.732585,1.28657 -5.808369,1.68668 -6.825043,0.67001 z m 0.04601,-9.46659 c -0.342402,-0.34241 -0.622549,-1.72515 -0.622549,-3.07277 0,-1.89969 0.401381,-2.45022 1.786418,-2.45022 2.014392,0 5.138707,1.47016 5.11861,2.40858 -0.04583,2.13795 -4.86829,4.52859 -6.282479,3.11441 z m 24.456169,2.26006 v -15.5661 h 16.430879 16.43088 v 15.5661 15.5661 H 104.81448 88.383597 Z m 24.590019,10.39881 c 2.96929,-1.12893 3.22646,-4.85657 0.27249,-3.9497 -1.07017,0.32855 -3.77638,0.81088 -6.01378,1.07185 -3.68707,0.43008 -4.31471,0.22784 -6.70207,-2.15952 -1.821958,-1.82196 -2.634041,-3.47491 -2.634041,-5.36144 0,-1.88653 0.812083,-3.53949 2.634041,-5.36144 2.38736,-2.38737 3.015,-2.5896 6.70207,-2.15953 2.2374,0.26098 4.91725,0.73642 5.95519,1.05654 1.61811,0.49904 1.81703,0.31377 1.39516,-1.29943 -0.59653,-2.28112 -3.46178,-3.47833 -8.32461,-3.47833 -9.659122,0 -15.65412,9.38966 -10.93594,17.12839 0.958855,1.57269 3.000453,3.40594 4.536878,4.07387 3.267462,1.42045 9.944942,1.64384 13.114612,0.43874 z m 121.96258,0.0289 c -4.33542,-2.20615 -6.45867,-5.68031 -6.45446,-10.56114 0.004,-4.74269 2.34227,-8.65368 6.29504,-10.52939 5.39425,-2.55973 13.59174,-1.41837 13.59174,1.89243 0,1.55681 -0.20231,1.58012 -3.58847,0.41349 -4.31116,-1.48531 -7.60867,-0.90008 -10.61212,1.88344 -1.81948,1.68623 -2.2303,2.85685 -2.2303,6.35529 0,3.75634 0.34087,4.57515 2.74761,6.6003 2.32821,1.95906 3.35122,2.25178 6.70207,1.91769 2.17496,-0.21685 4.83006,-0.6843 5.90023,-1.03877 1.46928,-0.48668 1.94576,-0.3096 1.94576,0.7231 0,3.47374 -9.13387,4.97094 -14.2971,2.34356 z m -108.02936,-1.0518 c 1.78359,-5.64601 9.08731,-21.08115 10.07361,-21.28882 0.70454,-0.14834 2.85663,3.69061 5.69951,10.16691 6.10813,13.91478 5.83219,12.98818 3.86782,12.98818 -1.16974,0 -2.10972,-1.06616 -3.04969,-3.45913 l -1.35879,-3.45913 h -4.81908 c -4.71764,0 -4.85109,0.068 -6.34059,3.23135 -1.75544,3.72813 -5.15553,5.24805 -4.07279,1.82064 z m 13.36375,-8.06123 c 0,-1.08739 -2.85019,-7.36817 -3.34365,-7.36817 -0.30883,0 -1.19123,1.75119 -1.96088,3.89153 l -1.39939,3.89152 h 3.35196 c 1.84358,0 3.35196,-0.18669 3.35196,-0.41488 z m 10.3774,-1.74707 c 0,-10.98033 0.0998,-11.67458 1.67878,-11.67458 1.0129,0 3.15675,1.90456 5.4049,4.80162 l 3.72612,4.80161 3.65754,-4.15303 c 2.01165,-2.28416 3.66555,-4.44489 3.67533,-4.80161 0.01,-0.35672 0.79609,-0.64859 1.74735,-0.64859 1.64415,0 1.72957,0.57653 1.72957,11.67458 0,11.09806 -0.0854,11.67457 -1.72957,11.67457 -1.61575,0 -1.72956,-0.57651 -1.72956,-8.76079 v -8.7608 l -3.54089,4.44717 -3.54089,4.44716 -3.59358,-4.51758 -3.59357,-4.51757 -0.24645,8.83121 c -0.22656,8.11866 -0.38355,8.8312 -1.94576,8.8312 -1.60531,0 -1.69932,-0.6458 -1.69932,-11.67457 z m 28.53786,0 v -11.67456 h 6.48587 c 5.90935,0 6.48588,0.15374 6.48588,1.72957 0,1.51992 -0.57653,1.72956 -4.75631,1.72956 h -4.75631 v 3.45913 3.45914 h 4.75631 c 3.6513,0 4.75631,0.30137 4.75631,1.29717 0,0.99582 -1.10501,1.29718 -4.75631,1.29718 h -4.75631 v 3.89152 3.89153 h 4.75631 c 3.6513,0 4.75631,0.30137 4.75631,1.29717 0,1.03774 -1.29718,1.29718 -6.48588,1.29718 h -6.48587 z m 19.21632,0.21619 0.2413,-11.45837 2.93021,-0.27992 c 1.61162,-0.15395 3.85914,-0.0468 4.9945,0.2382 4.99356,1.2533 7.22006,7.27863 3.825,10.35112 -1.61593,1.4624 -1.56406,1.62654 2.22882,7.0523 3.69023,5.27893 3.78322,5.55498 1.87064,5.55351 -1.44778,-8.6e-4 -2.71209,-1.10867 -4.50488,-3.94634 -2.68882,-4.25595 -5.96533,-6.91641 -7.41473,-6.02062 -0.49655,0.30687 -0.90281,2.67533 -0.90281,5.26323 0,4.15119 -0.20664,4.70527 -1.75468,4.70527 -1.68689,0 -1.74534,-0.44259 -1.51337,-11.45838 z m 9.28203,-2.76294 c 1.8888,-2.27587 0.74524,-5.11669 -2.30968,-5.73772 -3.44618,-0.70057 -3.7043,-0.44467 -3.7043,3.67229 0,3.07547 0.17981,3.315 2.48846,3.315 1.36865,0 2.95513,-0.56231 3.52552,-1.24957 z m 12.14647,2.54675 c 0,-11.09805 0.0854,-11.67458 1.72956,-11.67458 1.64416,0 1.72957,0.57653 1.72957,11.67458 0,11.09806 -0.0854,11.67457 -1.72957,11.67457 -1.64415,0 -1.72956,-0.57651 -1.72956,-11.67457 z m 30.41155,10.93596 c 3.78774,-9.70539 9.87759,-22.61054 10.66977,-22.61054 0.57531,0 3.40749,5.25356 6.29374,11.67458 4.59424,10.22082 5.04255,11.67457 3.60023,11.67457 -1.05142,0 -2.28596,-1.25151 -3.41221,-3.45913 -1.73508,-3.40105 -1.8444,-3.45913 -6.51045,-3.45913 -4.72949,0 -4.75047,0.0119 -6.12981,3.45913 -0.96053,2.40062 -1.90665,3.45913 -3.0918,3.45913 -0.93926,0 -1.57802,-0.33237 -1.41947,-0.73861 z m 13.72356,-10.44535 c -0.49197,-0.91925 -1.31589,-2.76773 -1.83095,-4.10773 l -0.93645,-2.43637 -1.62237,3.02674 c -2.41141,4.49878 -2.17277,5.1887 1.79468,5.1887 3.18107,0 3.41049,-0.14774 2.59509,-1.67134 z"
   id="path38" /></svg>
