<?xml version="1.0" encoding="UTF-8" standalone="no"?>
<!-- Generator: Adobe Illustrator 16.0.0, SVG Export Plug-In . SVG Version: 6.00 Build 0)  -->

<svg
   version="1.1"
   id="Layer_1"
   x="0px"
   y="0px"
   width="280px"
   height="280px"
   viewBox="0 0 280 280"
   enable-background="new 0 0 280 280"
   xml:space="preserve"
   sodipodi:docname="ebs1.svg"
   inkscape:version="1.4 (e7c3feb100, 2024-10-09)"
   xmlns:inkscape="http://www.inkscape.org/namespaces/inkscape"
   xmlns:sodipodi="http://sodipodi.sourceforge.net/DTD/sodipodi-0.dtd"
   xmlns="http://www.w3.org/2000/svg"
   xmlns:svg="http://www.w3.org/2000/svg"><defs
   id="defs9" /><sodipodi:namedview
   id="namedview9"
   pagecolor="#ffffff"
   bordercolor="#000000"
   borderopacity="0.25"
   inkscape:showpageshadow="2"
   inkscape:pageopacity="0.0"
   inkscape:pagecheckerboard="0"
   inkscape:deskcolor="#d1d1d1"
   inkscape:zoom="2.2214286"
   inkscape:cx="138.64952"
   inkscape:cy="151.02894"
   inkscape:window-width="1600"
   inkscape:window-height="833"
   inkscape:window-x="0"
   inkscape:window-y="0"
   inkscape:window-maximized="1"
   inkscape:current-layer="Layer_1" />
<rect
   y="-0.042"
   fill-rule="evenodd"
   clip-rule="evenodd"
   fill="#58489D"
   width="280"
   height="280"
   id="rect1"
   style="fill:#54a9de;fill-opacity:1" />

<path
   style="fill:#ffffff"
   d="m 160.82104,167.22152 -4.59716,-0.74309 -0.18111,-10.39325 c -0.17298,-9.92653 -0.12551,-10.37559 1.05724,-10.0002 7.60175,2.4127 21.26295,3.11619 25.56969,1.31671 5.03781,-2.10493 6.77641,-5.42058 4.10841,-7.83508 -0.71364,-0.64584 -5.6638,-2.76411 -11.00035,-4.70728 -5.33655,-1.94316 -10.87564,-4.3495 -12.30909,-5.34742 -6.31691,-4.39761 -9.25456,-11.16701 -8.72681,-20.10965 0.62797,-10.640727 5.77108,-18.408377 15.07571,-22.768907 l 4.79496,-2.24712 10.5078,0.0872 c 7.96028,0.0661 11.62234,0.38449 15.10497,1.31348 l 4.59716,1.22628 0.18203,9.7368 c 0.16961,9.072767 0.10243,9.712257 -0.98511,9.376917 -4.05172,-1.24932 -14.30584,-2.46773 -18.67949,-2.21951 -5.50741,0.31256 -7.98416,1.44193 -9.2487,4.21727 -0.60266,1.32271 -0.56246,2.01288 0.19409,3.33207 1.02081,1.77996 1.11894,1.82495 14.08895,6.4584 11.86433,4.23845 15.81958,7.53307 18.37018,15.30185 1.71328,5.21844 1.19502,14.26503 -1.10317,19.25662 -3.38178,7.3451 -10.1306,12.55185 -18.96997,14.63544 -5.00479,1.17971 -20.85182,1.24371 -27.85023,0.11248 z m 79.79362,-31.60976 v -32.50851 h -6.23901 -6.23901 v -8.865947 -8.86596 h 17.40355 17.40354 v 41.374467 41.37446 H 251.77919 240.61466 Z M 14.040195,126.41744 V 86.028083 h 26.597871 26.597872 v 9.52269 9.522697 H 51.474236 35.712535 v 6.56737 6.56738 h 13.46312 13.46312 v 8.53759 8.53758 h -13.46312 -13.46312 v 6.56738 6.56738 h 15.761701 15.761702 v 9.19432 9.19433 H 40.638066 14.040195 Z m 68.300706,0 V 86.028083 l 17.896099,0.0114 c 23.54751,0.015 28.94049,1.11848 35.63797,7.29201 4.59647,4.23687 6.40384,8.268017 6.73677,15.025657 0.35563,7.21847 -1.22167,11.80949 -5.37147,15.63464 l -2.84503,2.62246 2.78545,1.96336 c 1.88949,1.33184 3.39334,3.20139 4.67531,5.81224 1.65915,3.37898 1.88913,4.57045 1.88382,9.7595 -0.005,5.1176 -0.23967,6.35476 -1.74725,9.22069 -1.97307,3.75082 -6.40351,8.11608 -10.20627,10.0561 -5.83465,2.97661 -9.42041,3.38066 -30.00225,3.38066 H 82.340901 Z m 33.150049,21.70977 c 6.65145,-2.00179 8.98068,-7.09973 4.95991,-10.85569 -2.36548,-2.20969 -6.37756,-3.3016 -12.13127,-3.3016 h -4.30635 v 7.11466 c 0,3.91306 0.19702,7.31167 0.43783,7.55248 0.78532,0.78532 7.8151,0.46067 11.03988,-0.50985 z m 1.57145,-30.28974 c 5.4199,-2.16861 6.96381,-6.77926 3.38846,-10.11914 -2.36548,-2.20969 -6.37756,-3.3016 -12.13127,-3.3016 h -4.30635 v 7.17596 c 0,6.26675 0.14562,7.21908 1.14929,7.51633 2.04593,0.60592 9.08831,-0.14658 11.89987,-1.27155 z"
   id="path1" /></svg>
