<?xml version="1.0" encoding="UTF-8" standalone="no"?>
<!-- Generator: Adobe Illustrator 16.0.0, SVG Export Plug-In . SVG Version: 6.00 Build 0)  -->

<svg
   version="1.1"
   id="Layer_1"
   x="0px"
   y="0px"
   width="280px"
   height="280px"
   viewBox="0 0 280 280"
   enable-background="new 0 0 280 280"
   xml:space="preserve"
   sodipodi:docname="kbs1.svg"
   inkscape:version="1.4 (e7c3feb100, 2024-10-09)"
   xmlns:inkscape="http://www.inkscape.org/namespaces/inkscape"
   xmlns:sodipodi="http://sodipodi.sourceforge.net/DTD/sodipodi-0.dtd"
   xmlns="http://www.w3.org/2000/svg"
   xmlns:svg="http://www.w3.org/2000/svg"><defs
   id="defs9" /><sodipodi:namedview
   id="namedview9"
   pagecolor="#ffffff"
   bordercolor="#000000"
   borderopacity="0.25"
   inkscape:showpageshadow="2"
   inkscape:pageopacity="0.0"
   inkscape:pagecheckerboard="0"
   inkscape:deskcolor="#d1d1d1"
   inkscape:zoom="2.2214286"
   inkscape:cx="134.14791"
   inkscape:cy="158.68167"
   inkscape:window-width="1600"
   inkscape:window-height="833"
   inkscape:window-x="0"
   inkscape:window-y="0"
   inkscape:window-maximized="1"
   inkscape:current-layer="Layer_1" />
<rect
   y="-0.042"
   fill-rule="evenodd"
   clip-rule="evenodd"
   fill="#58489D"
   width="280"
   height="280"
   id="rect1"
   style="fill:#0075dd;fill-opacity:1" />

<path
   style="fill:#f9f9f9"
   d="m 204.38443,164.38137 -1.4876,-1.59249 v -31.5056 c 0,-33.731293 -0.004,-33.669463 2.53536,-35.028743 0.57351,-0.30693 4.91466,-0.52796 10.3696,-0.52796 h 9.3831 l -5.88269,5.899433 -5.8827,5.89943 5.7574,5.7574 5.7574,5.7574 3.59475,-3.56721 3.59475,-3.5672 v 27.03401 27.03402 h -13.12588 -13.12588 z m 44.14749,-33.53115 V 95.726577 h 10.4423 c 9.7433,0 10.53156,0.0702 11.77568,1.04883 0.73335,0.57686 1.57077,1.90361 1.86093,2.94834 0.71799,2.585193 0.71799,59.667753 0,62.252943 -0.29016,1.04473 -1.12758,2.37148 -1.86093,2.94833 -1.24412,0.97863 -2.03238,1.04884 -11.77568,1.04884 h -10.4423 z m -237.917777,0 V 96.752087 h 7.171351 7.171352 l 0.135391,16.276623 0.135391,16.27662 12.733601,-16.27662 12.733602,-16.276623 h 8.930248 c 4.911637,0 8.930249,0.0807 8.930249,0.17936 0,0.0987 -5.883851,7.419653 -13.075223,16.268893 -7.191373,8.84925 -13.075223,16.21309 -13.075223,16.3641 0,0.151 6.114589,8.09371 13.587977,17.65045 7.473387,9.55674 13.587976,17.45634 13.587976,17.55467 0,0.0983 -4.368969,0.17879 -9.70882,0.17879 h -9.70882 l -12.467784,-17.61448 -12.467783,-17.61448 -0.134833,17.61448 -0.134832,17.61448 h -7.17191 -7.17191 z m 61.017708,0.025 V 96.752077 l 19.100081,0.008 c 20.632298,0.008 23.008208,0.24591 28.064158,2.80795 5.17584,2.622803 8.05447,6.448813 9.24516,12.287843 1.22894,6.02658 -0.2462,11.3228 -4.12504,14.81021 l -2.46577,2.21693 1.41282,0.83458 c 6.45048,3.81039 9.74747,13.70256 7.27738,21.83479 -1.58888,5.23104 -4.35729,8.46287 -9.49891,11.08899 l -4.01564,2.05101 -22.497117,0.1532 -22.497122,0.15319 z m 36.874289,22.75406 c 2.91782,-0.62576 5.35092,-2.11302 6.91901,-4.22935 0.83945,-1.13293 1.07265,-2.20015 1.07265,-4.90873 0,-4.34636 -1.38213,-6.65592 -5.10002,-8.52221 -2.48359,-1.24669 -2.78438,-1.27313 -14.48529,-1.27313 H 84.963451 v 9.74232 9.74233 h 10.486215 c 5.767424,0 11.642824,-0.24805 13.056474,-0.55123 z m 0.1373,-30.30254 c 2.55158,-0.76447 5.00861,-3.50331 5.11154,-5.69778 0.22055,-4.70241 -0.66281,-6.86937 -3.52598,-8.64947 -1.85872,-1.15562 -2.3966,-1.20964 -13.600399,-1.36605 l -11.66515,-0.16285 v 8.23872 8.23872 H 95.79998 c 6.80533,0 11.5831,-0.22368 12.84346,-0.60129 z m 26.05712,36.2769 v -5.38662 l 18.62798,-0.14644 18.62799,-0.14645 1.9431,-1.48264 c 5.13106,-3.91514 5.06213,-12.50984 -0.12786,-15.94441 -2.74657,-1.81759 -6.22825,-2.31397 -16.23058,-2.31397 -9.37258,0 -11.99558,-0.44514 -16.72012,-2.8375 -2.86185,-1.44915 -5.87651,-4.69755 -7.30145,-7.86757 -1.42609,-3.17257 -1.51299,-10.40295 -0.1719,-14.30218 1.91115,-5.55664 7.00173,-9.981843 13.3821,-11.632943 2.49496,-0.64564 6.66078,-0.79084 22.68936,-0.79084 h 19.63329 v 5.383913 5.38392 h -17.32498 c -16.95583,0 -17.37309,0.0246 -19.58282,1.1537 -4.36048,2.22809 -5.7399,6.40123 -3.49905,10.58563 2.03955,3.80849 3.2236,4.1546 14.24841,4.16494 14.07137,0.0132 20.1185,1.69129 25.50489,7.07769 3.81627,3.81627 4.98392,7.07741 4.99962,13.96351 0.012,5.24237 -0.0484,5.5339 -1.93407,9.34879 -2.2636,4.57939 -5.70151,7.75427 -10.49116,9.68848 -2.89529,1.16922 -3.31102,1.19183 -24.6089,1.33846 l -21.66385,0.14915 z"
   id="path1" /></svg>
