<?xml version="1.0" encoding="UTF-8" standalone="no"?>
<!-- Generator: Adobe Illustrator 16.0.0, SVG Export Plug-In . SVG Version: 6.00 Build 0)  -->

<svg
   version="1.1"
   id="Layer_1"
   x="0px"
   y="0px"
   width="280px"
   height="280px"
   viewBox="0 0 280 280"
   enable-background="new 0 0 280 280"
   xml:space="preserve"
   sodipodi:docname="ebs1.svg"
   inkscape:version="1.4 (e7c3feb100, 2024-10-09)"
   xmlns:inkscape="http://www.inkscape.org/namespaces/inkscape"
   xmlns:sodipodi="http://sodipodi.sourceforge.net/DTD/sodipodi-0.dtd"
   xmlns="http://www.w3.org/2000/svg"
   xmlns:svg="http://www.w3.org/2000/svg"><defs
   id="defs23" /><sodipodi:namedview
   id="namedview23"
   pagecolor="#ffffff"
   bordercolor="#000000"
   borderopacity="0.25"
   inkscape:showpageshadow="2"
   inkscape:pageopacity="0.0"
   inkscape:pagecheckerboard="0"
   inkscape:deskcolor="#d1d1d1"
   inkscape:zoom="2.2535714"
   inkscape:cx="105.1664"
   inkscape:cy="138.22504"
   inkscape:window-width="1600"
   inkscape:window-height="833"
   inkscape:window-x="0"
   inkscape:window-y="0"
   inkscape:window-maximized="1"
   inkscape:current-layer="Layer_1" />
<rect
   y="-0.042"
   fill-rule="evenodd"
   clip-rule="evenodd"
   fill="#4168B2"
   width="280"
   height="280"
   id="rect1"
   style="fill:#ff7202;fill-opacity:1" />

<path
   style="fill:#f9f9f9;stroke-width:0.681921"
   d="m 165.57969,180.615 -5.79632,-0.76808 -0.19007,-9.42858 c -0.17676,-8.76882 -0.10518,-9.40285 1.02288,-9.06079 6.65446,2.01776 20.39039,2.47797 24.36711,0.81638 2.76845,-1.15673 4.74383,-3.89619 4.15263,-5.75889 -0.61618,-1.94141 -2.39201,-2.87077 -12.64549,-6.61792 -8.17734,-2.98842 -9.5943,-3.74773 -12.68184,-6.79575 -4.59864,-4.53981 -6.003,-8.61577 -5.60015,-16.25364 0.69541,-13.18466 10.08218,-22.61358 23.36082,-23.46576 4.89379,-0.31406 14.53242,0.65856 19.98176,2.01633 l 2.89816,0.72212 v 8.79701 c 0,8.77144 -0.005,8.79599 -1.53432,8.44857 -6.34682,-1.44133 -8.40425,-1.6919 -14.01324,-1.70664 -6.81069,-0.0179 -9.70609,0.88675 -11.08512,3.4635 -0.97909,1.82944 -0.30899,4.46931 1.36138,5.36327 0.71914,0.38487 4.9349,2.03487 9.36836,3.66667 13.3489,4.91327 15.82237,6.63691 18.74422,13.06192 2.32748,5.11801 2.23677,14.25344 -0.19327,19.46586 -2.41202,5.17376 -5.26335,8.22049 -10.11162,10.8046 -7.45647,3.97425 -17.77776,5.03571 -31.40588,3.22982 z M 27.149761,142.68223 v -37.50564 h 24.20819 24.208189 v 8.52401 8.52401 H 60.87925 46.192367 l 0.196066,6.30777 0.196072,6.30776 12.445055,0.18587 12.445055,0.18586 v 7.82671 7.8267 H 58.85908 46.243545 v 6.13729 6.13729 H 60.904842 75.56614 v 8.52401 8.52401 H 51.357951 27.149761 Z m 63.418637,0 v -37.50564 l 16.536582,0.0119 c 18.31654,0.0131 23.41998,0.68473 29.22925,3.84653 6.20614,3.3778 9.50817,8.77221 10.00255,16.34078 0.42563,6.51609 -0.97906,10.66664 -4.9184,14.53281 l -2.99907,2.94337 2.8027,2.1377 c 7.82874,5.97117 8.68474,18.75262 1.78116,26.59549 -6.24345,7.09294 -12.37623,8.57467 -35.55723,8.59094 l -16.877542,0.0119 z m 32.471362,19.83452 c 5.18101,-2.35277 6.44407,-6.25507 3.10527,-9.59387 -2.35843,-2.35843 -5.91768,-3.41262 -11.53892,-3.41763 l -4.26201,-0.004 v 7.16016 7.16017 l 4.94393,-0.015 c 3.34649,-0.0102 5.85115,-0.42696 7.75173,-1.29005 z m 0.8594,-27.97504 c 8.87007,-4.52517 2.93769,-12.99902 -9.10037,-12.99902 -4.36059,0 -4.45469,0.15878 -4.45469,7.51725 0,4.68993 0.25479,6.80544 0.8524,7.07757 1.79684,0.81818 9.98791,-0.21084 12.70266,-1.5958 z m 114.40989,35.99222 c -0.24516,-4.55957 -0.44575,-16.83414 -0.44575,-27.27684 0,-10.44269 -0.1928,-18.98672 -0.42844,-18.98672 -0.23563,0 -2.10983,0.962 -4.16488,2.13778 -3.02861,1.7328 -3.84972,1.95887 -4.33436,1.19336 -0.80686,-1.27448 -4.23209,-11.55202 -3.92874,-11.78835 0.13249,-0.10321 4.18634,-2.2318 9.00857,-4.73019 l 8.7677,-4.54254 h 7.76888 7.7689 v 36.1418 36.14181 h -9.78307 -9.78305 z"
   id="path1" /></svg>
