<?xml version="1.0" encoding="UTF-8" standalone="no"?>
<!-- Generator: Adobe Illustrator 16.0.0, SVG Export Plug-In . SVG Version: 6.00 Build 0)  -->

<svg
   version="1.1"
   id="Layer_1"
   x="0px"
   y="0px"
   width="280px"
   height="280px"
   viewBox="0 0 280 280"
   enable-background="new 0 0 280 280"
   xml:space="preserve"
   sodipodi:docname="ebs2.svg"
   inkscape:version="1.4 (e7c3feb100, 2024-10-09)"
   xmlns:inkscape="http://www.inkscape.org/namespaces/inkscape"
   xmlns:sodipodi="http://sodipodi.sourceforge.net/DTD/sodipodi-0.dtd"
   xmlns="http://www.w3.org/2000/svg"
   xmlns:svg="http://www.w3.org/2000/svg"><defs
   id="defs9" /><sodipodi:namedview
   id="namedview9"
   pagecolor="#ffffff"
   bordercolor="#000000"
   borderopacity="0.25"
   inkscape:showpageshadow="2"
   inkscape:pageopacity="0.0"
   inkscape:pagecheckerboard="0"
   inkscape:deskcolor="#d1d1d1"
   inkscape:zoom="2.2214286"
   inkscape:cx="147.20257"
   inkscape:cy="138.8746"
   inkscape:window-width="1600"
   inkscape:window-height="833"
   inkscape:window-x="0"
   inkscape:window-y="0"
   inkscape:window-maximized="1"
   inkscape:current-layer="Layer_1" />
<rect
   y="-0.042"
   fill-rule="evenodd"
   clip-rule="evenodd"
   fill="#58489D"
   width="280"
   height="280"
   id="rect1"
   style="fill:#ff7202;fill-opacity:1" />

<path
   style="fill:#000000"
   id="path1" /><path
   style="fill:#ffffff"
   d="m 156.92612,177.15614 c -0.56322,-0.12107 -2.79047,-0.41475 -4.94945,-0.65261 l -3.92543,-0.43248 v -9.76015 -9.76016 l 3.88294,0.90262 c 13.76496,3.19977 26.15511,1.05571 26.15511,-4.52603 0,-2.59559 -1.21992,-3.34683 -11.6541,-7.17673 -11.70433,-4.29611 -14.34553,-6.1349 -17.59425,-12.24898 -1.63274,-3.07281 -1.81319,-4.12869 -1.80835,-10.58159 0.006,-8.17026 1.0723,-11.19567 5.86371,-16.639 5.64255,-6.41028 12.98629,-9.03387 23.47277,-8.38578 7.03498,0.43478 13.64373,1.44911 16.48853,2.5307 1.57932,0.60046 1.61608,0.80631 1.61608,9.05109 0,4.64016 -0.15681,8.59346 -0.34847,8.78512 -0.19165,0.19165 -2.57251,-0.0922 -5.29079,-0.63082 -7.47657,-1.48143 -16.71876,-1.47652 -19.43945,0.0103 -2.48057,1.35562 -3.44848,3.8977 -2.37835,6.24639 0.54254,1.19075 2.65921,2.23346 9.1322,4.49872 13.65216,4.77765 17.31838,7.11201 20.48083,13.04059 1.39805,2.62087 1.59879,3.94007 1.59879,10.5067 0,6.8298 -0.17177,7.85929 -1.89771,11.37387 -3.12745,6.3685 -9.39349,10.95834 -18.03206,13.20841 -3.48055,0.90657 -18.09635,1.34411 -21.37255,0.63981 z M 13.562705,137.93905 V 99.70881 h 24.917927 24.917927 v 8.87488 8.87488 H 48.379534 33.36051 v 6.14414 6.14415 h 12.970975 12.970976 v 8.19219 8.1922 H 46.331485 33.36051 v 6.14415 6.14414 h 15.019024 15.019025 v 8.87488 8.87488 H 38.480632 13.562705 Z M 77.7349,137.88355 V 99.59779 l 19.285793,0.2641 c 18.442107,0.25255 19.479917,0.337 23.723227,1.93035 3.24497,1.21848 5.46295,2.67776 8.25356,5.43029 4.92099,4.85385 6.38071,8.85823 5.93955,16.29375 -0.35619,6.00344 -1.45361,8.50377 -5.39441,12.29045 -2.5847,2.48361 -2.68561,2.71315 -1.37555,3.12895 2.3724,0.75297 6.2101,5.89119 7.36354,9.85891 2.89939,9.97355 -1.86517,19.88123 -11.73341,24.39906 -5.56567,2.54805 -9.64762,2.97566 -28.405723,2.97566 H 77.7349 Z m 33.90839,19.89636 c 5.7234,-2.59863 5.82683,-8.41088 0.20143,-11.31989 -2.35528,-1.21796 -9.34414,-2.06094 -11.857244,-1.4302 -1.75959,0.44163 -1.77209,0.49282 -1.77209,7.25859 v 6.81383 l 5.290794,-0.015 c 3.70745,-0.0105 6.14259,-0.40174 8.13711,-1.30733 z m 0,-27.99 c 4.23336,-1.92209 5.55663,-5.48586 3.25639,-8.76992 -1.76061,-2.51362 -4.97638,-3.70612 -11.00907,-4.08249 l -5.675224,-0.35406 v 7.2644 7.2644 l 5.290794,-0.015 c 3.70745,-0.0105 6.14259,-0.40174 8.13711,-1.30733 z m 99.10877,45.75262 -3.86077,-0.39725 8.50848,-10.24024 c 4.67966,-5.63213 13.57177,-16.31966 19.76024,-23.75006 6.18847,-7.4304 11.556,-14.31002 11.92784,-15.28803 1.49051,-3.92033 -2.07027,-8.72964 -7.06326,-9.5399 -3.41803,-0.55466 -7.66291,0.87118 -9.66022,3.24485 -2.35568,2.79957 -2.39579,6.9944 -0.0992,10.37856 l 1.6573,2.44217 -5.49093,6.3573 c -3.02,3.49652 -5.57046,6.44673 -5.66767,6.55604 -0.0972,0.1093 -1.89757,-1.37399 -4.00078,-3.2962 -5.33319,-4.87425 -8.05202,-10.51594 -8.1506,-16.91287 -0.0649,-4.21393 0.22448,-5.38218 2.4478,-9.88075 1.49009,-3.015 3.6752,-6.14414 5.34217,-7.65014 13.65,-12.33196 40.41413,-8.40665 47.73434,7.00085 2.33533,4.91539 2.59775,11.84173 0.62788,16.57283 -2.08102,4.99809 -8.99166,15.31389 -15.30231,22.84242 l -5.15021,6.14415 9.55627,0.18941 9.55626,0.18942 v 7.83211 7.83211 l -24.40591,-0.11477 c -13.42325,-0.0631 -26.14326,-0.29352 -28.26668,-0.51201 z"
   id="path2" /></svg>
