<?xml version="1.0" encoding="UTF-8" standalone="no"?>
<!-- Generator: Adobe Illustrator 16.0.0, SVG Export Plug-In . SVG Version: 6.00 Build 0)  -->

<svg
   version="1.1"
   id="Layer_1"
   x="0px"
   y="0px"
   width="280px"
   height="280px"
   viewBox="0 0 280 280"
   enable-background="new 0 0 280 280"
   xml:space="preserve"
   sodipodi:docname="ebs2.svg"
   inkscape:version="1.4 (e7c3feb100, 2024-10-09)"
   xmlns:inkscape="http://www.inkscape.org/namespaces/inkscape"
   xmlns:sodipodi="http://sodipodi.sourceforge.net/DTD/sodipodi-0.dtd"
   xmlns="http://www.w3.org/2000/svg"
   xmlns:svg="http://www.w3.org/2000/svg"><defs
   id="defs216276">
	
	
	
</defs><sodipodi:namedview
   id="namedview216274"
   pagecolor="#ffffff"
   bordercolor="#666666"
   borderopacity="1.0"
   inkscape:pageshadow="2"
   inkscape:pageopacity="0.0"
   inkscape:pagecheckerboard="0"
   showgrid="false"
   inkscape:zoom="2.1011173"
   inkscape:cx="163.72242"
   inkscape:cy="159.67695"
   inkscape:window-width="1600"
   inkscape:window-height="833"
   inkscape:window-x="0"
   inkscape:window-y="0"
   inkscape:window-maximized="1"
   inkscape:current-layer="layer1"
   inkscape:showpageshadow="2"
   inkscape:deskcolor="#d1d1d1" />
<g
   inkscape:groupmode="layer"
   id="layer2"
   inkscape:label="BG" /><rect
   style="fill:#81c341;fill-opacity:1;stroke-width:4.52076"
   id="rect1"
   width="280"
   height="280"
   x="0"
   y="0" />
<g
   inkscape:groupmode="layer"
   id="layer1"
   inkscape:label="Logo"><path
     style="fill:#f9f9f9;stroke-width:0.62813"
     d="m 155.61508,166.36435 c -2.44517,-0.25804 -5.34242,-0.66611 -6.43833,-0.90682 l -1.99259,-0.43764 v -9.4453 -9.4453 l 1.41329,0.3991 c 4.98601,1.408 13.85034,2.22305 18.76254,1.72515 7.85555,-0.79623 11.37594,-3.20767 10.39405,-7.11981 -0.49902,-1.9883 -2.44349,-3.02469 -12.63975,-6.73695 -9.73049,-3.54268 -12.8102,-5.37359 -15.4206,-9.16768 -2.93205,-4.26159 -3.95574,-8.35798 -3.65148,-14.61176 0.54988,-11.302328 6.97366,-19.611539 17.67419,-22.861726 3.61565,-1.098221 5.41749,-1.257783 11.31473,-1.001979 3.85783,0.167342 9.62883,0.822133 12.82445,1.455092 l 5.8102,1.150834 v 8.998062 8.998067 l -1.41329,-0.30131 c -7.06848,-1.50696 -9.78266,-1.8417 -15.23216,-1.87858 -5.15685,-0.0349 -6.64197,0.1757 -8.29609,1.17643 -2.76659,1.67375 -3.85142,4.38035 -2.62877,6.55865 0.7521,1.33996 2.81781,2.32418 11.35454,5.40994 5.73935,2.07459 11.57178,4.572 12.96095,5.5498 5.1557,3.62895 7.69936,9.24321 7.76974,17.14909 0.0771,8.65753 -2.48287,14.3763 -8.70637,19.44957 -7.01702,5.72012 -17.77265,7.59273 -33.85925,5.89507 z M 10.879968,127.11784 V 88.487853 h 25.1252 25.12519 v 8.793819 8.793818 h -15.07511 -15.07512 v 6.59537 6.59536 h 13.19073 13.19072 v 7.85162 7.85163 h -13.19072 -13.19073 v 6.59536 6.59537 h 15.07512 15.07511 v 8.79382 8.79381 h -25.12519 -25.1252 z m 65.325512,0 V 88.487853 h 16.98599 c 22.86147,0 27.72784,1.004579 34.32526,7.085867 1.5512,1.429842 3.57215,4.024352 4.49102,5.76558 1.48621,2.81635 1.67071,3.85933 1.67114,9.44717 4.4e-4,5.79285 -0.1448,6.5436 -1.86781,9.65451 -1.02757,1.85527 -2.78659,4.07363 -3.90894,4.92969 l -2.04065,1.55647 3.39502,3.10286 c 4.35807,3.98303 5.68241,7.26421 5.66973,14.04735 -0.0115,6.15916 -1.4241,9.63225 -5.62716,13.8353 -6.42294,6.42294 -12.73806,7.78255 -36.291125,7.81327 l -16.802475,0.0219 z m 34.51107,20.11882 c 7.96804,-4.12044 4.40971,-11.85873 -6.07602,-13.2135 -1.80703,-0.23347 -4.42162,-0.23254 -5.8102,0.002 l -2.524692,0.42655 v 7.13216 7.13218 l 2.669552,0.19314 c 3.74296,0.27081 9.59545,-0.56288 11.74136,-1.67258 z m -0.13014,-28.49414 c 1.4632,-0.75727 3.12018,-2.07861 3.68217,-2.93632 1.3863,-2.11576 0.70704,-5.51347 -1.43984,-7.2022 -2.46994,-1.94286 -7.72565,-3.24454 -12.23712,-3.03078 l -3.971917,0.18821 -0.180267,6.5529 c -0.09915,3.60409 -0.02418,6.9597 0.166624,7.4569 0.563011,1.46719 10.58225,0.72995 13.98035,-1.02871 z m 103.17953,41.81625 v -4.57373 l 4.94198,-5.01165 c 13.05028,-13.23425 29.77783,-31.46753 30.91643,-33.69939 2.81587,-5.51956 2.02609,-11.3765 -1.79299,-13.29662 -7.29239,-3.6664 -13.96527,0.9825 -13.96527,9.7294 v 2.41879 h -10.36414 -10.36414 l 0.007,-3.61175 c 0.0254,-12.2943 7.58821,-22.112334 19.73345,-25.617895 4.62135,-1.333888 13.78503,-1.512278 18.98077,-0.369499 12.46235,2.741037 20.32254,11.967692 20.32254,23.855534 0,10.23556 -2.58482,15.02773 -15.42116,28.59028 l -9.58771,10.13015 11.71927,0.31407 11.71927,0.31406 v 7.53756 7.53756 l -28.42288,0.16343 -28.42288,0.16344 z"
     id="path1" /></g></svg>
