<?xml version="1.0" encoding="UTF-8" standalone="no"?>
<!-- Generator: Adobe Illustrator 16.0.0, SVG Export Plug-In . SVG Version: 6.00 Build 0)  -->

<svg
   version="1.1"
   id="Layer_1"
   x="0px"
   y="0px"
   width="280px"
   height="280px"
   viewBox="0 0 280 280"
   enable-background="new 0 0 280 280"
   xml:space="preserve"
   sodipodi:docname="educao.svg"
   inkscape:version="1.4 (e7c3feb100, 2024-10-09)"
   xmlns:inkscape="http://www.inkscape.org/namespaces/inkscape"
   xmlns:sodipodi="http://sodipodi.sourceforge.net/DTD/sodipodi-0.dtd"
   xmlns="http://www.w3.org/2000/svg"
   xmlns:svg="http://www.w3.org/2000/svg"><defs
   id="defs5011" /><sodipodi:namedview
   id="namedview5009"
   pagecolor="#ffffff"
   bordercolor="#000000"
   borderopacity="0.25"
   inkscape:showpageshadow="2"
   inkscape:pageopacity="0.0"
   inkscape:pagecheckerboard="0"
   inkscape:deskcolor="#d1d1d1"
   showgrid="false"
   inkscape:zoom="1.0442452"
   inkscape:cx="143.16561"
   inkscape:cy="20.589034"
   inkscape:window-width="1276"
   inkscape:window-height="811"
   inkscape:window-x="26"
   inkscape:window-y="13"
   inkscape:window-maximized="0"
   inkscape:current-layer="Layer_1"
   inkscape:pageshadow="2"
   showguides="true" />


<rect
   y="0"
   fill-rule="evenodd"
   clip-rule="evenodd"
   fill="#164E86"
   width="280"
   height="280"
   id="rect4994-7"
   style="fill:#eb8d1b;fill-opacity:1;stroke:none;stroke-width:0.999999;stroke-opacity:1"
   x="0" /><path
   style="fill:#f9f9f9"
   d="m 109.16921,170.68652 v -8 h 2.99999 c 2.88888,0 3,0.16667 3,4.5 v 4.5 h 26 26 v -4.5 c 0,-4.33333 0.11111,-4.5 3,-4.5 h 3 v 8 8 h -32 -31.99999 z m 105.49999,-4 c -0.8714,-1.40996 0.31025,-2.98563 2.30901,-3.07895 0.9472,-0.0442 1.16588,-0.29256 0.49716,-0.56461 -0.6566,-0.26711 -0.94596,-1.13158 -0.64301,-1.92105 0.30295,-0.78946 0.0322,-1.43539 -0.60163,-1.43539 -0.63384,0 -2.25699,-1.10455 -3.60699,-2.45455 -5.48072,-5.48071 -1.18637,-16.54545 6.42148,-16.54545 3.63208,0 8.12398,1.89097 8.12398,3.41997 0,1.70659 -3.9175,3.74099 -5.95718,3.09363 -1.74655,-0.55434 -5.04282,1.69122 -5.04282,3.43539 0,1.70473 3.07978,3.2478 5.34666,2.67885 1.66425,-0.4177 2.93443,0.0253 4.2543,1.48372 1.84949,2.04367 1.8415,2.11174 -0.46754,3.98148 -1.44569,1.17065 -2.11678,2.50794 -1.7449,3.47706 1.10257,2.87324 -1.18796,5.4299 -4.86469,5.4299 -1.87319,0 -3.68392,-0.45 -4.02383,-1 z m -80.19745,-7.15833 c -1.2086,-0.60522 -2.94793,-2.68192 -3.86519,-4.6149 -1.37081,-2.88878 -1.46837,-4.17991 -0.54795,-7.252 1.44962,-4.83841 3.40938,-6.3738 8.20657,-6.42951 l 3.89767,-0.0453 0.003,-4.25 c 0.003,-4.18987 0.0527,-4.25 3.50318,-4.25 h 3.5 v 13.5 13.5 h -3.375 c -1.85625,0 -4.66875,0.21197 -6.25,0.47103 -1.58125,0.25907 -3.86386,-0.0242 -5.07245,-0.62936 z m 7.51442,-9.09735 c 0.38222,-3.32297 -2.22299,-4.76687 -4.49729,-2.49257 -2.18797,2.18797 -0.81911,5.96046 2.01621,5.55655 1.52164,-0.21677 2.25821,-1.12638 2.48108,-3.06398 z m 14.68303,9.10095 c -3.65292,-1.99799 -4.5,-4.07549 -4.5,-11.0364 v -6.80887 h 3 c 2.96141,0 3,0.0692 3,5.37756 0,6.55088 2.31529,9.55354 3.98342,5.16603 0.55912,-1.47058 1.01658,-4.44449 1.01658,-6.60869 0,-3.70544 0.17493,-3.9349 3,-3.9349 h 3 v 6.57693 c 0,5.93589 -0.2849,6.86182 -2.92308,9.49999 -3.04806,3.04806 -6.17994,3.62635 -9.57692,1.76835 z m 19.50114,-0.55604 c -1.92437,-0.98408 -4.0941,-3.04276 -4.82163,-4.57484 -3.96628,-8.35249 7.0437,-17.44891 14.66143,-12.11324 2.19025,1.53411 2.21258,1.68223 0.53323,3.53788 -1.24388,1.37448 -2.52245,1.76768 -4.40411,1.3544 -1.7868,-0.39245 -3.09204,-0.0514 -4.00273,1.04594 -1.97818,2.38355 0.0293,4.96063 3.8642,4.96063 1.69927,0 3.87876,0.7875 4.84331,1.75 1.54709,1.54381 1.57962,1.92411 0.27605,3.22768 -2.43812,2.43812 -7.09416,2.78321 -10.94975,0.81155 z m 17.48944,0.50489 c -6.22579,-3.29859 -7.40478,-11.03376 -2.4387,-15.99985 2.78319,-2.78318 3.45582,-2.99653 7.63958,-2.42308 2.52322,0.34585 5.64987,0.62881 6.94811,0.62881 2.29612,0 2.36043,0.23243 2.36043,8.53139 0,5.95356 -0.3777,8.64745 -1.25,8.91553 -3.46778,1.0657 -11.50603,1.27619 -13.25942,0.3472 z m 7.50942,-8.68713 c 0,-3.23366 -2.43995,-4.81668 -4.62675,-3.00179 -1.44498,1.19922 -1.83674,4.09798 -0.70659,5.22814 0.36667,0.36666 1.71667,0.66666 3,0.66666 1.90675,0 2.33334,-0.5289 2.33334,-2.89301 z m 32.38811,8.93713 c -2.94586,-1.224 -6.38811,-5.86562 -6.38811,-8.61388 0,-3.67079 1.71713,-7.19879 4.34032,-8.91757 1.91482,-1.25464 3.83119,-1.44834 9.04464,-0.91421 l 6.61504,0.67773 v 8.86191 8.8619 l -3.75,0.0136 c -2.0625,0.007 -4.65,0.21487 -5.75,0.4608 -1.1,0.24593 -2.95035,0.0523 -4.11189,-0.43034 z m 6.97351,-7.54412 c 1.29559,-3.37623 -2.34791,-6.58619 -4.98837,-4.3948 -1.69187,1.40412 -1.75493,3.11312 -0.17325,4.6948 1.66442,1.66443 4.47038,1.50134 5.16162,-0.3 z m 15.63838,7.79629 c -0.825,-0.30019 -2.7375,-1.69886 -4.25,-3.10814 -3.63222,-3.38434 -3.77591,-8.88393 -0.33659,-12.88238 2.0659,-2.40176 3.15831,-2.80577 7.58659,-2.80577 4.42827,0 5.52068,0.40401 7.58658,2.80577 4.59933,5.34704 2.48312,13.19643 -4.24771,15.75549 -2.68847,1.02215 -4.03818,1.0722 -6.33887,0.23503 z m 5.80409,-9.41854 c 0.32391,-2.79313 -1.63161,-4.2649 -4.30409,-3.23937 -1.53387,0.5886 -2.06781,4.46049 -0.79116,5.73714 1.62974,1.62973 4.79663,0.0773 5.09525,-2.49777 z m -152.80408,-3.87775 v -13 h 9.49999 c 9.41737,0 9.5,0.0213 9.5,2.45229 0,2.30923 -0.36399,2.46964 -6.23996,2.75 -4.92901,0.23517 -6.3079,0.65449 -6.56335,1.99592 -0.26922,1.41374 0.65038,1.74876 5.48996,2 5.48304,0.28465 5.83104,0.4551 6.12478,3.00006 0.30336,2.6284 0.16096,2.70607 -5.5,3 -5.15681,0.26774 -5.84743,0.55518 -6.13099,2.55173 -0.30356,2.13744 0.009,2.25 6.25,2.25 h 6.56956 v 3 3 h -9.5 -9.49999 z m -92.904393,9.427 c -8.9900403,-7.56462 -3.68498,-22.427 8.00522,-22.427 6.88055,0 10.89138,3.10173 7.57252,5.85613 -0.96949,0.80461 -2.19126,0.77466 -4.5383,-0.11125 -4.04993,-1.52868 -8.02319,0.396 -9.40515,4.55594 -2.05743,6.19323 4.05782,12.11991 9.80406,9.50176 2.02333,-0.9219 2.81959,-0.79259 4.50352,0.73134 l 2.0456,1.85125 -2.29154,1.27198 c -1.26035,0.69959 -4.61952,1.28792 -7.46482,1.30741 -4.13006,0.0283 -5.7899,-0.48342 -8.23111,-2.53756 z m 20.97697,-0.0619 c -2.86213,-3.63861 -2.71145,-8.81719 0.34551,-11.87415 2.0815,-2.08151 3.33429,-2.41107 9,-2.36758 l 6.58191,0.0505 v 8.41304 8.41304 h -6.92742 c -6.29274,0 -7.11731,-0.24141 -9,-2.63486 z m 9.88173,-2.8101 c 0.65957,-0.79473 1.05217,-2.48223 0.87245,-3.75 -0.25827,-1.82188 -0.9556,-2.30505 -3.32676,-2.30505 -2.4209,0 -3.0666,0.47178 -3.34497,2.44398 -0.21206,1.5023 0.34322,2.94719 1.44113,3.75 2.26919,1.65928 2.88199,1.63974 4.35815,-0.13893 z m 10.25524,-2.80505 0.29045,-8.25 6.36522,-0.3007 c 8.8003,-0.41575 10.13478,0.89515 10.13478,9.95569 v 6.84502 h -3 -3 v -6.06956 c 0,-5.72236 -0.12871,-6.05127 -2.25,-5.75 -1.99319,0.28308 -2.28424,0.97586 -2.54991,6.06955 -0.29476,5.65133 -0.35122,5.75001 -3.29044,5.75001 h -2.99054 z m 22.5266,7.00001 c -1.68399,-1.27878 -3.73615,-5.80388 -3.73615,-8.23838 0,-0.747 1.14412,-2.71789 2.54248,-4.37975 2.39358,-2.84461 2.94999,-3.01775 9.5,-2.95611 l 6.95752,0.0655 v 8.37939 8.37939 h -6.80887 c -3.90251,0 -7.51151,-0.53356 -8.45498,-1.25 z m 8.69242,-4.32144 c 1.85909,-1.85908 1.87504,-1.99275 0.53624,-4.49431 -1.68647,-3.1512 -6.96481,-1.86715 -6.96481,1.69431 0,1.40358 2.71568,4.37144 4,4.37144 0.47142,0 1.56428,-0.70715 2.42857,-1.57144 z m 10.57143,-7.49812 c 0,-12.98162 0.0151,-13.0674 2.250003,-12.75 2.18179,0.30987 2.25848,0.70606 2.52987,13.06955 l 0.27988,12.75001 h -2.52988 -2.529873 z m 131.265763,-7.68041 c -0.26386,-0.6875 -0.21236,-1.94682 0.11446,-2.79849 0.47667,-1.24218 1.88925,-1.46625 7.14095,-1.13271 7.31769,0.46475 8.39229,1.01208 6.83083,3.47917 -1.33962,2.11656 -13.30009,2.50038 -14.08624,0.45203 z m -120.59911,-7.91666 c -0.36665,-0.36667 -0.66665,-3.96667 -0.66665,-8 v -7.33334 h 31.99999 32 v 8 8 h -2.94521 c -2.80414,0 -2.95981,-0.22751 -3.25,-4.75 l -0.30479,-4.75 h -25.5 -25.5 l -0.3048,4.75 c -0.26871,4.18772 -0.57451,4.75 -2.58333,4.75 -1.2532,0 -2.57854,-0.3 -2.94521,-0.66666 z"
   id="path1" /></svg>
