<?xml version="1.0" encoding="UTF-8" standalone="no"?>
<!-- Generator: Adobe Illustrator 16.0.0, SVG Export Plug-In . SVG Version: 6.00 Build 0)  -->

<svg
   version="1.1"
   id="Layer_1"
   x="0px"
   y="0px"
   width="280px"
   height="280px"
   viewBox="0 0 280 280"
   enable-background="new 0 0 280 280"
   xml:space="preserve"
   sodipodi:docname="tvsport.svg"
   inkscape:version="1.4 (e7c3feb100, 2024-10-09)"
   xmlns:inkscape="http://www.inkscape.org/namespaces/inkscape"
   xmlns:sodipodi="http://sodipodi.sourceforge.net/DTD/sodipodi-0.dtd"
   xmlns="http://www.w3.org/2000/svg"
   xmlns:svg="http://www.w3.org/2000/svg"><defs
   id="defs216276">
	
	
	
</defs><sodipodi:namedview
   id="namedview216274"
   pagecolor="#ffffff"
   bordercolor="#666666"
   borderopacity="1.0"
   inkscape:pageshadow="2"
   inkscape:pageopacity="0.0"
   inkscape:pagecheckerboard="0"
   showgrid="false"
   inkscape:zoom="0.74285714"
   inkscape:cx="342.59616"
   inkscape:cy="193.84615"
   inkscape:window-width="1600"
   inkscape:window-height="828"
   inkscape:window-x="0"
   inkscape:window-y="0"
   inkscape:window-maximized="1"
   inkscape:current-layer="layer1"
   inkscape:showpageshadow="2"
   inkscape:deskcolor="#d1d1d1" />
<g
   inkscape:groupmode="layer"
   id="layer2"
   inkscape:label="BG" />
<g
   inkscape:groupmode="layer"
   id="layer1"
   inkscape:label="Logo"><g
     id="g1"
     style="fill:#3fe010;fill-opacity:1"><rect
       style="fill:#3fe010;fill-opacity:1;stroke-width:4.52076"
       id="rect1"
       width="280"
       height="280"
       x="0"
       y="0" /></g><path
     style="fill:#ffffff"
     d="m 51.820293,178.83646 c -2.11355,-0.18766 -4.68438,-0.73856 -7.05532,-1.51186 -12.01341,-3.91832 -21.17081,-13.57076 -24.29293,-25.6062 -0.82718,-3.18869 -1.11926,-5.58349 -1.12227,-9.20166 -0.003,-3.5388 0.25194,-5.7034 1.04116,-8.84181 2.51788,-10.01266 9.48062,-18.55065 18.72893,-22.96615 2.59148,-1.23727 5.90665,-2.37288 8.35852,-2.86322 0.84543,-0.16907 3.03575,-0.44537 3.09118,-0.38994 0.0216,0.0216 -0.10323,0.0993 -0.27729,0.17283 -0.17406,0.0735 -0.99026,0.41791 -1.81377,0.76533 -4.4735,1.88729 -7.69485,3.96815 -10.75852,6.94954 -4.74599,4.61855 -8.00494,10.73389 -9.08212,17.04241 -0.59897,3.50785 -0.4838,8.65539 0.26412,11.8045 0.88503,3.72645 2.91671,7.8706 5.3476,10.90781 0.88565,1.10656 2.81839,3.06807 3.9318,3.99033 3.00735,2.49107 6.57725,4.37198 10.28654,5.4198 2.49194,0.70394 4.56631,0.98594 7.30376,0.99292 2.12647,0.005 2.98526,-0.0765 4.99482,-0.47659 3.55984,-0.70869 7.73317,-2.74327 10.64935,-5.19175 1.76448,-1.48149 3.74883,-3.73647 4.92867,-5.60086 2.67503,-4.22707 4.31528,-10.58933 3.74917,-14.54241 -0.48887,-3.41367 -1.93893,-6.49758 -4.15739,-8.84169 -1.49538,-1.58007 -2.92876,-2.61261 -4.92273,-3.54609 -2.01327,-0.94253 -2.80428,-1.0819 -6.14754,-1.08319 -3.55469,-10e-4 -4.29776,0.14027 -6.49847,1.23879 -4.44534,2.21895 -7.46592,6.11236 -8.5531,11.02459 -0.27776,1.25503 -0.30032,3.8279 -0.0441,5.02439 0.51207,2.39089 1.59016,4.48252 3.17151,6.1531 1.61604,1.70723 4.32027,3.29085 6.17138,3.61401 0.48584,0.0848 0.82173,0.19735 0.93896,0.31458 0.18054,0.18054 0.18004,0.18347 -0.0464,0.26914 -0.1259,0.0476 -0.44095,0.11555 -0.70012,0.15091 -0.58209,0.0794 -5.14641,-0.10002 -5.98436,-0.23528 -1.49338,-0.24106 -3.70918,-1.21884 -5.27756,-2.32885 -1.14945,-0.81352 -2.97996,-2.64461 -3.78977,-3.79096 -1.21215,-1.7159 -2.15579,-3.69337 -2.49973,-5.23838 -0.23755,-1.06705 -0.24023,-6.77931 -0.004,-8.1911 0.73758,-4.40533 3.82362,-9.89488 7.33391,-13.04578 1.79236,-1.60886 3.42195,-2.69269 5.67308,-3.7731 2.25341,-1.08151 3.79767,-1.58873 6.09563,-2.00215 1.07672,-0.1937 1.47149,-0.21311 4.29567,-0.2112 2.75562,0.002 3.25292,0.0257 4.36445,0.20955 4.12932,0.68283 7.93037,2.19507 10.94937,4.35618 2.90364,2.07852 5.74141,4.97082 7.603,7.74909 0.78265,1.16805 2.09313,3.7616 2.60848,5.16241 1.26423,3.4364 1.78529,6.35656 1.79091,10.03677 0.005,3.01854 -0.32279,5.5611 -1.12859,8.76451 -3.01754,11.99602 -12.1212,21.78602 -23.92582,25.72962 -3.11575,1.04089 -5.16486,1.4012 -9.37707,1.64882 -1.81818,0.10688 -4.94383,0.10099 -6.2132,-0.0117 z m 56.585547,-7.81817 c -2.65182,-0.10123 -8.728707,-0.27608 -9.594867,-0.27608 h -0.72464 v -26.15215 -26.15215 h 19.602347 19.60233 l -8e-4,15.8091 c -7.9e-4,15.36761 -0.0369,17.58966 -0.29478,18.15571 -0.15003,0.32929 0.6432,0.18322 -12.09724,2.22767 -7.85035,1.25974 -12.9003,2.10443 -13.26246,2.21839 -0.19925,0.0627 -0.32468,0.52125 -0.3976,1.45349 -0.0946,1.20938 -0.32511,7.07784 -0.39056,9.94253 -0.0343,1.50316 -0.0808,2.76483 -0.10318,2.8037 -0.0224,0.0389 -0.13366,0.0642 -0.24723,0.0562 -0.11356,-0.008 -1.05466,-0.0469 -2.09132,-0.0864 z m 9.1886,-28.15626 c 5.70493,-0.84083 6.46853,-0.97743 6.68693,-1.19619 0.1277,-0.12791 0.14555,-0.76525 0.1451,-5.17999 -3.4e-4,-3.34343 -0.0333,-5.0669 -0.0981,-5.13169 -0.0642,-0.0642 -2.40648,-0.11923 -6.85383,-0.16102 l -6.75629,-0.0635 0.0471,0.74583 c 0.0845,1.33808 0.22302,4.73141 0.33048,8.09671 0.0579,1.81416 0.14516,3.39777 0.19386,3.51913 0.11668,0.29082 -0.0534,0.3078 6.3047,-0.62931 z m 23.74898,1.35107 v -26.15215 h 6.36133 6.36134 v 19.79044 19.79045 l 11.61532,0.0239 11.61533,0.0239 0.0242,6.33777 0.0242,6.33778 h -18.00089 -18.00088 z m 39.58164,0 v -26.15215 h 6.45557 6.45558 v 19.69477 19.69478 l 0.21204,0.044 c 0.11663,0.0242 3.17007,0.0612 6.78543,0.0822 l 6.57338,0.0382 v -19.77697 -19.77696 h 6.40845 6.40846 v 26.15215 26.15215 h -19.64946 -19.64945 z m 42.8801,19.79081 v -6.36133 h 11.63889 11.63889 l -0.007,-2.04976 c -0.009,-2.49621 -0.0883,-3.58347 -0.26907,-3.6952 -0.0724,-0.0447 -0.32601,-0.10886 -0.56364,-0.14252 -0.47007,-0.0666 -7.58914,-1.29536 -13.15473,-2.27056 -4.69495,-0.82264 -8.60831,-1.53392 -8.95299,-1.62725 l -0.28272,-0.0766 -0.0239,-14.85989 -0.0238,-14.85989 h 18.00051 18.00052 v 6.49422 6.49423 l -11.58394,0.032 c -6.37116,0.0176 -11.60301,0.0532 -11.62632,0.0791 -0.0233,0.0259 0.001,1.36473 0.0545,2.97515 l 0.0969,2.92804 9.05559,1.58538 c 4.98058,0.87196 10.16883,1.77847 11.52944,2.01446 l 2.47386,0.42907 v 14.63628 14.63629 h -18.00076 -18.00023 z"
     id="path1" /></g></svg>
