<?xml version="1.0" encoding="UTF-8" standalone="no"?>
<!-- Generator: Adobe Illustrator 16.0.0, SVG Export Plug-In . SVG Version: 6.00 Build 0)  -->

<svg
   version="1.1"
   id="Layer_1"
   x="0px"
   y="0px"
   width="280px"
   height="280px"
   viewBox="0 0 280 280"
   enable-background="new 0 0 280 280"
   xml:space="preserve"
   sodipodi:docname="kbs1.svg"
   inkscape:version="1.4 (e7c3feb100, 2024-10-09)"
   xmlns:inkscape="http://www.inkscape.org/namespaces/inkscape"
   xmlns:sodipodi="http://sodipodi.sourceforge.net/DTD/sodipodi-0.dtd"
   xmlns="http://www.w3.org/2000/svg"
   xmlns:svg="http://www.w3.org/2000/svg"><defs
   id="defs23" /><sodipodi:namedview
   id="namedview23"
   pagecolor="#ffffff"
   bordercolor="#000000"
   borderopacity="0.25"
   inkscape:showpageshadow="2"
   inkscape:pageopacity="0.0"
   inkscape:pagecheckerboard="0"
   inkscape:deskcolor="#d1d1d1"
   inkscape:zoom="2.2535714"
   inkscape:cx="137.11569"
   inkscape:cy="140.44374"
   inkscape:window-width="1600"
   inkscape:window-height="833"
   inkscape:window-x="0"
   inkscape:window-y="0"
   inkscape:window-maximized="1"
   inkscape:current-layer="Layer_1" />
<rect
   y="-0.042"
   fill-rule="evenodd"
   clip-rule="evenodd"
   fill="#4168B2"
   width="280"
   height="280"
   id="rect1"
   style="fill:#0075dd;fill-opacity:1" />

<path
   style="fill:#f9f9f9;stroke-width:1.53555"
   d="m 204.72653,162.58255 -11.51665,-0.87503 v -29.17553 -29.17553 l 8.77177,-0.78139 8.77178,-0.78139 -4.87832,5.03315 -4.87832,5.03315 5.67638,5.67637 c 5.51792,5.51792 5.74008,5.59214 7.95825,2.65825 2.05157,-2.71354 2.2868,-0.6548 2.3307,20.39905 0.0269,12.87946 -0.12392,23.29271 -0.33504,23.14057 -0.21114,-0.15218 -5.56639,-0.67041 -11.90055,-1.15167 z m 27.63437,-30.05056 v -30.71108 l 9.60001,0.53766 c 5.28002,0.2957 10.10769,1.3322 10.72816,2.30333 0.62049,0.97111 1.12816,13.51266 1.12816,27.87009 0,14.35743 -0.50767,26.89898 -1.12816,27.87011 -0.62047,0.97111 -5.44814,2.00761 -10.72816,2.30333 l -9.60001,0.53764 z m -208.829754,0 v -29.9433 h 6.083374 6.083359 l 0.0077,29.9433 0.0077,29.9433 H 29.62189 23.530485 Z m 24.6807,14.63908 c -6.798881,-9.5228 -10.578463,-16.16789 -9.8638,-17.3421 0.637239,-1.047 5.537914,-7.50567 10.890379,-14.35259 9.583885,-12.25978 9.835854,-12.44896 16.581113,-12.44896 3.767144,0 6.849339,0.24886 6.849339,0.55301 0,0.30417 -4.836995,6.47039 -10.748879,13.70271 -5.911883,7.23232 -10.748878,13.54581 -10.748878,14.02999 0,0.48416 5.12981,7.57263 11.399554,15.75216 l 11.399554,14.87185 -7.367972,0.3362 -7.367988,0.33619 z m 30.604837,-15.02297 -0.0061,-29.55941 14.203873,0.0366 c 25.242954,0.0651 32.630524,3.70438 32.630524,16.0745 0,4.23613 -0.94201,7.7545 -2.4909,9.30338 -2.29749,2.2975 -2.20806,2.79608 1.15167,6.42129 5.34013,5.7621 5.13859,16.92265 -0.40572,22.46697 -2.22656,2.22655 -5.8543,4.12496 -8.06166,4.21866 -2.20736,0.0937 -11.4391,0.26646 -20.514994,0.38388 l -16.50163,0.21351 z m 35.970247,18.70087 c 3.32435,-3.32435 3.02243,-9.26202 -0.65809,-12.94254 -2.52514,-2.52513 -5.11851,-3.07111 -14.587761,-3.07111 H 88.024416 v 9.21333 9.21332 h 12.174754 c 9.02056,0 12.7999,-0.62515 14.58776,-2.413 z m -1.28467,-27.5303 c 2.33008,-3.55615 2.33008,-4.12163 0,-7.67778 -2.31178,-3.52824 -3.44436,-3.83888 -13.996581,-3.83888 H 88.024416 v 7.67777 7.67777 h 11.481263 c 10.552221,0 11.684801,-0.31063 13.996581,-3.83888 z m 19.05323,34.37684 v -4.43354 h 16.6531 c 14.18311,0 17.03003,-0.41649 19.19443,-2.80813 3.41706,-3.77582 3.20437,-8.81325 -0.52979,-12.54741 -2.44423,-2.44423 -5.11852,-3.07111 -13.10153,-3.07111 -11.25555,0 -19.61526,-2.81783 -22.09261,-7.44682 -2.6488,-4.94931 -1.94965,-13.26747 1.48179,-17.62985 4.21519,-5.35874 11.59614,-7.15117 29.48958,-7.1614 14.75365,-0.008 14.97165,0.0447 14.97165,3.65172 0,3.56867 -0.37989,3.67555 -15.17626,4.26985 -16.1975,0.65059 -20.14148,2.24514 -20.14148,8.14322 0,6.31427 4.50584,8.49551 17.54945,8.49551 11.52367,0 12.11236,0.17917 17.15407,5.22088 5.96154,5.96156 6.92064,13.14243 2.81556,21.08077 -3.74526,7.24254 -10.46999,9.19314 -30.72665,8.91271 l -17.54131,-0.24285 z"
   id="path1" /></svg>
