<?xml version="1.0" encoding="UTF-8" standalone="no"?>
<!-- Generator: Adobe Illustrator 16.0.0, SVG Export Plug-In . SVG Version: 6.00 Build 0)  -->

<svg
   version="1.1"
   id="Layer_1"
   x="0px"
   y="0px"
   width="280px"
   height="280px"
   viewBox="0 0 280 280"
   enable-background="new 0 0 280 280"
   xml:space="preserve"
   sodipodi:docname="kbs2.svg"
   inkscape:version="1.4 (e7c3feb100, 2024-10-09)"
   xmlns:inkscape="http://www.inkscape.org/namespaces/inkscape"
   xmlns:sodipodi="http://sodipodi.sourceforge.net/DTD/sodipodi-0.dtd"
   xmlns="http://www.w3.org/2000/svg"
   xmlns:svg="http://www.w3.org/2000/svg"><defs
   id="defs9" /><sodipodi:namedview
   id="namedview9"
   pagecolor="#ffffff"
   bordercolor="#000000"
   borderopacity="0.25"
   inkscape:showpageshadow="2"
   inkscape:pageopacity="0.0"
   inkscape:pagecheckerboard="0"
   inkscape:deskcolor="#d1d1d1"
   inkscape:zoom="2.2214286"
   inkscape:cx="140.90032"
   inkscape:cy="158.68167"
   inkscape:window-width="1600"
   inkscape:window-height="833"
   inkscape:window-x="0"
   inkscape:window-y="0"
   inkscape:window-maximized="1"
   inkscape:current-layer="Layer_1" />
<rect
   y="-0.042"
   fill-rule="evenodd"
   clip-rule="evenodd"
   fill="#58489D"
   width="280"
   height="280"
   id="rect1"
   style="fill:#fab700;fill-opacity:1" />

<path
   style="fill:#ffffff"
   d="m 223.03288,162.7132 c -6.49649,-1.22759 -14.43335,-4.68306 -18.24822,-7.94473 l -1.75535,-1.5008 27.42655,-0.0208 c 27.25005,-0.0207 27.42003,-0.0144 26.41496,0.98535 -1.75302,1.74371 -9.00715,5.5932 -13.03758,6.91855 -7.20167,2.36816 -13.88126,2.86991 -20.80036,1.56247 z M 10.430872,120.65607 V 89.111983 h 6.660107 6.660109 l 0.135975,14.868327 0.135975,14.86833 11.54052,-14.84781 11.540519,-14.847797 8.654079,-0.0205 c 6.848342,-0.0162 8.550526,0.11325 8.157797,0.62061 -0.272956,0.35263 -5.623233,6.94671 -11.889506,14.653507 -6.266272,7.7068 -11.505157,14.30406 -11.641967,14.66058 -0.136809,0.35652 5.408165,7.89958 12.322166,16.76236 l 12.570911,16.11413 -9.019625,0.14031 c -5.18687,0.0807 -9.266099,-0.0672 -9.599652,-0.34801 -0.319015,-0.26858 -5.54245,-7.50218 -11.607634,-16.07466 L 24.023038,120.075 l -0.135433,16.06258 -0.135432,16.06258 h -6.660651 -6.66065 z m 56.420316,0.0266 V 89.111983 l 18.080147,0.0125 c 10.317292,0.007 19.046535,0.23533 20.330915,0.53142 5.39294,1.24328 10.32634,4.71764 12.37671,8.71635 3.18645,6.214307 1.87187,15.784077 -2.60626,18.972777 l -1.59417,1.13515 2.57645,2.25382 c 1.55575,1.36093 3.1479,3.41752 4.01889,5.19122 1.31587,2.67964 1.44244,3.43249 1.44244,8.57943 0,5.28332 -0.0958,5.81499 -1.50697,8.36229 -1.87867,3.39121 -4.69777,5.97358 -8.43326,7.72511 l -2.88257,1.35161 -20.901159,0.15479 -20.901163,0.15478 z m 37.260282,19.86593 c 4.94284,-2.64345 5.66049,-9.69027 1.39322,-13.68033 -2.57953,-2.41196 -5.578376,-2.91741 -16.384871,-2.76164 l -9.702287,0.13986 -0.140492,8.88311 -0.140492,8.88311 11.424555,-0.16361 c 10.643197,-0.15241 11.569947,-0.24136 13.550367,-1.3005 z m -1.69275,-27.48581 c 2.38009,-1.56097 3.50066,-3.85827 3.25749,-6.6782 -0.24983,-2.89714 -1.5322,-4.866 -3.98347,-6.11594 -1.50276,-0.766267 -3.270422,-0.896907 -12.145197,-0.897587 l -10.386467,-8e-4 v 7.481297 7.4813 l 10.923274,-0.1723 c 9.47914,-0.14953 11.10983,-0.29466 12.33437,-1.09777 z m 22.39152,34.00829 v -5.12912 h 17.1067 c 16.89592,0 17.12759,-0.0142 18.80235,-1.15406 2.63952,-1.79644 3.73062,-3.62804 3.95942,-6.64658 0.28494,-3.75939 -1.32994,-6.86475 -4.47755,-8.61015 -2.19379,-1.2165 -2.84154,-1.29475 -13.07925,-1.58016 -9.51991,-0.26539 -11.11568,-0.43452 -13.73697,-1.45595 -4.35127,-1.69556 -7.03658,-3.96788 -8.82583,-7.46845 -1.41897,-2.77615 -1.5429,-3.43922 -1.52963,-8.18456 0.0131,-4.67202 0.15771,-5.44947 1.51926,-8.165067 1.82772,-3.64537 5.02781,-6.56942 8.90555,-8.13735 2.81448,-1.13801 3.45177,-1.17543 22.51535,-1.32221 l 19.61888,-0.15105 v 4.85731 4.85732 l -16.28495,0.1664 c -15.19393,0.15526 -16.40164,0.23513 -18.02653,1.192227 -5.08387,2.9945 -5.39477,9.23741 -0.61891,12.42789 1.64814,1.10103 2.23643,1.16427 10.82937,1.16427 10.28657,0 13.27646,0.42411 17.75068,2.51784 6.8168,3.18997 9.89539,7.76388 10.32758,15.34388 0.43876,7.69514 -2.09741,13.45079 -7.52521,17.07791 -5.15798,3.44682 -5.80034,3.52878 -27.65651,3.52878 h -19.5738 z m 66.24176,-10.3393 c -2.0295,-4.73927 -2.82305,-9.20169 -2.85875,-16.07567 -0.0285,-5.48612 0.17245,-7.38387 1.1338,-10.70788 2.46538,-8.52446 7.29324,-16.088657 13.73889,-21.525847 4.08037,-3.44197 12.11663,-7.53865 17.14592,-8.74055 18.11576,-4.32932 36.84915,3.3983 46.35411,19.1213 6.55425,10.841957 8.02194,23.721857 4.0522,35.560547 l -1.42321,4.24435 -12.4947,0.13747 -12.49471,0.13748 3.30053,-3.56488 c 5.70228,-6.15899 8.29325,-12.44062 8.26898,-20.04757 -0.0249,-7.8031 -2.80435,-14.46573 -8.06736,-19.338347 -10.48707,-9.70918 -26.56617,-8.80935 -36.57296,2.04673 -4.9315,5.350057 -6.26012,10.170017 -3.76806,13.669787 3.16242,4.44122 9.06889,4.0142 12.11071,-0.87558 4.17423,-6.71015 10.50562,-8.88768 16.68124,-5.73711 4.62083,2.35737 6.63831,9.21211 4.44634,15.10719 -2.388,6.42225 -12.36659,13.41849 -24.23994,16.99524 -4.16028,1.25325 -5.5912,1.41182 -14.48778,1.60549 l -9.87156,0.21489 z"
   id="path2" /><path
   style="fill:#000000"
   id="path1" /></svg>
