<?xml version="1.0" encoding="UTF-8" standalone="no"?>
<!-- Generator: Adobe Illustrator 16.0.0, SVG Export Plug-In . SVG Version: 6.00 Build 0)  -->

<svg
   version="1.1"
   id="Layer_1"
   x="0px"
   y="0px"
   width="280px"
   height="280px"
   viewBox="0 0 280 280"
   enable-background="new 0 0 280 280"
   xml:space="preserve"
   sodipodi:docname="kbs2.svg"
   inkscape:version="1.4 (e7c3feb100, 2024-10-09)"
   xmlns:inkscape="http://www.inkscape.org/namespaces/inkscape"
   xmlns:sodipodi="http://sodipodi.sourceforge.net/DTD/sodipodi-0.dtd"
   xmlns="http://www.w3.org/2000/svg"
   xmlns:svg="http://www.w3.org/2000/svg"><defs
   id="defs216276">
	
	
	
</defs><sodipodi:namedview
   id="namedview216274"
   pagecolor="#ffffff"
   bordercolor="#666666"
   borderopacity="1.0"
   inkscape:pageshadow="2"
   inkscape:pageopacity="0.0"
   inkscape:pagecheckerboard="0"
   showgrid="false"
   inkscape:zoom="2.1011173"
   inkscape:cx="145.16086"
   inkscape:cy="46.87982"
   inkscape:window-width="1600"
   inkscape:window-height="833"
   inkscape:window-x="0"
   inkscape:window-y="0"
   inkscape:window-maximized="1"
   inkscape:current-layer="layer1"
   inkscape:showpageshadow="2"
   inkscape:deskcolor="#d1d1d1" />
<g
   inkscape:groupmode="layer"
   id="layer2"
   inkscape:label="BG" /><rect
   style="fill:#fbb700;fill-opacity:0.99215686;stroke-width:4.52076"
   id="rect1"
   width="280"
   height="280"
   x="0"
   y="0" />
<g
   inkscape:groupmode="layer"
   id="layer1"
   inkscape:label="Logo"><path
     style="fill:#f9f9f9;stroke-width:1.64375"
     d="m 211.74288,179.43248 -9.04067,-4.50427 12.66108,-0.47867 c 6.96357,-0.26328 18.79862,-0.26328 26.30008,0 l 13.63903,0.47867 -9.04066,4.50427 c -6.22987,3.10386 -11.59592,4.50427 -17.25943,4.50427 -5.66351,0 -11.02957,-1.40041 -17.25943,-4.50427 z M 22.710986,143.69686 v -30.60793 l 6.164084,0.51016 6.164082,0.51016 0.821878,13.10949 0.821878,13.10949 9.635859,-12.82085 c 5.299731,-7.05146 10.577847,-13.18231 11.729182,-13.62412 1.15132,-0.4418 5.077167,-0.5717 8.724118,-0.28865 l 6.63081,0.51464 -11.304023,13.83121 c -6.21721,7.60716 -10.81057,14.63422 -10.207459,15.61567 0.60311,0.98146 5.749446,7.81655 11.436297,15.18908 5.686852,7.37253 10.339716,13.84481 10.339716,14.38286 0,0.53804 -3.661795,0.97827 -8.13733,0.97827 h -8.137346 l -10.699468,-14.9567 -10.699483,-14.95669 -0.477315,14.54575 -0.477314,14.54576 -6.164082,0.51015 -6.164084,0.51018 z m 53.696019,29.31363 c -0.602716,-0.60271 -1.095843,-14.28697 -1.095843,-30.40948 v -29.31363 h 18.16294 c 20.903218,0 26.828258,2.05517 30.371178,10.53459 2.17655,5.20919 1.74224,11.44142 -1.04858,15.04694 -0.76634,0.99003 0.15747,4.79872 2.13201,8.78955 4.64476,9.3879 2.86362,17.3633 -5.06828,22.69413 -4.98833,3.35252 -7.55047,3.75375 -23.971453,3.75375 -10.112368,0 -18.879273,-0.49312 -19.481972,-1.09585 z m 36.692815,-12.85473 c 3.0796,-3.71068 0.67637,-10.0341 -4.65232,-12.24132 -2.59151,-1.07344 -8.33353,-1.72185 -12.760015,-1.4409 l -8.048156,0.51083 -0.501,7.80784 -0.501,7.80783 h 12.216966 c 8.806795,0 12.783195,-0.68228 14.245525,-2.44428 z m -4.80549,-23.91365 c 1.80412,-0.96553 3.17945,-3.42914 3.17945,-5.6953 0,-5.31029 -4.37459,-7.3969 -15.507612,-7.3969 h -9.148716 v 6.30106 c 0,3.46558 0.493126,6.79419 1.095842,7.3969 1.727226,1.72723 16.862356,1.2774 20.381036,-0.60576 z m 21.26076,32.93296 v -4.93126 l 14.38287,-0.0241 c 17.33961,-0.0293 22.60163,-2.1284 22.60163,-9.01644 0,-6.44001 -5.2559,-8.98528 -18.61868,-9.01642 -9.28678,-0.0217 -10.9142,-0.53851 -15.20474,-4.82906 -6.94788,-6.94786 -6.66598,-15.03158 0.78393,-22.48151 l 5.58877,-5.58877 h 19.06757 19.06757 v 4.93127 4.93126 h -15.4144 c -16.67134,0 -19.82725,1.43196 -18.81971,8.53924 0.49617,3.50009 1.54658,3.86409 13.77923,4.77491 14.36421,1.06954 20.37571,3.78767 23.48905,10.62069 4.33542,9.51523 0.2639,20.88004 -8.8437,24.68543 -3.68567,1.53998 -11.77136,2.33615 -23.72527,2.33615 h -18.13412 z m 60.88482,-16.9422 c -6.72946,-32.41569 25.49915,-58.685968 55.09137,-44.90625 18.50916,8.61888 28.29244,30.22612 21.93849,48.45311 -1.78826,5.12978 -1.90674,5.17656 -13.11385,5.17656 h -11.30929 l 4.89508,-7.71873 c 10.23326,-16.1362 4.27789,-33.29778 -13.30485,-38.34044 -7.92716,-2.27348 -16.69531,0.62217 -22.74382,7.51104 -5.38244,6.13023 -6.34451,10.32745 -3.10892,13.56304 3.12227,3.12225 5.72307,2.35402 10.94435,-3.23272 5.72264,-6.1232 14.07938,-7.13753 17.72529,-2.15146 9.39408,12.84716 -11.09899,30.36927 -35.51853,30.36927 h -9.68434 z"
     id="path1" /></g></svg>
