<?xml version="1.0" encoding="UTF-8" standalone="no"?>
<!-- Generator: Adobe Illustrator 16.0.0, SVG Export Plug-In . SVG Version: 6.00 Build 0)  -->

<svg
   version="1.1"
   id="Layer_1"
   x="0px"
   y="0px"
   width="280px"
   height="280px"
   viewBox="0 0 280 280"
   enable-background="new 0 0 280 280"
   xml:space="preserve"
   sodipodi:docname="kbsworld.svg"
   inkscape:version="1.4 (e7c3feb100, 2024-10-09)"
   xmlns:inkscape="http://www.inkscape.org/namespaces/inkscape"
   xmlns:sodipodi="http://sodipodi.sourceforge.net/DTD/sodipodi-0.dtd"
   xmlns="http://www.w3.org/2000/svg"
   xmlns:svg="http://www.w3.org/2000/svg"><defs
   id="defs9" /><sodipodi:namedview
   id="namedview9"
   pagecolor="#ffffff"
   bordercolor="#000000"
   borderopacity="0.25"
   inkscape:showpageshadow="2"
   inkscape:pageopacity="0.0"
   inkscape:pagecheckerboard="0"
   inkscape:deskcolor="#d1d1d1"
   inkscape:zoom="2.2214286"
   inkscape:cx="130.99678"
   inkscape:cy="205.94855"
   inkscape:window-width="1600"
   inkscape:window-height="833"
   inkscape:window-x="0"
   inkscape:window-y="0"
   inkscape:window-maximized="1"
   inkscape:current-layer="Layer_1" />
<rect
   y="-0.042"
   fill-rule="evenodd"
   clip-rule="evenodd"
   fill="#58489D"
   width="280"
   height="280"
   id="rect1"
   style="fill:#056db0;fill-opacity:1" />

<path
   style="fill:#ffffff"
   d="m 19.945338,136.61415 v -21 h 124.999992 125 v 21 21 h -125 -124.999992 z m 97.999992,0 v -20 h -48.499992 -48.5 v 20 20 h 48.5 48.499992 z m -83.999992,0 v -13 h 2.5 c 2.392694,0 2.5,0.26111 2.5,6.08333 0,3.34584 0.400239,5.93334 0.88942,5.75 0.489181,-0.18333 2.988904,-2.92083 5.554941,-6.08333 3.804291,-4.68858 5.220058,-5.75 7.669597,-5.75 3.495537,0 3.386465,0.30215 -2.711981,7.51278 l -4.239601,5.01278 5.471158,6.73722 5.471158,6.73722 -3.802346,-0.0426 c -3.527534,-0.0395 -4.12758,-0.50816 -8.302346,-6.485 -2.475,-3.54335 -4.8375,-6.44919 -5.25,-6.45743 -0.4125,-0.008 -0.75,2.91003 -0.75,6.48503 0,6.26667 -0.08974,6.5 -2.5,6.5 h -2.5 z m 27,0 v -13 h 9 c 7.666667,0 9.296296,0.2963 11,2 2.178921,2.17892 2.661784,6.93822 0.884271,8.71573 -0.820973,0.82097 -0.688881,1.72514 0.5,3.42251 2.199224,3.13983 2.031424,7.44606 -0.384271,9.86176 -1.719298,1.7193 -3.333333,2 -11.5,2 h -9.5 z m 15,8.71023 c 3.251934,-1.63936 3.799685,-5.21188 1.026645,-6.69597 -1.152098,-0.61658 -4.216906,-0.98453 -6.810684,-0.81766 -4.350114,0.27986 -4.74114,0.52329 -5.040535,3.13787 -0.178515,1.55896 -0.08014,3.47146 0.218616,4.25 0.683725,1.78176 7.168466,1.85865 10.605958,0.12576 z m 1.555163,-13.88403 c 0.996617,-3.14007 -2.015527,-4.98207 -7.555163,-4.62018 -4.274809,0.27927 -4.515681,0.45662 -4.813358,3.54398 l -0.313359,3.25 h 5.995971 c 5.277513,0 6.078641,-0.26047 6.685909,-2.1738 z m 10.444832,16.41659 c 0,-1.47124 0.73877,-1.69845 4.53967,-1.39615 7.48884,0.59561 11.343787,-0.53415 12.099727,-3.54603 0.90086,-3.5893 -1.71684,-5.30061 -8.108017,-5.30061 -6.64504,0 -9.53138,-1.98554 -9.53138,-6.5567 0,-5.99018 2.53792,-7.4433 13,-7.4433 7.333327,0 8.999997,0.27778 8.999997,1.5 0,1.17682 -1.37658,1.5 -6.38922,1.5 -7.064987,0 -11.260607,2.143 -10.102787,5.16022 0.75047,1.95571 3.5028,2.80756 9.131227,2.82613 5.71048,0.0188 8.76078,2.63491 8.76078,7.51365 0,5.99596 -2.70943,7.5 -13.510777,7.5 -7.81314,0 -8.88922,-0.21272 -8.88922,-1.75721 z m 89.787637,0.76729 c 4.83743,-2.19553 7.21488,-6.3933 7.20862,-12.72796 -0.008,-8.46847 -8.29847,-14.62419 -16.66195,-12.37214 -6.02593,1.62261 -8.63139,5.01278 -9.10999,11.85372 -0.33542,4.79428 -0.0116,6.31107 1.97181,9.2363 2.18735,3.22601 6.94351,5.83286 10.80387,5.9216 0.825,0.019 3.42944,-0.84122 5.78764,-1.91152 z m -10.71506,-6.64494 c -2.31609,-2.94444 -2.64617,-6.40689 -0.92288,-9.68088 1.51317,-2.87478 2.79088,-3.65045 6.0436,-3.66895 3.41593,-0.0194 5.8067,3.26808 5.8067,7.98469 0,7.59063 -6.62013,10.84098 -10.92742,5.36514 z m -26.31212,0.38486 1.97349,-7.25 1.18689,4.5 c 2.44097,9.25474 2.57536,9.4842 5.74008,9.80097 l 3.00689,0.30097 3.21749,-11.30097 c 1.76961,-6.21553 3.44968,-12.08847 3.73348,-13.05097 0.42343,-1.43606 -0.12398,-1.75 -3.05139,-1.75 -2.70757,0 -3.58211,0.42179 -3.62848,1.75 -0.0336,0.9625 -0.84747,4.225 -1.80859,7.25 l -1.74749,5.5 -1.79913,-7.25 c -1.7921,-7.22162 -1.81242,-7.25 -5.19142,-7.25 -2.03991,0 -3.3977,0.49833 -3.40586,1.25 -0.007,0.6875 -0.82666,3.95 -1.82042,7.25 l -1.80682,6 -1.78731,-7.25 c -1.70519,-6.91691 -1.92019,-7.25 -4.67959,-7.25 -1.59075,0 -2.89228,0.54199 -2.89228,1.20443 0,1.34239 5.97307,22.86531 6.67316,24.04557 0.24468,0.4125 1.72038,0.75 3.27934,0.75 2.67051,0 2.94862,-0.41937 4.80796,-7.25 z m 52.23954,2.25 c 0,-4.22298 0.29151,-5 1.8758,-5 1.13077,0 3.21596,1.97565 5.25,4.97421 3.02998,4.46678 3.75675,4.97685 7.1242,5 2.0625,0.0142 3.75,-0.19532 3.75,-0.46556 0,-0.27024 -1.59769,-2.58443 -3.55042,-5.14265 l -3.55042,-4.6513 2.55042,-2.66207 c 2.51979,-2.6301 3.13821,-5.3573 1.92924,-8.50783 -1.13669,-2.96215 -5.95244,-4.5448 -13.82916,-4.5448 h -7.54966 v 13 13 h 3 c 2.93333,0 3,-0.11111 3,-5 z m 0,-12.5 c 0,-2.2963 0.36667,-2.5 4.5,-2.5 3.74856,0 4.5,0.31611 4.5,1.89301 0,2.1555 -1.8625,3.10699 -6.08179,3.10699 -2.44609,0 -2.91821,-0.40446 -2.91821,-2.5 z m 39.81642,14.75 c -0.3064,-2.66288 -0.53026,-2.75937 -7.06642,-3.04569 l -6.75,-0.29569 v -9.95431 -9.95431 h -3 -3 v 13 13 h 10.06642 10.06642 z m 19.08797,0.177 c 3.92415,-3.30196 5.55735,-8.99853 4.11527,-14.354 -0.60416,-2.24367 -2.36819,-5.02992 -4.11527,-6.5 -2.68385,-2.25831 -3.96575,-2.573 -10.48112,-2.573 h -7.42327 v 13 13 h 7.42327 c 6.51537,0 7.79727,-0.31469 10.48112,-2.573 z m -10.90439,-10.7262 v -7.2992 l 3.5217,0.41114 c 8.75198,1.02174 8.67922,14.18726 -0.0784,14.18726 h -3.4433 z"
   id="path1" /></svg>
