<?xml version="1.0" encoding="UTF-8" standalone="no"?>
<!-- Generator: Adobe Illustrator 16.0.0, SVG Export Plug-In . SVG Version: 6.00 Build 0)  -->

<svg
   version="1.1"
   id="Layer_1"
   x="0px"
   y="0px"
   width="280px"
   height="280px"
   viewBox="0 0 280 280"
   enable-background="new 0 0 280 280"
   xml:space="preserve"
   sodipodi:docname="kbsworld.svg"
   inkscape:version="1.4 (e7c3feb100, 2024-10-09)"
   xmlns:inkscape="http://www.inkscape.org/namespaces/inkscape"
   xmlns:sodipodi="http://sodipodi.sourceforge.net/DTD/sodipodi-0.dtd"
   xmlns="http://www.w3.org/2000/svg"
   xmlns:svg="http://www.w3.org/2000/svg"><defs
   id="defs23" /><sodipodi:namedview
   id="namedview23"
   pagecolor="#ffffff"
   bordercolor="#000000"
   borderopacity="0.25"
   inkscape:showpageshadow="2"
   inkscape:pageopacity="0.0"
   inkscape:pagecheckerboard="0"
   inkscape:deskcolor="#d1d1d1"
   inkscape:zoom="2.2535714"
   inkscape:cx="145.54675"
   inkscape:cy="141.33122"
   inkscape:window-width="1600"
   inkscape:window-height="833"
   inkscape:window-x="0"
   inkscape:window-y="0"
   inkscape:window-maximized="1"
   inkscape:current-layer="Layer_1" />
<rect
   y="-0.042"
   fill-rule="evenodd"
   clip-rule="evenodd"
   fill="#4168B2"
   width="280"
   height="280"
   id="rect1"
   style="fill:#0074be;fill-opacity:1" />

<path
   style="fill:#f9f9f9;stroke-width:0.463133"
   d="M 10.984934,151.05432 V 129.98177 H 138.57806 266.17121 v 21.07255 21.07254 H 138.57806 10.984934 Z m 99.573586,0 V 131.37117 H 61.466424 12.374336 v 19.68315 19.68315 h 49.092088 49.092096 z m -58.354749,-0.0418 v -13.70433 l 9.168359,0.15767 c 7.885349,0.13555 9.346678,0.2746 10.442601,0.99331 3.186616,2.08978 4.064558,6.61914 1.900982,9.80733 l -1.181576,1.74115 0.956207,0.66975 c 0.525918,0.36836 1.39322,1.52637 1.927353,2.57335 2.305898,4.51993 -0.308309,9.83726 -5.419152,11.02261 -0.99918,0.23174 -5.411758,0.42631 -9.805737,0.43239 l -7.989037,0.0115 z m 16.487671,8.71852 c 1.83295,-1.2239 2.074484,-4.74529 0.437733,-6.38204 -1.075675,-1.07567 -1.424223,-1.13678 -6.483858,-1.13678 h -5.347089 v 3.93663 3.93664 l 5.441812,-0.007 c 2.993002,-0.003 5.671128,-0.1602 5.951402,-0.34735 z m -0.198704,-12.45352 c 0.536582,-0.48561 0.846952,-1.40943 0.846952,-2.52098 0,-2.71786 -1.055484,-3.1964 -7.050043,-3.1964 h -4.991419 v 3.24194 3.24192 h 5.173779 c 4.164335,0 5.33903,-0.14955 6.020731,-0.76648 z m -43.150679,3.77684 v -13.19928 h 2.765727 2.765727 l 0.12885,6.29388 0.12885,6.29387 5.070653,-6.29387 5.070662,-6.29388 h 3.411269 3.411272 l -2.709766,3.35771 c -1.490369,1.84674 -3.794876,4.74018 -5.121128,6.42987 l -2.411362,3.07215 5.322943,6.51638 c 2.927619,3.58402 5.322937,6.63025 5.322937,6.76942 0,0.13914 -1.531515,0.25304 -3.403377,0.25304 h -3.403392 l -4.9334,-6.45677 c -2.71337,-3.55122 -5.141634,-6.58547 -5.396135,-6.74277 -0.300145,-0.18549 -0.462749,2.08335 -0.462749,6.45677 v 6.74277 h -2.778786 -2.778795 z m 54.186552,11.37325 v -1.87902 h 7.445761 7.445747 l 1.353779,-1.35378 c 2.381852,-2.38185 1.501304,-5.58593 -1.786031,-6.4989 -0.9477,-0.2632 -3.602039,-0.47972 -5.898523,-0.48114 -6.51125,-0.004 -9.033151,-1.83924 -9.382192,-6.82757 -0.155974,-2.22905 -0.0082,-2.92878 0.896256,-4.24314 2.04585,-2.9731 3.272333,-3.28898 12.769918,-3.28898 h 8.459404 v 1.85252 1.85254 h -6.884538 c -6.263621,0 -6.994589,0.0865 -8.104829,0.95987 -0.891354,0.70114 -1.220288,1.38488 -1.220288,2.53656 0,2.48714 1.392855,3.10125 7.804122,3.44089 2.967343,0.15721 5.835509,0.52834 6.373706,0.82475 1.445527,0.79612 3.827677,3.66071 4.166357,5.01014 0.46396,1.84854 -0.0934,5.2796 -1.07017,6.58787 -2.242483,3.00358 -2.581881,3.08889 -12.906758,3.24413 l -9.461721,0.1423 z m 92.917539,0.9991 c 2.62571,-1.35531 5.4726,-4.72253 6.24721,-7.38902 0.98335,-3.38504 0.76388,-8.2296 -0.5045,-11.13729 -2.84438,-6.52049 -10.80963,-9.20043 -18.06656,-6.07859 -4.89828,2.10719 -7.2029,6.58322 -6.86114,13.32574 0.30612,6.03943 2.67935,9.68898 7.58491,11.66407 3.07379,1.23758 8.82655,1.04669 11.60008,-0.38491 z m -9.01023,-4.50981 c -2.12206,-0.92164 -3.18605,-2.35188 -3.826,-5.14303 -0.97885,-4.26914 0.46437,-8.76012 3.29653,-10.25803 1.66785,-0.8821 6.17862,-0.50653 7.44427,0.61982 1.60614,1.42937 2.70939,4.34638 2.72058,7.1932 0.024,6.12234 -4.60911,9.77103 -9.63538,7.58804 z m -30.58612,2.78952 c 0.41557,-1.27362 1.34825,-4.55607 2.07262,-7.29434 0.72436,-2.73828 1.43156,-4.97869 1.57155,-4.97869 0.13999,0 0.84718,2.24041 1.57155,4.97869 0.72437,2.73827 1.65705,6.02072 2.07262,7.29434 l 0.75559,2.31567 2.49758,0.1423 c 1.37367,0.0782 2.66228,-0.0259 2.86359,-0.23157 0.41703,-0.42596 7.37498,-24.44559 7.37498,-25.45929 0,-0.51878 -0.62838,-0.6327 -2.89457,-0.52475 l -2.89459,0.13785 -1.97006,7.17855 c -1.08355,3.94821 -2.03415,7.37321 -2.11249,7.6111 -0.0783,0.23789 -0.71976,-1.6378 -1.42537,-4.16821 -0.70562,-2.53039 -1.69161,-6.00749 -2.1911,-7.72686 l -0.90816,-3.12615 h -2.73957 -2.73958 l -0.90815,3.12615 c -0.49949,1.71937 -1.48247,5.18583 -2.18439,7.70323 l -1.27624,4.57708 -0.52453,-1.79829 c -0.28848,-0.98905 -1.23568,-4.45552 -2.10487,-7.70322 l -1.58035,-5.90495 h -2.90891 c -1.75645,0 -2.9089,0.19623 -2.9089,0.49529 0,0.60418 6.94587,25.05878 7.2649,25.57783 0.12483,0.20308 1.40692,0.30729 2.84911,0.23157 l 2.62215,-0.13771 z m 55.05192,-2.54723 v -5.09446 h 1.80413 c 1.75698,0 1.90345,0.13311 5.60601,5.09446 l 3.80189,5.09446 h 3.4251 c 1.88378,0 3.41977,-0.15632 3.41329,-0.34735 -0.006,-0.19104 -1.70036,-2.61668 -3.76419,-5.39031 -3.42862,-4.60776 -3.67739,-5.08432 -2.88282,-5.52235 1.73524,-0.95658 3.79495,-3.40994 4.25175,-5.06434 0.97606,-3.53502 -0.64681,-6.77914 -4.34313,-8.68196 -2.08292,-1.07226 -2.8291,-1.17316 -9.79373,-1.32408 l -7.53903,-0.16338 v 13.24689 13.24688 h 3.01038 3.01035 z m 0,-12.96773 v -2.77879 h 3.8336 c 4.23129,0 5.89741,0.69578 5.88512,2.45771 -0.016,2.2815 -1.65666,3.09989 -6.21477,3.09989 h -3.50395 z m 39.82944,15.2834 v -2.7788 h -6.94698 -6.947 v -10.42049 -10.42049 h -2.77881 -2.77879 v 13.19928 13.19929 h 9.72579 9.72579 z m 18.14388,1.27046 c 4.23776,-2.48411 6.40217,-6.43653 6.40217,-11.69096 0,-5.25304 -2.16177,-9.20184 -6.40217,-11.69457 -2.08934,-1.22821 -2.39922,-1.27314 -8.77828,-1.27314 h -6.6125 l 0.004,12.85193 c 0.003,7.06857 0.009,12.97932 0.0129,13.13501 0.004,0.15568 2.97756,0.20617 6.60737,0.11212 6.20275,-0.16062 6.72989,-0.24724 8.76542,-1.44045 z m -9.80748,-11.69096 v -7.64169 l 3.12614,0.001 c 5.34007,0.003 7.71866,2.3573 7.71866,7.63996 0,5.28268 -2.37859,7.63701 -7.71866,7.63996 l -3.12614,0.001 z"
   id="path23" /></svg>
