<?xml version="1.0" encoding="UTF-8" standalone="no"?>
<!-- Generator: Adobe Illustrator 16.0.0, SVG Export Plug-In . SVG Version: 6.00 Build 0)  -->

<svg
   version="1.1"
   id="Layer_1"
   x="0px"
   y="0px"
   width="280px"
   height="280px"
   viewBox="0 0 280 280"
   enable-background="new 0 0 280 280"
   xml:space="preserve"
   sodipodi:docname="religious.svg"
   inkscape:version="1.4 (e7c3feb100, 2024-10-09)"
   xmlns:inkscape="http://www.inkscape.org/namespaces/inkscape"
   xmlns:sodipodi="http://sodipodi.sourceforge.net/DTD/sodipodi-0.dtd"
   xmlns="http://www.w3.org/2000/svg"
   xmlns:svg="http://www.w3.org/2000/svg"><defs
   id="defs9" /><sodipodi:namedview
   id="namedview9"
   pagecolor="#ffffff"
   bordercolor="#000000"
   borderopacity="0.25"
   inkscape:showpageshadow="2"
   inkscape:pageopacity="0.0"
   inkscape:pagecheckerboard="0"
   inkscape:deskcolor="#d1d1d1"
   inkscape:zoom="2.2214286"
   inkscape:cx="71.125401"
   inkscape:cy="140.22508"
   inkscape:window-width="1600"
   inkscape:window-height="833"
   inkscape:window-x="0"
   inkscape:window-y="0"
   inkscape:window-maximized="1"
   inkscape:current-layer="Layer_1" />
<rect
   y="-0.042"
   fill-rule="evenodd"
   clip-rule="evenodd"
   fill="#58489D"
   width="280"
   height="280"
   id="rect1"
   style="fill:#7749f5;fill-opacity:1" />

<path
   style="fill:#f9f9f9"
   d="m 136.65434,249.08965 c -1.1,-0.60166 -2.5625,-1.79898 -3.25,-2.66072 -1.56337,-1.9596 -1.62953,-10.25746 -0.10841,-13.59596 1.37216,-3.01156 -0.41158,-10.65999 -3.00754,-12.89588 -0.89873,-0.77408 -4.78405,-2.17499 -8.63405,-3.11314 -7.50872,-1.8297 -18.51814,-6.73446 -24.99011,-11.13324 l -3.9901,-2.71194 -4.50337,2.38281 c -3.01925,1.59753 -5.26729,3.77541 -6.82142,6.60852 -4.45002,8.11219 -11.80241,10.87063 -16.70314,6.26663 -4.990617,-4.68844 -1.897249,-12.88083 6.34301,-16.79864 2.417,-1.14916 4.32736,-3.18525 5.94175,-6.33281 l 2.3794,-4.6391 -3.56573,-4.96324 c -4.73243,-6.58719 -8.44561,-14.81499 -11.589766,-25.68097 -3.77107,-13.03256 -5.404023,-13.92594 -22.015342,-12.04441 -4.704941,0.53292 -5.916492,0.30869 -8.25,-1.52685 -3.16568,-2.49012 -3.760545,-8.09741 -1.240697,-11.69499 1.972606,-2.81629 8.318137,-3.86991 13.234781,-2.19752 4.348254,1.47906 6.223653,1.37502 11.818472,-0.65562 3.983074,-1.44566 4.076297,-1.59285 5.835387,-9.21366 C 65.48621,114.04645 71.68898,99.854348 75.7666,94.508308 l 2.5705,-3.3701 -2.69661,-5.511675 C 73.83963,81.945708 72.06534,79.782059 70.29911,79.113 64.417113,76.884869 59.534752,69.994801 61.04296,66.050575 c 1.364631,-3.568749 4.82284,-6.139535 8.25887,-6.139535 2.46796,0 4.14055,1.085103 7.98709,5.181665 2.67598,2.849915 4.86542,5.809772 4.86542,6.57746 0,1.153298 7.28787,5.574208 9.18909,5.574208 0.3067,0 4.04426,-2.095639 8.3057,-4.656975 7.79832,-4.687175 22.07683,-10.304803 26.25521,-10.329647 3.14578,-0.0187 5.94206,-3.156043 7.29665,-8.186639 0.88999,-3.305145 0.87323,-4.725385 -0.0736,-6.241567 -1.4384,-2.303236 -1.44557,-10.833672 -0.0114,-13.513508 2.30991,-4.316112 10.48221,-4.484845 13.67505,-0.282349 1.63808,2.156073 1.7424,10.284551 0.17611,13.722171 -0.97149,2.132196 -0.85212,3.591345 0.65704,8.0312 1.69689,4.992193 2.13123,5.471085 5.43718,5.994916 9.67899,1.533643 23.47975,7.231074 32.93756,13.597768 l 4.34459,2.924636 5.36023,-2.453996 c 4.02782,-1.843995 5.71002,-3.280758 6.7674,-5.780003 0.77394,-1.829304 2.35865,-4.173648 3.52159,-5.209654 2.42352,-2.15899 1.9947,-3.616353 -1.06408,-3.616353 -3.19385,0 -1.28934,-1.231794 2.96464,-1.917464 3.26999,-0.527069 3.80373,-0.996355 4.08799,-3.594377 0.51555,-4.711953 1.83602,-4.997289 2.54711,-0.550398 0.5752,3.597108 0.9631,4.063992 3.38776,4.077552 1.506,0.0084 3.41318,0.451531 4.23818,0.984687 1.21296,0.783874 1.06944,0.972305 -0.75,0.984687 -2.66639,0.01815 -2.70523,0.234317 -0.72878,4.056344 0.88597,1.713289 1.26079,3.979334 0.89757,5.426515 -0.67392,2.685125 -7.62805,9.532454 -9.68112,9.532454 -1.3688,0 -3.08283,2.385428 -5.99671,8.345685 l -1.88009,3.84568 2.45128,3.70414 c 5.65825,8.550202 9.01095,17.205452 12.06428,31.144892 0.72546,3.31195 9.01774,6.55824 13.89938,5.44137 1.7733,-0.40571 5.85177,-0.79258 9.06325,-0.85971 5.01161,-0.10475 6.10986,0.2125 7.75,2.23873 1.05102,1.29844 1.91094,3.88594 1.91094,5.75 0,6.65731 -6.3103,9.50459 -16.41533,7.4068 -4.72359,-0.98062 -6.40009,-0.90747 -10.51313,0.45866 l -4.89337,1.62532 -1.68871,7.5904 c -2.23841,10.06125 -6.3766,20.02015 -10.98336,26.43243 l -3.75236,5.22301 2.60119,5.30371 c 1.90563,3.88552 3.48857,5.67449 5.91982,6.69033 10.18063,4.25374 11.72827,16.86281 2.35839,19.2145 -4.41806,1.10886 -12.63314,-5.10646 -12.63314,-9.55791 0,-3.11353 -11.97187,-9.47059 -13.42067,-7.12639 -0.881,1.42549 -14.21468,9.08048 -18.82809,10.80938 -2.33818,0.87625 -7.58534,2.34271 -11.66036,3.25882 l -7.40912,1.66564 -2.00911,5.28756 c -1.68926,4.44577 -1.82313,5.8019 -0.84088,8.51826 1.26065,3.48627 1.55169,10.42585 0.54705,13.0439 -0.66341,1.7288 -5.42472,4.5648 -7.57916,4.51439 -0.71481,-0.0167 -2.19966,-0.52267 -3.29966,-1.12432 z m 26,-55.37751 c 6.47631,-2.68199 12.49629,-6.84121 12.49821,-8.63505 0.001,-1.07849 -1.67569,-2.28277 -4.74821,-3.41008 -5.85953,-2.14988 -6.51763,-2.79671 -8.58189,-8.43505 -0.90864,-2.48183 -3.00953,-6.15927 -4.66866,-8.17208 l -3.0166,-3.65965 -4.05373,1.67207 -4.05373,1.67208 0.63328,5.5 c 0.3483,3.025 1.50134,7.32958 2.5623,9.56572 2.38301,5.02257 2.38211,5.21738 -0.049,10.57508 -3.33521,7.35015 -3.00427,7.91231 3.72804,6.33264 3.1625,-0.74206 7.55,-2.09461 9.75,-3.00568 z m -29.5,1.98393 c 0,-0.85156 -0.9,-3.41109 -2,-5.68783 -2.45274,-5.07659 -2.45344,-5.17672 -0.071,-10.19814 1.06096,-2.23614 2.23038,-6.59372 2.5987,-9.68349 0.66433,-5.57293 0.6457,-5.62612 -2.33453,-6.66504 -2.58266,-0.90031 -3.27786,-0.74347 -4.95446,1.11777 -2.27618,2.52686 -4.57498,6.64302 -6.66219,11.9291 -0.81744,2.07023 -2.29406,4.01323 -3.2814,4.31779 -3.80975,1.17515 -10.29512,4.42857 -10.29512,5.16461 0,1.48725 11.73022,7.74259 18.5,9.86544 5.60575,1.75784 8.5,1.70329 8.5,-0.16021 z m -32.99975,-25.79198 c 2.56834,-5.66434 3.34769,-6.52087 7.31022,-8.03418 2.43946,-0.93164 6.11263,-3.14375 8.16259,-4.9158 l 3.72721,-3.22191 -1.84126,-3.86117 -1.84126,-3.86116 -5.57174,0.58236 c -3.06445,0.3203 -7.54624,1.46638 -9.95953,2.54684 -4.08961,1.83097 -4.62899,1.85801 -7.93713,0.39778 -1.95214,-0.86168 -4.73327,-1.7732 -6.18029,-2.0256 l -2.63094,-0.45892 0.94048,5.34603 c 1.47048,8.3587 9.23309,23.84602 11.95221,23.84602 0.54704,0 2.28829,-2.85313 3.86944,-6.34029 z m 89.97971,0.37151 c 3.9217,-6.11142 6.58849,-12.97064 7.55898,-19.4423 0.59603,-3.97466 0.47211,-4.81318 -0.65144,-4.40774 -12.14833,4.38373 -11.52431,4.28634 -15.623,2.43809 -4.14163,-1.86761 -14.68955,-3.64563 -16.00354,-2.69764 -0.44092,0.3181 -1.33295,1.78862 -1.98229,3.26782 -1.09026,2.48362 -0.90086,2.93509 2.47473,5.89889 2.01043,1.76519 6.07086,4.3153 9.02317,5.66691 2.95231,1.35161 5.61456,3.19711 5.91613,4.10111 1.31052,3.92855 4.55313,10.14364 5.29226,10.14364 0.4436,0 2.24135,-2.23595 3.995,-4.96878 z m -44.95994,-21.54157 c 3.68737,-1.90682 4.97998,-4.3175 4.97998,-9.28754 0,-9.66394 -12.98139,-13.20085 -18.03435,-4.91365 -2.54137,4.16803 -2.48554,7.78089 0.17247,11.16 3.57167,4.54065 7.97294,5.57971 12.8819,3.04119 z M 91.94921,130.35416 c 2.87314,-1.53765 5.33646,-1.38984 9.23307,0.55405 1.8982,0.94694 5.90675,1.70095 9.30355,1.75 5.72993,0.0827 6.0078,-0.0302 6.9562,-2.82715 0.89366,-2.63551 0.66481,-3.18342 -2.39992,-5.74594 -1.86327,-1.55795 -5.76482,-3.97952 -8.6701,-5.38128 -4.60424,-2.22147 -5.59204,-3.24895 -7.69497,-8.00405 -1.32695,-3.00048 -2.82761,-5.45541 -3.33478,-5.45541 -1.16548,0 -5.23342,6.26234 -7.47027,11.5 -2.05137,4.80334 -4.63866,14.73015 -4.08584,15.67633 0.44739,0.76571 5.04642,-0.39857 8.16306,-2.06655 z m 83.39621,1.75582 c 2.90924,-0.62392 6.30976,-1.80288 7.55672,-2.61992 2.04706,-1.34129 2.74564,-1.27969 7.19508,0.6344 7.10751,3.05757 8.37592,2.86697 7.52044,-1.13008 -1.87535,-8.76217 -8.47246,-22.75 -10.72964,-22.75 -0.46405,0 -1.91857,2.43038 -3.23225,5.40084 -2.09577,4.73891 -3.03888,5.70349 -7.69497,7.87019 -7.61553,3.54386 -12.99868,8.60901 -12.19964,11.47897 0.73016,2.62253 3.37157,2.87691 11.58426,1.1156 z m -15.91597,-18.13145 c 2.07631,-2.86381 4.21099,-6.82566 4.74373,-8.80411 0.84634,-3.14307 1.72686,-3.92435 6.97489,-6.188752 3.30345,-1.42537 6.00627,-2.96604 6.00627,-3.42372 0,-2.40171 -18.29198,-10.984655 -25.52272,-11.975743 -5.32774,-0.730249 -5.6385,0.214518 -2.31839,7.048323 l 2.1589,4.44365 -2.05308,4.8331 c -1.1292,2.658212 -2.35386,7.093312 -2.72147,9.855782 l -0.66839,5.02268 4.31258,2.16529 c 2.37191,1.1909 4.53757,2.17994 4.81257,2.19786 0.275,0.0179 2.1988,-2.31054 4.27511,-5.17436 z m -28.81725,2.71901 c 3.62762,-1.51571 3.68882,-1.63141 3.04161,-5.75 -1.04007,-6.61862 -2.46773,-11.565512 -3.52664,-12.219952 -1.50252,-0.92861 -1.16233,-3.84719 1.00521,-8.62401 2.94456,-6.489239 2.72636,-7.22746 -1.91679,-6.48499 -7.46091,1.193045 -24.76687,9.67505 -23.59822,11.56596 0.29522,0.47769 3.00305,1.89074 6.01739,3.14012 4.45542,1.846672 5.68315,2.885292 6.56339,5.552452 0.85835,2.60082 7.85883,14.36726 8.54785,14.36726 0.0902,0 1.83004,-0.69608 3.8662,-1.54684 z"
   id="path1" /></svg>
