<?xml version="1.0" encoding="UTF-8" standalone="no"?>
<!-- Generator: Adobe Illustrator 16.0.0, SVG Export Plug-In . SVG Version: 6.00 Build 0)  -->

<svg
   version="1.1"
   id="Layer_1"
   x="0px"
   y="0px"
   width="280px"
   height="280px"
   viewBox="0 0 280 280"
   enable-background="new 0 0 280 280"
   xml:space="preserve"
   sodipodi:docname="mbc.svg"
   inkscape:version="1.4 (e7c3feb100, 2024-10-09)"
   xmlns:inkscape="http://www.inkscape.org/namespaces/inkscape"
   xmlns:sodipodi="http://sodipodi.sourceforge.net/DTD/sodipodi-0.dtd"
   xmlns="http://www.w3.org/2000/svg"
   xmlns:svg="http://www.w3.org/2000/svg"><defs
   id="defs216276">
	
	
	
</defs><sodipodi:namedview
   id="namedview216274"
   pagecolor="#ffffff"
   bordercolor="#666666"
   borderopacity="1.0"
   inkscape:pageshadow="2"
   inkscape:pageopacity="0.0"
   inkscape:pagecheckerboard="0"
   showgrid="false"
   inkscape:zoom="2.1011173"
   inkscape:cx="154.20367"
   inkscape:cy="134.45227"
   inkscape:window-width="1600"
   inkscape:window-height="833"
   inkscape:window-x="0"
   inkscape:window-y="0"
   inkscape:window-maximized="1"
   inkscape:current-layer="layer1"
   inkscape:showpageshadow="2"
   inkscape:deskcolor="#d1d1d1" />
<g
   inkscape:groupmode="layer"
   id="layer2"
   inkscape:label="BG" />
<g
   inkscape:groupmode="layer"
   id="layer1"
   inkscape:label="Logo"><rect
     style="fill:#1a1a1a;stroke-width:6.83112"
     id="rect1"
     width="280"
     height="280"
     x="0"
     y="0" /><path
     style="fill:#f9f9f9"
     d="m 13.843109,138.8513 c 0.344269,-34.25023 0.518056,-35.06961 8.30406,-39.152466 3.803599,-1.99454 5.473006,-2.09753 34,-2.09753 28.021511,0 30.259542,0.1319 33.935466,2 2.164506,1.099996 4.864506,3.269566 6,4.821266 1.963621,2.68337 2.079361,4.3331 2.367871,33.75 l 0.30335,30.92873 H 88.700514 78.647169 v -26 -26 h -6 -6 v 26 26 h -10 -10 v -26 -26 h -6.5 -6.5 v 26 26 H 23.593109 13.53905 Z m 96.804061,-5.6611 V 97.101304 h 25.31634 c 13.92399,0 27.98649,0.48899 31.25,1.08665 10.96333,2.007736 15.66443,6.867706 15.66443,16.193786 0,7.57258 -4.63217,12.67214 -13.79432,15.18619 -2.71505,0.74499 -4.00563,1.39477 -2.86795,1.44395 4.58937,0.19839 12.66007,3.35121 15.93165,6.22369 6.72272,5.90263 7.13069,16.94794 0.88148,23.86507 -6.12808,6.78305 -8.90755,7.28909 -42.63163,7.76162 l -29.75,0.41685 z m 50.77418,0.35137 -0.27418,-16.55972 h -15 -15 l -0.27418,16.55972 -0.27418,16.55973 h 15.54836 15.54836 z m 44.53006,34.40452 c -5.45768,-1.22406 -9.8402,-5.40776 -11.28489,-10.77293 -0.76018,-2.8231 -1.04618,-11.85368 -0.83704,-26.4301 0.36117,-25.17249 0.89095,-27.14976 8.31769,-31.044226 3.73881,-1.96057 5.84466,-2.1184 32.25,-2.41712 l 28.25,-0.3196 v 9.569596 9.56959 h -24 -24 v 17 17 h 24.5 24.5 v 9.5 9.5 l -26.75,-0.10709 c -14.7125,-0.0589 -28.63809,-0.53056 -30.94576,-1.04812 z"
     id="path1" /></g></svg>
