<?xml version="1.0" encoding="UTF-8" standalone="no"?>
<!-- Generator: Adobe Illustrator 16.0.0, SVG Export Plug-In . SVG Version: 6.00 Build 0)  -->

<svg
   version="1.1"
   id="Layer_1"
   x="0px"
   y="0px"
   width="280px"
   height="280px"
   viewBox="0 0 280 280"
   enable-background="new 0 0 280 280"
   xml:space="preserve"
   sodipodi:docname="nhkworld.svg"
   inkscape:version="1.4 (e7c3feb100, 2024-10-09)"
   xmlns:inkscape="http://www.inkscape.org/namespaces/inkscape"
   xmlns:sodipodi="http://sodipodi.sourceforge.net/DTD/sodipodi-0.dtd"
   xmlns="http://www.w3.org/2000/svg"
   xmlns:svg="http://www.w3.org/2000/svg"><defs
   id="defs35" /><sodipodi:namedview
   id="namedview33"
   pagecolor="#ffffff"
   bordercolor="#000000"
   borderopacity="0.25"
   inkscape:showpageshadow="2"
   inkscape:pageopacity="0.0"
   inkscape:pagecheckerboard="0"
   inkscape:deskcolor="#d1d1d1"
   showgrid="false"
   inkscape:zoom="1.27"
   inkscape:cx="94.488189"
   inkscape:cy="177.55906"
   inkscape:window-width="1600"
   inkscape:window-height="833"
   inkscape:window-x="0"
   inkscape:window-y="0"
   inkscape:window-maximized="1"
   inkscape:current-layer="Layer_1" />
<rect
   y="-0.042"
   fill-rule="evenodd"
   clip-rule="evenodd"
   fill="#E92328"
   width="280"
   height="280"
   id="rect2"
   style="fill:#e60012;fill-opacity:1" />

<path
   style="fill:#f9f9f9"
   d="m 13.881891,165.29543 v -10.99591 l 118.250009,-0.25409 118.25,-0.2541 0.27307,-17.75 0.27307,-17.75 h 6.47693 6.47693 v 29 29 h -125 -125.000009 z m 129.171259,7.34091 c 1.45843,-1.31985 1.82875,-3.15643 1.82875,-9.06955 0,-7.11719 -0.0902,-7.40175 -2.25,-7.09501 -2.06466,0.29323 -2.27421,0.91678 -2.54381,7.56955 -0.1616,3.9875 -0.7241,7.25 -1.25,7.25 -0.52591,0 -0.95619,-0.675 -0.95619,-1.5 0,-0.83333 -0.88889,-1.5 -2,-1.5 -2.25505,0 -2.7329,2.8671 -0.8,4.8 1.71585,1.71585 5.83212,1.4809 7.97125,-0.45499 z m 17.32875,-0.34501 c 0.35963,-1.13311 1.51303,-2 2.661,-2 1.18523,0 2.24331,0.83012 2.54925,2 0.61982,2.37021 4.28975,2.72412 4.28975,0.41368 0,-0.87247 -0.97592,-4.94503 -2.16871,-9.05014 -2.0201,-6.95239 -2.34378,-7.44326 -4.72368,-7.16368 -2.25052,0.26438 -2.81739,1.19381 -4.75729,7.80014 -1.21128,4.125 -2.23563,8.0625 -2.27633,8.75 -0.12212,2.06294 3.74098,1.40833 4.42601,-0.75 z m 1.51531,-6.25 c 0.008,-0.6875 0.39805,-1.85388 0.86584,-2.59195 0.62106,-0.97989 0.98422,-0.64263 1.34602,1.25 0.33694,1.76259 0.0599,2.59195 -0.86585,2.59195 -0.74873,0 -1.35443,-0.5625 -1.34601,-1.25 z m 22.98469,4.75 c 0,-3.16667 0.26666,-3.5 2.8,-3.5 3.67367,0 5.2,-1.66276 5.2,-5.66482 0,-3.91658 -2.10969,-5.33518 -7.93426,-5.33518 h -4.06574 v 9 c 0,8.33333 0.14814,9 2,9 1.61904,0 2,-0.66667 2,-3.5 z m 0,-9.07332 c 0,-3.28234 3.34535,-2.99021 3.81955,0.33353 0.2427,1.70115 -0.17815,2.23979 -1.75,2.23979 -1.55658,0 -2.06955,-0.63784 -2.06955,-2.57332 z m 20.28974,10.57332 c 0.30594,-1.16988 1.36402,-2 2.54925,-2 1.14797,0 2.30137,0.86689 2.66101,2 0.68698,2.16451 4.50362,2.80141 4.49434,0.75 -0.003,-0.6875 -1.03476,-4.625 -2.29256,-8.75 -2.02271,-6.63357 -2.5661,-7.5 -4.70364,-7.5 -2.11212,0 -2.69911,0.88231 -4.65704,7 -1.23217,3.85 -2.26299,7.7875 -2.29071,8.75 -0.0709,2.4618 3.58661,2.24611 4.23935,-0.25 z m 1.71026,-7 c 0,-1.1 0.45,-2 1,-2 0.55,0 1,0.9 1,2 0,1.1 -0.45,2 -1,2 -0.55,0 -1,-0.9 -1,-2 z m 22.84149,3.99137 0.34149,-4.49137 1.6829,4.5 c 1.21064,3.23722 2.30744,4.58967 3.9085,4.81955 2.16184,0.31039 2.22562,0.0575 2.22562,-8.82332 0,-8.16718 -0.18676,-9.10749 -1.75,-8.81124 -1.2429,0.23554 -1.84334,1.47294 -2.07211,4.27022 l -0.3221,3.93857 -1.87901,-4.19689 c -1.32174,-2.95222 -2.48664,-4.19689 -3.92789,-4.19689 -1.91465,0 -2.04889,0.59449 -2.04889,9.07332 0,8.10106 0.18752,9.03776 1.75,8.74138 1.29192,-0.24506 1.83938,-1.50759 2.09149,-4.82333 z M 34.984808,148.3761 c -1.665488,-1.05456 -1.226064,-4.59783 1.851983,-14.93333 1.858181,-6.23943 2.429917,-7.15144 4.4832,-7.15144 1.729625,0 3.203837,1.32528 5.5619,5 1.764675,2.75 3.532245,5 3.927945,5 0.39569,0 1.36128,-2.1375 2.14575,-4.75 1.207,-4.01965 1.8107,-4.75 3.92631,-4.75 3.5236,0 3.64608,2.77863 0.56738,12.87208 -3.51873,11.53612 -5.83491,12.14667 -11.220042,2.95764 -1.395563,-2.38135 -2.894546,-4.32972 -3.331074,-4.32972 -0.436528,0 -1.070962,1.478 -1.409855,3.28446 -0.624691,3.32988 -3.145446,7.72823 -4.413118,7.70023 -0.381313,-0.008 -1.321983,-0.41339 -2.090379,-0.89992 z m 29.097088,-0.28477 c -1.64424,-1.64424 -1.50683,-3.08564 1.16785,-12.25035 2.39163,-8.19484 4.07176,-10.36241 7.12419,-9.19108 1.39305,0.53457 1.64321,1.42051 1.18989,4.21401 l -0.574,3.53714 4.11245,-0.30486 c 3.70919,-0.27497 4.22684,-0.64807 5.27897,-3.80486 0.8709,-2.61306 1.81,-3.57706 3.70583,-3.8041 3.73945,-0.44781 3.92448,1.49127 1.08948,11.41776 -3.30323,11.566 -4.47355,13.06459 -7.6905,9.84765 -1.02981,-1.02981 -1.34281,-2.51806 -0.94643,-4.5 0.57905,-2.89526 0.50112,-2.96131 -3.49419,-2.96131 -3.90338,0 -4.13347,0.17459 -5.13586,3.89718 -0.57717,2.14344 -1.75632,4.16844 -2.62033,4.5 -2.00157,0.76807 -1.80562,0.80456 -3.20735,-0.59718 z m 28.78041,-0.3236 c -1.02723,-1.23773 -0.93071,-2.78566 0.51441,-8.25 2.93433,-11.09542 4.13294,-13.41788 6.734354,-13.04868 1.83167,0.25995 2.26896,0.9508 2.26116,3.57228 -0.005,1.7875 0.15939,3.25 0.36602,3.25 0.20663,0 2.56536,-1.60736 5.24162,-3.57192 5.12612,-3.76292 9.12617,-4.26862 9.70571,-1.22703 0.30517,1.60165 -0.85566,2.9064 -6.76345,7.60202 l -2.45977,1.95507 3.17863,3.62027 c 3.22554,3.67368 3.38292,5.96938 0.48547,7.08124 -1.06325,0.408 -3.14759,-0.90925 -6.20703,-3.92268 -2.53343,-2.49534 -4.89252,-4.53697 -5.24243,-4.53697 -0.34991,0 -0.933724,1.35463 -1.297364,3.01029 -0.6544,2.97944 -2.8892,5.98971 -4.44673,5.98971 -0.44337,0 -1.37514,-0.68562 -2.0706,-1.5236 z m 40.561784,0.2736 c -0.57074,-1.80593 -3.54664,-19.01873 -3.54423,-20.5 0.001,-0.6875 0.85785,-1.25 1.90385,-1.25 1.58897,0 2.02094,1.02809 2.62602,6.25 1.2186,10.51653 2.03629,10.98019 3.44088,1.9511 1.18399,-7.61103 1.44686,-8.2011 3.65353,-8.2011 1.55338,0 2.37776,0.57833 2.37776,1.66809 0,2.62116 2.18277,14.48247 2.59016,14.07508 0.20123,-0.20123 0.88046,-3.82576 1.50941,-8.05452 0.95936,-6.45028 1.4461,-7.68865 3.02199,-7.68865 2.26377,0 2.27705,0.36222 0.38511,10.5 -2.3744,12.72303 -2.28473,12.5 -5.02573,12.5 -1.64973,0 -2.48094,-0.55888 -2.48094,-1.66809 0,-0.91745 -0.51424,-4.62106 -1.14276,-8.23025 -1.29985,-7.46431 -2.14964,-6.53311 -3.32941,3.64834 -0.66695,5.75582 -0.9166,6.25 -3.15741,6.25 -1.33826,0 -2.61096,-0.5625 -2.82823,-1.25 z m 28.0564,-0.0542 c -3.45171,-2.52395 -4.08577,-17.60858 -0.87511,-20.81924 2.08096,-2.08095 7.74862,-2.12456 10.27471,-0.0791 2.12048,1.71706 2.5019,2.98034 2.82123,9.34402 0.31953,6.36766 0.0775,7.72883 -1.79766,10.10853 -2.41317,3.0625 -7.28751,3.7386 -10.42317,1.44575 z m 7.58915,-5.69575 c 1.66828,-7.66476 -1.27647,-15.83111 -4.68774,-13 -1.55075,1.287 -2.16143,12.11279 -0.87273,15.47108 1.14342,2.97969 4.72002,1.39024 5.56047,-2.47108 z m 11.81226,-4.5 v -11.5 h 5.8 c 3.19,0 6.34,0.54 7,1.2 1.69146,1.69146 1.49297,7.31196 -0.31109,8.8092 -1.28808,1.06901 -1.30464,1.41914 -0.11218,2.37245 0.7694,0.61509 1.61911,3.25585 1.88825,5.86835 0.45777,4.44359 0.33953,4.75 -1.83303,4.75 -2.06111,0 -2.35666,-0.53438 -2.62716,-4.75 -0.27912,-4.34991 -0.53643,-4.77665 -3.05479,-5.06642 -2.67978,-0.30835 -2.75,-0.18705 -2.75,4.75 0,4.39975 -0.26318,5.06642 -2,5.06642 -1.88406,0 -2,-0.66667 -2,-11.5 z m 9.30701,-3.61408 c 1.51148,-2.41243 0.10632,-4.88592 -2.77563,-4.88592 -2.23574,0 -2.53138,0.41689 -2.53138,3.56955 0,3.08398 0.29217,3.52608 2.14787,3.25 1.18133,-0.17575 2.60294,-1.04589 3.15914,-1.93363 z m 12.35965,14.44741 c -0.36666,-0.36666 -0.66666,-5.54166 -0.66666,-11.5 v -10.83333 h 2.5 c 2.49122,0 2.5,0.0333 2.5,9.5 v 9.5 h 4 c 3.33333,0 4,0.33333 4,2 0,1.77143 -0.66667,2 -5.83334,2 -3.20833,0 -6.13333,-0.3 -6.5,-0.66667 z m 18.33334,-10.83333 v -11.5 h 5.94329 c 7.79147,0 9.05671,1.63765 9.05671,11.72251 0,9.43164 -1.55492,11.27749 -9.5,11.27749 h -5.5 z m 9.42857,6.92857 c 1.06282,-1.06282 1.57143,-3.42554 1.57143,-7.3 0,-5.9463 -1.12757,-8.12857 -4.2,-8.12857 -1.59216,0 -1.8,0.98148 -1.8,8.5 0,8.9664 0.93223,10.4249 4.42857,6.92857 z"
   id="path1" /></svg>
