<?xml version="1.0" encoding="UTF-8" standalone="no"?>
<!-- Generator: Adobe Illustrator 16.0.0, SVG Export Plug-In . SVG Version: 6.00 Build 0)  -->

<svg
   version="1.1"
   id="Layer_1"
   x="0px"
   y="0px"
   width="280px"
   height="280px"
   viewBox="0 0 280 280"
   enable-background="new 0 0 280 280"
   xml:space="preserve"
   sodipodi:docname="paramount.svg"
   inkscape:version="1.4 (e7c3feb100, 2024-10-09)"
   xmlns:inkscape="http://www.inkscape.org/namespaces/inkscape"
   xmlns:sodipodi="http://sodipodi.sourceforge.net/DTD/sodipodi-0.dtd"
   xmlns:xlink="http://www.w3.org/1999/xlink"
   xmlns="http://www.w3.org/2000/svg"
   xmlns:svg="http://www.w3.org/2000/svg"><defs
   id="defs23"><linearGradient
     id="linearGradient34"
     inkscape:collect="always"><stop
       style="stop-color:#50d8fc;stop-opacity:1;"
       offset="0"
       id="stop31" /><stop
       style="stop-color:#2173e3;stop-opacity:1;"
       offset="1"
       id="stop32" /></linearGradient><linearGradient
     inkscape:collect="always"
     xlink:href="#linearGradient34"
     id="linearGradient2"
     x1="134.839"
     y1="82.046997"
     x2="132.79742"
     y2="226.43086"
     gradientUnits="userSpaceOnUse"
     gradientTransform="matrix(1.1574015,0,0,1.1574015,-18.822177,-21.405589)" /><linearGradient
     inkscape:collect="always"
     xlink:href="#linearGradient34"
     id="linearGradient3"
     x1="134.839"
     y1="82.046997"
     x2="132.79742"
     y2="226.43086"
     gradientUnits="userSpaceOnUse"
     gradientTransform="matrix(1.1574015,0,0,1.1574015,-18.822177,-21.405589)" /><linearGradient
     inkscape:collect="always"
     xlink:href="#linearGradient34"
     id="linearGradient4"
     x1="134.839"
     y1="82.046997"
     x2="132.79742"
     y2="226.43086"
     gradientUnits="userSpaceOnUse"
     gradientTransform="matrix(1.1574015,0,0,1.1574015,-18.822177,-21.405589)" /><linearGradient
     inkscape:collect="always"
     xlink:href="#linearGradient34"
     id="linearGradient5"
     x1="134.839"
     y1="82.046997"
     x2="132.79742"
     y2="226.43086"
     gradientUnits="userSpaceOnUse"
     gradientTransform="matrix(1.1574015,0,0,1.1574015,-18.822177,-21.405589)" /><linearGradient
     inkscape:collect="always"
     xlink:href="#linearGradient34"
     id="linearGradient6"
     x1="134.839"
     y1="82.046997"
     x2="132.79742"
     y2="226.43086"
     gradientUnits="userSpaceOnUse"
     gradientTransform="matrix(1.1574015,0,0,1.1574015,-18.822177,-21.405589)" /><linearGradient
     inkscape:collect="always"
     xlink:href="#linearGradient34"
     id="linearGradient7"
     x1="134.839"
     y1="82.046997"
     x2="132.79742"
     y2="226.43086"
     gradientUnits="userSpaceOnUse"
     gradientTransform="matrix(1.1574015,0,0,1.1574015,-18.822177,-21.405589)" /><linearGradient
     inkscape:collect="always"
     xlink:href="#linearGradient34"
     id="linearGradient8"
     x1="134.839"
     y1="82.046997"
     x2="132.79742"
     y2="226.43086"
     gradientUnits="userSpaceOnUse"
     gradientTransform="matrix(1.1574015,0,0,1.1574015,-18.822177,-21.405589)" /><linearGradient
     inkscape:collect="always"
     xlink:href="#linearGradient34"
     id="linearGradient9"
     x1="134.839"
     y1="82.046997"
     x2="132.79742"
     y2="226.43086"
     gradientUnits="userSpaceOnUse"
     gradientTransform="matrix(1.1574015,0,0,1.1574015,-18.822177,-21.405589)" /><linearGradient
     inkscape:collect="always"
     xlink:href="#linearGradient34"
     id="linearGradient10"
     x1="134.839"
     y1="82.046997"
     x2="132.79742"
     y2="226.43086"
     gradientUnits="userSpaceOnUse"
     gradientTransform="matrix(1.1574015,0,0,1.1574015,-18.822177,-21.405589)" /><linearGradient
     inkscape:collect="always"
     xlink:href="#linearGradient34"
     id="linearGradient11"
     x1="134.839"
     y1="82.046997"
     x2="132.79742"
     y2="226.43086"
     gradientUnits="userSpaceOnUse"
     gradientTransform="matrix(1.1574015,0,0,1.1574015,-18.822177,-21.405589)" /><linearGradient
     inkscape:collect="always"
     xlink:href="#linearGradient34"
     id="linearGradient12"
     x1="134.839"
     y1="82.046997"
     x2="132.79742"
     y2="226.43086"
     gradientUnits="userSpaceOnUse"
     gradientTransform="matrix(1.1574015,0,0,1.1574015,-18.822177,-21.405589)" /><linearGradient
     inkscape:collect="always"
     xlink:href="#linearGradient34"
     id="linearGradient13"
     x1="134.839"
     y1="82.046997"
     x2="132.79742"
     y2="226.43086"
     gradientUnits="userSpaceOnUse"
     gradientTransform="matrix(1.1574015,0,0,1.1574015,-18.822177,-21.405589)" /><linearGradient
     inkscape:collect="always"
     xlink:href="#linearGradient34"
     id="linearGradient14"
     x1="134.839"
     y1="82.046997"
     x2="132.79742"
     y2="226.43086"
     gradientUnits="userSpaceOnUse"
     gradientTransform="matrix(1.1574015,0,0,1.1574015,-18.822177,-21.405589)" /><linearGradient
     inkscape:collect="always"
     xlink:href="#linearGradient34"
     id="linearGradient15"
     x1="134.839"
     y1="82.046997"
     x2="132.79742"
     y2="226.43086"
     gradientUnits="userSpaceOnUse"
     gradientTransform="matrix(1.1574015,0,0,1.1574015,-18.822177,-21.405589)" /><linearGradient
     inkscape:collect="always"
     xlink:href="#linearGradient34"
     id="linearGradient16"
     x1="134.839"
     y1="82.046997"
     x2="132.79742"
     y2="226.43086"
     gradientUnits="userSpaceOnUse"
     gradientTransform="matrix(1.1574015,0,0,1.1574015,-18.822177,-21.405589)" /><linearGradient
     inkscape:collect="always"
     xlink:href="#linearGradient34"
     id="linearGradient17"
     x1="134.839"
     y1="82.046997"
     x2="132.79742"
     y2="226.43086"
     gradientUnits="userSpaceOnUse"
     gradientTransform="matrix(1.1574015,0,0,1.1574015,-18.822177,-21.405589)" /><linearGradient
     inkscape:collect="always"
     xlink:href="#linearGradient34"
     id="linearGradient20"
     x1="134.839"
     y1="82.046997"
     x2="145.539"
     y2="82.047"
     gradientUnits="userSpaceOnUse"
     gradientTransform="matrix(1.1574015,0,0,1.1574015,-18.822177,-21.405589)" /><linearGradient
     inkscape:collect="always"
     xlink:href="#linearGradient34"
     id="linearGradient21"
     x1="168.927"
     y1="81.870337"
     x2="179.10992"
     y2="81.870337"
     gradientUnits="userSpaceOnUse"
     gradientTransform="matrix(1.1574015,0,0,1.1574015,-18.822177,-21.405589)" /><linearGradient
     inkscape:collect="always"
     xlink:href="#linearGradient34"
     id="linearGradient23"
     x1="153.95499"
     y1="74.726685"
     x2="150.3537"
     y2="211.1254"
     gradientUnits="userSpaceOnUse"
     gradientTransform="matrix(1.1574015,0,0,1.1574015,-18.822177,-21.405589)" /></defs><sodipodi:namedview
   id="namedview23"
   pagecolor="#ffffff"
   bordercolor="#000000"
   borderopacity="0.25"
   inkscape:showpageshadow="2"
   inkscape:pageopacity="0.0"
   inkscape:pagecheckerboard="0"
   inkscape:deskcolor="#d1d1d1"
   inkscape:zoom="1.650956"
   inkscape:cx="182.31861"
   inkscape:cy="164.14732"
   inkscape:window-width="1600"
   inkscape:window-height="824"
   inkscape:window-x="0"
   inkscape:window-y="0"
   inkscape:window-maximized="1"
   inkscape:current-layer="g23"
   inkscape:lockguides="true" />

<g
   id="g23">
	
	<path
   fill-rule="evenodd"
   clip-rule="evenodd"
   fill="#FCFDFE"
   d="m 110.72231,200.36296 c 1.4537,-0.99189 2.7685,-2.18633 4.54511,-2.71526 1.01967,-0.30323 2.11457,-0.66666 3.02197,0.13311 0.95487,0.84142 0.43288,1.84489 0.0335,2.72799 -0.45254,1.00346 -1.06018,1.94906 -1.60185,2.92012 -0.17361,0.3125 -0.35184,0.65509 -0.0579,0.94908 0.28936,0.29166 0.71991,0.20833 1.06018,0.0834 1.47106,-0.54283 2.72569,-1.40393 3.93285,-2.32869 4.75693,-3.63309 10.09602,-5.49072 16.36913,-4.50114 0.24653,0.0405 0.50231,0.0382 0.74769,0.0811 2.60184,0.47222 2.80437,0.82986 1.74998,3.03818 -2.4097,5.0428 -4.84719,10.0775 -7.19209,15.14575 -0.42824,0.92477 -1.44675,2.23148 -0.17477,2.94791 1.14236,0.64699 2.14583,-0.56482 2.96295,-1.31829 2.65161,-2.43632 4.44327,-5.40274 5.98956,-8.49532 1.64119,-3.28471 3.25924,-6.5833 4.77659,-9.91662 0.46527,-1.02198 1.06366,-1.43286 2.24073,-1.33564 0.93518,0.0764 1.89236,0.0903 2.82291,0 1.76503,-0.16897 1.88772,0.46065 1.1574,1.70485 -0.21875,0.37269 -0.54977,0.78704 -0.32987,1.44907 0.87268,-0.6331 1.65509,-1.23841 2.48263,-1.78587 1.02083,-0.67823 2.13425,-1.20254 3.35878,-1.5081 3.8229,-0.956 5.41433,0.0382 5.81595,3.80671 2.30901,-1.80671 4.62265,-3.41318 7.61339,-3.94906 4.02197,-0.71875 6.14348,1.17823 5.14349,4.80784 -1.04861,3.81132 -3.28124,7.184 -4.97915,10.75342 -0.59953,1.26156 -1.24999,2.50462 -1.82175,3.77776 -0.29976,0.66666 -0.83217,1.478 0.0301,2.03471 0.79514,0.51273 1.60648,-0.0497 2.21643,-0.5 2.53934,-1.8692 4.47104,-4.19789 5.60183,-6.99418 1.40393,-3.46988 2.98841,-6.84487 5.75344,-9.59832 3.28933,-3.27545 7.29047,-5.03008 12.27077,-4.21642 2.75577,0.45023 4.39349,2.03009 5.09603,4.49188 0.71181,2.49072 2.57291,3.11688 5.00809,1.67938 1.65161,-0.97453 2.67128,-2.4479 3.31017,-4.08678 0.59606,-1.52546 1.56943,-2.13425 3.35183,-1.94675 1.40393,0.1493 2.84142,0.029 4.56016,0.029 -1.30555,2.6273 -2.4942,5.00923 -3.67475,7.39464 -1.88772,3.81363 -3.80206,7.61802 -5.62613,11.45596 -0.33796,0.7118 -1.08912,1.69559 -0.0116,2.32638 0.92015,0.53819 1.81482,-0.13311 2.53472,-0.67824 2.87035,-2.17476 4.76387,-5.03008 6.309,-8.05899 1.88193,-3.68748 3.61109,-7.4421 5.33909,-11.19438 0.42708,-0.92708 0.97105,-1.34491 2.10299,-1.26621 1.31134,0.0903 2.64004,0.088 3.95369,0.002 1.3449,-0.0879 1.45369,0.31019 0.95486,1.3426 -2.57869,5.35298 -5.1053,10.72679 -7.64927,16.0925 -0.29977,0.63079 -0.65162,1.24768 -0.85879,1.90509 -0.19213,0.61226 -0.82639,1.36342 0.0533,1.8692 0.75463,0.43403 1.4398,-0.10184 2.04166,-0.50809 1.80322,-1.22338 2.99535,-2.92245 4.22219,-4.59142 3.10647,-4.2222 5.06247,-8.96292 7.1759,-13.6203 0.78008,-1.71758 1.68055,-2.63309 3.82405,-2.31712 1.15277,0.16898 2.35994,0.029 3.57174,0.029 -0.0139,0.96064 -0.59954,1.59836 -0.84721,2.34605 0.77777,0.3912 1.15045,-0.21296 1.61573,-0.54282 1.61225,-1.1412 3.36109,-1.99421 5.40274,-2.28124 3.53124,-0.49999 5.73146,1.63657 4.94327,4.82868 -0.59953,2.43054 -1.92592,4.59373 -3.04744,6.83098 -1.33217,2.65855 -2.66897,5.3171 -3.96294,7.98839 -0.27546,0.56713 -0.57176,1.3206 0.0186,1.77661 0.66551,0.51736 1.43054,0.0683 2.06712,-0.29629 1.2986,-0.74652 2.26619,-1.8044 3.20137,-2.89351 3.89118,-4.52775 6.04395,-9.89463 8.64463,-15.0439 0.37616,-0.74768 0.0579,-0.91551 -0.68634,-0.89236 -0.62152,0.0185 -1.24536,0.002 -1.93633,0.002 0.15625,-1.42013 0.86227,-2.04396 2.33101,-1.82406 1.17244,0.17592 1.7905,-0.2801 2.2303,-1.3067 0.93866,-2.18865 2.07986,-4.30207 3.04629,-6.47914 0.36111,-0.81134 0.80671,-1.16203 1.7905,-1.12384 1.75347,0.0705 3.51155,0.0208 5.55553,0.0208 -1.08911,2.33333 -2.10647,4.5185 -3.13193,6.70252 -1.01852,2.17012 -1.02083,2.15854 1.45485,2.19443 0.54514,0.007 1.12616,-0.15394 1.62963,0.18286 -0.0231,1.36111 -0.84028,1.84722 -2.19675,1.62268 -2.21064,-0.36226 -3.31364,0.47686 -4.11225,2.40972 -2.14583,5.20136 -5.09026,10.10296 -7.05089,15.37839 -0.38194,1.02662 -0.67824,2.10184 -0.80787,3.1759 -0.24768,2.03241 1.01968,2.97222 3.21758,2.5949 1.63888,-0.28241 2.80786,-1.23031 3.96757,-2.19328 1.30902,-1.08563 2.37152,-2.37383 3.41087,-3.67358 0.28008,-0.3507 0.56365,-0.65162 1.0486,-0.23032 0.36342,0.31365 0.79282,0.55786 0.32754,1.12152 -2.92938,3.56479 -5.85182,7.11339 -11.19902,7.76268 -4.4803,0.54283 -7.41431,-2.1435 -6.81593,-6.27311 0.0961,-0.65741 0.19675,-1.31365 0.36342,-2.41897 -1.69096,1.49652 -2.91434,2.80091 -4.48261,3.74304 -1.59027,0.95601 -3.22568,1.75694 -5.20831,1.74999 -2.77198,-0.01 -4.31133,-1.57986 -3.92938,-4.09836 0.25347,-1.66203 0.86342,-3.22567 1.64351,-4.73841 1.76272,-3.42475 3.55091,-6.84024 5.25113,-10.29045 0.43519,-0.88657 1.35879,-2.08217 0.20949,-2.81943 -1.09722,-0.70486 -2.27082,0.21064 -3.18864,0.89698 -1.67939,1.25463 -2.82522,2.92013 -3.85877,4.63424 -2.81943,4.67937 -4.90971,9.6724 -7.25807,14.55085 -0.5787,1.20486 -1.26157,1.63888 -2.65624,1.53703 -1.55786,-0.11574 -3.13308,-0.0266 -4.76734,-0.0266 -0.0497,-0.90855 0.63079,-1.53009 0.77894,-2.29396 0.15509,-0.23033 0.36458,-0.46991 0.0995,-0.7257 -0.0266,-0.0243 -0.34607,0.20602 -0.52777,0.31597 -1.47685,1.24537 -2.9317,2.51156 -4.94327,3.04049 -3.50577,0.92246 -5.34835,-0.31249 -5.37265,-3.62613 -0.001,-0.34144 0,-0.6875 0,-1.15509 -0.90509,0.25811 -1.27778,0.96759 -1.82522,1.44907 -1.78819,1.57291 -3.70948,2.93401 -6.17358,3.47683 -3.04628,0.6713 -5.24419,-0.94096 -5.21873,-3.79512 0.0127,-1.40624 0.43171,-2.72221 1.06134,-3.98724 1.50346,-3.02429 3.01619,-6.04743 4.60066,-9.22102 -1.55091,0.074 -2.96409,0.40509 -4.44442,0.14004 -0.74768,-0.13541 -0.63772,0.92708 -0.75925,1.46296 -0.87731,3.83446 -2.60415,7.31015 -5.2708,10.36221 -2.70601,3.09953 -6.16085,5.05437 -10.59602,5.20369 -4.91201,0.1655 -7.49765,-1.91436 -8.06592,-6.49419 -1.19445,0.54513 -1.73148,1.60763 -2.54745,2.38888 -1.93402,1.85184 -3.94211,3.54512 -6.89696,3.87961 -3.76618,0.42939 -5.60992,-1.40162 -4.83331,-4.77197 0.27547,-1.19559 0.7882,-2.29628 1.34259,-3.38655 1.7743,-3.48379 3.57869,-6.95599 5.34373,-10.44324 0.33912,-0.6713 0.64235,-1.3831 0.79166,-2.10416 0.22106,-1.06481 -0.34144,-1.51041 -1.51504,-1.26851 -1.08564,0.22338 -1.9236,0.81134 -2.68749,1.51041 -2.12962,1.94443 -3.47567,4.34489 -4.68169,6.81593 -1.94212,3.98031 -3.85646,7.97334 -5.72103,11.98375 -0.42708,0.91782 -0.95139,1.33332 -2.09606,1.27082 -1.74768,-0.0972 -3.50576,-0.0243 -5.2465,-0.0243 -0.17824,-0.73726 0.25579,-1.20485 0.49537,-1.71526 2.69211,-5.74419 5.41433,-11.47912 8.07519,-17.23718 0.35763,-0.77315 1.29744,-1.76967 0.2037,-2.47568 -1.04397,-0.6713 -2.02314,0.22106 -2.81827,0.81133 -2.59142,1.93055 -4.30785,4.47336 -5.662,7.21756 -1.98727,4.02428 -3.92476,8.07056 -5.8229,12.13188 -0.42708,0.91551 -0.94675,1.33333 -2.09026,1.2662 -1.6875,-0.0995 -3.38656,-0.0243 -5.28007,-0.0243 0.41435,-1.03355 0.78587,-1.95717 1.15741,-2.87961 -0.0752,-0.0636 -0.15162,-0.12616 -0.22801,-0.18982 -0.41666,0.34606 -0.8426,0.68287 -1.24768,1.03704 -0.95949,0.84374 -2.00578,1.56712 -3.24883,2.02082 -3.61688,1.32291 -5.76617,-0.029 -6.4259,-4.14118 -1.20601,0.97221 -2.31827,1.95369 -3.52891,2.82174 -1.5648,1.12153 -3.31364,1.81249 -5.38423,1.70948 -2.72105,-0.13542 -4.38192,-1.62268 -4.53817,-4.13886 -0.23959,-3.81364 1.56017,-7.0208 3.57058,-10.16778 0.43403,-0.68055 0.91898,-1.33332 1.57522,-2.28124 -2.04397,0.61459 -3.85878,1.76504 -5.60067,0.60186 -2.04165,-1.36574 -0.20717,-3.00231 0.0776,-4.71063 -1.13772,0.18518 -1.65856,0.91319 -2.20717,1.52545 -1.60531,1.78819 -2.72683,3.84489 -3.74071,5.95252 -1.87153,3.88308 -3.75924,7.76038 -5.57636,11.66429 -0.39467,0.84954 -0.836805,1.26389 -1.918981,1.20254 -1.680539,-0.0972 -3.372663,-0.0243 -5.281222,-0.0243 0.51968,-1.20022 0.967593,-2.2361 1.538194,-3.55323 -1.393515,1.0081 -2.460637,1.86458 -3.621518,2.59722 -1.190956,0.75231 -2.489566,1.31596 -4.004604,1.33332 -2.547441,0.029 -3.662018,-0.8993 -3.825213,-3.25577 -0.01852,-0.26504 -0.03819,-0.52893 -0.07176,-0.9861 -1.042818,0.85648 -1.887722,1.60068 -2.785865,2.28355 -1.020828,0.77546 -2.171285,1.34721 -3.457158,1.69791 -4.538172,1.23842 -7.660841,-1.10301 -7.199038,-5.41433 0.866894,-8.09023 9.560137,-17.39228 18.145742,-19.38184 3.111093,-0.72106 6.219869,-0.51968 9.313603,0.15393 1.355324,0.29629 1.66435,0.88889 1.063653,2.10647 -2.444428,4.96873 -4.802057,9.97333 -7.190938,14.96521 -0.201382,0.42013 -0.460644,0.82754 -0.577539,1.2685 -0.250001,0.94445 -1.266194,2.1493 -0.02663,2.79861 1.072904,0.56249 2.074062,-0.522 2.832159,-1.24075 2.869193,-2.72568 4.81363,-6.00806 6.504598,-9.42008 1.474527,-2.97684 2.959467,-5.95599 4.281227,-8.9907 0.5868,-1.34953 1.42591,-1.88541 2.9479,-1.67939 0.49189,0.0683 1.00347,0.0116 1.50577,0.0116 2.47801,0 2.47801,0 1.69328,2.12268 -0.17129,0.25578 -0.42707,0.51967 -0.0717,0.79166 0.0394,0.0347 0.3287,-0.21874 0.5,-0.34143 z m 72.48111,18.0763 c 0.0196,0.9537 0.0729,1.82639 0.96412,2.23379 0.88888,0.40741 1.83332,0.228 2.68517,-0.26042 1.15046,-0.6574 1.93633,-1.62731 2.65392,-2.64003 2.81943,-3.97683 4.8472,-8.2731 6.16663,-12.85179 0.28588,-0.99421 0.51852,-2.01619 0.61921,-3.03817 0.0764,-0.79167 -0.002,-1.69328 -0.92244,-2.09954 -0.84606,-0.37499 -1.76157,-0.20369 -2.47452,0.34607 -0.71182,0.55208 -1.39121,1.16434 -1.96065,1.84027 -2.86341,3.39582 -4.81015,7.22912 -6.33214,11.26383 -0.65509,1.73726 -1.18865,3.49882 -1.3993,5.20599 z m -48.82036,-18.84712 c -2.89929,0.0208 -4.95136,1.18055 -6.66663,2.79397 -4.00693,3.77081 -6.69904,8.26499 -8.29046,13.31243 -0.13774,0.43634 -0.25,0.89235 -0.28356,1.34489 -0.13774,1.84954 0.93054,2.56596 2.8009,1.84027 1.42939,-0.55207 2.43749,-1.58911 3.34142,-2.70831 4.03008,-4.98841 6.06711,-10.87495 9.09833,-16.58325 z m -56.021701,19.49758 c 1.002309,0.0208 1.810176,-0.5405 2.574062,-1.1412 1.248836,-0.98379 2.218738,-2.18864 3.098363,-3.45137 3.049753,-4.38076 4.977985,-9.25921 7.355289,-13.93859 0.590269,-1.15971 -0.252313,-0.98957 -0.951383,-0.86573 -2.66087,0.47222 -4.677063,1.93054 -6.35761,3.75693 -2.975679,3.23493 -5.207149,6.88769 -6.733762,10.87957 -0.388887,1.01967 -0.622682,2.10878 -0.755784,3.18516 -0.128471,1.03242 0.47685,1.62731 1.770825,1.57523 z"
   id="path2"
   style="fill:url(#linearGradient2);fill-opacity:1;stroke-width:1.1574" />
	<path
   fill-rule="evenodd"
   clip-rule="evenodd"
   fill="#FCFDFE"
   d="m 188.34344,142.76719 c 0.044,-0.45486 0.11689,-0.73263 0.0868,-1 -0.12153,-1.17013 0.35532,-1.19096 1.38425,-0.76388 2.05785,0.85532 3.66549,2.19559 5.14581,3.69674 6.91084,6.99418 13.47677,14.25687 19.94665,21.5948 0.54745,0.62152 1.10301,1.23842 1.65509,1.85647 -0.48843,0.54513 -1.09491,0.32987 -1.61458,0.32292 -4.52081,-0.059 -9.04046,-0.18982 -13.56127,-0.2014 -1.38079,-0.002 -2.15739,-0.49305 -2.78934,-1.57984 -2.60878,-4.49188 -6.01502,-8.46756 -9.64579,-12.29045 -0.36341,-0.38426 -0.66782,-1.15972 -1.45022,-0.73958 -0.72916,0.3912 -0.31481,1.04629 -0.11458,1.55555 0.97916,2.48031 1.99767,4.94558 2.99999,7.41894 0.13078,0.32292 0.26041,0.64699 0.37731,0.97454 1.17707,3.2847 0.45833,4.02428 -3.23032,3.49882 -3.77659,-0.53588 -7.55898,-1.03587 -11.28466,-1.83101 -1.15277,-0.24652 -1.44212,0.029 -1.21411,1.10069 0.44097,2.09374 0.38888,2.10184 -2.01041,2.10415 -3.07753,0.002 -6.15738,-0.0787 -9.23143,0.0313 -1.59838,0.059 -2.02546,-0.51504 -2.13193,-1.86689 -0.22339,-2.82175 0.48841,-5.47451 1.38772,-8.11339 0.99189,-2.90507 2.17012,-5.75575 3.64812,-8.47449 0.67361,-1.2361 0.27547,-1.57754 -0.92708,-2.04397 -3.809,-1.47106 -7.78583,-1.62731 -11.82054,-1.52546 -1.24304,0.0313 -2.48725,0.004 -3.84372,0.004 0.26157,-1.44906 1.01851,-2.58563 1.56943,-3.77775 1.90277,-4.1192 3.86689,-8.21525 5.82058,-12.31592 0.56713,-1.18981 0.93518,-2.33911 -0.68981,-3.08332 -0.73495,-0.33564 -0.35533,-0.73841 -0.17014,-1.12846 2.55785,-5.42243 5.1458,-10.83097 7.66894,-16.26844 0.40972,-0.88194 0.75926,-0.78472 1.48032,-0.3287 1.68402,1.06365 3.03817,2.35879 4.05322,4.00229 5.70599,9.24533 11.44554,18.47445 17.18972,27.70125 0.29978,0.47569 0.44444,1.07638 1.31597,1.4699 z"
   id="path3"
   style="fill:url(#linearGradient3);fill-opacity:1;stroke-width:1.1574" />
	<path
   fill-rule="evenodd"
   clip-rule="evenodd"
   fill="#FCFDFE"
   d="m 58.454053,168.4534 c 7.39811,0.10184 14.089049,0.83449 20.192027,3.94443 10.900408,5.55205 11.961749,17.53463 2.206007,24.69895 -5.184001,3.80438 -11.253415,5.71061 -17.682781,6.73145 -1.659714,0.26273 -2.502301,0.75694 -3.043965,2.331 -2.826376,8.18746 -7.162002,15.58209 -14.611038,21.0705 -8.231439,6.06478 -17.636484,8.05436 -27.917682,5.9201 -4.526598,-0.93865 -7.9907006,-3.3391 -9.0555104,-7.81246 -0.3749977,-1.5729 -0.4884231,-3.19905 0.1284714,-4.75576 0.5763857,-1.45601 2.090267,-2.21064 3.577529,-1.78356 1.574066,0.45255 2.07985,1.5081 1.844897,2.96411 -0.46296,2.88193 -0.289349,5.66664 2.055546,7.91431 2.565959,2.4618 5.900433,2.85994 9.379581,2.67707 7.179362,-0.37731 12.247624,-3.9722 16.248761,-9.10759 4.589098,-5.88885 7.471028,-12.58674 10.679345,-19.12837 3.262714,-6.65506 6.48492,-13.33442 11.73605,-18.96403 1.685178,-1.80438 3.609936,-3.35878 5.746499,-4.69327 0.318286,-0.19907 0.679395,-0.64929 1.133097,-0.20138 0.436341,0.42939 -0.02777,0.73495 -0.265045,1.03935 -4.549746,5.86571 -6.685151,12.65734 -8.8819,19.42699 -0.356479,1.09837 0.08449,1.27082 1.18518,1.11457 10.352956,-1.46296 19.307772,-11.31592 15.212885,-22.34132 -1.603,-4.31364 -5.302056,-6.91547 -9.966384,-7.92126 -14.277706,-3.081 -27.092456,-0.50231 -37.439626,9.39463 -5.245343,5.0208 -7.115704,11.29623 -5.599508,18.18856 1.239577,5.63077 6.553208,8.46177 12.305493,6.76386 3.752295,-1.10532 6.008072,-4.15276 6.067098,-8.44325 0.01968,-1.47337 0.585646,-2.36688 2.179388,-2.45947 1.423604,-0.0811 2.43633,0.45717 2.446747,1.97105 0.02315,3.49073 -1.528928,6.23724 -4.667801,8.18514 -5.098353,3.16434 -13.908494,3.13078 -18.9212,-0.1655 -4.55669,-2.99536 -5.840249,-7.3333 -5.293955,-12.18628 0.887727,-7.87844 5.768489,-13.43397 12.768454,-17.58904 8.143477,-4.83214 17.229079,-6.68399 26.25334,-6.78353 z"
   id="path4"
   style="fill:url(#linearGradient17);fill-opacity:1;stroke-width:1.1574" />
	<path
   fill-rule="evenodd"
   clip-rule="evenodd"
   fill="#FCFDFE"
   d="m 151.06354,133.09711 c 0.1817,0.90161 -0.27663,1.35531 -0.53356,1.85647 -1.41319,2.75114 -2.88772,5.47566 -4.26156,8.24532 -0.8206,1.65277 -1.90971,3.37961 0.20371,4.9641 0.0868,0.066 0.13078,0.19907 0.15624,0.30787 0.24884,1.08101 -2.56248,5.30784 -3.74766,5.66895 -1.45717,0.4456 -2.66202,1.26157 -3.77776,2.20369 -2.32638,1.96179 -4.17012,4.28123 -5.90275,6.68631 -0.27546,0.38194 -0.40856,1.10069 -1.17477,0.86342 -0.74536,-0.23032 -0.98494,-0.8611 -0.98841,-1.52777 -0.003,-0.59027 0.32291,-1.09606 0.65046,-1.59142 0.94096,-1.42593 1.95948,-2.81712 2.76735,-4.30207 0.6111,-1.12615 2.17359,-2.01619 1.24999,-3.6435 -0.11227,-0.19675 0.36342,-0.68749 0.59027,-1.02893 2.2037,-3.34141 4.4479,-6.662 6.61108,-10.02657 2.12383,-3.30554 4.93285,-6.04742 8.15737,-8.67587 z"
   id="path5"
   style="fill:url(#linearGradient4);fill-opacity:1;stroke-width:1.1574" />
	<path
   fill-rule="evenodd"
   clip-rule="evenodd"
   fill="#456BB3"
   d="m 226.81547,133.04271 c -1.7986,-3.78123 -4.33331,-4.02545 -7.47913,-2.23263 -0.0394,-0.32176 -0.0938,-0.4456 -0.0533,-0.48495 2.34952,-2.22916 3.07753,-4.46063 -0.46875,-6.7627 1.50578,-0.22106 2.38772,0.25 3.22221,0.57407 1.28009,0.50115 2.09257,0.27199 2.77313,-0.82292 0.4537,-0.728 1.07523,-1.3692 1.66203,-2.09836 0.17592,0.1875 0.32638,0.28009 0.31365,0.3449 -0.66782,3.2604 0.79514,5.06942 4.6192,5.28122 -3.28355,0.98148 -6.11455,1.95833 -4.5891,6.20137 z"
   id="path6"
   style="fill:url(#linearGradient5);fill-opacity:1;stroke-width:1.1574" />
	<path
   fill-rule="evenodd"
   clip-rule="evenodd"
   fill="#456BB3"
   d="m 149.25799,77.213126 c -3.40045,-2.141194 -5.60646,-1.124996 -6.97219,2.107628 -0.14582,-0.09722 -0.2905,-0.195601 -0.43518,-0.293981 0,-0.85532 -0.0776,-1.71874 0.0186,-2.567116 0.13773,-1.219901 -0.26388,-1.925917 -1.6817,-2.148138 -0.88426,-0.140045 -1.72106,-0.532404 -2.94674,-0.93055 1.71294,-0.598376 3.46641,-0.752312 4.32868,-1.636566 0.90045,-0.924764 0.0914,-2.61457 0.36226,-3.953683 0.22916,0.0243 0.42476,0.0023 0.44908,0.05209 1.48378,3.050911 3.87498,3.52776 7.24417,1.575223 -0.81597,1.789342 -2.59952,2.671282 -2.47452,3.947897 0.11342,1.14467 1.38077,2.194433 2.14003,3.287021 -0.0127,0.186341 -0.0243,0.372683 -0.0325,0.560182 z"
   id="path7"
   style="fill:url(#linearGradient20);stroke-width:1.1574" />
	<path
   fill-rule="evenodd"
   clip-rule="evenodd"
   fill="#456BB3"
   d="m 107.73159,97.590341 c 2.89581,-2.525456 3.39581,-4.858781 -0.0556,-7.459457 3.60993,1.851841 6.04163,1.249994 7.73375,-2.240729 -0.94328,3.851832 0.98611,5.475668 4.83331,5.976825 -3.98378,0.409712 -5.72104,2.148132 -4.81942,5.958302 -1.67823,-3.634249 -4.21526,-4.050909 -7.69209,-2.234941 z"
   id="path8"
   style="fill:url(#linearGradient6);fill-opacity:1;stroke-width:1.1574" />
	<path
   fill-rule="evenodd"
   clip-rule="evenodd"
   fill="#456BB3"
   d="m 110.71999,146.39101 c -1.47568,0.0787 -3.32175,-0.30092 -4.32405,0.37269 -1.0081,0.67593 -1.17708,2.40045 -1.7199,3.67822 -0.0822,-0.0474 -0.19791,-0.0764 -0.23727,-0.14468 -0.71064,-1.18865 -0.45717,-3.03122 -1.74767,-3.62845 -1.13194,-0.52198 -2.781236,-0.10879 -4.383081,-0.51272 0.759252,-0.51968 1.471053,-1.1169 2.290501,-1.53935 1.21989,-0.62847 1.44675,-1.39699 0.87036,-2.54281 -0.3831,-0.7581 -0.55671,-1.60532 -0.83333,-2.43865 0.21875,-0.0208 0.37963,-0.0764 0.42477,-0.0335 2.47452,2.37268 4.91432,2.53587 7.21408,-0.31597 0.16204,0.33218 0.27199,0.45602 0.24074,0.51041 -1.65624,2.85184 -1.21296,5.07405 2.68286,6.27659 -0.15857,0.10534 -0.31829,0.2095 -0.47801,0.31829 z"
   id="path9"
   style="fill:url(#linearGradient7);fill-opacity:1;stroke-width:1.1574" />
	<path
   fill-rule="evenodd"
   clip-rule="evenodd"
   fill="#456BB3"
   d="m 215.24955,146.41995 c 0.66204,-0.93171 1.5486,-1.40162 2.37152,-1.82174 1.26504,-0.64469 1.33217,-1.42014 0.83449,-2.51157 -0.37963,-0.82986 -0.60185,-1.72221 -0.81597,-2.77776 2.50462,2.42012 4.99534,3.18285 7.66547,-0.18866 0.21064,1.40393 -0.26967,2.21527 -0.6331,2.97799 -0.56018,1.18055 -0.26273,1.91203 0.92939,2.52777 0.79398,0.40741 1.48495,0.98148 2.3449,1.79513 -3.80901,-0.75 -5.91548,0.51505 -6.02427,3.86572 -0.70718,0.14236 -0.61343,-0.19676 -0.67708,-0.35764 -1.29513,-3.36109 -1.29282,-3.36109 -5.13771,-3.45137 -0.22917,-0.005 -0.45602,-0.0313 -0.85764,-0.0578 z"
   id="path10"
   style="fill:url(#linearGradient8);fill-opacity:1;stroke-width:1.1574" />
	<path
   fill-rule="evenodd"
   clip-rule="evenodd"
   fill="#456BB3"
   d="m 169.63983,68.963167 c -3.85183,1.252308 -4.56363,3.46063 -2.48494,6.758067 -2.82985,-2.95253 -5.38075,-2.753458 -8.13538,0.01273 2.09953,-3.284705 1.36458,-5.528908 -2.54743,-6.843715 0.13773,-0.118056 0.27661,-0.236111 0.4155,-0.355323 0.83912,0 1.69328,-0.0949 2.51156,0.02084 1.70139,0.238426 2.5405,-0.370368 2.78587,-1.916656 0.11459,-0.718746 0.51157,-1.400456 0.79282,-2.124989 0.42824,0.290508 0.5081,0.677079 0.64236,1.045133 1.06481,2.949059 1.06712,2.947902 4.37845,2.975679 0.41319,0.0035 0.82869,0 1.24305,0 0.1331,0.143519 0.2662,0.285879 0.39814,0.428238 z"
   id="path11"
   style="fill:url(#linearGradient23);fill-opacity:1;stroke-width:1.1574" />
	<path
   fill-rule="evenodd"
   clip-rule="evenodd"
   fill="#456BB3"
   d="m 184.46267,67.835858 c -0.95948,3.199058 0.30556,5.112242 3.98841,5.205992 0.11574,0.53472 -0.13888,0.579858 -0.37268,0.656247 -3.63309,1.184022 -3.63309,1.185179 -3.74883,4.6678 -0.007,0.207175 -0.0358,0.41435 -0.0532,0.603006 -0.52431,0.06482 -0.63541,-0.247684 -0.80555,-0.454859 -2.21874,-2.682856 -2.21643,-2.682856 -5.70252,-1.737259 -0.28703,0.07755 -0.58795,0.11574 -0.90624,0.174767 -0.1088,-0.5787 0.36343,-0.851847 0.62731,-1.19328 1.84606,-2.402766 1.85299,-2.396979 -0.0509,-4.847198 -0.24421,-0.313656 -0.47337,-0.637728 -0.74421,-1.268513 3.4074,1.995361 5.64118,0.895829 7.2627,-1.913184 0.0139,-0.02199 0.20717,0.04167 0.50578,0.106481 z"
   id="path12"
   style="fill:url(#linearGradient21);stroke-width:1.1574" />
	<path
   fill-rule="evenodd"
   clip-rule="evenodd"
   fill="#456BB3"
   d="m 100.61587,114.67011 c 2.01968,-3.3773 1.13079,-5.52428 -2.458312,-6.76732 0.359948,-0.23728 0.462956,-0.35995 0.535869,-0.34607 3.604153,0.67361 5.473353,-0.77893 6.011543,-4.05437 0.21875,0.5706 0.55092,1.1273 0.63658,1.71294 0.29281,1.99305 1.49883,2.67476 3.5891,2.32755 0.58912,-0.0973 1.21411,-0.0151 2.00577,-0.0151 -0.52082,0.83796 -1.23726,1.22917 -1.90623,1.53935 -1.69791,0.78819 -1.8993,1.88194 -1.14814,3.34721 0.30902,0.603 0.46759,1.26967 0.70254,1.92938 -0.21644,0.0313 -0.37616,0.0973 -0.4213,0.0568 -2.42359,-2.228 -4.84951,-2.85994 -7.54742,0.26968 z"
   id="path13"
   style="fill:url(#linearGradient9);fill-opacity:1;stroke-width:1.1574" />
	<path
   fill-rule="evenodd"
   clip-rule="evenodd"
   fill="#456BB3"
   d="m 217.547,114.62497 c 2.08217,-3.26387 1.29976,-5.42705 -2.51156,-6.70135 0.10184,-0.13195 0.20602,-0.26273 0.31018,-0.39468 1.00115,0 2.0162,-0.0938 3.00115,0.0231 1.33679,0.16088 1.9236,-0.34722 2.18401,-1.49073 0.18981,-0.83565 0.56828,-1.63309 0.90046,-2.55091 0.86342,0.70138 0.95485,1.65508 1.15971,2.47915 0.3125,1.24189 0.97685,1.71179 2.34721,1.56017 0.91204,-0.10067 1.85069,-0.0197 3.39466,-0.0197 -1.21874,0.82176 -1.94212,1.41667 -2.76966,1.84259 -1.22106,0.62616 -1.42013,1.39467 -0.88194,2.54512 0.35417,0.75347 0.83565,1.53356 0.603,2.78819 -2.5405,-2.91087 -5.04742,-2.79397 -7.73722,-0.0811 z"
   id="path14"
   style="fill:url(#linearGradient10);fill-opacity:1;stroke-width:1.1574" />
	<path
   fill-rule="evenodd"
   clip-rule="evenodd"
   fill="#456BB3"
   d="m 131.17475,76.518684 c -2.12383,3.027763 -1.55207,5.226826 2.50924,6.504597 -1.52545,0.521988 -2.5648,0.364581 -3.54396,0.315971 -1.19676,-0.05903 -1.8067,0.259257 -2.103,1.392354 -0.23958,0.916662 -0.43865,1.905083 -1.12499,2.729152 -0.76157,-3.016188 -2.0706,-5.298584 -6.41895,-3.825211 0.0568,-0.167824 0.11343,-0.335647 0.17014,-0.504628 0.56366,-0.400461 1.07059,-0.912032 1.70253,-1.179392 1.90972,-0.804394 2.01967,-2.032397 1.22916,-3.591417 -0.28355,-0.557867 -0.43286,-1.173605 -0.64467,-1.76388 0.16552,-0.04398 0.30092,-0.123842 0.3669,-0.09028 1.29861,0.658561 2.34027,2.20022 3.71063,2.08911 1.24305,-0.101853 2.37615,-1.348373 3.5567,-2.090268 0.19675,0.0069 0.39351,0.0104 0.59027,0.01389 z"
   id="path15"
   style="fill:url(#linearGradient11);fill-opacity:1;stroke-width:1.1574" />
	<path
   fill-rule="evenodd"
   clip-rule="evenodd"
   fill="#456BB3"
   d="m 193.09226,83.288325 c 3.40045,-1.533556 4.08447,-3.74998 2.06133,-6.583299 0.5926,-0.278933 0.80902,-0.0092 1.03356,0.133101 3.03933,1.931704 3.03587,1.932861 6.01965,0.05209 0.25115,-0.158565 0.53356,-0.27662 1.17129,-0.480323 -2.00693,3.053226 -1.46758,5.318261 2.18518,6.526588 -0.23381,0.246527 -0.31945,0.396989 -0.37385,0.386572 -3.58678,-0.612265 -5.55206,0.722219 -5.62613,4.172432 -0.32754,-0.118055 -0.45833,-0.126156 -0.48727,-0.180554 -0.64814,-1.234947 -0.47337,-3.063642 -1.66087,-3.714102 -1.11342,-0.607635 -2.85877,-0.247683 -4.32289,-0.312498 z"
   id="path16"
   style="fill:url(#linearGradient12);fill-opacity:1;stroke-width:1.1574" />
	<path
   fill-rule="evenodd"
   clip-rule="evenodd"
   fill="#456BB3"
   d="m 210.96485,87.666776 c 1.52199,3.678222 3.92591,4.35414 7.44441,2.460635 -3.15739,2.590263 -2.99419,4.923587 -0.27315,7.343711 -1.42244,-0.36226 -2.92128,-1.164339 -4.24651,-0.971062 -1.43633,0.210653 -1.76619,2.076386 -3.20136,3.24883 0,-0.930549 -0.10185,-1.636567 0.0196,-2.311333 0.30208,-1.694437 -0.46875,-2.527758 -2.27314,-2.78702 -0.76041,-0.111114 -1.478,-0.464123 -2.46873,-0.792818 1.64698,-0.555558 3.36572,-0.716436 4.34372,-1.58101 1.05555,-0.932868 0.10879,-2.623832 0.65509,-4.609933 z"
   id="path17"
   style="fill:url(#linearGradient13);fill-opacity:1;stroke-width:1.1574" />
	<path
   fill-rule="evenodd"
   clip-rule="evenodd"
   fill="#456BB3"
   d="m 99.541812,132.88414 c 0.795128,-3.75692 -0.842593,-5.49997 -4.638865,-5.59256 0.173608,-0.28704 0.209486,-0.42709 0.270825,-0.43751 3.314804,-0.54628 5.328678,-1.97336 4.306691,-5.76617 1.744197,3.29744 4.090257,4.13193 7.440937,1.97453 0.0231,0.17708 0.0451,0.35416 0.0671,0.53009 -0.5544,0.70254 -1.03588,1.4699 -1.68055,2.0949 -0.96527,0.93633 -0.88078,1.72221 0.0313,2.63425 0.62615,0.6273 1.10069,1.38077 1.6493,2.08679 -0.14121,0.0926 -0.25811,0.20833 -0.29746,0.18865 -3.02197,-1.4317 -5.5046,-1.23842 -7.149264,2.28703 z"
   id="path18"
   style="fill:url(#linearGradient14);fill-opacity:1;stroke-width:1.1574" />
	
	
	
	<path
   fill-rule="evenodd"
   clip-rule="evenodd"
   fill="#4168B2"
   d="m 110.72231,200.36296 c -0.1713,0.12154 -0.46065,0.37501 -0.49653,0.34838 -0.35648,-0.27083 -0.10068,-0.53587 0.0718,-0.79166 0.1412,0.14814 0.28355,0.29398 0.42476,0.44328 z"
   id="path22"
   style="fill:url(#linearGradient15);fill-opacity:1;stroke-width:1.1574" />
	<path
   fill-rule="evenodd"
   clip-rule="evenodd"
   fill="#4168B2"
   d="m 224.43238,219.82467 c 0.18171,-0.11111 0.50116,-0.34143 0.52777,-0.31596 0.26505,0.25578 0.0556,0.49536 -0.0995,0.72568 -0.14236,-0.13657 -0.28588,-0.2743 -0.42824,-0.40972 z"
   id="path23"
   style="fill:url(#linearGradient16);fill-opacity:1;stroke-width:1.1574" />
</g>
</svg>
