<?xml version="1.0" encoding="UTF-8" standalone="no"?>
<!-- Generator: Adobe Illustrator 16.0.0, SVG Export Plug-In . SVG Version: 6.00 Build 0)  -->

<svg
   version="1.1"
   id="Layer_1"
   x="0px"
   y="0px"
   width="280px"
   height="280px"
   viewBox="0 0 280 280"
   enable-background="new 0 0 280 280"
   xml:space="preserve"
   sodipodi:docname="redebrasil.svg"
   inkscape:version="1.4 (e7c3feb100, 2024-10-09)"
   xmlns:inkscape="http://www.inkscape.org/namespaces/inkscape"
   xmlns:sodipodi="http://sodipodi.sourceforge.net/DTD/sodipodi-0.dtd"
   xmlns="http://www.w3.org/2000/svg"
   xmlns:svg="http://www.w3.org/2000/svg"><defs
   id="defs5011" /><sodipodi:namedview
   id="namedview5009"
   pagecolor="#ffffff"
   bordercolor="#000000"
   borderopacity="0.25"
   inkscape:showpageshadow="2"
   inkscape:pageopacity="0.0"
   inkscape:pagecheckerboard="0"
   inkscape:deskcolor="#d1d1d1"
   showgrid="false"
   inkscape:zoom="1.4767857"
   inkscape:cx="190.61669"
   inkscape:cy="175.3809"
   inkscape:window-width="1600"
   inkscape:window-height="824"
   inkscape:window-x="0"
   inkscape:window-y="0"
   inkscape:window-maximized="1"
   inkscape:current-layer="Layer_1"
   inkscape:pageshadow="2"
   showguides="false" />
<rect
   y="0.023242312"
   fill-rule="evenodd"
   clip-rule="evenodd"
   fill="#164E86"
   width="280"
   height="280"
   id="rect4994-7"
   style="fill:#18639c;fill-opacity:1;stroke:none;stroke-width:0.999999;stroke-opacity:1"
   x="0" />

<path
   style="fill:#ffffff"
   d="M 119.28639,239.02099 C 81.0125,231.1002 51.50409,203.92441 40.01608,166.01693 c -2.5193,-8.31304 -2.73264,-10.37391 -2.795,-27 -0.0594,-15.83007 0.21142,-19.02469 2.24631,-26.5 4.33481,-15.924293 13.38781,-32.232487 24.26965,-43.719707 14.81499,-15.63915 31.39235,-25.21413 52.84865,-30.52505 11.38077,-2.817 31.83383,-2.99991 43.89409,-0.39255 9.62926,2.08179 21.89496,6.84557 31.11371,12.08401 6.28165,3.56946 20.59086,15.07951 24.52747,19.72942 9.10261,10.75195 16.98883,24.317044 20.84693,35.858807 5.54244,16.58055 6.64108,39.20479 2.71767,55.96507 -6.81699,29.12132 -27.69698,55.34833 -54.53199,68.49675 -15.60369,7.64537 -24.45065,9.72382 -43,10.10214 -11.10119,0.22642 -18.10257,-0.10879 -22.86718,-1.09483 z m -1.6098,-31.51158 c 27.82223,-9.09188 77.23172,-39.99408 93.96535,-58.76879 8.08592,-9.0722 7.9689,-12.25635 -0.78951,-21.48279 -13.41217,-14.12888 -45.08623,-35.142697 -75.19886,-49.889867 -21.4268,-10.49342 -32.64882,-13.7149 -37.93003,-10.88849 -7.34985,3.93353 -13.32269,38.196887 -13.34212,76.537457 -0.0193,38.12673 3.99438,62.32741 11.01511,66.41597 3.41851,1.99078 12.77334,1.18316 22.28006,-1.92349 z m 15.47698,-34.61939 c -10.43731,-2.67583 -18.50202,-8.13055 -23.80946,-16.10398 -4.42333,-6.64523 -6.06734,-13.49606 -5.47049,-22.79633 1.90711,-29.71676 37.96716,-43.691427 60.2323,-23.34233 3.25457,2.9745 6.58734,7.28703 8.25313,10.6794 2.49313,5.07721 2.79413,6.76735 2.79431,15.69015 1.9e-4,8.92346 -0.3006,10.61257 -2.79403,15.69009 -3.62988,7.39177 -11.90729,14.98402 -19.4591,17.84841 -5.64656,2.14172 -15.81139,3.34349 -19.74666,2.33459 z"
   id="path1" /></svg>
