<?xml version="1.0" encoding="UTF-8" standalone="no"?>
<!-- Generator: Adobe Illustrator 16.0.0, SVG Export Plug-In . SVG Version: 6.00 Build 0)  -->

<svg
   version="1.1"
   id="Layer_1"
   x="0px"
   y="0px"
   width="280px"
   height="280px"
   viewBox="0 0 280 280"
   enable-background="new 0 0 280 280"
   xml:space="preserve"
   sodipodi:docname="redetv.svg"
   inkscape:version="1.4 (e7c3feb100, 2024-10-09)"
   xmlns:inkscape="http://www.inkscape.org/namespaces/inkscape"
   xmlns:sodipodi="http://sodipodi.sourceforge.net/DTD/sodipodi-0.dtd"
   xmlns="http://www.w3.org/2000/svg"
   xmlns:svg="http://www.w3.org/2000/svg"><defs
   id="defs5011" /><sodipodi:namedview
   id="namedview5009"
   pagecolor="#ffffff"
   bordercolor="#000000"
   borderopacity="0.25"
   inkscape:showpageshadow="2"
   inkscape:pageopacity="0.0"
   inkscape:pagecheckerboard="0"
   inkscape:deskcolor="#d1d1d1"
   showgrid="false"
   inkscape:zoom="1.4767857"
   inkscape:cx="78.2104"
   inkscape:cy="166.23942"
   inkscape:window-width="1600"
   inkscape:window-height="827"
   inkscape:window-x="0"
   inkscape:window-y="0"
   inkscape:window-maximized="1"
   inkscape:current-layer="Layer_1"
   inkscape:pageshadow="2"
   showguides="false" />


<path
   style="fill:#f9f9f9;stroke-width:2.44185"
   d="m 103.45759,254.82264 c -4.104704,-0.77966 -8.781514,-2.4253 -12.027774,-4.23222 -2.26155,-1.2588 -6.99649,-4.37096 -7.34265,-4.82609 -0.10524,-0.13846 -0.87523,-0.83927 -1.710878,-1.55722 -2.243644,-1.92764 -6.415788,-6.99583 -8.116927,-9.86019 -2.079357,-3.50122 -4.413814,-9.27273 -5.182704,-12.81331 -0.98326,-4.52763 -1.173675,-12.51321 -0.407301,-17.08091 1.925497,-11.4764 9.065245,-22.51487 18.64489,-28.82615 5.35417,-3.52745 11.75045,-6.06626 17.662734,-7.01072 3.16757,-0.50603 10.49356,-0.50739 13.67436,-0.002 6.38355,1.01312 14.23596,4.34707 19.18207,8.14425 5.21227,4.00153 7.67942,6.72893 11.6864,12.91929 1.94808,3.00958 4.13224,8.68983 5.25864,13.67589 0.68834,3.04692 0.68834,14.04296 0,17.08989 -1.99247,8.81984 -5.79348,15.90838 -11.91603,22.22237 -9.90072,10.21028 -25.05003,14.88434 -39.40483,12.15768 z m 31.93385,-94.08825 c -0.71634,-0.37695 -1.65646,-1.16791 -2.08915,-1.75769 -0.7842,-1.06899 -0.78703,-1.22085 -0.90161,-48.24011 -0.0791,-32.490173 0.0147,-48.462507 0.30504,-51.328603 0.36708,-3.636744 0.80754,-5.676104 2.3042,-10.668292 0.35483,-1.183545 1.99429,-4.85228 2.62419,-5.872302 0.19363,-0.313369 0.69905,-1.253481 1.12342,-2.089136 0.42437,-0.835655 1.88147,-2.994169 3.23796,-4.796696 16.02838,-21.298579 46.84095,-25.153317 67.68356,-8.467407 3.67188,2.939572 5.41707,4.733557 8.13055,8.357814 2.56629,3.427644 6.19363,9.974365 7.13811,12.882996 2.18253,6.721425 2.85352,11.322432 2.60358,17.852645 -0.27547,7.196913 -1.20262,11.275949 -3.97148,17.472777 -3.60663,8.071754 -7.60045,12.953475 -17.21951,21.047694 -2.80119,2.35712 -8.57326,7.21762 -12.82686,10.80108 -4.25358,3.58346 -9.02957,7.59169 -10.61328,8.90714 -2.80571,2.33045 -5.16744,4.33782 -7.48227,6.35962 -0.62672,0.54742 -2.33602,1.96379 -3.79842,3.1475 -1.4624,1.18373 -2.74559,2.26679 -2.85154,2.40678 -0.10598,0.13992 -2.60526,2.27732 -5.55403,4.7496 -2.94881,2.47227 -9.37849,7.8712 -14.28819,11.99761 -7.99928,6.72307 -9.09951,7.52436 -10.58931,7.71243 -1.19145,0.15042 -2.03157,0.0146 -2.96496,-0.47545 z"
   id="path1" /></svg>
