<?xml version="1.0" encoding="UTF-8" standalone="no"?>
<!-- Generator: Adobe Illustrator 16.0.0, SVG Export Plug-In . SVG Version: 6.00 Build 0)  -->

<svg
   version="1.1"
   id="Layer_1"
   x="0px"
   y="0px"
   width="280px"
   height="280px"
   viewBox="0 0 280 280"
   enable-background="new 0 0 280 280"
   xml:space="preserve"
   sodipodi:docname="sbs.svg"
   inkscape:version="1.4 (e7c3feb100, 2024-10-09)"
   xmlns:inkscape="http://www.inkscape.org/namespaces/inkscape"
   xmlns:sodipodi="http://sodipodi.sourceforge.net/DTD/sodipodi-0.dtd"
   xmlns="http://www.w3.org/2000/svg"
   xmlns:svg="http://www.w3.org/2000/svg"><defs
   id="defs216276">
	
	
	
</defs><sodipodi:namedview
   id="namedview216274"
   pagecolor="#ffffff"
   bordercolor="#666666"
   borderopacity="1.0"
   inkscape:pageshadow="2"
   inkscape:pageopacity="0.0"
   inkscape:pagecheckerboard="0"
   showgrid="false"
   inkscape:zoom="2.1092491"
   inkscape:cx="135.11918"
   inkscape:cy="137.72674"
   inkscape:window-width="1600"
   inkscape:window-height="833"
   inkscape:window-x="0"
   inkscape:window-y="0"
   inkscape:window-maximized="1"
   inkscape:current-layer="layer1"
   inkscape:showpageshadow="2"
   inkscape:deskcolor="#d1d1d1" />
<g
   inkscape:groupmode="layer"
   id="layer2"
   inkscape:label="BG" />
<g
   inkscape:groupmode="layer"
   id="layer1"
   inkscape:label="Logo"><rect
     style="fill:#646464;fill-opacity:1;stroke-width:4.52076"
     id="rect1"
     width="280"
     height="280"
     x="0"
     y="0" /><path
     style="fill:#f9f9f9;stroke-width:1.35279"
     d="M 27.163327,178.63389 V 167.13517 H 42.1112 c 18.354951,0 22.930256,-1.73103 22.930256,-8.67551 0,-4.06963 -1.729155,-6.16349 -16.449481,-19.91892 C 30.167901,121.32432 26.3131,115.29561 27.863023,106.1217 c 0.498725,-2.95194 2.444097,-7.194145 4.323048,-9.427155 6.245236,-7.42205 8.846019,-8.02121 34.817391,-8.02121 h 23.741001 v 5.41116 5.41116 h -15.34741 c -13.150305,0 -15.667938,0.35416 -17.586277,2.473895 -4.913473,5.42933 -3.14744,8.41095 15.240797,25.73125 20.05685,18.892 22.4802,23.0303 21.49141,36.70031 -0.64426,8.90664 -2.84868,12.87616 -10.66296,19.20078 -6.18696,5.00751 -15.041133,6.53071 -37.962272,6.53071 H 27.163327 Z m 160.643843,10.73333 c -0.55803,-0.57108 -1.01459,-5.80692 -1.01459,-11.63518 v -10.59687 l 15.21889,-0.0199 c 18.18929,-0.0238 21.78209,-1.32553 22.43293,-8.12764 0.42607,-4.4531 -0.48872,-5.60557 -17.1565,-21.6138 -14.74089,-14.1576 -17.85013,-17.84565 -19.10309,-22.65924 -2.71659,-10.43667 2.59326,-20.835935 12.56193,-24.602355 2.14399,-0.81005 13.82002,-1.43886 26.71761,-1.43886 h 22.90937 v 5.41117 5.41116 h -15.48037 c -14.46344,0 -15.61872,0.1975 -17.58627,3.006585 -4.09757,5.85008 -2.75438,8.07797 14.85547,24.6401 9.32875,8.77374 18.15571,18.29334 19.61546,21.15469 3.15636,6.18697 3.54021,18.21268 0.78622,24.63094 -2.28415,5.32323 -9.56704,12.40539 -15.04202,14.6274 -4.58943,1.86262 -48.11539,3.4489 -49.71504,1.81185 z m -83.5348,-50.54441 V 88.673335 h 26.17755 c 15.98053,0 27.96879,0.59995 30.77597,1.54019 9.11175,3.05184 14.74436,10.757565 14.74436,20.171025 0,7.86654 -3.47433,14.31249 -9.72269,18.03858 l -5.33588,3.18192 5.16191,2.64039 c 2.83905,1.45222 7.06453,5.44486 9.38996,8.87252 9.37525,13.81904 6.18913,31.31624 -7.44915,40.90837 l -5.79688,4.07709 -28.97258,0.43443 -28.97257,0.43444 z m 42.47955,26.42608 c 5.734,-2.39582 8.92648,-6.94072 8.92648,-12.70796 0,-9.68984 -5.83647,-13.81436 -19.54828,-13.81436 h -8.86032 v 13.30245 c 0,7.31634 0.40584,13.70827 0.90187,14.2043 1.60763,1.60761 13.94045,0.9542 18.58025,-0.98443 z m 3.00203,-45.92845 c 4.46814,-5.19454 4.20224,-10.9328 -0.73543,-15.87047 -3.56891,-3.568905 -4.82148,-3.954315 -12.85151,-3.954315 h -8.89721 v 12.327775 12.32777 l 9.63264,-0.54429 c 8.50226,-0.48043 10.01035,-0.98343 12.85151,-4.28647 z"
     id="path1" /></g></svg>
