<?xml version="1.0" encoding="UTF-8" standalone="no"?>
<!-- Generator: Adobe Illustrator 16.0.0, SVG Export Plug-In . SVG Version: 6.00 Build 0)  -->

<svg
   version="1.1"
   id="Layer_1"
   x="0px"
   y="0px"
   width="280px"
   height="280px"
   viewBox="0 0 280 280"
   enable-background="new 0 0 280 280"
   xml:space="preserve"
   sodipodi:docname="sbs.svg"
   inkscape:version="1.4 (e7c3feb100, 2024-10-09)"
   xmlns:inkscape="http://www.inkscape.org/namespaces/inkscape"
   xmlns:sodipodi="http://sodipodi.sourceforge.net/DTD/sodipodi-0.dtd"
   xmlns="http://www.w3.org/2000/svg"
   xmlns:svg="http://www.w3.org/2000/svg"><defs
   id="defs9" /><sodipodi:namedview
   id="namedview9"
   pagecolor="#ffffff"
   bordercolor="#000000"
   borderopacity="0.25"
   inkscape:showpageshadow="2"
   inkscape:pageopacity="0.0"
   inkscape:pagecheckerboard="0"
   inkscape:deskcolor="#d1d1d1"
   inkscape:zoom="2.2214286"
   inkscape:cx="140.90032"
   inkscape:cy="142.92604"
   inkscape:window-width="1600"
   inkscape:window-height="833"
   inkscape:window-x="0"
   inkscape:window-y="0"
   inkscape:window-maximized="1"
   inkscape:current-layer="Layer_1" />
<rect
   y="-0.042"
   fill-rule="evenodd"
   clip-rule="evenodd"
   fill="#58489D"
   width="280"
   height="280"
   id="rect1"
   style="fill:#005293;fill-opacity:1" />

<path
   style="fill:#ffffff;stroke-width:1.27066"
   d="m 29.874599,170.24485 v -10.80061 h 14.040357 c 17.24059,0 21.538114,-1.62595 21.538114,-8.1488 0,-3.82256 -1.62417,-5.7893 -15.450803,-18.7096 C 32.69676,116.41466 29.075989,110.75196 30.53181,102.13502 c 0.468454,-2.772723 2.295713,-6.757383 4.060596,-8.854823 5.866076,-6.97142 8.308958,-7.53422 32.703552,-7.53422 h 22.299641 v 5.08264 5.08264 H 75.179957 c -12.351918,0 -14.716704,0.33265 -16.518576,2.3237 -4.615163,5.099713 -2.956355,7.900303 14.315493,24.169043 18.839165,17.74504 21.115395,21.63209 20.186615,34.47217 -0.60513,8.3659 -2.67573,12.09442 -10.01558,18.03506 -5.81134,4.7035 -14.127958,6.13422 -35.657507,6.13422 H 29.874599 Z m 150.890841,10.08168 c -0.52415,-0.53641 -0.953,-5.45436 -0.953,-10.92879 v -9.9535 l 14.29492,-0.0187 c 17.08499,-0.0224 20.45966,-1.24507 21.07097,-7.6342 0.40021,-4.18274 -0.45905,-5.26524 -16.11489,-20.30158 -13.84593,-13.29807 -16.76641,-16.76221 -17.94329,-21.28355 -2.55166,-9.80304 2.43581,-19.570943 11.79927,-23.108703 2.01382,-0.76092 12.98097,-1.35155 25.09553,-1.35155 h 21.5185 v 5.08264 5.08264 h -14.54054 c -13.58534,0 -14.67048,0.18551 -16.51858,2.82405 -3.84879,5.494923 -2.58715,7.587543 13.95357,23.144153 8.76238,8.24105 17.05344,17.18271 18.42457,19.87035 2.96472,5.81135 3.32529,17.10695 0.73848,23.13555 -2.14547,5.00004 -8.98621,11.65223 -14.12877,13.73933 -4.3108,1.74954 -45.19423,3.23951 -46.69674,1.70184 z M 102.3022,132.85078 V 85.745977 h 24.58826 c 15.01031,0 26.27073,0.56354 28.9075,1.44668 8.55855,2.86656 13.8492,10.10445 13.8492,18.946403 0,7.38895 -3.26339,13.44356 -9.13242,16.94341 l -5.01192,2.98876 4.84852,2.48008 c 2.66668,1.36406 6.63563,5.11428 8.81989,8.33385 8.80605,12.98006 5.81335,29.41496 -6.9969,38.42474 l -5.44496,3.82956 -27.21358,0.40806 -27.21359,0.40806 z m 39.90053,24.82169 c 5.38587,-2.25036 8.38454,-6.51932 8.38454,-11.93642 0,-9.10156 -5.48214,-12.97566 -18.36147,-12.97566 h -8.32238 v 12.49481 c 0,6.87216 0.38119,12.87603 0.84711,13.34193 1.51002,1.51003 13.09409,0.89627 17.4522,-0.92466 z m 2.81976,-43.14003 c 4.19688,-4.87916 3.94711,-10.26905 -0.69078,-14.906943 -3.35222,-3.35223 -4.52876,-3.71424 -12.07127,-3.71424 h -8.35702 v 11.579333 11.57932 l 9.0478,-0.51124 c 7.98609,-0.45126 9.40261,-0.92372 12.07127,-4.02623 z"
   id="path1" /></svg>
