<?xml version="1.0" encoding="UTF-8" standalone="no"?>
<!-- Generator: Adobe Illustrator 16.0.0, SVG Export Plug-In . SVG Version: 6.00 Build 0)  -->

<svg
   version="1.1"
   id="Layer_1"
   x="0px"
   y="0px"
   width="280px"
   height="280px"
   viewBox="0 0 280 280"
   enable-background="new 0 0 280 280"
   xml:space="preserve"
   sodipodi:docname="sicnoticias.svg"
   inkscape:version="1.4 (e7c3feb100, 2024-10-09)"
   xmlns:inkscape="http://www.inkscape.org/namespaces/inkscape"
   xmlns:sodipodi="http://sodipodi.sourceforge.net/DTD/sodipodi-0.dtd"
   xmlns="http://www.w3.org/2000/svg"
   xmlns:svg="http://www.w3.org/2000/svg"><defs
   id="defs216276">
	
	
	
</defs><sodipodi:namedview
   id="namedview216274"
   pagecolor="#ffffff"
   bordercolor="#666666"
   borderopacity="1.0"
   inkscape:pageshadow="2"
   inkscape:pageopacity="0.0"
   inkscape:pagecheckerboard="0"
   showgrid="false"
   inkscape:zoom="2.1011173"
   inkscape:cx="133.02446"
   inkscape:cy="148.25445"
   inkscape:window-width="1600"
   inkscape:window-height="827"
   inkscape:window-x="0"
   inkscape:window-y="0"
   inkscape:window-maximized="1"
   inkscape:current-layer="layer2"
   inkscape:showpageshadow="2"
   inkscape:deskcolor="#d1d1d1" />
<g
   inkscape:groupmode="layer"
   id="layer2"
   inkscape:label="BG"><path
     style="fill:#ed1c24;stroke-width:0.485092;fill-opacity:1"
     d="m 77.913637,172.14111 c -3.497671,-0.89247 -6.453492,-2.76023 -9.303949,-5.87908 -8.547536,-9.35237 -5.35974,-25.35862 6.122405,-30.74125 2.457997,-1.15227 3.32469,-1.29055 8.088966,-1.29055 4.777915,0 5.627009,0.13639 8.118384,1.30402 9.628347,4.51247 13.673857,16.85676 8.821474,26.91741 -1.65135,3.42383 -6.17357,7.53945 -9.767989,8.88974 -3.446786,1.29484 -8.760193,1.64662 -12.079291,0.79971 z m 9.273243,-8.50408 c 3.893385,-1.78601 6.021185,-4.88217 6.42641,-9.35106 0.457592,-5.04639 -1.940224,-9.30886 -6.406585,-11.38868 -2.998075,-1.39608 -5.638219,-1.43864 -8.508921,-0.13719 -4.036319,1.82989 -6.181854,4.86667 -6.651188,9.41407 -0.877911,8.50615 7.597484,14.92296 15.140284,11.46286 z M 23.882478,152.90625 v -18.91856 h 11.798321 c 13.833414,0 15.210728,0.28284 18.785525,3.85763 3.738138,3.73814 3.986017,4.94165 4.226004,20.51821 l 0.207397,13.46128 H 54.76788 50.636034 l -0.158043,-12.24855 c -0.140862,-10.91709 -0.259505,-12.45299 -1.091424,-14.12919 -1.474173,-2.97024 -3.588648,-3.67437 -11.072626,-3.68727 l -6.184913,-0.0106 v 15.03782 15.03783 h -4.123275 -4.123275 z m 87.929442,17.67771 c -1.22757,-0.73574 -2.59476,-2.14993 -3.39563,-3.51232 l -1.34067,-2.28065 -0.14173,-19.76747 -0.14173,-19.76747 h 4.12485 4.12484 l 0.14016,4.24455 0.14016,4.24454 4.72965,0.13885 4.72963,0.13884 v 3.86315 3.86317 h -4.87814 -4.87814 l 0.14851,10.23065 c 0.14635,10.08307 0.16501,10.244 1.29369,11.15709 0.89614,0.72497 1.92473,0.92645 4.72964,0.92645 h 3.58444 v 3.88074 3.88073 l -5.45728,-0.005 c -4.97606,-0.005 -5.63847,-0.1132 -7.51225,-1.23625 z m 19.7608,-17.67771 v -18.91856 h 3.88073 c 3.45243,0 3.88074,0.099 3.88074,0.89741 0,1.53515 -2.70184,4.71639 -4.91763,5.79017 l -2.11619,1.02552 3.75945,0.0242 3.75946,0.0242 v 15.03784 15.03782 h -4.12327 -4.12329 z m 25.8486,18.2148 c -16.11627,-5.03671 -17.53613,-28.39414 -2.16409,-35.60027 2.63546,-1.23546 3.15156,-1.29695 12.09097,-1.44064 l 9.33801,-0.1501 v 3.90955 3.90956 h -7.77704 c -8.48045,0 -10.19497,0.37817 -12.76249,2.81501 -4.42398,4.1988 -4.81748,11.08206 -0.89547,15.66404 2.88597,3.3716 4.4472,3.81219 13.55227,3.82449 l 7.88273,0.0107 v 3.88073 3.88073 l -8.61037,-0.0324 c -5.67719,-0.0214 -9.30672,-0.25007 -10.65452,-0.67129 z m 25.57108,-18.2148 v -18.91856 h 4.12327 4.12328 v 18.91856 18.91856 h -4.12328 -4.12327 z m 26.24134,18.18754 c -2.70803,-0.8443 -6.67595,-3.57758 -8.44936,-5.8203 -0.75303,-0.95229 -1.95345,-2.97846 -2.66762,-4.50262 -1.14953,-2.45327 -1.29849,-3.35546 -1.29849,-7.86462 0,-4.50108 0.15005,-5.41364 1.29015,-7.84643 1.43744,-3.06723 4.61551,-6.77268 7.19817,-8.39265 3.73757,-2.3444 5.81095,-2.67948 16.57952,-2.67948 h 10.1005 v 18.91856 18.91856 l -10.30819,-0.0324 c -7.29817,-0.023 -10.93204,-0.22696 -12.44468,-0.69856 z m 14.50632,-18.18754 v -11.1571 h -5.28062 c -4.83848,0 -5.49784,0.11349 -7.87523,1.35545 -3.44725,1.80086 -5.37912,4.82696 -5.67272,8.88575 -0.36762,5.08237 1.74297,8.96414 5.9354,10.9163 2.10659,0.98092 3.21959,1.14791 7.67844,1.15196 l 5.21473,0.005 z m 14.55274,15.0833 v -3.92621 h 5.28061 c 4.83848,0 5.49785,-0.11349 7.87524,-1.35545 2.99394,-1.56405 5.19584,-4.62295 5.62364,-7.81242 l 0.2668,-1.98922 h 4.10493 4.10493 l -0.34554,2.54673 c -0.86404,6.36825 -4.73585,11.91185 -10.25852,14.68798 -2.65758,1.33591 -3.24126,1.43168 -9.73955,1.59794 l -6.91254,0.17688 z m 0.14051,-17.75982 c 0.61698,-5.97794 4.82642,-11.8878 10.42594,-14.63751 2.57443,-1.2642 3.26984,-1.37396 9.6861,-1.52874 l 6.91256,-0.16675 v 3.88665 3.88665 l -5.98015,0.16083 c -5.58077,0.1501 -6.11502,0.2502 -7.99986,1.49898 -2.52612,1.67364 -4.36772,4.40972 -4.84111,7.19246 l -0.3643,2.1414 -4.05985,0.14202 -4.05986,0.14203 z M 24.85266,117.60313 v -3.88456 l 5.457277,-0.19375 c 5.69069,-0.20205 7.51611,-0.75005 9.991577,-2.99952 1.439474,-1.30806 2.805328,-3.95156 3.240645,-6.27201 l 0.337031,-1.79653 h 4.057162 4.057161 l -0.263654,1.57655 c -0.742579,4.44033 -1.422886,6.42958 -3.068886,8.97363 -2.064008,3.19012 -4.201781,4.96983 -8.171172,6.80255 -2.461844,1.13668 -3.52236,1.30726 -9.209682,1.4814 L 24.85266,121.4877 Z M 58.323954,102.21421 V 83.053112 h 4.123275 4.123276 v 19.161098 19.16111 h -4.123276 -4.123275 z m 27.036301,18.6333 c -4.92656,-1.16068 -10.078743,-5.46554 -12.302061,-10.27887 -1.268659,-2.74656 -1.394232,-3.49993 -1.394232,-8.36462 0,-5.06154 0.08474,-5.518333 1.591377,-8.578756 2.589984,-5.261003 7.52631,-9.010328 13.30603,-10.106429 1.350664,-0.256148 5.809466,-0.465723 9.908454,-0.465723 h 7.452697 v 3.824754 3.824753 l -8.125271,0.204227 c -8.899431,0.223686 -10.548919,0.673506 -13.28463,3.622756 -4.870812,5.251012 -3.782949,13.618568 2.260404,17.386438 2.32554,1.44991 2.365115,1.45587 10.741819,1.61662 l 8.407678,0.16134 v 3.84066 3.84066 l -8.367817,-0.0487 c -4.602303,-0.0268 -9.189804,-0.24238 -10.194448,-0.47908 z M 25.000658,99.222599 c 0.629738,-6.101569 5.583998,-12.523755 11.374539,-14.744765 2.18656,-0.838674 4.17359,-1.1212 9.215113,-1.310255 l 6.427459,-0.241027 v 3.876347 3.876348 l -5.511064,0.243202 c -4.886175,0.215626 -5.799364,0.400114 -8.053657,1.627055 -2.734867,1.4885 -4.984037,4.630864 -5.577029,7.791786 l -0.305861,1.63038 h -3.926614 -3.926615 z"
     id="path1" /></g>
<g
   inkscape:groupmode="layer"
   id="layer1"
   inkscape:label="Logo" /></svg>
