<?xml version="1.0" encoding="UTF-8" standalone="no"?>
<!-- Generator: Adobe Illustrator 16.0.0, SVG Export Plug-In . SVG Version: 6.00 Build 0)  -->

<svg
   version="1.1"
   id="Layer_1"
   x="0px"
   y="0px"
   width="280px"
   height="280px"
   viewBox="0 0 280 280"
   enable-background="new 0 0 280 280"
   xml:space="preserve"
   sodipodi:docname="toonami.svg"
   inkscape:version="1.4 (e7c3feb100, 2024-10-09)"
   xmlns:inkscape="http://www.inkscape.org/namespaces/inkscape"
   xmlns:sodipodi="http://sodipodi.sourceforge.net/DTD/sodipodi-0.dtd"
   xmlns="http://www.w3.org/2000/svg"
   xmlns:svg="http://www.w3.org/2000/svg"><defs
   id="defs216276">
	
	
	
</defs><sodipodi:namedview
   id="namedview216274"
   pagecolor="#ffffff"
   bordercolor="#666666"
   borderopacity="1.0"
   inkscape:pageshadow="2"
   inkscape:pageopacity="0.0"
   inkscape:pagecheckerboard="0"
   showgrid="false"
   inkscape:zoom="2.1011173"
   inkscape:cx="133.02446"
   inkscape:cy="85.192769"
   inkscape:window-width="1600"
   inkscape:window-height="824"
   inkscape:window-x="0"
   inkscape:window-y="0"
   inkscape:window-maximized="1"
   inkscape:current-layer="Layer_1"
   inkscape:showpageshadow="2"
   inkscape:deskcolor="#d1d1d1" />
<g
   inkscape:groupmode="layer"
   id="layer2"
   inkscape:label="BG" /><rect
   style="fill:#eb8d1b;fill-opacity:1;stroke-width:4.52076"
   id="rect1"
   width="280"
   height="280"
   x="0"
   y="0" />
<g
   inkscape:groupmode="layer"
   id="layer1"
   inkscape:label="Logo"><path
     style="fill:#ffffff;stroke-width:0.622932"
     d="m 72.485756,166.87048 c 0,-0.16669 3.834318,-5.22451 8.520707,-11.23961 l 8.520706,-10.93652 3.782191,0.18257 c 3.530683,0.17043 3.790607,0.28613 3.90874,1.7399 0.0696,0.85654 0.319975,4.92116 0.556378,9.03251 0.488552,8.4965 0.09626,8.80289 4.586082,-3.58185 l 2.6535,-7.31945 h 18.62001 c 14.49668,0 18.61338,0.17243 18.59009,0.77866 -0.0164,0.42827 -0.50809,1.75979 -1.09252,2.95893 -0.92417,1.89623 -1.41907,2.22083 -3.79901,2.49173 l -2.7364,0.31146 -2.86759,7.94143 -2.86759,7.94143 -3.58185,6.2e-4 c -1.97002,5.2e-4 -3.58185,-0.27099 -3.58185,-0.60337 0,-0.33237 1.21957,-3.96245 2.71015,-8.06684 l 2.71014,-7.46252 -2.55441,-0.187 c -2.6138,-0.19135 -2.68791,-0.30382 -1.97064,-2.9902 0.36178,-1.35496 0.16088,-1.25378 -1.546,0.77867 -1.93674,2.30614 -2.01981,2.33599 -6.50072,2.33599 -4.01503,0 -4.57652,0.1438 -4.86472,1.24586 -0.30257,1.15706 -0.0191,1.24587 3.97641,1.24587 2.36621,0 4.3022,0.23849 4.3022,0.52997 0,0.29149 -0.30774,1.41276 -0.68388,2.49173 -0.6824,1.95758 -0.6935,1.96176 -5.20881,1.96176 h -4.52495 l -1.53959,4.20479 -1.5396,4.20479 -10.766081,0.17075 c -8.516907,0.13508 -10.703739,0.005 -10.467686,-0.62293 0.164118,-0.43653 0.491686,-1.49448 0.727939,-2.35101 0.371809,-1.34802 0.165856,-1.24336 -1.532268,0.77866 -1.891182,2.25189 -2.105409,2.33599 -5.950441,2.33599 -2.193753,0 -3.988637,-0.13638 -3.988637,-0.30308 z m 12.586755,-8.106 c 2.668801,-3.42585 5.133355,-6.32249 5.476783,-6.43696 0.38471,-0.12823 0.624408,1.83068 0.624408,5.10288 v 5.31101 l -2.642083,0.19155 c -1.927301,0.13973 -2.698029,0.48647 -2.848872,1.28168 -0.184556,0.97296 0.397437,1.09013 5.414957,1.09013 h 5.621733 l -0.305211,-5.45065 c -0.167862,-2.99786 -0.456846,-7.20265 -0.642187,-9.34397 l -0.336981,-3.89333 h -2.715464 -2.715465 l -6.669279,8.56531 c -3.668107,4.71092 -6.959827,8.93566 -7.314936,9.38832 -0.515781,0.65746 -0.158268,0.78276 1.777286,0.62293 2.254084,-0.18613 2.761107,-0.63417 7.275311,-6.4289 z m 19.887739,2.3355 1.47527,-4.20479 4.36053,-0.18745 c 6.01839,-0.25873 6.82258,-1.36987 0.99145,-1.36987 -4.52329,0 -4.55016,-0.01 -4.16867,-1.52986 1.17524,-4.68255 1.19748,-4.69946 6.17991,-4.69946 3.82483,0 4.78212,-0.21135 5.73714,-1.26663 l 1.14628,-1.26663 -7.41727,0.1765 -7.41727,0.1765 -3.27327,9.03251 c -1.8003,4.96788 -3.279857,9.10258 -3.287905,9.18824 -0.008,0.0857 0.933325,0.15573 2.091945,0.15573 2.03972,0 2.1534,-0.13345 3.58186,-4.20479 z m 25.79321,-3.89332 2.94991,-8.09811 h 2.69611 c 2.07196,0 2.8528,-0.29278 3.37296,-1.26471 0.66592,-1.24428 0.54808,-1.26189 -7.28989,-1.09013 -7.01075,0.15363 -7.99181,0.30539 -8.17578,1.26471 -0.17144,0.89401 0.24743,1.09013 2.32836,1.09013 2.73622,0 2.89294,0.24606 1.85872,2.91837 -0.37327,0.96449 -1.62261,4.34657 -2.77629,7.51573 l -2.09762,5.76212 h 2.0918 2.09181 z m -40.825621,2.54267 c 0,-3.64953 -0.622508,-4.0081 -2.546513,-1.46679 -0.978638,1.29263 -1.787147,2.56048 -1.796678,2.81744 -0.0095,0.25696 0.963787,0.4672 2.16293,0.4672 1.993643,0 2.180261,-0.15559 2.180261,-1.81785 z m 45.783231,6.18541 c 0.21625,-0.68135 2.01148,-5.65702 3.9894,-11.05704 l 3.59623,-9.8182 16.76504,-0.17492 c 9.22078,-0.0962 17.39576,-0.0208 18.16664,0.1676 1.87633,0.45853 1.81659,2.24256 -0.26297,7.85291 -1.35923,3.667 -1.99386,4.61504 -3.45974,5.16835 -1.37339,0.5184 -1.7161,0.97185 -1.4586,1.92994 0.18512,0.68878 0.34041,2.3596 0.34509,3.71292 0.005,1.47867 0.23177,2.22442 0.56801,1.86879 0.30774,-0.32548 1.98576,-4.59749 3.72894,-9.49336 1.74319,-4.89586 3.46351,-9.45105 3.82293,-10.12264 0.61845,-1.15558 1.38314,-1.22106 14.2598,-1.22106 11.43169,0 13.73227,0.15178 14.39444,0.94965 0.65096,0.78435 0.29993,2.30233 -2.01676,8.72104 -1.54269,4.27427 -2.72221,7.77139 -2.62115,7.77139 0.10106,0 2.63114,-3.15359 5.62239,-7.00798 8.32855,-10.73179 7.98211,-10.4341 12.14284,-10.4341 h 3.56291 l 0.38217,6.07358 c 0.2102,3.34047 0.54184,8.38622 0.73698,11.21277 l 0.35482,5.13919 h -7.5311 c -8.18093,0 -8.19764,-0.009 -6.8741,-3.54131 0.63438,-1.69324 0.59235,-1.67856 -1.22055,0.42665 -1.03265,1.19914 -1.88894,2.3905 -1.90286,2.64746 -0.0384,0.70861 -14.35274,0.57185 -14.35274,-0.13712 0,-0.33237 1.23028,-3.99196 2.73397,-8.13242 l 2.73396,-7.52809 -1.89909,0.19003 c -1.82642,0.18277 -2.00883,0.48798 -4.76732,7.97669 l -2.86825,7.78664 -3.57302,0.18682 c -2.13558,0.11166 -3.57302,-0.0688 -3.57302,-0.44858 0,-0.34947 1.23028,-4.02305 2.73396,-8.16351 l 2.73396,-7.52809 -1.89127,0.19003 c -1.82225,0.18311 -1.9959,0.47984 -4.75849,8.13147 l -2.86722,7.94143 -6.94133,6.2e-4 c -7.80564,0.001 -7.65343,0.0967 -7.75965,-4.87772 -0.0341,-1.59939 -0.25526,-3.60128 -0.49136,-4.44866 -0.36447,-1.30814 -0.71815,-0.74398 -2.34321,3.73759 l -1.91395,5.27828 -3.81985,0.18534 -3.81985,0.18536 0.61877,-1.62751 c 1.04847,-2.75767 0.69848,-2.92638 -1.31455,-0.63367 l -1.93332,2.20195 h -8.07556 c -7.77679,0 -8.06101,-0.0458 -7.68237,-1.23883 z m 16.50992,-1.87583 c 0.64126,-1.19822 0.47373,-1.24587 -4.38058,-1.24587 -4.9437,0 -5.03871,-0.0288 -4.62648,-1.40159 1.2974,-4.32055 1.54545,-4.50367 6.36571,-4.69928 5.60565,-0.22748 5.99041,-1.3743 0.46109,-1.3743 -4.51779,0 -4.73126,-0.27607 -3.14645,-4.06907 l 0.90262,-2.16025 h 4.60722 c 3.81611,0 4.80083,-0.21393 5.73472,-1.24586 1.12154,-1.23929 1.08803,-1.24587 -6.34657,-1.24587 h -7.47405 l -3.21233,8.99573 c -1.76678,4.94765 -3.21233,9.15244 -3.21233,9.34398 0,0.19153 3.07365,0.34824 6.83033,0.34824 6.19279,0 6.89257,-0.11629 7.4971,-1.24586 z m 11.32339,-6.69652 2.85132,-7.94237 3.58196,-0.18919 c 2.74054,-0.14475 3.51081,0.001 3.27905,0.62293 -0.1666,0.44666 -0.67916,1.86332 -1.13902,3.14811 -0.72208,2.01742 -1.09954,2.336 -2.76782,2.336 h -1.93173 l 0.46755,4.20478 c 0.25715,2.31264 0.48194,4.55519 0.49953,4.98346 0.0176,0.42871 0.81102,0.77866 1.76541,0.77866 h 1.73343 l -0.24369,-4.31262 -0.24368,-4.31263 1.78065,-0.20363 c 1.51883,-0.17369 1.97658,-0.70739 3.11317,-3.62975 2.68085,-6.89285 3.26611,-6.22974 -5.49533,-6.22633 l -7.67289,0.003 -2.95686,8.35027 c -1.62627,4.59264 -3.12794,8.79609 -3.33704,9.34099 -0.3017,0.78621 0.0579,0.99072 1.74224,0.99072 h 2.12243 z m 17.83821,4.67199 c 0.67056,-1.79871 1.98849,-5.44286 2.92873,-8.09811 l 1.70952,-4.82772 h 3.34535 c 3.55982,0 3.72583,0.18167 2.66667,2.91837 -0.37327,0.96449 -1.62261,4.34657 -2.77629,7.51573 l -2.09762,5.76212 h 2.0918 2.09181 l 2.94992,-8.09811 2.94991,-8.09811 h 3.41361 c 2.95583,0 3.37135,0.14619 3.09848,1.09013 -0.17332,0.59957 -1.45911,4.24372 -2.85729,8.09811 l -2.54217,7.00798 h 2.08111 2.08111 l 3.20657,-8.87677 c 1.76362,-4.88223 3.20149,-9.08702 3.19527,-9.34398 -0.006,-0.25696 -5.86803,-0.4672 -13.02623,-0.4672 -11.81397,0 -13.05511,0.1006 -13.45045,1.09013 -0.23954,0.59958 -1.50434,4.03349 -2.81067,7.63092 -1.30632,3.59743 -2.67515,7.31166 -3.04182,8.25384 -0.64753,1.66382 -0.60575,1.71306 1.4534,1.71306 1.98745,0 2.19635,-0.20459 3.33928,-3.27039 z m 33.14624,-2.73198 c 2.56152,-3.3013 4.8523,-6.30662 5.09063,-6.67847 0.74053,-1.15542 0.99928,-0.26107 1.46101,5.04993 l 0.44679,5.13918 h -2.88362 c -1.586,0 -2.88363,0.11723 -2.88363,0.26052 0,0.14329 -0.17015,0.70393 -0.37812,1.24586 -0.32801,0.85479 0.38613,0.98535 5.38959,0.98535 h 5.76769 l -0.40612,-6.63769 c -0.22338,-3.65072 -0.40614,-7.85551 -0.40614,-9.34397 v -2.70629 l -2.95892,0.004 -2.95893,0.004 -6.85224,8.83818 c -3.76874,4.861 -6.94569,9.0637 -7.05989,9.33933 -0.11421,0.27557 0.73336,0.50109 1.88348,0.50109 1.90598,0 2.50349,-0.53146 6.74842,-6.00237 z m -58.30212,1.71197 c 0.18791,-0.30406 1.47376,-3.73797 2.85744,-7.63091 l 2.51578,-7.0781 -2.23698,2.33599 c -2.1641,2.2599 -2.37774,2.336 -6.55826,2.336 -2.37671,0 -4.32129,0.11722 -4.32129,0.26051 0,0.14329 -0.17015,0.70393 -0.37811,1.24586 -0.32326,0.84239 0.27385,0.98535 4.1157,0.98535 3.85505,0 4.43969,0.14104 4.11304,0.99227 -0.20942,0.54574 -0.54728,1.65573 -0.75081,2.46662 -0.34344,1.36838 -0.71265,1.48736 -5.13652,1.65519 -4.40467,0.16711 -4.78161,0.28723 -4.96555,1.58244 -0.19305,1.3593 -0.0391,1.40159 5.10242,1.40159 2.91582,0 5.45523,-0.24877 5.64314,-0.55281 z m 63.26162,-2.40611 -0.009,-2.95893 -2.14761,2.49173 c -1.18118,1.37045 -2.15813,2.70196 -2.17099,2.95892 -0.0128,0.25696 0.95774,0.4672 2.15689,0.4672 h 2.18026 l -0.009,-2.95892 z M 170.286,153.20855 c 0,-0.14328 0.17015,-0.70392 0.37812,-1.24586 0.29284,-0.76313 -0.042,-0.98534 -1.48468,-0.98534 -1.3389,0 -1.95442,0.35038 -2.18859,1.24586 -0.27061,1.03482 -0.0191,1.24586 1.48468,1.24586 0.99576,0 1.81047,-0.11723 1.81047,-0.26052 z m 59.80836,13.21744 c 0.004,-0.44537 1.12509,-3.84185 2.49173,-7.54775 1.36664,-3.7059 2.4848,-6.99965 2.4848,-7.31945 0,-0.31979 -0.9344,-0.58144 -2.07644,-0.58144 -1.14205,0 -2.23875,-0.16232 -2.43714,-0.36071 -0.19839,-0.19838 0.0616,-1.59998 0.57766,-3.11465 l 0.93837,-2.75396 h 9.3274 9.32739 l -0.42087,1.4016 c -1.15866,3.85853 -1.7835,4.50847 -4.64126,4.82772 l -2.78812,0.31146 -2.8241,7.78665 -2.82411,7.78664 -3.57112,0.18682 c -2.61313,0.1367 -3.56926,-0.0304 -3.56419,-0.62293 z m 8.99029,-9.18724 2.93822,-8.06601 2.90345,-0.18783 c 2.1997,-0.1423 2.95455,-0.4568 3.11424,-1.29753 0.19434,-1.02316 -0.38754,-1.09603 -7.46199,-0.9344 -6.73039,0.15378 -7.69845,0.3092 -7.88177,1.26544 -0.17139,0.89401 0.24751,1.09013 2.32841,1.09013 1.39557,0 2.5374,0.12185 2.5374,0.27076 0,0.14893 -1.24951,3.79308 -2.7767,8.09811 l -2.7767,7.82735 h 2.0686 2.06861 z m 4.73804,9.46762 c 0.0169,-0.25696 1.77171,-5.23263 3.89954,-11.05704 l 3.86879,-10.58983 3.57563,-0.18683 c 1.9666,-0.10274 3.57563,0.0636 3.57563,0.36968 0,0.30608 -0.56063,2.18602 -1.24586,4.17767 -0.68522,1.99163 -1.24586,3.71743 -1.24586,3.83511 0,0.11767 0.77908,0.21394 1.73129,0.21394 1.56898,0 1.87664,-0.3942 3.28171,-4.20479 l 1.55042,-4.20478 3.57053,-0.18683 c 2.03174,-0.1063 3.57054,0.0749 3.57054,0.42053 0,0.33404 -1.72302,5.39378 -3.82893,11.24386 l -3.82895,10.63651 h -3.64623 c -2.00544,0 -3.6461,-0.21024 -3.64593,-0.4672 1.7e-4,-0.25696 0.56081,-1.94189 1.24586,-3.74428 1.61216,-4.24163 1.57501,-4.63134 -0.41896,-4.39521 -1.43452,0.16988 -1.87679,0.77811 -3.20076,4.4019 l -1.53625,4.20479 h -3.65149 c -2.00831,0 -3.63764,-0.21024 -3.62072,-0.4672 z m 7.90461,-5.91785 1.55004,-4.20479 h 3.00717 c 1.65395,0 3.15756,0.24331 3.34135,0.54069 0.18379,0.29738 -0.34577,2.27568 -1.1768,4.3962 l -1.51095,3.8555 2.24804,-0.19141 c 2.08633,-0.17764 2.32556,-0.41546 3.32563,-3.30606 0.59267,-1.71306 2.07728,-5.84777 3.29913,-9.18824 l 2.22155,-6.07359 h -2.08265 c -2.00273,0 -2.14213,0.16134 -3.63324,4.20479 l -1.5506,4.20479 -2.64044,0.19503 c -4.30412,0.31792 -4.43412,0.10524 -2.75802,-4.51235 l 1.48541,-4.09226 h -2.08937 -2.08937 l -3.20658,8.87678 c -1.76362,4.88222 -3.20149,9.10477 -3.19527,9.38344 0.006,0.27866 0.88738,0.41882 1.95812,0.31147 1.78587,-0.17907 2.07494,-0.5428 3.49685,-4.39999 z M 10.261723,141.78911 c 2.137892,-5.53879 7.406058,-20.32552 7.406058,-20.78737 0,-0.30143 -1.705275,-0.54804 -3.7895,-0.54804 -2.787202,0 -3.704752,-0.20595 -3.469084,-0.77866 0.17623,-0.42827 0.81142,-2.25034 1.411535,-4.04906 l 1.091119,-3.27039 h 13.279266 c 7.303597,0 13.279267,0.18146 13.279267,0.40324 0,0.22178 -0.593804,2.03181 -1.319565,4.02227 l -1.319564,3.61903 -4.046311,0.18252 -4.046311,0.18252 -4.107605,11.3685 -4.107605,11.3685 H 15.061965 9.6005068 Z m 10.403118,-2.8032 c 0.669778,-1.79871 2.553893,-6.98462 4.186922,-11.52423 l 2.969143,-8.25384 h 3.971363 c 4.254053,0 4.112896,0.10877 5.456653,-4.20479 l 0.436623,-1.4016 H 25.902361 14.119176 l -0.96363,2.45316 c -0.529996,1.34925 -0.806117,2.61068 -0.613602,2.8032 0.192515,0.19251 1.947889,0.35003 3.90083,0.35003 h 3.550802 l -3.966089,10.91498 c -2.18135,6.00323 -3.96609,11.18914 -3.96609,11.52423 0,0.33509 1.661774,0.60925 3.692832,0.60925 h 3.692832 z m 3.979773,3.76874 c -1.174908,-1.17491 -0.935674,-2.41739 2.100521,-10.90923 3.987661,-11.15297 3.528552,-10.84289 15.736989,-10.6286 l 9.758357,0.17128 0.185174,1.58937 c 0.251321,2.15712 -5.19834,17.34129 -6.857853,19.10776 -1.270918,1.35284 -1.757381,1.41694 -10.753403,1.41694 -6.497855,0 -9.654276,-0.23201 -10.169785,-0.74752 z m 19.977503,-1.58848 c 1.348274,-1.49323 6.859119,-16.8658 6.438803,-17.96112 -0.270464,-0.70482 -2.142187,-0.88256 -9.294178,-0.88256 -7.758193,0 -9.088198,0.14662 -9.947957,1.09664 -1.286302,1.42135 -6.808089,16.97106 -6.402159,18.0289 0.234288,0.61054 2.50095,0.80827 9.265675,0.80827 7.738797,0 9.089241,-0.1481 9.939816,-1.09013 z m -10.758116,-4.26249 c 0,-0.20304 0.737147,-2.44559 1.638105,-4.98345 l 1.638104,-4.61428 h 2.722416 c 1.497329,0 2.723767,0.21024 2.725417,0.4672 0.0016,0.25695 -0.736696,2.49951 -1.640769,4.98345 l -1.64377,4.51625 h -2.719752 c -1.495863,0 -2.719751,-0.16613 -2.719751,-0.36917 z m 5.672341,-4.30282 c 1.482171,-3.91593 1.473281,-4.1802 -0.132423,-3.93664 -0.928637,0.14086 -1.657005,1.1097 -2.491219,3.31371 -1.48217,3.91593 -1.47328,4.18021 0.132424,3.93665 0.928637,-0.14086 1.657005,-1.1097 2.491218,-3.31372 z m 9.070372,10.48602 c -0.912767,-0.91277 -0.287041,-3.83081 2.432067,-11.3418 4.022255,-11.11069 3.403017,-10.66845 14.938504,-10.66845 11.063863,0 11.566438,0.22011 10.408434,4.55857 -1.038951,3.89244 -0.459151,3.49547 0.914781,-0.62631 l 1.20693,-3.62079 h 8.980592 8.980598 l 0.182089,1.5574 c 0.100149,0.85657 -0.802429,4.2055 -2.005734,7.44206 -1.203298,3.23656 -2.087543,5.98494 -1.964981,6.1075 0.122562,0.12256 2.953443,-3.29645 6.290855,-7.5978 l 6.068011,-7.82063 h 4.28019 4.28019 v 3.33214 c 0,5.93701 0.78214,13.04765 1.32791,12.0724 0.28149,-0.50298 1.66878,-4.17477 3.08288,-8.15953 l 2.57109,-7.24501 h 14.28215 c 12.12061,0 14.33643,0.14142 14.64072,0.9344 0.46403,1.20923 1.47113,1.20923 1.47113,0 0,-0.73474 0.86519,-0.9344 4.04906,-0.9344 2.22698,0 4.05383,0.21024 4.05967,0.4672 0.006,0.25696 -1.73551,5.3027 -3.86966,11.21277 l -3.88026,10.74557 h -8.25061 -8.25062 l 2.09762,-5.76212 c 1.15368,-3.16916 2.40302,-6.55125 2.77629,-7.51573 0.97886,-2.52926 0.85155,-3.02973 -0.71379,-2.80597 -1.16704,0.16683 -1.85715,1.45968 -4.26276,7.98571 l -2.87029,7.78664 -4.14217,0.18409 -4.14218,0.18409 0.67404,-1.74142 c 1.9713,-5.09296 4.92306,-13.49078 4.92306,-14.00622 0,-0.32557 -0.62577,-0.50237 -1.3906,-0.39289 -1.16761,0.16714 -1.84393,1.44769 -4.21765,7.98571 l -2.82706,7.78664 -11.09077,0.1703 -11.090763,0.1703 0.435442,-1.41616 0.435442,-1.41617 -1.519119,1.4016 c -1.396419,1.28839 -2.112448,1.4016 -8.865063,1.4016 -6.746766,0 -7.310419,-0.0889 -6.910416,-1.09013 0.859035,-2.15019 5.30415,-14.59213 5.30415,-14.84641 0,-0.14282 -0.644778,-0.25968 -1.432843,-0.25968 -1.271141,0 -1.754686,0.89635 -4.284616,7.94237 l -2.851768,7.94238 -4.116543,0.184 -4.116544,0.184 2.497034,-6.97061 c 1.373371,-3.83383 2.39126,-7.07638 2.261983,-7.20566 -0.129284,-0.12928 -1.143703,2.36405 -2.254265,5.54074 -2.997217,8.57332 -3.006878,8.579 -14.59967,8.579 -5.234283,0 -9.703759,-0.18688 -9.932167,-0.41529 z m 20.000501,-1.92071 c 1.450098,-1.27182 7.325776,-17.17867 6.712188,-18.17147 -0.265898,-0.43023 -3.618914,-0.67221 -9.314645,-0.67221 -7.767317,0 -9.027826,0.14214 -9.910514,1.11749 -1.103564,1.21943 -6.631919,15.96155 -6.647395,17.72619 -0.0087,0.98816 0.828919,1.09013 8.953936,1.09013 7.647878,0 9.145928,-0.16 10.20643,-1.09013 z M 58.15833,136.68556 c 0,-0.32302 0.733276,-2.56557 1.629503,-4.98345 l 1.629501,-4.39616 h 2.731019 c 1.50206,0 2.731019,0.18756 2.731019,0.41681 0,0.22925 -0.76421,2.47181 -1.698245,4.98346 l -1.698244,4.56663 h -2.662277 c -1.464251,0 -2.662276,-0.26428 -2.662276,-0.58729 z m 5.561627,-4.10807 c 1.570672,-4.19799 1.568399,-4.02568 0.05312,-4.02568 -1.203713,0 -2.610358,2.4125 -3.520109,6.03723 -0.288482,1.14941 -0.106334,1.43795 0.907735,1.43795 0.968117,0 1.574365,-0.81713 2.559257,-3.4495 z m 16.901659,1.73644 2.83422,-7.94238 3.006996,-0.19323 c 3.502109,-0.22505 3.522198,-1.14995 -0.197781,9.10554 l -2.554891,7.04351 2.638364,-0.19127 2.638364,-0.19126 3.23968,-8.72104 c 1.781827,-4.79658 3.254973,-9.21998 3.273668,-9.82979 0.03115,-1.01553 -0.632158,-1.09408 -7.889871,-0.9344 l -7.923851,0.17435 -1.164913,3.11466 c -0.640703,1.71306 -2.244079,6.12809 -3.56305,9.81117 l -2.398137,6.69651 h 2.613491 2.613491 z m 20.207524,1.71306 c 2.65809,-3.42613 5.077,-6.22932 5.37536,-6.22932 0.29837,0 0.54249,1.96224 0.54249,4.36052 v 4.36052 h -2.50714 c -2.11808,0 -2.60142,0.24797 -3.11466,1.59789 -0.33414,0.87883 -0.60752,1.71979 -0.60752,1.86879 0,0.149 2.84579,0.27091 6.32399,0.27091 h 6.32397 l -0.40612,-6.63769 c -0.22338,-3.65072 -0.40614,-8.13583 -0.40614,-9.9669 v -3.32922 h -3.28334 -3.28336 l -5.904884,7.59545 c -3.24769,4.1775 -6.700021,8.66261 -7.671844,9.96691 l -1.766951,2.37145 h 2.776636 2.776636 z m 20.54738,1.40159 c 4.33326,-12.23719 3.80553,-11.3685 6.90637,-11.3685 1.51713,0 2.75843,0.26165 2.75843,0.58145 0,0.3198 -1.11816,3.61355 -2.4848,7.31944 -1.36663,3.7059 -2.48791,7.0884 -2.49172,7.51667 -0.004,0.48754 0.87811,0.77866 2.36031,0.77866 h 2.36723 l 2.85077,-7.94237 2.85076,-7.94238 2.88011,-0.18986 c 3.07516,-0.20273 3.26714,0.041 2.20283,2.79677 -0.3725,0.96448 -1.60872,4.34656 -2.74714,7.51573 l -2.06986,5.76211 h 2.61282 2.61281 l 3.24898,-8.95477 c 1.78694,-4.92513 3.24898,-9.4157 3.24898,-9.97906 0,-0.92403 -1.31929,-1.00784 -13.48026,-0.85639 l -13.48024,0.16788 -3.30813,9.03251 c -1.81946,4.96788 -3.32197,9.3829 -3.33889,9.81117 -0.0196,0.49411 0.85028,0.77866 2.38017,0.77866 h 2.41095 z m 32.47584,-4.82247 c 1.84364,-5.1363 3.35208,-9.55133 3.35208,-9.81117 0,-0.25985 -1.09386,-0.47245 -2.43079,-0.47245 -2.08616,0 -2.5187,0.24287 -3.05086,1.71307 -3.02553,8.35854 -6.35405,17.79805 -6.35405,18.01978 0,0.14993 1.1546,0.1864 2.56577,0.0811 l 2.56577,-0.19155 z m -48.35123,2.44972 c 0,-2.46801 -0.54305,-2.38844 -2.50514,0.36706 l -1.31729,1.84996 h 1.91122 c 1.77498,0 1.91121,-0.15802 1.91121,-2.21702 z"
     id="path1069" /></g></svg>
