<?xml version="1.0" encoding="UTF-8" standalone="no"?>
<!-- Generator: Adobe Illustrator 16.0.0, SVG Export Plug-In . SVG Version: 6.00 Build 0)  -->

<svg
   version="1.1"
   id="Layer_1"
   x="0px"
   y="0px"
   width="280px"
   height="280px"
   viewBox="0 0 280 280"
   enable-background="new 0 0 280 280"
   xml:space="preserve"
   sodipodi:docname="weather.svg"
   inkscape:version="1.4 (e7c3feb100, 2024-10-09)"
   xmlns:inkscape="http://www.inkscape.org/namespaces/inkscape"
   xmlns:sodipodi="http://sodipodi.sourceforge.net/DTD/sodipodi-0.dtd"
   xmlns="http://www.w3.org/2000/svg"
   xmlns:svg="http://www.w3.org/2000/svg"><defs
   id="defs216276">
	
	
	
</defs><sodipodi:namedview
   id="namedview216274"
   pagecolor="#ffffff"
   bordercolor="#666666"
   borderopacity="1.0"
   inkscape:pageshadow="2"
   inkscape:pageopacity="0.0"
   inkscape:pagecheckerboard="0"
   showgrid="false"
   inkscape:zoom="0.74285714"
   inkscape:cx="242.30769"
   inkscape:cy="193.17308"
   inkscape:window-width="1600"
   inkscape:window-height="833"
   inkscape:window-x="0"
   inkscape:window-y="0"
   inkscape:window-maximized="1"
   inkscape:current-layer="layer1"
   inkscape:showpageshadow="2"
   inkscape:deskcolor="#d1d1d1" />
<g
   inkscape:groupmode="layer"
   id="layer2"
   inkscape:label="BG" />
<g
   inkscape:groupmode="layer"
   id="layer1"
   inkscape:label="Logo"><rect
     style="fill:#244aa5;fill-opacity:1;stroke-width:4.52076"
     id="rect1"
     width="280"
     height="280"
     x="0"
     y="0" /><path
     style="fill:#ffffff"
     d="m 121.60761,252.56176 c -0.79882,-0.45813 -1.92778,-1.40169 -2.5088,-2.09678 l -1.05641,-1.2638 -0.9912,0.96478 c -2.21654,2.15744 -6.15229,3.1809 -10.26634,2.66967 -5.23481,-0.6505 -8.225756,-2.74462 -9.79161,-6.85563 -0.412184,-1.08215 -0.529638,-2.09927 -0.517339,-4.48 0.01959,-3.79158 0.625416,-5.57794 2.638836,-7.78095 1.616153,-1.76833 3.333123,-2.75541 6.151353,-3.53638 2.17714,-0.60331 8.92652,-1.28432 9.8437,-0.99321 0.48217,0.15303 0.53006,0.008 0.52864,-1.60059 -0.003,-3.32749 -0.64245,-4.40609 -2.85602,-4.81699 -2.30154,-0.42722 -7.42974,1.21862 -10.76034,3.45342 l -0.87792,0.58907 -1.835274,-3.16048 c -1.009399,-1.73827 -1.907847,-3.34962 -1.996552,-3.58078 -0.238815,-0.62234 4.474436,-2.9742 8.807666,-4.39493 2.56771,-0.84186 8.15432,-1.1836 10.70145,-0.65462 3.49576,0.726 6.31067,2.79352 7.6001,5.58217 0.5769,1.24766 0.59912,1.67746 0.61708,11.93427 0.021,11.97906 0.005,11.87644 2.13138,14.04805 l 1.14351,1.16806 -2.46197,2.82194 c -1.35408,1.55207 -2.53612,2.82077 -2.62675,2.81932 -0.0906,-0.001 -0.81838,-0.37747 -1.61719,-0.83561 z m -7.56167,-7.83301 c 1.23266,-0.88522 1.23548,-0.89122 1.41459,-3.01012 0.0987,-1.16772 0.17947,-2.92311 0.17947,-3.90088 V 236.04 h -1.90117 c -2.1966,0 -4.98592,0.65102 -5.74931,1.34188 -0.90897,0.82261 -1.30973,1.93391 -1.30337,3.61422 0.0128,3.38839 1.52863,4.97581 4.52926,4.74328 1.22107,-0.0946 1.88522,-0.33175 2.83053,-1.01063 z M 38.22,252.28121 c -9.285669,-0.9919 -15.879857,-7.31877 -18.240656,-17.50121 -0.725854,-3.13071 -0.728976,-10.76527 -0.0058,-14.14 0.641802,-2.99491 2.047203,-6.76485 3.289717,-8.82455 2.664816,-4.41743 7.045937,-7.77036 12.303782,-9.41627 2.97753,-0.93207 8.631388,-0.93502 11.880319,-0.006 2.372395,0.67824 5.999648,2.43529 6.221633,3.01377 0.107003,0.27885 -3.24171,5.68468 -4.124181,6.65767 -0.122289,0.13483 -0.593572,-0.0204 -1.051096,-0.34617 -2.29664,-1.63535 -5.802466,-2.45255 -8.5813,-2.00028 -5.856454,0.95316 -8.684454,5.39936 -9.262152,14.56202 -0.20864,3.30917 0.236477,9.74766 0.827416,11.96834 0.932262,3.50333 3.050703,6.2115 5.902299,7.54537 1.510815,0.70671 1.976074,0.78515 4.62,0.77897 3.201336,-0.007 4.679677,-0.45141 7.229677,-2.17094 0.665322,-0.44865 1.241647,-0.77207 1.280721,-0.71873 0.03907,0.0533 1.05019,1.46871 2.246924,3.14526 l 2.175881,3.04827 -0.796601,0.6532 c -1.292436,1.05977 -5.135381,2.85803 -7.096602,3.32076 -2.352049,0.55495 -5.992619,0.73273 -8.82,0.43071 z m 179.11648,-0.26958 c -4.60156,-1.2457 -7.86182,-3.93942 -9.97843,-8.24446 -1.78072,-3.62188 -2.22877,-6.13924 -2.04485,-11.48919 0.11213,-3.26167 0.28459,-4.66236 0.76066,-6.17798 0.87613,-2.7892 2.22492,-5.05855 4.17596,-7.02609 3.72544,-3.75694 8.6761,-5.07769 14.51348,-3.87194 4.47166,0.92364 7.30516,3.105 9.26773,7.13472 1.41117,2.89751 1.98564,5.64188 2.20724,10.54456 l 0.16809,3.71875 h -10.44367 -10.44367 l 0.168,1.79911 c 0.20419,2.18662 0.6738,3.37232 1.87952,4.74556 1.14062,1.29909 2.13533,1.82315 4.05293,2.13524 2.89561,0.47128 6.85213,-0.64361 9.52849,-2.68496 1.15665,-0.88222 0.87472,-1.11254 3.24655,2.65226 l 1.47874,2.3472 -0.82662,0.67528 c -1.40944,1.15138 -4.08728,2.53958 -6.42663,3.33157 -3.09172,1.04671 -8.24112,1.23399 -11.28352,0.41037 z M 226.24,228.02249 c 0,-4.25022 -2.39965,-6.68003 -6.05566,-6.13178 -1.06954,0.16039 -1.59421,0.44547 -2.51563,1.3669 -1.21597,1.21596 -1.66067,2.31659 -1.96867,4.87239 l -0.17714,1.47 h 5.35855 5.35855 z m 24.08,24.27451 c -3.61211,-0.66151 -5.93133,-2.61317 -7.06273,-5.94341 -0.21967,-0.64656 -0.36749,-7.64811 -0.48083,-22.77359 -0.09,-12.012 -0.13085,-21.89217 -0.0908,-21.95594 0.10443,-0.16614 8.21609,-1.95606 8.9337,-1.97132 0.47792,-0.0102 0.63518,0.20001 0.77612,1.03726 0.0972,0.5775 0.2453,10.5538 0.32907,22.16956 0.16489,22.86298 0.13733,22.48444 1.66503,22.86787 0.38467,0.0965 0.94768,0.11061 1.25115,0.0312 0.47664,-0.12465 0.63054,0.12833 1.13063,1.85852 0.31838,1.10154 0.69807,2.3681 0.84375,2.81458 0.14569,0.44648 0.26488,0.90402 0.26488,1.01676 0,0.62697 -5.43731,1.23719 -7.56,0.84846 z M 60.194009,231.21 c -0.0054,-18.46603 -0.220546,-27.23421 -0.710209,-28.94349 -0.160267,-0.55945 0.106949,-0.65992 4.658312,-1.75145 2.655583,-0.63687 4.87867,-1.10761 4.940195,-1.04609 0.384563,0.38457 0.62718,4.66145 0.632063,11.1421 l 0.0056,7.47106 1.396041,-0.93947 c 3.938645,-2.65051 9.396253,-3.3739 13.347439,-1.76916 3.106499,1.26168 4.533238,2.92249 5.261586,6.12479 0.362291,1.59287 0.434934,4.27638 0.434934,16.06698 V 251.72 H 85.4 80.64 l -4.35e-4,-13.23 c -3.96e-4,-12.03614 -0.04461,-13.31808 -0.49,-14.2061 -0.668999,-1.33387 -1.550686,-1.73831 -3.461321,-1.58778 -1.708755,0.13463 -3.551685,0.84986 -5.635684,2.18716 L 69.72,225.73838 V 238.72919 251.72 H 64.96 60.2 Z m 73.298721,5.18 c -0.0986,-14.32067 -0.14272,-15.46366 -0.66956,-17.36 -0.31018,-1.1165 -0.55458,-2.03 -0.54312,-2.03 0.0115,0 1.78444,-0.504 3.93995,-1.12 2.15551,-0.616 4.08324,-1.12 4.28385,-1.12 0.42125,0 1.1352,1.57131 1.40824,3.09937 l 0.18791,1.05161 2.24,-1.38657 c 2.96637,-1.8362 5.50268,-2.61421 8.4,-2.57669 5.14302,0.0666 8.4286,2.68602 9.08748,7.24498 0.15772,1.09134 0.28387,8.00887 0.28697,15.7373 l 0.006,13.79 h -4.76 -4.76 l -0.002,-12.95 c -9.8e-4,-8.10944 -0.11051,-13.34231 -0.29304,-13.99955 -0.72291,-2.60307 -4.03306,-2.42406 -8.0354,0.43455 l -1.19,0.84993 V 238.88747 251.72 h -4.74084 -4.74084 z m 36.6715,0 c -0.10043,-13.49364 -0.17328,-15.55963 -0.60817,-17.24699 -0.27175,-1.05434 -0.38653,-2.01149 -0.25507,-2.12699 0.26781,-0.23531 7.33565,-2.25602 7.89088,-2.25602 0.48378,0 1.4344,2.16892 1.44198,3.29 0.003,0.5005 0.0548,0.91 0.11424,0.91 0.0594,0 0.87234,-0.51034 1.80642,-1.1341 6.84779,-4.57278 14.83378,-3.56341 17.50372,2.21233 0.58874,1.27358 0.60358,1.63076 0.6852,16.49177 l 0.0834,15.19 h -4.76314 -4.76313 l -0.0803,-13.37 c -0.0873,-14.54219 -0.0888,-14.55563 -1.65978,-15.20636 -1.50111,-0.62178 -3.9021,0.12692 -6.61051,2.06136 l -1.19,0.84993 V 238.88747 251.72 h -4.74084 -4.74084 z m -33.84257,-49.35282 c -1.11206,-0.5876 -3.60166,-2.946 -3.60166,-3.41187 0,-0.15976 -0.48242,0.14536 -1.07204,0.67805 -1.48924,1.34544 -3.76704,2.38404 -5.98932,2.73094 -2.15216,0.33596 -5.94493,0.008 -8.07096,-0.69839 -2.87922,-0.95633 -5.4524,-3.57928 -6.30243,-6.42435 -0.55372,-1.85329 -0.55444,-6.30012 -0.001,-8.14423 1.13074,-3.76991 4.09645,-6.26167 8.97607,-7.54161 1.96484,-0.51538 8.29162,-1.05873 9.32064,-0.80046 l 0.70877,0.17789 -0.18123,-2.35014 c -0.21121,-2.73902 -0.67713,-3.56881 -2.31492,-4.12283 -2.16732,-0.73316 -6.51522,0.37553 -10.16316,2.59153 -0.90384,0.54906 -1.77164,0.99829 -1.92843,0.99829 -0.15679,0 -1.1717,-1.51144 -2.25537,-3.35875 l -1.9703,-3.35874 1.2744,-0.74685 c 1.74386,-1.02197 5.72139,-2.71464 8.23159,-3.50302 1.78992,-0.56216 2.66029,-0.65264 6.27801,-0.65264 3.6151,0 4.42101,0.0837 5.787,0.60072 3.17849,1.20315 5.35366,3.35029 6.18241,6.10271 0.24297,0.80697 0.34343,4.18156 0.3464,11.63657 0.005,11.78218 -0.052,11.42435 2.13175,13.45719 l 1.07121,0.99719 -2.43938,2.83458 c -1.34167,1.55902 -2.56539,2.83721 -2.71939,2.84043 -0.154,0.003 -0.73825,-0.23627 -1.29834,-0.53221 z m -9.12267,-7.37475 c 0.49556,-0.20766 1.31051,-0.72286 1.81101,-1.14489 l 0.91,-0.76732 v -3.79326 -3.79326 l -2.62749,0.13743 c -4.58845,0.24001 -6.19199,1.53189 -6.17998,4.97887 0.007,2.14387 0.57571,3.40932 1.89106,4.21134 1.04986,0.64013 2.89641,0.71544 4.1954,0.17109 z m -39.526502,6.52527 c -5.867506,-1.53664 -10.326456,-6.49075 -11.633977,-12.9259 -0.892414,-4.39214 -0.478931,-10.74351 0.945551,-14.5243 1.728278,-4.5871 6.257658,-8.55351 10.862416,-9.5123 2.248182,-0.4681 7.052463,-0.18856 9.081613,0.52842 3.326219,1.1753 5.837579,3.40953 7.452099,6.62977 1.40054,2.79346 2.29254,7.54813 2.29751,12.24661 l 0.002,2.17 H 96.32 85.96 l 0.0091,1.33 c 0.01121,1.63031 0.761229,3.88409 1.682808,5.05674 0.378428,0.48152 1.353384,1.21116 2.166568,1.6214 1.378163,0.69528 1.663236,0.73644 4.2,0.6064 2.962945,-0.15188 4.733016,-0.75619 7.213203,-2.4626 0.7082,-0.48726 1.3267,-0.84227 1.37444,-0.78893 0.37013,0.41356 3.51384,5.38597 3.51384,5.55785 0,0.4112 -3.77388,2.78824 -5.59272,3.52267 -3.956939,1.59778 -8.956824,1.96502 -12.854792,0.94417 z M 96.6,162.38399 c 0,-4.35691 -2.371496,-6.84575 -6.003948,-6.30103 -2.48313,0.37237 -4.129049,2.54896 -4.512212,5.96704 l -0.196173,1.75 H 91.243833 96.6 Z m 58.66,24.00634 c -3.46441,-0.89026 -5.92572,-2.92305 -6.70126,-5.53456 -0.3674,-1.2372 -0.43874,-3.35845 -0.43874,-13.04659 V 156.24 h -1.82 -1.82 v -3.22 -3.22 h 1.82 1.82 l 0.002,-2.87 c 0.001,-1.5785 0.0789,-3.50661 0.17245,-4.28469 l 0.17002,-1.41469 4.76627,-1.18326 c 2.62144,-0.65079 4.80725,-1.14228 4.85734,-1.09219 0.0501,0.0501 -0.0283,1.53417 -0.17416,3.29795 -0.14588,1.76379 -0.26729,4.18338 -0.26979,5.37688 l -0.005,2.17 h 4.22333 c 2.32284,0 4.18134,0.10507 4.13,0.23349 -0.0513,0.12841 -0.59209,1.57741 -1.20168,3.22 l -1.10834,2.98651 h -3.03694 -3.03694 l 0.0853,10.75993 c 0.0826,10.41632 0.10402,10.78517 0.67202,11.55 0.91264,1.22889 2.38113,1.60712 4.68128,1.20573 1.04941,-0.18313 1.94691,-0.28857 1.99444,-0.23431 0.24751,0.2825 1.21638,5.44584 1.05128,5.60254 -0.10656,0.10114 -1.12724,0.45893 -2.26818,0.79509 -2.54687,0.7504 -6.60967,0.97397 -8.56556,0.47135 z m 62.40137,-0.18513 c -7.00609,-1.83675 -11.28899,-7.3251 -12.14298,-15.56071 -1.30204,-12.55645 5.22524,-21.69681 15.48228,-21.68035 4.58256,0.007 7.74311,1.12957 10.48531,3.72302 3.40856,3.22368 5.11402,8.62033 5.11402,16.18251 V 170.8 h -10.39762 -10.39763 l 0.13874,1.939 c 0.18528,2.5895 1.28346,4.58918 3.16382,5.761 1.16023,0.72304 1.67206,0.85372 3.67606,0.93856 2.91109,0.12323 5.36571,-0.56882 7.88159,-2.22212 0.97074,-0.63792 1.79506,-1.11408 1.83184,-1.05814 2.68314,4.0808 3.59503,5.6421 3.38454,5.79489 -3.38068,2.4539 -6.58059,3.97357 -9.48276,4.50346 -2.52448,0.46093 -6.45094,0.34792 -8.73721,-0.25145 z m 8.78073,-24.50391 c -0.20775,-2.74704 -1.0018,-4.24384 -2.7221,-5.13127 -1.49088,-0.76908 -3.64891,-0.70342 -5.12006,0.15577 -1.23896,0.7236 -2.44308,3.16323 -2.64155,5.35197 L 215.80222,163.8 h 5.39931 5.3993 z M 29.12,186.04868 c 0,-0.0832 -2.583,-11.02944 -5.74,-24.32493 -3.157,-13.29548 -5.74,-24.31817 -5.74,-24.49485 0,-0.23293 1.438666,-0.30031 5.232622,-0.24508 l 5.232622,0.0762 2.318507,10.5 c 1.275179,5.775 2.703307,12.831 3.173618,15.68 0.470311,2.849 0.963408,5.747 1.09577,6.44 0.233094,1.22039 0.241945,1.22919 0.281546,0.28 0.08926,-2.13956 1.758533,-10.93176 4.120703,-21.70415 L 41.58,136.92509 l 5.53,-0.003 c 3.0415,-0.001 5.53,0.10588 5.53,0.2384 0,0.13253 1.022514,5.20403 2.272254,11.27 1.24974,6.06598 2.680931,13.48605 3.180425,16.48905 0.562445,3.38147 0.97013,5.19352 1.07093,4.76 0.08952,-0.385 0.60385,-3.41704 1.14296,-6.73787 0.539109,-3.32083 1.962381,-10.53433 3.162825,-16.03 l 2.182626,-9.99213 5.259325,0 h 5.259324 l -0.150963,0.63 c -0.08303,0.3465 -2.73143,11.39406 -5.885335,24.55014 C 66.980467,175.25621 64.4,186.06338 64.4,186.11606 c 0,0.0527 -2.475005,0.0616 -5.500011,0.0199 L 53.399977,186.06 50.93199,174.86 c -2.417405,-10.97045 -3.883537,-18.63733 -3.900504,-20.39698 -0.01491,-1.54652 -0.447257,-0.21832 -0.806286,2.47698 -0.267877,2.011 -4.929992,26.13175 -5.533674,28.63 -0.151693,0.62776 -0.172539,0.63 -5.86188,0.63 -3.140305,0 -5.709646,-0.0681 -5.709646,-0.15132 z m 141.55698,-0.38121 c -0.0858,-0.13889 -0.14671,-10.62839 -0.13526,-23.31 0.0136,-15.01714 -0.0821,-23.63729 -0.27436,-24.72023 -0.16234,-0.91452 -0.261,-1.69693 -0.21923,-1.73871 0.14561,-0.1456 9.5726,-2.28636 9.66625,-2.19509 0.34321,0.3345 0.5886,4.96195 0.59646,11.24763 l 0.009,7.33106 1.39604,-0.93947 c 2.7466,-1.84832 6.24088,-2.80204 9.50086,-2.59312 4.45539,0.28551 7.62048,2.37182 8.76805,5.77954 0.60798,1.80543 0.62551,2.21396 0.71293,16.62092 l 0.0896,14.77 H 196.01376 191.24 v -13.16899 c 0,-14.83098 0.005,-14.78637 -1.87564,-15.5723 -1.89198,-0.79052 -4.73452,-0.0751 -7.71382,1.94144 l -1.32946,0.89985 -5.4e-4,12.95 -5.4e-4,12.95 h -4.74348 c -2.60891,0 -4.8137,-0.11364 -4.89954,-0.25253 z m 72.22491,-0.0907 c -0.0692,-0.19624 -0.17125,-7.1608 -0.22685,-15.4768 -0.0891,-13.32704 -0.15971,-15.34642 -0.59535,-17.02939 -0.27184,-1.05016 -0.45047,-1.94131 -0.39697,-1.98033 0.2217,-0.16167 7.76625,-2.13028 8.16416,-2.13028 0.51731,0 1.59312,2.68419 1.59312,3.97489 v 0.87387 l 1.75828,-1.68839 c 2.38162,-2.28695 4.22401,-3.19366 6.6081,-3.25212 1.7285,-0.0424 3.67362,0.44682 3.67362,0.92394 0,0.11233 -0.11816,0.56955 -0.26257,1.01603 -0.14441,0.44648 -0.71631,2.29409 -1.27089,4.1058 -0.96124,3.14024 -1.03569,3.27938 -1.59448,2.98032 -0.84931,-0.45453 -3.56879,-0.402 -4.73242,0.0914 -0.5502,0.2333 -1.46244,0.82989 -2.0272,1.32575 l -1.02683,0.90157 -0.0728,12.78346 -0.0728,12.78346 -4.69618,0.0768 c -3.60768,0.059 -4.72533,-0.006 -4.82193,-0.28 z M 107.1,121.76845 c -3.18046,-0.72496 -6.53736,-2.65979 -8.517335,-4.90916 -1.39937,-1.58977 -3.193836,-5.14424 -3.866768,-7.65929 -0.675403,-2.52428 -0.662176,-9.683896 0.02302,-12.46 0.694032,-2.811909 2.17513,-5.616524 4.069268,-7.705589 2.983016,-3.290004 6.408746,-4.757935 11.085756,-4.750272 6.38587,0.01046 10.82992,2.627161 13.23037,7.790169 1.31995,2.83902 1.76608,5.10515 1.95209,9.915692 l 0.15969,4.13 H 114.83805 104.44 v 0.68622 c 0,1.14694 0.59865,3.59378 1.14222,4.66856 0.60504,1.19632 1.88496,2.3355 3.30158,2.93853 0.74881,0.31876 1.71611,0.40581 3.6762,0.33085 2.29727,-0.0879 2.9263,-0.22662 4.61283,-1.01764 1.07406,-0.50375 2.35715,-1.22429 2.85132,-1.60121 0.49417,-0.37692 0.97188,-0.68531 1.06158,-0.68531 0.33512,0 3.82744,5.6872 3.59238,5.85015 -0.13476,0.0934 -0.84696,0.59193 -1.58266,1.10782 -1.90828,1.3381 -5.02797,2.70538 -7.37072,3.2304 -2.18277,0.48916 -6.76666,0.56362 -8.62473,0.14008 z M 115.24103,97.37 c -0.2949,-2.697651 -0.63203,-3.654244 -1.62562,-4.612656 -1.62504,-1.5675 -3.60742,-1.895569 -5.70311,-0.943822 -1.89589,0.86101 -3.1923,3.273956 -3.1923,5.941681 V 99.12 h 5.35617 5.35616 z M 29.866667,121.05333 C 29.764,120.95067 29.68,111.81567 29.68,100.75333 V 80.64 H 23.8 17.92 v -4.2 -4.2 h 17.64 c 13.93239,0 17.637219,0.07356 17.626769,0.35 -0.0073,0.1925 -0.359305,2.051 -0.782284,4.13 L 51.635432,80.5 45.837716,80.575681 40.04,80.651362 V 100.94568 121.24 h -4.993333 c -2.746334,0 -5.077334,-0.084 -5.18,-0.18667 z M 57.871013,97.09 C 57.806328,83.8075 57.6616,72.54421 57.549394,72.060467 l -0.20401,-0.879533 4.818695,-1.165747 c 2.650282,-0.641161 4.8673,-1.117141 4.926707,-1.057734 0.328322,0.328321 0.700695,8.112411 0.62123,12.986208 -0.06055,3.713592 0.0037,5.584855 0.187984,5.471709 0.154,-0.09457 0.826809,-0.540281 1.495132,-0.99046 2.286937,-1.54047 4.871489,-2.260034 8.164868,-2.273177 3.751941,-0.01497 5.931259,0.718686 7.863185,2.64711 2.51332,2.508767 2.832366,5.122315 2.717505,22.261157 L 88.06,121.1 l -4.677308,0.0767 -4.677307,0.0767 -0.08269,-13.37672 C 78.54836,95.852407 78.49132,94.411067 78.058508,93.620357 77.556319,92.702903 76.378826,92.12 75.027711,92.12 c -1.327068,0 -4.267522,1.065292 -5.797711,2.100443 l -1.47,0.994435 V 108.22744 121.24 h -4.885689 -4.88569 z"
     id="path1" /></g></svg>
