<?xml version="1.0" encoding="UTF-8" standalone="no"?>
<!-- Generator: Adobe Illustrator 16.0.0, SVG Export Plug-In . SVG Version: 6.00 Build 0)  -->

<svg
   version="1.1"
   id="Layer_1"
   x="0px"
   y="0px"
   width="280px"
   height="280px"
   viewBox="0 0 280 280"
   enable-background="new 0 0 280 280"
   xml:space="preserve"
   sodipodi:docname="tnt.svg"
   inkscape:version="1.1.2 (0a00cf5339, 2022-02-04)"
   xmlns:inkscape="http://www.inkscape.org/namespaces/inkscape"
   xmlns:sodipodi="http://sodipodi.sourceforge.net/DTD/sodipodi-0.dtd"
   xmlns="http://www.w3.org/2000/svg"
   xmlns:svg="http://www.w3.org/2000/svg"><defs
   id="defs15" /><sodipodi:namedview
   id="namedview13"
   pagecolor="#ffffff"
   bordercolor="#666666"
   borderopacity="1.0"
   inkscape:pageshadow="2"
   inkscape:pageopacity="0.0"
   inkscape:pagecheckerboard="0"
   showgrid="false"
   inkscape:zoom="2.3214286"
   inkscape:cx="140"
   inkscape:cy="140"
   inkscape:window-width="1600"
   inkscape:window-height="828"
   inkscape:window-x="0"
   inkscape:window-y="0"
   inkscape:window-maximized="1"
   inkscape:current-layer="g10" />
<g
   id="g10">
	
	<path
   fill-rule="evenodd"
   clip-rule="evenodd"
   fill="#FFFFFF"
   d="M58.518,115.396c-3.617-0.202-6.486-0.479-9.356-0.5   c-12.597-0.097-12.539-0.07-12.769,14.608c-1.221,78.05,59.087,130.562,118.114,118.715c45.688-9.17,82.988-56.799,84.002-110.194   c0.471-24.897,0.02-25.379-21.348-22.727c-0.246,0.031-0.463,0.406-1.641,1.504c0,21.499,0,43.907,0,66.762   c-7.266,0-13.58,0-20.986,0c0-22.947,0-45.345,0-68.082c-7.746,0-14.387,0-22.059,0c0,23.003,0,45.434,0,67.242   c-13.742,4.398-22.945,0.474-29.434-13.778c-5.327-11.7-12.582-22.22-18.983-33.262c-0.631,0.285-1.262,0.574-1.894,0.859   c0,15.647,0,31.294,0,47.073c-6.931,0-13.025,0-20.089,0c0-22.911,0-45.317,0-67.963c-7.871,0-14.746,0-22.731,0   c0,23.121,0,45.495,0,67.678c-7.45,0-13.754,0-20.827,0C58.518,160.381,58.518,138.233,58.518,115.396z M152.405,97.396   c27.639,0,54.012,0,80.574,0c-10.559-49.708-57.561-86.23-103.969-81.62c-40.764,4.048-83.751,44.556-86.492,81.985   c25.41,0,50.789,0.294,76.157-0.187c7.167-0.136,11.564,2.817,15.104,9.659c5.333,10.309,11.159,20.276,16.772,30.39   c0.619-0.269,1.238-0.536,1.854-0.803C152.405,124.283,152.405,111.745,152.405,97.396z"
   id="path4" />
	<path
   fill-rule="evenodd"
   clip-rule="evenodd"
   fill="#FFFFFF"
   d="M58.518,115.396c0,22.838,0,44.985,0,67.937   c7.073,0,13.377,0,20.827,0c0-22.183,0-44.557,0-67.678c7.985,0,14.86,0,22.731,0c0,22.646,0,45.052,0,67.963   c7.064,0,13.158,0,20.089,0c0-15.779,0-31.426,0-47.073c0.631-0.285,1.262-0.574,1.894-0.859   c6.401,11.042,13.656,21.562,18.983,33.262c6.488,14.252,15.691,18.177,29.434,13.778c0-21.808,0-44.238,0-67.242   c7.672,0,14.313,0,22.059,0c0,22.737,0,45.134,0,68.082c7.406,0,13.721,0,20.986,0c0-22.854,0-45.263,0-66.762   c1.178-1.098,1.395-1.474,1.641-1.504c21.367-2.653,21.818-2.171,21.348,22.727c-1.014,53.395-38.314,101.024-84.002,110.194   C95.479,260.065,35.171,207.554,36.393,129.503c0.23-14.678,0.172-14.706,12.769-14.608   C52.032,114.917,54.901,115.194,58.518,115.396z"
   id="path6"
   style="fill:#000000;fill-opacity:1" />
	<path
   fill-rule="evenodd"
   clip-rule="evenodd"
   fill="#FFFFFF"
   d="M152.405,97.396c0,14.349,0,26.886,0,39.424   c-0.615,0.267-1.234,0.534-1.854,0.803c-5.613-10.114-11.439-20.082-16.772-30.39c-3.54-6.842-7.938-9.795-15.104-9.659   c-25.368,0.481-50.747,0.187-76.157,0.187c2.741-37.429,45.728-77.937,86.492-81.985c46.409-4.61,93.411,31.912,103.969,81.62   C206.417,97.396,180.044,97.396,152.405,97.396z"
   id="path8"
   style="fill:#000000;fill-opacity:1" />
</g>
</svg>
