<?xml version="1.0" encoding="UTF-8" standalone="no"?>
<!-- Generator: Adobe Illustrator 16.0.0, SVG Export Plug-In . SVG Version: 6.00 Build 0)  -->

<svg
   version="1.1"
   id="Layer_1"
   x="0px"
   y="0px"
   width="280px"
   height="280px"
   viewBox="0 0 280 280"
   enable-background="new 0 0 280 280"
   xml:space="preserve"
   sodipodi:docname="weather.svg"
   inkscape:version="1.1.2 (0a00cf5339, 2022-02-04)"
   xmlns:inkscape="http://www.inkscape.org/namespaces/inkscape"
   xmlns:sodipodi="http://sodipodi.sourceforge.net/DTD/sodipodi-0.dtd"
   xmlns="http://www.w3.org/2000/svg"
   xmlns:svg="http://www.w3.org/2000/svg"><defs
   id="defs216276">
	
	
	
</defs><sodipodi:namedview
   id="namedview216274"
   pagecolor="#ffffff"
   bordercolor="#666666"
   borderopacity="1.0"
   inkscape:pageshadow="2"
   inkscape:pageopacity="0.0"
   inkscape:pagecheckerboard="0"
   showgrid="false"
   inkscape:zoom="2.1011173"
   inkscape:cx="120.88806"
   inkscape:cy="147.54055"
   inkscape:window-width="1600"
   inkscape:window-height="828"
   inkscape:window-x="0"
   inkscape:window-y="0"
   inkscape:window-maximized="1"
   inkscape:current-layer="layer1"
   inkscape:showpageshadow="2"
   inkscape:deskcolor="#d1d1d1" />
<g
   inkscape:groupmode="layer"
   id="layer2"
   inkscape:label="BG" />
<g
   inkscape:groupmode="layer"
   id="layer1"
   inkscape:label="Logo"><rect
     style="fill:#ffffff;stroke:none;stroke-width:24.3057"
     id="rect957"
     width="187.6416"
     height="154.38429"
     x="58.921158"
     y="81.952324" /><path
     style="fill:#014f9d;fill-opacity:1;stroke-width:0.166667"
     d="M 46.562754,136.33663 V 36.336623 h 100.000006 100 v 100.000007 100 h -100 -100.000006 z m 90.368776,79.86405 1.18589,-1.38595 -0.79806,-0.76472 c -1.54661,-1.48201 -1.5066,-1.22185 -1.5066,-9.79671 0,-7.3885 -0.006,-7.51375 -0.37437,-8.42464 -0.79766,-1.97012 -2.30109,-3.30191 -4.53027,-4.01305 -1.5712,-0.50124 -4.75937,-0.61214 -6.76203,-0.23522 -1.73156,0.3259 -4.02045,1.14299 -6.16666,2.20137 -2.41664,1.19174 -2.34765,0.82188 -0.67778,3.63377 0.96527,1.62542 1.51006,2.39105 1.64405,2.31051 0.11022,-0.0662 0.5985,-0.37356 1.08507,-0.68291 2.0331,-1.29259 4.31301,-2.05345 6.17077,-2.05932 2.22946,-0.007 2.73836,0.55289 2.95754,3.25421 l 0.11619,1.43194 -1.89792,0.001 c -4.37214,0.002 -7.73215,0.97317 -9.68304,2.79799 -1.59254,1.48965 -2.31299,3.30726 -2.33204,5.88351 -0.0374,5.05985 2.55036,7.73844 7.95049,8.2295 2.41648,0.21975 4.73351,-0.40826 6.53387,-1.77095 l 1.08953,-0.82466 0.2595,0.38348 c 0.45835,0.67735 1.52699,1.62268 2.41746,2.1385 l 0.86631,0.50182 0.63311,-0.71175 c 0.34821,-0.39147 1.16675,-1.33544 1.81899,-2.0977 z m -11.9521,-2.6503 c -0.85975,-0.20627 -1.45554,-0.63725 -1.88069,-1.36043 -0.38751,-0.65919 -0.45123,-0.94987 -0.4428,-2.01999 0.0135,-1.71868 0.41739,-2.4863 1.61133,-3.06265 0.85023,-0.41043 1.24239,-0.48358 3.68775,-0.68801 l 1.14226,-0.0955 -0.0589,2.74309 c -0.0567,2.64073 -0.0741,2.75925 -0.46639,3.17668 -0.76578,0.81495 -2.70397,1.51998 -3.59254,1.3068 z m -45.559973,4.3707 c 1.986555,-0.35238 4.51092,-1.48348 5.843012,-2.61808 l 0.449717,-0.38304 -1.594112,-2.16666 c -0.876762,-1.19167 -1.655158,-2.14967 -1.72977,-2.12887 -0.07461,0.0208 -0.60652,0.34212 -1.182017,0.71408 -1.606933,1.03862 -2.948575,1.3812 -5.108386,1.30442 -1.580414,-0.0562 -1.912824,-0.12355 -2.898415,-0.5873 -2.675257,-1.25882 -4.165537,-3.66692 -4.622269,-7.469 -0.26087,-2.17162 -0.22752,-7.53973 0.05776,-9.29721 0.51256,-3.15764 1.580528,-5.19062 3.349942,-6.37693 1.524958,-1.02242 2.601088,-1.30145 4.637145,-1.20239 1.839015,0.0895 2.889585,0.41192 4.322025,1.32655 0.438901,0.28024 0.82198,0.48113 0.851283,0.44642 0.0293,-0.0347 0.744655,-1.1009 1.589672,-2.36931 1.774876,-2.66418 1.78123,-2.49778 -0.133794,-3.5041 -2.047001,-1.07567 -3.758328,-1.47415 -6.688498,-1.55739 -2.342593,-0.0666 -2.730883,-0.0353 -4.166667,0.33564 -4.065835,1.05034 -7.255633,3.48478 -9.486666,7.24017 -2.933413,4.93766 -3.465782,13.61917 -1.179647,19.23685 0.846794,2.08082 1.790563,3.46488 3.56546,5.22883 1.389395,1.38084 1.953342,1.81215 3.22191,2.46415 0.845748,0.43469 2.120748,0.94355 2.833333,1.1308 2.290697,0.60195 5.46944,0.69349 8.06898,0.23237 z m 129.559973,-0.005 c 1.77902,-0.48755 5.41525,-2.40303 5.82725,-3.06965 0.0538,-0.0871 -0.48525,-1.05678 -1.198,-2.15477 l -1.29592,-1.99633 -1.19621,0.80412 c -1.73816,1.16841 -2.81237,1.5314 -4.82301,1.62971 -2.18192,0.1067 -3.13678,-0.18271 -4.23884,-1.28476 -0.92755,-0.92757 -1.47547,-2.24675 -1.61262,-3.88262 l -0.0943,-1.1252 h 7.44084 7.44084 v -1.79603 c 0,-4.97115 -1.13343,-8.63484 -3.37161,-10.89827 -1.91934,-1.941 -4.09145,-2.71539 -7.62839,-2.71965 -1.94214,-0.002 -2.42103,0.0532 -3.5,0.40605 -3.40896,1.11475 -6.15244,4.21282 -7.18318,8.11154 -0.50306,1.90285 -0.6292,6.25186 -0.24097,8.30893 0.99312,5.26223 4.18722,8.74178 9.0176,9.82348 1.47748,0.33087 5.19729,0.24338 6.65655,-0.15655 z m -8.41667,-16.89528 c 0,-2.06129 1.15463,-4.04484 2.60798,-4.48028 1.89565,-0.56795 3.59382,0.0762 4.4132,1.67414 0.27446,0.53524 0.62301,2.34793 0.64034,3.33025 0.005,0.26948 -0.28654,0.29167 -3.82819,0.29167 h -3.83333 z m 28.875,16.87056 c 0.61875,-0.14155 1.125,-0.33645 1.125,-0.43311 0,-0.0967 -0.238,-1.02609 -0.5289,-2.06539 l -0.5289,-1.88961 h -0.7118 c -1.17348,0 -1.57125,-0.47792 -1.74022,-2.0909 -0.0764,-0.72917 -0.14676,-7.43827 -0.15641,-14.9091 -0.0163,-12.64521 -0.0883,-15.64342 -0.3825,-15.93763 -0.10895,-0.10895 -6.4877,1.24289 -6.76124,1.4329 -0.0697,0.0484 -0.072,0.72556 -0.005,1.50473 0.067,0.77916 0.13044,7.19166 0.141,14.25 0.0105,7.05833 0.0839,13.55695 0.16295,14.44136 0.10297,1.1517 0.27047,1.89037 0.59024,2.60292 1.30486,2.9076 4.5776,4.05877 8.79578,3.09383 z M 96.396087,208.37693 v -9.293 l 1.041667,-0.70559 c 1.983368,-1.34346 4.590706,-1.87238 5.687766,-1.1538 1.02257,0.6698 1.01548,0.59717 1.07221,10.98704 l 0.0516,9.45833 h 3.33354 3.33353 l -0.0562,-10.45833 -0.0562,-10.45833 -0.45758,-1.36339 c -0.35635,-1.06178 -0.62363,-1.53426 -1.2082,-2.13573 -2.65786,-2.73473 -8.27014,-2.75003 -12.053425,-0.0328 l -0.772113,0.55453 -0.0175,-5.34461 c -0.01473,-4.50199 -0.189306,-7.78112 -0.426336,-8.00835 -0.03089,-0.0296 -1.593667,0.30409 -3.472834,0.74157 -3.003668,0.69928 -3.41244,0.83331 -3.381696,1.10879 0.3353,3.00468 0.381696,5.37465 0.381696,19.4977 v 15.899 h 3.5 3.5 z m 52.333343,0.14052 v -9.15248 l 0.81532,-0.5985 c 1.75213,-1.28618 3.88189,-1.89813 4.85134,-1.39395 0.22917,0.11918 0.56667,0.5161 0.75,0.88204 0.31956,0.63785 0.33543,1.05294 0.38392,10.04035 l 0.0506,9.375 h 3.33132 3.33131 l -0.0486,-10.70833 -0.0486,-10.70833 -0.39941,-0.99157 c -1.07668,-2.67294 -4.01934,-4.1655 -7.3809,-3.7437 -2.04723,0.25689 -3.65085,0.9157 -5.49202,2.25626 -0.42478,0.30929 -0.81853,0.56234 -0.875,0.56234 -0.0565,0 -0.10267,-0.22219 -0.10267,-0.49375 0,-0.45606 -0.49857,-1.99317 -0.79623,-2.45481 -0.0943,-0.14633 -0.89429,0.022 -3.0409,0.63972 -1.60208,0.46106 -2.93502,0.86006 -2.96209,0.88667 -0.0271,0.0266 0.11639,0.78874 0.31882,1.69361 0.35413,1.58305 0.37061,2.04989 0.43612,12.35356 l 0.0681,10.70833 h 3.40476 3.40476 z m 26.16666,0.02 v -9.13242 l 0.80477,-0.61373 c 1.31132,-1.00002 2.6189,-1.52497 3.81603,-1.53201 1.31673,-0.008 1.7894,0.39155 2.04233,1.72524 0.10249,0.54044 0.17021,4.43578 0.17021,9.79142 v 8.89391 h 3.3391 3.33911 l -0.0474,-10.79166 c -0.0474,-10.77561 -0.048,-10.79306 -0.42518,-11.72532 -1.02995,-2.5457 -4.09346,-4.05003 -7.40257,-3.63503 -1.79063,0.22457 -3.05117,0.70347 -4.75941,1.80819 l -1.52166,0.98404 -0.18157,-0.84661 c -0.0999,-0.46564 -0.32398,-1.16856 -0.49804,-1.56205 l -0.31647,-0.71543 -1.13793,0.3274 c -0.62587,0.18006 -1.98763,0.5661 -3.02614,0.85786 -1.70205,0.47817 -1.88022,0.56423 -1.80727,0.87288 0.0445,0.18832 0.21352,0.8674 0.37557,1.50907 0.26312,1.04188 0.3015,2.32987 0.35879,12.04166 l 0.0642,10.875 h 3.40681 3.40682 z m -28.26269,-38.62201 1.79957,-2.08776 -0.75448,-0.66412 c -0.41496,-0.36526 -0.92951,-1.01952 -1.14344,-1.45391 l -0.38896,-0.78979 -0.005,-7.5 c -0.005,-6.82845 -0.0324,-7.57461 -0.30858,-8.33333 -0.41294,-1.13444 -0.78791,-1.71167 -1.63439,-2.51602 -0.95874,-0.91101 -1.64137,-1.29434 -3.13512,-1.76053 -1.08473,-0.33854 -1.58053,-0.38898 -3.75,-0.38151 -2.90169,0.01 -3.85863,0.20136 -6.75,1.34981 -2.52142,1.00151 -4.37424,2.0425 -4.24579,2.38546 0.13551,0.36184 2.59926,4.49901 2.72518,4.57617 0.0572,0.035 0.66645,-0.27908 1.35395,-0.69802 2.30162,-1.40255 4.21769,-2.03365 6.18368,-2.03672 2.18505,-0.003 2.78922,0.70468 2.80691,3.28969 l 0.009,1.375 -1.54167,0.001 c -7.32464,0.006 -11.4759,2.54176 -12.13968,7.4154 -0.52075,3.82337 0.87512,6.98637 3.72187,8.43367 1.82427,0.92747 4.28889,1.30842 6.48406,1.00222 2.07544,-0.28949 2.95448,-0.69162 4.86229,-2.22429 0.46357,-0.37242 0.4728,-0.37309 0.65473,-0.048 0.36098,0.64504 1.38954,1.58679 2.36526,2.16564 0.54461,0.32309 0.99935,0.58744 1.01053,0.58744 0.0112,0 0.83015,-0.93949 1.81992,-2.08776 z m -11.82064,-3.48742 c -1.33605,-0.48556 -2.02006,-1.84094 -1.87173,-3.70885 0.11294,-1.42212 0.49969,-2.02805 1.66786,-2.61309 0.84396,-0.42267 1.19195,-0.49072 2.89336,-0.5658 l 1.93401,-0.0854 -0.12055,2.73247 c -0.13744,3.11536 -0.16154,3.17192 -1.6604,3.89765 -1.10668,0.53584 -2.01148,0.64501 -2.84255,0.34297 z m -19.65561,4.73335 c 2.21358,-0.39208 4.02633,-1.15292 6.02057,-2.52696 l 1.19829,-0.82563 -1.20633,-1.86112 c -0.66348,-1.02362 -1.25886,-1.94754 -1.32306,-2.05316 -0.0785,-0.12922 -0.51208,0.0711 -1.32529,0.61247 -1.62678,1.08289 -3.40668,1.66904 -5.10187,1.68011 -2.49398,0.0163 -3.91758,-0.72828 -4.81279,-2.51722 -0.53196,-1.06303 -1.01887,-3.30268 -0.79632,-3.66278 0.0693,-0.11215 2.64178,-0.17055 7.51225,-0.17055 h 7.40683 l -0.005,-0.79167 c -0.003,-0.43541 -0.0748,-1.74771 -0.16031,-2.91621 -0.55768,-7.62198 -3.88919,-11.43688 -10.2515,-11.73894 -2.23096,-0.10592 -3.76582,0.17987 -5.57163,1.03745 -1.79436,0.85213 -3.83667,2.94126 -4.79936,4.90937 -1.17082,2.39359 -1.6591,5.18499 -1.48685,8.5 0.21717,4.17966 1.64395,7.53246 4.14737,9.74598 1.09908,0.9718 3.51279,2.15927 5.0438,2.48138 1.39153,0.29277 4.13454,0.34129 5.51106,0.0975 z m -7.19846,-17.3852 c 0.31175,-3.04286 1.84435,-4.61528 4.28291,-4.39416 2.02359,0.1835 3.1001,1.53445 3.27678,4.11216 l 0.092,1.34236 h -3.88016 -3.88018 z m 53.26815,17.38415 c 1.90886,-0.23935 4.03586,-0.94487 3.93572,-1.30547 -0.041,-0.14757 -0.24036,-1.0764 -0.44307,-2.06405 -0.30341,-1.47828 -0.41613,-1.78161 -0.63765,-1.71587 -1.69641,0.50348 -3.25979,0.53044 -3.99874,0.069 -0.19457,-0.12151 -0.485,-0.48413 -0.64539,-0.80581 -0.26264,-0.52678 -0.29639,-1.3424 -0.33964,-8.20988 l -0.048,-7.625 h 2.15122 2.15123 l 0.79624,-2.125 c 0.43794,-1.16875 0.83077,-2.21875 0.87297,-2.33334 0.0596,-0.16182 -0.59704,-0.20833 -2.94111,-0.20833 h -3.01783 v -1.55002 c 0,-0.85251 0.08,-2.54752 0.17775,-3.76669 0.0978,-1.21918 0.1387,-2.25573 0.091,-2.30345 -0.0477,-0.0477 -1.56004,0.2784 -3.3607,0.72473 -2.25104,0.55797 -3.31956,0.89678 -3.41999,1.08445 -0.0803,0.15011 -0.19714,1.51899 -0.25957,3.04196 l -0.11349,2.76902 h -1.22416 -1.22415 v 2.33333 2.33334 h 1.24027 1.24027 l 0.0534,8.45833 c 0.053,8.39404 0.0564,8.46564 0.43934,9.41927 0.21226,0.52851 0.57623,1.1871 0.80883,1.46352 0.95388,1.13362 2.75909,2.03877 4.58955,2.30123 1.47099,0.21092 1.55808,0.21133 3.12573,0.0148 z m 47.13461,-0.0873 c 2.16598,-0.44422 4.73159,-1.62922 6.17753,-2.85327 l 0.55955,-0.47368 -1.31524,-2.02431 -1.31524,-2.02431 -0.41098,0.32343 c -0.79458,0.62532 -2.53028,1.52843 -3.54371,1.84384 -1.31564,0.40948 -3.45519,0.44108 -4.57948,0.0677 -2.0126,-0.66847 -3.37112,-2.85969 -3.37112,-5.43742 v -0.65846 h 7.41667 7.41666 v -1.67323 c 0,-4.99204 -1.12563,-8.70192 -3.33656,-10.99679 -2.65138,-2.75203 -8.20007,-3.65982 -12.11435,-1.98197 -2.06726,0.88613 -4.23834,3.03433 -5.31162,5.25563 -1.09303,2.2622 -1.29713,3.38889 -1.30966,7.22969 -0.0101,3.08385 0.0261,3.54655 0.37115,4.75 1.33036,4.63998 4.45906,7.72867 8.78438,8.67206 1.40586,0.30663 4.34085,0.29722 5.88202,-0.0189 z M 200.75788,153.608 c 0.29963,-2.79655 1.66515,-4.27151 3.95457,-4.27151 1.30915,0 2.43057,0.69322 3.03815,1.87807 0.27447,0.53525 0.62302,2.34794 0.64035,3.33026 0.005,0.26959 -0.289,0.29167 -3.87978,0.29167 h -3.88492 z M 75.396922,170.96163 c 5e-4,-0.0229 0.751069,-3.71591 1.668022,-8.20665 0.916952,-4.49075 1.896652,-9.59075 2.17711,-11.33334 0.280458,-1.74259 0.551883,-3.35584 0.603165,-3.58501 0.05521,-0.2467 0.257165,0.70427 0.495093,2.33125 0.405924,2.77576 1.142164,6.3951 3.187309,15.66875 l 1.121041,5.08333 3.861517,0.0447 c 3.569785,0.0413 3.868417,0.0224 3.95287,-0.25 0.05024,-0.16209 1.931865,-7.98221 4.181378,-17.37804 2.249514,-9.39583 4.131443,-17.21458 4.182073,-17.375 0.0858,-0.27186 -0.16257,-0.29167 -3.657949,-0.29167 -3.42794,0 -3.7573,0.025 -3.834994,0.29167 -0.04675,0.16042 -0.76042,3.44167 -1.585941,7.29167 -1.302264,6.0734 -2.988969,15.29366 -3.032549,16.57723 -0.0079,0.23252 -0.275251,-1.18973 -0.594125,-3.16057 -0.547125,-3.38157 -1.174355,-6.5994 -3.256843,-16.70833 l -0.884105,-4.29167 h -3.864055 c -3.534703,0 -3.871717,0.0249 -3.953933,0.29167 -0.04943,0.16042 -0.847887,3.74167 -1.774342,7.95833 -1.578187,7.18296 -2.33409,11.14938 -2.84275,14.91667 l -0.213783,1.58333 -0.285295,-2.16666 c -0.468387,-3.55716 -1.083162,-6.7629 -2.827247,-14.7427 -0.910708,-4.16681 -1.655835,-7.63556 -1.655835,-7.70833 0,-0.0728 -1.6875,-0.13231 -3.75,-0.13231 -2.67766,0 -3.75,0.0539 -3.75,0.18843 0,0.19272 8.113932,34.55898 8.24858,34.93657 0.05664,0.15883 1.026072,0.20834 4.079523,0.20834 2.202877,0 4.005605,-0.0187 4.006065,-0.0417 z m 99.832508,-9.52394 v -9.23227 l 1.125,-0.76699 c 1.41544,-0.96501 2.82821,-1.47681 4.14136,-1.50029 1.18811,-0.0213 1.81024,0.25396 2.20619,0.97593 0.24682,0.45004 0.28665,1.56385 0.36078,10.08923 l 0.0833,9.58333 3.29167,0.0452 3.29167,0.0452 v -10.35447 c 0,-11.05284 -0.0223,-11.39614 -0.84471,-13.0082 -1.2553,-2.46059 -4.92129,-3.67952 -8.68606,-2.88806 -1.42474,0.29951 -3.25319,1.10121 -4.25946,1.86758 l -0.70977,0.54057 v -5.29494 c 0,-4.25737 -0.17371,-7.93221 -0.38493,-8.14332 -0.0502,-0.0502 -6.78395,1.55378 -6.86548,1.63531 -0.0402,0.0402 0.0104,0.48161 0.1125,0.98082 0.12639,0.61793 0.20742,6.29437 0.25385,17.78266 l 0.0682,16.875 h 3.40793 3.40793 z m 51.5,0.15513 v -9.07715 l 0.695,-0.66782 c 1.33486,-1.28266 3.17405,-1.79291 4.63183,-1.28502 0.40892,0.14247 0.7664,0.23613 0.7944,0.20812 0.1295,-0.1295 1.85055,-5.84513 1.7897,-5.9436 -0.17296,-0.27985 -1.66143,-0.52194 -2.85693,-0.46465 -1.70909,0.0819 -2.58777,0.51757 -4.25354,2.10903 -0.83986,0.80241 -1.32128,1.15764 -1.36843,1.00974 -0.04,-0.1255 -0.12255,-0.52817 -0.18345,-0.89484 -0.14598,-0.87906 -0.74065,-2.25 -0.97595,-2.25 -0.10248,0 -1.48645,0.34917 -3.07547,0.77594 -2.69745,0.72445 -2.88238,0.79909 -2.78721,1.125 0.62581,2.14302 0.64351,2.48122 0.70958,13.55739 l 0.0649,10.875 h 3.40782 3.4078 z m -96.7839,-36.99442 c 0.80635,-0.23731 1.93135,-0.66606 2.5,-0.95277 1.11833,-0.56386 2.8648,-1.70207 3.03553,-1.97832 0.1168,-0.18897 -2.39433,-4.19931 -2.56288,-4.09298 -0.058,0.0366 -0.60522,0.4023 -1.21609,0.81271 -1.71287,1.1508 -3.01476,1.53292 -5.22266,1.53292 -1.72517,0 -1.88664,-0.0295 -2.73677,-0.5 -1.55065,-0.8582 -2.3763,-2.33742 -2.61723,-4.68899 l -0.1087,-1.06101 h 7.43968 7.43968 l -10e-4,-2.04166 c -0.004,-8.85023 -3.73889,-13.458345 -10.90731,-13.458345 -3.16797,0 -5.44928,0.86446 -7.41845,2.811075 -2.89107,2.85795 -3.97639,6.10148 -3.7958,11.34388 0.1007,2.92306 0.44902,4.41075 1.56194,6.67118 1.59986,3.24941 4.44705,5.29642 8.36577,6.01466 1.4736,0.27008 4.63479,0.0613 6.24429,-0.41235 z m -8.7161,-16.74693 c 0,-1.04772 0.51324,-2.69891 1.06291,-3.41956 0.60204,-0.78932 1.66136,-1.26196 2.82839,-1.26196 1.23,0 1.90603,0.29358 2.63372,1.14372 0.68674,0.8023 0.92358,1.49502 1.07755,3.15161 l 0.11196,1.20467 h -3.85727 -3.85726 z m -46.207428,2.02682 0.04258,-14.541665 h 4.146122 4.14612 l 0.51963,-2.725103 c 0.285798,-1.498806 0.519631,-2.811306 0.519631,-2.916666 0,-0.142617 -3.215233,-0.191565 -12.583333,-0.191565 H 59.229419 v 2.916666 2.916668 h 4.25 4.25 v 14.586575 14.5866 l 3.625,-0.0449 3.625,-0.0449 z m 19.833812,5.26287 0.04306,-9.27882 1.001017,-0.66845 c 1.28914,-0.86086 2.656298,-1.37423 3.912863,-1.46928 1.282626,-0.097 2.033266,0.26188 2.499996,1.19534 0.31958,0.63916 0.33551,1.05711 0.38609,10.1285 l 0.0527,9.46182 3.28058,-0.0451 3.28058,-0.0452 v -10.25 c 0,-9.48002 -0.0235,-10.34173 -0.31273,-11.47105 -0.75957,-2.965665 -2.91457,-4.501165 -6.53798,-4.658505 -2.550944,-0.11077 -5.132602,0.64305 -6.949082,2.029045 l -0.700205,0.53427 -0.01905,-5.258545 c -0.01602,-4.421846 -0.20881,-7.875299 -0.453293,-8.119783 -0.03212,-0.03212 -1.588987,0.303222 -3.459697,0.74521 -3.027502,0.7153 -3.39745,0.839097 -3.366323,1.126485 0.01923,0.177579 0.112983,1.062067 0.208333,1.965529 0.107352,1.017183 0.173363,7.697819 0.173363,17.545044 v 15.9024 l 3.458334,-0.0451 3.458333,-0.0451 z"
     id="path1003" /></g></svg>
