<?xml version="1.0" encoding="UTF-8" standalone="no"?>
<!-- Generator: Adobe Illustrator 16.0.0, SVG Export Plug-In . SVG Version: 6.00 Build 0)  -->

<svg
   version="1.1"
   id="Layer_1"
   x="0px"
   y="0px"
   width="280px"
   height="280px"
   viewBox="0 0 280 280"
   enable-background="new 0 0 280 280"
   xml:space="preserve"
   sodipodi:docname="pbs.svg"
   inkscape:version="1.1.2 (0a00cf5339, 2022-02-04)"
   xmlns:inkscape="http://www.inkscape.org/namespaces/inkscape"
   xmlns:sodipodi="http://sodipodi.sourceforge.net/DTD/sodipodi-0.dtd"
   xmlns="http://www.w3.org/2000/svg"
   xmlns:svg="http://www.w3.org/2000/svg"><defs
   id="defs216276">
	
	
	
</defs><sodipodi:namedview
   id="namedview216274"
   pagecolor="#ffffff"
   bordercolor="#666666"
   borderopacity="1.0"
   inkscape:pageshadow="2"
   inkscape:pageopacity="0.0"
   inkscape:pagecheckerboard="0"
   showgrid="false"
   inkscape:zoom="0.74285714"
   inkscape:cx="160.86539"
   inkscape:cy="290.76923"
   inkscape:window-width="1600"
   inkscape:window-height="828"
   inkscape:window-x="0"
   inkscape:window-y="0"
   inkscape:window-maximized="1"
   inkscape:current-layer="layer1"
   inkscape:showpageshadow="2"
   inkscape:deskcolor="#d1d1d1" />
<g
   inkscape:groupmode="layer"
   id="layer2"
   inkscape:label="BG" />
<g
   inkscape:groupmode="layer"
   id="layer1"
   inkscape:label="Logo"><path
     style="fill:#2135c5;stroke-width:0.0982533;fill-opacity:1"
     d="M 129.19578,239.56619 C 110.40895,238.88546 92.386651,233.07674 76.925141,222.71897 65.810317,215.27307 56.503834,205.96634 49.068705,194.86176 39.755748,180.95259 34.099173,164.95198 32.569739,148.19154 c -0.521151,-5.71106 -0.521036,-12.57395 3.16e-4,-18.27507 1.388593,-15.18481 6.059063,-29.47988 13.931901,-42.641837 2.577946,-4.309852 6.097331,-9.219497 9.437744,-13.165913 3.356338,-3.96523 7.882669,-8.491568 11.847906,-11.847906 10.661011,-9.023932 23.323525,-15.844917 36.648404,-19.741609 18.38329,-5.375956 38.20934,-5.37546 56.59378,0.0014 8.6728,2.53653 17.27735,6.404577 25.03027,11.251994 6.55425,4.097965 12.17946,8.598074 17.8592,14.287176 4.93313,4.94123 8.58666,9.388351 12.47647,15.186479 5.61007,8.362347 10.05849,17.870786 12.87066,27.510866 5.66524,19.42035 5.35237,40.30951 -0.89048,59.45476 -2.84497,8.72477 -6.91616,17.10148 -11.98018,24.64988 -3.90092,5.81468 -7.58913,10.2973 -12.57346,15.28162 -4.98432,4.98433 -9.46694,8.67254 -15.28162,12.57346 -7.47003,5.01145 -15.7004,9.02876 -24.31764,11.86964 -11.19363,3.69025 -23.26223,5.406 -35.02723,4.97971 z m 6.65705,-52.1391 0.0249,-12.00344 3.80692,-0.0423 c 4.29942,-0.0478 4.79281,-0.11065 6.80363,-0.8668 4.09641,-1.54037 6.98727,-4.8617 7.98831,-9.17781 0.20033,-0.86377 0.20588,-1.14124 0.23934,-11.96154 l 0.0343,-11.07724 0.21675,-0.0519 c 0.11921,-0.0285 2.74829,-0.55753 5.84242,-1.17553 3.09412,-0.61801 5.82287,-1.21087 6.06391,-1.3175 0.61592,-0.27245 1.37744,-1.01986 1.68998,-1.65867 0.3308,-0.67612 0.42783,-1.90025 0.20199,-2.54841 -0.11568,-0.33201 -28.21034,-54.104898 -29.41683,-56.303496 l -0.33697,-0.614081 h -15.7539 c -16.13845,0 -17.86586,0.0327 -20.848,0.39495 -13.674179,1.660932 -26.056025,8.871784 -34.24512,19.943439 -7.578019,10.245488 -11.077002,23.507478 -9.358067,35.469368 1.261383,8.77783 5.112692,16.89355 11.196578,23.59412 4.994345,5.5006 11.507445,9.68901 18.84038,12.1158 l 1.59161,0.52673 0.0249,14.40365 0.0249,14.40366 22.671569,-0.0248 22.67157,-0.0248 z m -6.86855,-56.0338 c -3.8643,-0.49181 -7.28956,-2.99143 -8.9797,-6.55306 -0.76323,-1.60836 -1.07411,-3.24008 -1.002,-5.25913 0.0627,-1.75588 0.34275,-2.89939 1.08749,-4.44072 2.80336,-5.80198 9.67021,-8.15021 15.39391,-5.26419 2.19819,1.10837 4.10006,3.04165 5.15319,5.23827 3.21385,6.70348 -0.70942,14.56086 -8.05291,16.12807 -0.85517,0.18251 -2.73274,0.26113 -3.59998,0.15076 z m 47.07823,56.05036 v -12.036 h 3.40169 c 2.56594,0 3.65368,-0.0374 4.42737,-0.1523 2.83904,-0.42155 5.27593,-1.59196 7.24357,-3.47901 1.53084,-1.46814 2.58122,-3.11395 3.20437,-5.02087 0.59378,-1.81699 0.58677,-1.65515 0.5872,-13.56693 v -10.87088 l 0.22107,-0.0525 c 0.12159,-0.0289 2.69705,-0.54575 5.72325,-1.14854 3.82219,-0.76134 5.67419,-1.17243 6.06558,-1.34637 1.45904,-0.6484 2.34602,-2.52728 1.94478,-4.11957 -0.0663,-0.26475 -6.71704,-13.06735 -14.92194,-28.72539 l -14.80197,-28.247758 -9.16209,-0.02508 c -5.03916,-0.0138 -9.16211,0.01006 -9.16211,0.05297 0,0.0429 6.46084,12.411975 14.35741,27.486798 7.89658,15.07484 14.55142,27.80672 14.78854,28.29307 0.52728,1.08154 0.63383,1.836 0.39241,2.7784 -0.28116,1.09748 -0.96849,1.94291 -2.00767,2.46948 -0.28284,0.14333 -2.31753,0.59352 -6.16147,1.36327 l -5.73917,1.14927 -0.0341,11.15251 c -0.0313,10.25322 -0.0481,11.21194 -0.20794,11.88942 -0.57059,2.41805 -1.55312,4.28555 -3.13267,5.95423 -1.7933,1.8945 -3.99254,3.13093 -6.7532,3.79671 -0.75169,0.18127 -1.23034,0.20565 -4.78984,0.24391 l -3.95468,0.0425 v 12.07736 12.07736 h 9.23579 9.23579 z"
     id="path1026" /></g></svg>
