<?xml version="1.0" encoding="UTF-8" standalone="no"?>
<!-- Generator: Adobe Illustrator 16.0.0, SVG Export Plug-In . SVG Version: 6.00 Build 0)  -->

<svg
   version="1.1"
   id="Layer_1"
   x="0px"
   y="0px"
   width="280px"
   height="280px"
   viewBox="0 0 280 280"
   enable-background="new 0 0 280 280"
   xml:space="preserve"
   sodipodi:docname="intelistar.svg"
   inkscape:version="1.4 (e7c3feb100, 2024-10-09)"
   xmlns:inkscape="http://www.inkscape.org/namespaces/inkscape"
   xmlns:sodipodi="http://sodipodi.sourceforge.net/DTD/sodipodi-0.dtd"
   xmlns="http://www.w3.org/2000/svg"
   xmlns:svg="http://www.w3.org/2000/svg"><defs
   id="defs216276">
	
	
	
</defs><sodipodi:namedview
   id="namedview216274"
   pagecolor="#ffffff"
   bordercolor="#666666"
   borderopacity="1.0"
   inkscape:pageshadow="2"
   inkscape:pageopacity="0.0"
   inkscape:pagecheckerboard="0"
   showgrid="false"
   inkscape:zoom="1.4857143"
   inkscape:cx="217.40384"
   inkscape:cy="193.50961"
   inkscape:window-width="1600"
   inkscape:window-height="833"
   inkscape:window-x="0"
   inkscape:window-y="0"
   inkscape:window-maximized="1"
   inkscape:current-layer="Layer_1"
   inkscape:showpageshadow="2"
   inkscape:deskcolor="#d1d1d1" />
<g
   inkscape:groupmode="layer"
   id="layer2"
   inkscape:label="BG"><rect
     y="0"
     fill-rule="evenodd"
     clip-rule="evenodd"
     fill="#164E86"
     width="280"
     height="280"
     id="rect4994-7"
     style="fill:#052963;fill-opacity:1;stroke:none;stroke-width:0.999999;stroke-opacity:1"
     x="0" /></g>
<g
   inkscape:groupmode="layer"
   id="layer1"
   inkscape:label="Logo" /><path
   style="fill:#000000"
   d="m -940.6263,418.91809 v -74 h 341.5 341.5 v 74 74 h -341.5 -341.5 z m 278.76051,12.75 0.26051,-43.75 h 16.98949 16.98949 v -10.5 -10.5 h -47 -47 v 10.5 10.5 h 17 17 v 44.02988 44.02987 l 12.75,-0.27987 12.75,-0.27988 z m 149.55956,40 c 0.87549,-2.3375 5.91865,-16.625 11.20703,-31.75 5.28838,-15.125 13.18321,-37.59718 17.54407,-49.93818 4.36086,-12.34101 7.92883,-22.57851 7.92883,-22.75 0,-0.1715 -6.02082,-0.31182 -13.3796,-0.31182 h -13.37959 l -11.78726,34.75 c -13.74533,40.52255 -13.29904,39.25 -13.7652,39.25 -0.19863,0 -5.94727,-16.64734 -12.77475,-36.99409 l -12.4136,-36.99408 -13.25,-0.006 c -7.98824,-0.004 -13.25,0.38317 -13.25,0.97385 0,0.53887 0.65751,2.67637 1.46114,4.75 0.80363,2.07363 8.69174,24.92024 17.52913,50.77024 8.83739,25.85 16.55947,48.2375 17.16018,49.75 l 1.09219,2.75 h 14.24282 14.24282 l 1.59179,-4.25 z M -717.18154,304.97966 c -14.62426,-2.3018 -23.11209,-10.67185 -27.1672,-26.79025 -2.14078,-8.50925 -2.51201,-52.15883 -0.52445,-61.6655 2.6189,-12.52646 8.80451,-21.82774 17.4191,-26.19309 9.64652,-4.88826 27.6589,-5.30603 38.23555,-0.88682 8.69739,3.634 16.05931,13.94913 18.64568,26.12532 1.57704,7.42443 2.31135,42.56865 1.10423,52.84877 -2.42383,20.642 -9.04272,30.95254 -22.46286,34.99141 -5.87455,1.76798 -18.86205,2.5756 -25.25005,1.57016 z m 17.13528,-17.94725 c 6.93919,-4.23151 8.81594,-14.69878 8.16666,-45.54827 -0.51901,-24.66043 -1.56412,-30.10082 -6.73385,-35.05374 -2.5642,-2.45666 -3.87266,-2.91508 -8.44752,-2.95961 -13.17,-0.12821 -16.52571,8.59269 -16.52571,42.9473 0,33.7606 3.2303,42.35354 15.96038,42.45622 2.69935,0.0218 5.73246,-0.71525 7.58004,-1.8419 z m -181.47765,11.63568 c -0.57167,-2.8875 -4.63929,-25.05 -9.03915,-49.25 -4.39987,-24.2 -8.68896,-47.6 -9.53133,-52 -0.84236,-4.4 -1.53164,-8.1125 -1.53174,-8.25 -9e-5,-0.1375 4.94126,-0.25 10.98078,-0.25 10.57485,0 10.99919,0.0832 11.47415,2.25 0.27127,1.2375 1.83701,11.475 3.47944,22.75 1.64243,11.275 4.20196,28.825 5.68785,39 1.48588,10.175 2.98148,18.83028 3.32356,19.23395 0.34207,0.40367 3.45338,-17.14633 6.91402,-39 3.46064,-21.85367 6.53164,-40.74645 6.82446,-41.98395 0.51174,-2.16273 0.95411,-2.25 11.40493,-2.25 10.45459,0 10.89251,0.0865 11.39215,2.25 0.28579,1.2375 3.2396,19.575 6.56403,40.75 3.32442,21.175 6.30794,39.175 6.63004,40 0.4195,1.07448 12.82181,-75.78477 13.27217,-82.25 0.0287,-0.4125 5.038,-0.75 11.13171,-0.75 h 11.07945 l -0.57026,2.75 c -0.31364,1.5125 -4.84243,26.375 -10.06397,55.25 -5.22155,28.875 -9.73426,53.5125 -10.02825,54.75 -0.52036,2.19033 -0.8788,2.25 -13.51548,2.25 -9.71534,0 -12.98225,-0.31446 -12.98612,-1.25 -0.003,-0.6875 -1.30789,-9.575 -2.90011,-19.75 -1.59222,-10.175 -4.38512,-28.28228 -6.20644,-40.23839 -1.82132,-11.95612 -3.59817,-21.40612 -3.94856,-21 -0.35039,0.40611 -2.30025,11.76339 -4.33301,25.23839 -2.03277,13.475 -4.86161,31.8125 -6.28631,40.75 l -2.59036,16.25 h -12.79412 -12.79412 z m 262.89761,-52.25 v -57.5 h 25.3185 c 28.6295,0 32.57756,0.65129 39.41237,6.50163 5.61308,4.80459 8.26913,11.99208 8.26913,22.37695 0,14.04667 -4.20007,22.4529 -13.33231,26.68392 -4.08274,1.89157 -4.6879,2.46628 -3.11703,2.96018 12.94257,4.0693 14.24989,6.67403 15.91382,31.70703 1.10822,16.67243 1.51223,19.24751 3.42589,21.83587 l 2.1695,2.93442 h -12.99139 -12.99139 l -0.94117,-3.75 c -0.51765,-2.0625 -1.17327,-10.53906 -1.45694,-18.8368 -0.79143,-23.15039 -2.47847,-25.71383 -17.28198,-26.25973 l -9.397,-0.34653 v 24.59653 24.59653 h -11.5 -11.5 z m 42.41007,-9.52633 c 5.11646,-2.591 7.02082,-6.27684 7.37514,-14.2744 0.54646,-12.33479 -3.84727,-16.48677 -18.3985,-17.38618 l -8.38671,-0.51839 v 17.20527 17.20526 l 8.25,-0.37895 c 4.5375,-0.20842 9.55953,-1.0421 11.16007,-1.85261 z m 87.58993,9.52633 v -57.5 h 11.5 11.5 v 48 48 h 20.5 20.5 v 9.5 9.5 h -32 -32 z m 117,0.11199 v -57.56971 l 19.75,-0.27114 c 23.67546,-0.32503 30.59068,0.34772 36.9434,3.59404 8.80309,4.49849 13.86496,11.74563 17.01705,24.3635 1.33162,5.33053 1.68599,11.34605 1.66542,28.27132 -0.0293,24.10071 -1.16006,31.69112 -6.19985,41.61701 -3.72111,7.32875 -7.02627,10.49859 -14.67602,14.07517 -5.97513,2.79362 -6.1005,2.80667 -30.25,3.14738 l -24.25,0.34214 z m 43.67836,37.83604 c 7.17755,-5.21972 9.90489,-18.78337 9.03801,-44.94803 -0.58376,-17.61915 -2.03035,-23.97696 -6.56439,-28.85064 -3.50455,-3.76707 -6.11772,-4.67394 -15.39301,-5.34193 l -7.75897,-0.55878 v 41.22517 41.22518 l 8.92836,-0.3495 c 7.04524,-0.27579 9.52349,-0.78229 11.75,-2.40147 z M -896.1263,122.03925 c -8.80158,-4.03754 -15.06718,-14.31933 -14.29905,-23.46459 0.26944,-3.20797 7.96015,-26.8851 20.35184,-62.65657 l 19.91874,-57.5 5.01423,-5.05536 c 8.20405,-8.27133 20.00767,-9.86175 29.94958,-4.0354 5.34519,3.13249 5.48088,3.32876 32.55525,47.09076 9.52757,15.4 17.63379,28.35897 18.01384,28.79771 0.38004,0.43873 5.55309,-13.28627 11.49567,-30.5 5.94258,-17.21374 11.85455,-33.40731 13.13772,-35.9857 4.00175,-8.04112 12.26441,-12.82733 22.08006,-12.79005 13.70859,0.0521 24.20747,10.51257 24.26016,24.17148 0.0228,5.90353 0.99343,2.9307 -31.66677,96.98545 -9.44903,27.21132 -11.13451,30.17763 -19.57837,34.45646 -4.3457,2.20213 -6.08427,2.51501 -12.2462,2.20385 -5.86699,-0.29627 -8.07884,-0.91724 -12.08409,-3.39256 -4.54394,-2.80825 -6.54868,-5.67778 -27.40261,-39.22348 -12.375,-19.90645 -22.73974,-36.20022 -23.03275,-36.20836 -0.29301,-0.008 -5.41629,14.0477 -11.38506,31.2352 -5.96877,17.1875 -11.6463,32.8309 -12.61672,34.76311 -4.26533,8.49268 -11.81789,12.94297 -21.96547,12.94297 -4.18511,0 -7.92455,-0.65348 -10.5,-1.83492 z m 214.66838,-0.72454 c -8.42067,-4.1962 -13.16838,-12.05164 -13.16838,-21.78808 0,-4.50088 3.50451,-15.57541 20.02419,-63.27806 14.70114,-42.45143 20.77739,-58.75386 22.85759,-61.32643 4.38703,-5.42541 12.10414,-9.00405 19.41669,-9.00405 7.48033,0 13.14943,2.53961 18.23513,8.16887 8.08003,8.94363 8.48325,16.017 1.9664,34.49551 -2.475,7.01786 -4.5,12.88932 -4.5,13.04768 0,0.15837 12.7322,0.28794 28.29379,0.28794 h 28.29378 l 5.87133,-17.25 c 3.22923,-9.4875 6.9454,-19.725 8.25816,-22.75 4.65841,-10.73437 12.17292,-15.93996 23.06506,-15.97804 7.31649,-0.0256 11.4183,1.45909 16.59952,6.00826 5.77908,5.07411 7.99127,10.21255 7.95154,18.46978 -0.0312,6.4758 -1.43823,11.00638 -18.78946,60.5 -10.31568,29.425 -19.1634,54.9052 -19.6616,56.62267 -1.28002,4.41268 -8.5647,12.32817 -13.34341,14.49886 -4.69501,2.13266 -12.98297,2.42005 -18.92269,0.65615 -6.2601,-1.85905 -13.10633,-9.21658 -15.16475,-16.29732 -2.05204,-7.05875 -1.61751,-10.11957 3.57396,-25.17542 2.18613,-6.33999 3.97477,-12.15223 3.97477,-12.9161 0,-1.1519 -4.7548,-1.38884 -27.87064,-1.38884 h -27.87064 l -6.78855,19.75 c -9.66562,28.12032 -11.10501,30.54294 -21.17051,35.63195 -5.13662,2.59701 -14.85149,2.14402 -21.13128,-0.98533 z m 215.26076,0.22261 c -6.3319,-2.94843 -11.02881,-8.51646 -13.07113,-15.49539 -2.02227,-6.91043 -1.47331,-10.20662 4.60053,-27.62384 7.46369,-21.40271 22.21661,-64.0491 28.65139,-82.8228 6.38909,-18.64043 9.62123,-23.67432 17.71706,-27.59345 5.83796,-2.8261 15.48436,-2.83758 21.29371,-0.0253 5.89772,2.85504 10.96517,8.80796 12.82286,15.06348 2.25335,7.58783 2.03379,9.37629 -2.94536,23.9927 -2.47599,7.26832 -4.38849,13.31631 -4.25,13.43998 0.13849,0.12365 17.1268,-10.54111 37.7518,-23.69949 45.41453,-28.97365 45.19768,-28.85512 52.78744,-28.85512 19.38599,0 30.61515,20.76608 19.87046,36.74643 -2.72351,4.05062 -7.17708,7.24539 -32.37623,23.22512 -16.07009,10.19065 -30.01142,19.02203 -30.98075,19.62529 -1.54831,0.9636 0.23965,3.18779 14.71834,18.30937 20.05815,20.94879 21.48874,23.12178 21.45808,32.59379 -0.0472,14.59257 -9.73464,24.42657 -24.11315,24.47804 -10.39534,0.0372 -12.85041,-1.89461 -43.81676,-34.47804 -15.15842,-15.95 -27.89527,-29.1069 -28.3041,-29.23756 -0.40883,-0.13066 -4.78884,11.51619 -9.73336,25.8819 -7.67399,22.29585 -9.5421,26.74664 -12.76126,30.4038 -7.54113,8.56717 -18.90553,10.92036 -29.31957,6.07109 z M -596.9018,-72.69074 c -0.33485,-0.33486 -0.6473,-26.65986 -0.69431,-58.5 l -0.0855,-57.89117 h 169.54291 169.54291 l -0.0468,57.0005 c -0.0258,31.35027 -0.30578,57.67527 -0.62225,58.5 -0.50827,1.32445 -20.21445,1.4995 -168.80179,1.4995 -92.52449,0 -168.50032,-0.27397 -168.83518,-0.60883 z"
   id="path1105" /><path
   style="fill:#ffffff;stroke-width:0.766401"
   d="m 33.966601,147.97348 c -3.506442,-0.51076 -7.36806,-1.87504 -9.329922,-3.2962 -2.518659,-1.82451 -4.850922,-5.04247 -5.93995,-8.19571 -0.849479,-2.45963 -0.969026,-3.56099 -0.938364,-8.64508 0.04031,-6.6833 0.686592,-9.14086 3.362518,-12.78618 1.822676,-2.48299 6.008798,-5.33592 9.295826,-6.33529 4.666081,-1.41866 14.762548,-1.20253 18.593186,0.39802 l 1.382545,0.57766 v 5.19877 c 0,7.46374 -0.219276,7.4425 -5.076867,-0.49183 -2.670972,-4.36273 -3.349692,-4.91911 -5.84755,-4.79356 -0.400563,0.0202 -1.316877,0.0575 -2.036253,0.0829 -1.960721,0.0693 -5.05959,3.32948 -5.918954,6.22702 -2.158405,7.27756 -1.748817,21.81347 0.750859,26.64731 1.496282,2.89349 4.039932,4.18822 7.100305,3.61409 l 1.456589,-0.27326 v -7.04754 -7.04754 l -1.664674,-0.84926 c -1.09554,-0.5589 -1.664673,-1.13093 -1.664673,-1.67314 0,-0.79489 0.307354,-0.82387 8.739535,-0.82387 8.36051,0 8.739535,0.0349 8.739535,0.80429 0,0.44236 -0.359109,0.91827 -0.798018,1.05757 -0.438911,0.13931 -1.281652,0.63371 -1.872758,1.09867 l -1.074739,0.84539 v 6.96857 6.96856 l -3.017221,0.70488 c -3.392486,0.79255 -8.624432,1.52173 -10.508249,1.46455 -0.686679,-0.0209 -2.366396,-0.20074 -3.732706,-0.39975 z m 27.102717,-0.12119 c -1.863099,-0.6905 -3.400975,-2.02446 -4.363831,-3.78524 -0.566551,-1.03604 -0.707916,-2.96762 -0.830727,-11.35085 l -0.147995,-10.10234 -1.450685,-0.60613 c -0.995914,-0.41614 -1.407066,-0.83264 -1.311543,-1.32866 0.112875,-0.5861 1.238573,-0.90699 5.962427,-1.69968 3.460728,-0.58073 6.057937,-0.83287 6.401663,-0.62146 0.470634,0.28943 0.586925,2.61741 0.624253,12.49671 0.04181,11.065 0.111751,12.20694 0.789221,12.8848 0.860791,0.8613 3.72838,0.95587 5.194334,0.17131 0.923025,-0.49399 0.929095,-0.5647 0.929095,-10.8236 V 122.7608 l -1.664674,-0.75067 c -0.91557,-0.41286 -1.664673,-0.98328 -1.664673,-1.26759 0,-0.64268 9.117263,-2.38776 11.470813,-2.19556 l 1.638489,0.1338 0.07541,12.86437 0.07541,12.86435 1.227149,0.51598 c 1.24673,0.5242 1.99854,1.31392 1.6155,1.69696 -0.31455,0.31455 -11.67378,1.77154 -12.041196,1.54447 -0.173866,-0.10745 -0.316122,-0.8554 -0.316122,-1.66208 0,-0.8067 -0.140457,-1.39588 -0.312126,-1.30931 -6.420157,3.23762 -8.862051,3.78278 -11.900254,2.65677 z m 29.681956,-0.0377 c -3.46887,-1.09885 -5.12864,-3.52379 -5.12864,-7.49297 0,-5.59232 2.44244,-7.39101 12.7332,-9.37714 l 2.392966,-0.46183 v -2.90746 c 0,-5.42834 -0.921856,-7.34059 -3.868806,-8.02523 -1.39752,-0.32468 -2.20945,0.43394 -5.87966,5.49349 -3.09018,4.25995 -3.56891,4.09941 -3.56891,-1.19679 0,-4.37651 -0.16042,-4.22399 5.47394,-5.20489 6.96055,-1.21179 12.724086,-0.38009 15.448286,2.22926 2.01456,1.9296 2.38319,4.20453 2.38319,14.70713 v 9.46326 l 1.2485,0.27423 c 1.38217,0.30357 1.64704,1.22166 0.52022,1.80312 -0.40056,0.20669 -1.71149,0.60651 -2.91319,0.88849 -2.91182,0.68324 -5.87705,0.003 -7.63097,-1.75112 l -1.25943,-1.25943 -1.121046,1.01733 c -2.25489,2.04629 -5.78283,2.76572 -8.82965,1.80056 z m 9.19255,-3.97018 c 0.735036,-0.39339 0.804976,-0.92061 0.804976,-6.06751 v -5.63671 l -1.352546,0.282 c -2.92245,0.60933 -4.47627,2.66277 -4.47148,5.90926 0.007,4.496 2.27128,6.98351 5.01905,5.51296 z m 44.083786,4.20365 c -3.36331,-1.02308 -5.82824,-3.31571 -7.16097,-6.66043 -0.78624,-1.97316 -0.92225,-3.11244 -0.92225,-7.72471 0,-4.68136 0.12991,-5.73715 0.96436,-7.83727 1.21317,-3.05328 2.71696,-4.77521 5.53227,-6.33476 2.08257,-1.15366 2.49054,-1.2262 6.89543,-1.2262 h 4.6819 v -3.99452 -3.9945 l -1.74848,-0.68683 c -1.37944,-0.54185 -1.6409,-0.79438 -1.23882,-1.19646 0.46631,-0.46631 9.85052,-2.3221 12.0348,-2.37996 l 0.93222,-0.0246 0.10826,19.22139 0.10814,19.2214 1.35255,0.3504 c 0.95006,0.24615 1.35254,0.59456 1.35254,1.17086 0,0.45124 -0.2341,0.82409 -0.5202,0.82857 -0.28613,0.005 -2.58025,0.28382 -5.09807,0.62079 -6.67579,0.89344 -6.86678,0.87595 -6.86678,-0.62892 0,-1.47756 -0.1298,-1.50909 -1.67697,-0.40741 -2.51227,1.78889 -6.10519,2.48166 -8.72993,1.68324 z m 9.29402,-4.29305 c 0.64537,-0.4723 0.70062,-1.57459 0.59974,-11.96485 l -0.11112,-11.44462 -1.56857,-0.38747 c -2.1356,-0.52753 -3.52643,0.54424 -4.87266,3.75488 -0.9453,2.25441 -1.03183,2.9955 -1.04042,8.90955 -0.009,6.05819 0.0539,6.57719 1.03105,8.53145 1.41311,2.82623 4.07019,3.98544 5.96197,2.60106 z m 33.14198,3.32934 c -3.39276,-1.71087 -4.74484,-6.56795 -2.93667,-10.54942 1.31223,-2.88942 3.5603,-4.05414 10.33952,-5.35681 l 3.84956,-0.73972 -6.5e-4,-3.58984 c -7.6e-4,-4.55008 -0.74911,-6.27227 -3.05198,-7.0241 -0.87783,-0.28659 -1.84006,-0.38023 -2.1383,-0.20808 -0.29825,0.17214 -1.97822,2.23716 -3.73329,4.58894 -1.75506,2.35178 -3.36787,4.16667 -3.58401,4.03308 -0.21615,-0.13358 -0.39299,-2.0799 -0.39299,-4.32516 v -4.08229 l 2.60106,-0.73201 c 3.38056,-0.9514 10.8439,-1.31608 13.49361,-0.65932 2.76675,0.68576 4.95585,2.22213 5.95403,4.17872 0.77649,1.52206 0.84056,2.43522 0.84056,11.98236 v 10.33472 l 1.3252,0.39819 c 2.98022,0.89547 1.05643,2.26032 -3.6424,2.58414 -3.18437,0.21944 -5.1486,-0.41509 -6.4765,-2.09223 l -0.67842,-0.85685 -1.19433,0.93959 c -2.97226,2.33823 -7.31214,2.82095 -10.574,1.17609 z m 10.31603,-3.07145 c 0.91448,-0.24507 0.93638,-0.38709 0.93638,-6.07328 0,-5.13823 -0.0774,-5.79266 -0.65829,-5.56973 -0.36206,0.13893 -1.03193,0.25261 -1.4886,0.25261 -0.45667,0 -1.39622,0.5659 -2.08788,1.25756 -1.24177,1.24178 -1.25574,1.30493 -1.11245,5.03105 0.12964,3.37103 0.2499,3.85832 1.1276,4.5688 1.0308,0.83441 1.73309,0.94842 3.28324,0.53299 z m -82.71345,2.77001 c 0,-0.49203 0.50087,-1.08066 1.24851,-1.46727 l 1.2485,-0.64563 V 133.4602 122.25039 l -1.6916,-0.4555 c -0.98043,-0.26401 -1.62387,-0.66441 -1.53052,-0.95242 0.16955,-0.5231 7.93314,-2.23225 11.12931,-2.45011 l 1.87276,-0.12766 0.20809,3.53743 0.20809,3.53744 0.53693,-1.76877 c 0.78251,-2.57778 3.18663,-4.90902 5.41871,-5.25446 0.98668,-0.1527 1.96987,-0.1689 2.18488,-0.036 0.215,0.13288 0.39092,2.17288 0.39092,4.53333 v 4.29175 l -3.22531,0.18869 c -5.3805,0.31477 -5.0985,-0.20549 -5.09543,9.40072 l 0.002,8.20467 1.24588,0.70895 c 0.68522,0.38992 1.24587,0.99856 1.24587,1.35254 0,0.55751 -1.02999,0.64361 -7.69911,0.64361 -7.38829,0 -7.69911,-0.0331 -7.69911,-0.82165 z m 54.1045,0.0933 c 0.001,-0.40057 0.56328,-1.04732 1.24851,-1.43724 l 1.24587,-0.70894 v -10.9846 -10.9846 l -1.66466,-0.75068 c -3.0102,-1.3574 -2.17515,-1.88492 4.89708,-3.09358 3.03672,-0.51899 5.79904,-0.83704 6.13848,-0.70679 0.52731,0.20236 0.61715,2.14112 0.61715,13.31809 v 13.08125 l 1.45658,0.85941 c 0.80114,0.47267 1.4566,1.14663 1.4566,1.4977 0,0.5506 -1.05766,0.63828 -7.69912,0.63828 -7.05605,0 -7.69889,-0.0609 -7.69649,-0.72829 z m 60.60065,0.0864 c -0.16708,-0.4354 0.22679,-0.92113 1.224,-1.5095 l 1.47035,-0.86753 -0.12406,-10.30843 c -0.11584,-9.62584 -0.17913,-10.36923 -0.95574,-11.22659 -0.7052,-0.77853 -1.16022,-0.89091 -2.99199,-0.73901 -3.60149,0.29867 -3.46148,-0.17768 -3.44325,11.71448 l 0.0161,10.4573 1.30723,0.83234 c 2.69209,1.7141 2.17612,1.87276 -6.09054,1.87276 -6.53716,0 -7.73379,-0.095 -7.73379,-0.61358 0,-0.33745 0.56182,-0.90409 1.24849,-1.25918 l 1.24851,-0.64562 v -11.14226 -11.14227 l -1.45659,-0.5267 c -0.93706,-0.33885 -1.45659,-0.79645 -1.45659,-1.28297 0,-0.63156 0.66903,-0.87109 4.05764,-1.45271 2.23171,-0.38305 4.88175,-0.85666 5.88899,-1.05247 2.43022,-0.47244 2.9546,-0.20851 2.9546,1.48708 0,1.64131 0.11387,1.68396 1.62442,0.60839 2.30352,-1.64025 4.70851,-2.31758 8.22905,-2.31758 3.68486,0 4.77468,0.4759 6.55946,2.86439 0.80965,1.08353 0.86529,1.79162 0.98649,12.55426 l 0.12844,11.40598 1.2241,0.7231 c 0.67326,0.39769 1.22411,1.05726 1.22411,1.46569 0,0.68504 -0.57736,0.74261 -7.44651,0.74261 -6.32659,0 -7.48355,-0.0966 -7.69285,-0.64198 z m -57.10746,-32.40188 c -1.1921,-1.19209 -1.41497,-1.71149 -1.41497,-3.29742 0,-4.63033 5.77631,-6.92633 9.08966,-3.61299 3.30046,3.30047 0.7662,8.32539 -4.1988,8.32539 -1.78889,0 -2.24768,-0.18676 -3.47589,-1.41498 z m -37.31595,0.56976 c -5.53154,-1.3871 -8.94712,-5.73114 -9.68004,-12.31134 -0.30763,-2.76182 0.51726,-7.054946 1.86202,-9.690896 2.027,-3.97326 6.70801,-6.44303 12.14083,-6.40567 7.51997,0.0517 11.31903,3.90703 11.90979,12.08619 l 0.21793,3.017206 h -8.39696 -8.39695 l 0.27969,1.56063 c 1.23005,6.86372 6.526,9.79274 12.59652,6.96675 2.53648,-1.18078 2.9759,-1.2541 2.9759,-0.49656 0,0.92028 -3.01747,3.53462 -5.20211,4.50711 -2.33986,1.0416 -7.63833,1.43569 -10.30662,0.76658 z m 6.30024,-15.642746 1.4038,-0.21572 -0.29442,-3.37516 c -0.37038,-4.24592 -0.97136,-6.05075 -2.35717,-7.07885 -0.90808,-0.67369 -1.2484,-0.72706 -2.01618,-0.31616 -1.48607,0.79532 -2.91051,4.465 -3.20239,8.25008 l -0.25766,3.341156 2.66011,-0.194806 c 1.46307,-0.10711 3.29182,-0.29189 4.06391,-0.41054 z M 68.782,114.00447 c 0.07655,-0.3975 0.933025,-1.16063 1.903273,-1.69586 l 1.764089,-0.97312 V 95.968444 80.601394 h -1.233251 c -1.088043,0 -1.654392,0.56351 -4.810059,4.78594 -1.967245,2.63225 -3.875769,4.78593 -4.241163,4.78593 -0.587501,0 -0.633404,-0.61061 -0.396819,-5.27863 0.17947,-3.54103 0.440347,-5.38834 0.79252,-5.6119 0.689702,-0.43783 31.001914,-0.44686 31.272324,-0.009 0.11445,0.18519 0.34014,2.71342 0.50154,5.61828 0.26105,4.69849 0.21951,5.28157 -0.37636,5.28157 -0.36877,0 -2.24944,-2.11361 -4.18441,-4.7027 -3.33883,-4.46751 -3.58936,-4.70271 -5.00928,-4.70271 h -1.49467 v 15.31904 15.319036 l 1.97184,0.93617 c 1.08451,0.51489 2.03462,1.26217 2.11136,1.66064 0.12928,0.67127 -0.55228,0.72446 -9.285302,0.72446 -8.724349,0 -9.414472,-0.0538 -9.285632,-0.72273 z m 25.802904,-0.002 c 0.0768,-0.39882 0.65235,-0.97086 1.27901,-1.2712 l 1.13938,-0.5461 0.0624,-16.624016 c 0.0343,-9.14322 0.0812,-16.8313 0.10401,-17.08463 0.0229,-0.25333 -0.60023,-0.76834 -1.38474,-1.14447 -0.78449,-0.37612 -1.48779,-0.8742 -1.56289,-1.10683 -0.12671,-0.3925 9.129126,-2.361903 11.520696,-2.451311 l 1.04043,-0.03885 0.11307,7.758241 0.11307,7.75825 2.17586,-1.17005 c 4.16497,-2.23964 9.64069,-2.37735 11.86696,-0.29844 2.27542,2.12479 2.36753,2.63568 2.51339,13.941576 0.13291,10.30086 0.15367,10.51999 1.04043,10.98672 1.06044,0.55812 1.55734,1.21766 1.26896,1.68428 -0.11284,0.1826 -3.47146,0.332 -7.46357,0.332 -6.0481,0 -7.25839,-0.10023 -7.25839,-0.60073 0,-0.33039 0.56183,-0.9326 1.24851,-1.33823 l 1.2485,-0.73751 v -9.50962 c 0,-11.385526 -0.15836,-11.932176 -3.46074,-11.945416 -3.31828,-0.0133 -3.19795,-0.43588 -3.19795,11.230176 0,10.33561 0.003,10.37678 0.93637,10.86802 1.08953,0.57377 1.5915,1.23039 1.30054,1.70119 -0.11284,0.1826 -3.4852,0.332 -7.4941,0.332 -6.705646,0 -7.277706,-0.058 -7.149236,-0.72513 z"
   id="path1" /></svg>
