<?xml version="1.0" encoding="UTF-8" standalone="no"?>
<!-- Generator: Adobe Illustrator 16.0.0, SVG Export Plug-In . SVG Version: 6.00 Build 0)  -->

<svg
   version="1.1"
   id="Layer_1"
   x="0px"
   y="0px"
   width="280px"
   height="280px"
   viewBox="0 0 280 280"
   enable-background="new 0 0 280 280"
   xml:space="preserve"
   sodipodi:docname="intl.svg"
   inkscape:version="1.4 (e7c3feb100, 2024-10-09)"
   xmlns:inkscape="http://www.inkscape.org/namespaces/inkscape"
   xmlns:sodipodi="http://sodipodi.sourceforge.net/DTD/sodipodi-0.dtd"
   xmlns="http://www.w3.org/2000/svg"
   xmlns:svg="http://www.w3.org/2000/svg"><defs
   id="defs216276">
	
	
	
</defs><sodipodi:namedview
   id="namedview216274"
   pagecolor="#ffffff"
   bordercolor="#666666"
   borderopacity="1.0"
   inkscape:pageshadow="2"
   inkscape:pageopacity="0.0"
   inkscape:pagecheckerboard="0"
   showgrid="false"
   inkscape:zoom="2.1092491"
   inkscape:cx="156.92788"
   inkscape:cy="145.78648"
   inkscape:window-width="1600"
   inkscape:window-height="827"
   inkscape:window-x="0"
   inkscape:window-y="0"
   inkscape:window-maximized="1"
   inkscape:current-layer="layer1"
   inkscape:showpageshadow="2"
   inkscape:deskcolor="#d1d1d1" />
<g
   inkscape:groupmode="layer"
   id="layer2"
   inkscape:label="BG" />
<g
   inkscape:groupmode="layer"
   id="layer1"
   inkscape:label="Logo"><rect
     style="fill:#646464;fill-opacity:1;stroke-width:4.52076"
     id="rect1"
     width="280"
     height="280"
     x="0"
     y="0" /><path
     style="fill:#f9f9f9"
     d="M 99.549103,242.42258 C 59.035848,231.94749 28.9766,203.18002 18.968568,165.30494 c -2.075891,-7.85614 -2.352729,-11.0681 -2.279061,-26.44237 0.07693,-16.05563 0.309029,-18.24282 2.812081,-26.5 10.460719,-34.508289 35.166701,-59.793793 70.604065,-72.260208 12.263907,-4.314288 21.574367,-5.706543 37.999997,-5.682387 20.38958,0.02998 34.84258,3.360913 52.30448,12.054419 26.23767,13.062567 47.16822,37.67214 55.24011,64.949816 3.25654,11.00497 4.41362,31.45866 2.51442,44.44736 -3.16689,21.65848 -14.28711,42.45439 -31.38789,58.69846 -14.93875,14.19035 -30.22624,22.54059 -50.7356,27.71248 -9.23058,2.3277 -12.05087,2.57525 -28.83343,2.53089 -16.15939,-0.0427 -19.79134,-0.35666 -27.658637,-2.39082 z m 28.769367,-16.29743 c 0.54117,-2.09108 1.88781,-3.78038 3.80309,-4.77081 1.63089,-0.84336 3.69625,-2.64903 4.58968,-4.01258 2.00866,-3.0656 4.06115,-3.1409 7.12619,-0.26144 2.21164,2.07773 3.11945,2.19816 14.3785,1.90747 7.80763,-0.20158 12.95877,-0.8012 14.70376,-1.71159 1.47728,-0.77072 3.14613,-1.40408 3.70856,-1.40747 0.56242,-0.003 1.8604,-1.56187 2.88438,-3.46329 1.02398,-1.90141 3.60131,-4.66261 5.7274,-6.136 3.92457,-2.71972 4.4655,-4.17899 4.04301,-10.90687 -0.17975,-2.86241 -0.63458,-4.21518 -3.38898,-10.07962 -0.66638,-1.4188 -1.22888,-4.88848 -1.25,-7.71041 l -0.0384,-5.13078 5.53458,-2.66909 c 7.74429,-3.73474 10.45247,-9.9101 4.34604,-9.9101 -2.27896,0 -2.47376,-0.33341 -2.19099,-3.75 0.30805,-3.72199 0.36837,-3.76973 8.07573,-6.39148 4.69771,-1.59797 10.68718,-2.78902 15.16155,-3.01496 5.21349,-0.26327 7.96198,-0.88552 9.31338,-2.10853 2.4449,-2.2126 9.25971,-2.38558 9.25971,-0.23503 0,0.825 0.51884,1.5 1.15297,1.5 1.98629,0 0.2564,-21.22033 -2.55422,-31.33238 C 215.90388,54.085357 148.05429,21.864957 86.436483,45.070505 60.884938,54.693333 36.929543,77.557822 27.104635,101.70044 c -15.164376,37.26321 -7.883398,76.85892 19.482164,105.94868 7.476678,7.94776 7.481689,7.9509 13.749129,8.63611 9.940226,1.08675 13.657975,2.43314 18.148775,6.57261 3.8994,3.59435 7.47453,5.04896 15.62095,6.35568 1.375,0.22056 9.446867,0.34432 17.937487,0.27503 l 15.4375,-0.12598 z M 84.159203,204.26698 c -2.99554,-0.80518 -5.50412,-1.56307 -5.57461,-1.68419 -0.85169,-1.46333 -2.83624,-14.61586 -2.90009,-19.22022 -0.0616,-4.43959 -0.68901,-6.97526 -2.41259,-9.75 -1.28116,-2.0625 -1.89924,-3.75 -1.37351,-3.75 0.52573,0 2.67536,-1.575 4.77697,-3.5 l 3.82111,-3.5 h -3.38725 c -3.38434,0 -13.229391,-5.21559 -19.42163,-10.28894 -3.517901,-2.88225 -3.657683,-6.30071 -0.618163,-15.11761 2.590203,-7.51354 2.578654,-10.23278 -0.04943,-11.63929 -1.147106,-0.61391 -1.863925,-1.33792 -1.592931,-1.60892 0.270994,-0.27099 1.964417,0.26833 3.763161,1.1985 3.006705,1.55483 3.365825,1.56077 4.453173,0.0737 0.650501,-0.88962 2.145619,-1.61748 3.322486,-1.61748 1.176866,0 2.139757,-0.45 2.139757,-1 0,-1.73921 3.61604,-1.08175 5.5,1 2.46631,2.72525 3.02743,2.57974 7.29013,-1.89049 3.15726,-3.31099 4.50766,-3.97614 9.06575,-4.46543 2.94573,-0.31621 5.96163,-1.07767 6.70201,-1.69212 1.83658,-1.52423 5.197944,-0.29662 5.985944,2.18613 0.35537,1.11968 0.358,3.57167 0.006,5.44885 -0.49824,2.65582 -1.12944,3.4143 -2.84498,3.41864 -4.552454,0.0115 -9.385084,2.02871 -10.686664,4.46074 -1.7429,3.25663 -0.3627,4.89727 5.50097,6.539 2.46455,0.69003 4.481004,1.84048 4.481004,2.55655 0,0.71607 1.31138,2.23572 2.91417,3.37702 1.6028,1.14129 3.90737,4.12674 5.12128,6.63433 1.80795,3.73473 3.13462,4.97017 7.33582,6.83133 5.96787,2.64381 6.54928,3.28949 9.46933,10.51598 3.62083,8.96078 3.7627,12.19388 0.75992,17.31774 -3.4432,5.87537 -5.20689,7.33761 -10.57529,8.76777 -6.69967,1.78482 -15.769424,6.67391 -17.619894,9.49808 -1.91767,2.92674 -5.03156,3.13671 -13.35179,0.90029 z m 75.946447,-80.61346 c 0,-3.47471 -9.3028,-9.0502 -10.38686,-6.2252 -0.30635,0.79835 -1.68906,1.96735 -3.07268,2.59777 -2.31614,1.0553 -2.83289,0.78584 -6.51506,-3.39733 -4.52386,-5.13937 -15.50959,-10.99451 -28.91546,-15.41126 -6.9832,-2.300713 -8.15932,-3.005233 -7.9067,-4.736243 0.16322,-1.11843 2.09676,-3.262648 4.29676,-4.764941 4.26117,-2.909782 4.65614,-4.859843 1.66211,-8.206128 -2.5954,-2.900751 -5.88831,-4.199101 -16.912107,-6.668215 l -10.25,-2.295797 v -5.24398 c 0,-4.982793 0.15685,-5.298658 3.14922,-6.341804 1.73208,-0.603804 6.90708,-1.097825 11.5,-1.097825 4.900517,0 8.350777,-0.413166 8.350777,-1 0,-0.55 -1.2375,-1.002306 -2.75,-1.005123 -1.5125,-0.0028 -4.458167,-1.039192 -6.545927,-2.303054 l -3.79594,-2.29793 17.295937,-2.722129 c 9.56165,-1.504865 21.27966,-2.710868 26.20463,-2.696946 8.27076,0.02338 9.44432,0.293486 16.38869,3.772033 4.11399,2.060768 8.20489,4.873268 9.09089,6.25 2.58341,4.01432 5.26127,5.881871 10.83999,7.559855 2.87554,0.864916 6.04263,2.60788 7.03798,3.873254 0.99534,1.265374 2.79429,2.613174 3.99767,2.995111 1.91292,0.607138 11.04915,12.977078 15.13832,20.496429 0.77123,1.41818 2.52547,3.9285 3.89831,5.578503 l 2.49608,3 -12.33474,0.28228 c -6.95669,0.1592 -12.90434,0.755 -13.64114,1.36648 -0.71852,0.59632 -1.75963,2.8318 -2.31357,4.96773 -0.55395,2.13593 -1.44879,5.58793 -1.98853,7.67112 -0.88458,3.41409 -1.45161,3.91812 -5.75,5.11108 -2.62276,0.72791 -5.55615,1.55097 -6.51865,1.82902 -1.09146,0.31531 -1.75,-0.0372 -1.75,-0.93676 z"
     id="path1" /></g></svg>
