<?xml version="1.0" encoding="UTF-8" standalone="no"?>
<!-- Generator: Adobe Illustrator 16.0.0, SVG Export Plug-In . SVG Version: 6.00 Build 0)  -->

<svg
   version="1.1"
   id="Layer_1"
   x="0px"
   y="0px"
   width="280px"
   height="280px"
   viewBox="0 0 280 280"
   enable-background="new 0 0 280 280"
   xml:space="preserve"
   sodipodi:docname="legacy.svg"
   inkscape:version="1.4 (e7c3feb100, 2024-10-09)"
   xmlns:inkscape="http://www.inkscape.org/namespaces/inkscape"
   xmlns:sodipodi="http://sodipodi.sourceforge.net/DTD/sodipodi-0.dtd"
   xmlns="http://www.w3.org/2000/svg"
   xmlns:svg="http://www.w3.org/2000/svg"><defs
   id="defs216276">
	
	
	
</defs><sodipodi:namedview
   id="namedview216274"
   pagecolor="#ffffff"
   bordercolor="#666666"
   borderopacity="1.0"
   inkscape:pageshadow="2"
   inkscape:pageopacity="0.0"
   inkscape:pagecheckerboard="0"
   showgrid="false"
   inkscape:zoom="2.1011173"
   inkscape:cx="141.35336"
   inkscape:cy="139.68758"
   inkscape:window-width="1600"
   inkscape:window-height="833"
   inkscape:window-x="0"
   inkscape:window-y="0"
   inkscape:window-maximized="1"
   inkscape:current-layer="layer1"
   inkscape:showpageshadow="2"
   inkscape:deskcolor="#d1d1d1" />
<g
   inkscape:groupmode="layer"
   id="layer2"
   inkscape:label="BG" />
<g
   inkscape:groupmode="layer"
   id="layer1"
   inkscape:label="Logo"><rect
     style="fill:#1a1a1a;stroke-width:6.83112"
     id="rect1"
     width="280"
     height="280"
     x="0"
     y="0" /><path
     style="fill:#f9f9f9;stroke-width:0.776266"
     d="m 45.141446,238.95666 c -6.442721,-2.31379 -10.777358,-7.20057 -12.177343,-13.72847 -1.298769,-6.05595 -1.135894,-110.1955 0.180284,-115.26949 1.288488,-4.96726 4.471034,-9.13872 9.006419,-11.804988 l 3.565789,-2.09626 91.934525,-0.20959 c 103.6263,-0.23625 96.68694,-0.61867 102.98079,5.675188 5.90095,5.90093 5.74941,4.15244 5.74941,66.33898 0,60.48992 0.0255,60.14213 -4.8115,65.65114 -1.32882,1.51345 -3.84639,3.51712 -5.59459,4.45259 l -3.17857,1.70087 -92.37563,0.16647 c -75.691063,0.1364 -92.900138,-0.0219 -95.279584,-0.87644 z m 139.216824,-15.3091 c 3.08035,-1.02949 6.58695,-4.05994 8.14188,-7.03629 0.90738,-1.7369 1.09509,-10.13282 1.09509,-48.98403 v -46.88782 l -1.76507,-2.6192 c -0.97079,-1.44055 -2.9437,-3.41346 -4.38426,-4.38425 l -2.6192,-1.76507 H 123.34317 61.859639 l -2.619188,1.76507 c -1.440554,0.97079 -3.413471,2.9437 -4.384259,4.38425 l -1.765071,2.6192 v 46.88782 c 0,42.02847 0.132593,47.14531 1.279377,49.37216 1.705821,3.31239 4.620116,5.73121 7.989855,6.63146 4.178845,1.11641 118.660597,1.13207 121.997917,0.0166 z m 45.96656,-0.01 c 2.5167,-1.32467 2.83505,-2.14425 2.84808,-7.33207 0.0175,-6.96518 -0.73394,-7.43095 -12.09246,-7.49509 -8.56221,-0.0484 -9.19266,0.0539 -10.5336,1.70996 -0.95533,1.1798 -1.4263,3.03149 -1.4263,5.60778 0,4.45988 0.96729,6.66025 3.34988,7.62021 2.5087,1.01078 15.88125,0.92781 17.8544,-0.1108 z m 1.94335,-68.09202 c 0.64167,-0.40686 0.93153,-1.77926 0.77626,-3.67538 l -0.24778,-3.02607 -11.19636,-0.2162 c -8.43663,-0.16292 -11.3516,0.0284 -11.82617,0.77627 -0.94,1.48126 -0.78212,4.82287 0.27794,5.88293 1.08422,1.08421 20.55655,1.31071 22.21611,0.25841 z m 0.52848,-15.62851 v -3.4932 l -11.42995,-0.21471 -11.42995,-0.21469 -0.49225,1.96129 c -0.27076,1.07872 -0.27076,2.84388 0,3.92262 l 0.49225,1.96129 11.42995,-0.2147 11.42995,-0.21471 z m 0.24778,-11.9531 c 0.15527,-1.89612 -0.13459,-3.26852 -0.77626,-3.67539 -1.65956,-1.05228 -21.13189,-0.82578 -22.21611,0.25842 -1.00817,1.00818 -1.21889,3.62647 -0.45257,5.62349 0.41518,1.08194 1.99131,1.21959 11.83805,1.03382 l 11.35911,-0.21429 z m -0.007,-12.7138 0.23969,-3.3196 -11.88368,0.21453 -11.8837,0.21453 -0.25196,2.2003 c -0.50691,4.42687 -0.4156,4.45882 12.07365,4.22473 l 11.46628,-0.2149 z M 116.7522,91.982052 c 0.0188,-1.50027 4.82471,-8.74173 7.03711,-10.60335 2.91718,-2.45463 7.91866,-5.116034 9.6144,-5.116034 0.65742,0 1.19532,-0.264414 1.19532,-0.587589 0,-1.177951 -41.577066,-42.107032 -42.773666,-42.107032 -3.338479,0 -5.014492,-5.648732 -2.382691,-8.030479 3.198941,-2.895007 7.895601,-0.61822 7.895601,3.827532 0,1.939362 3.049186,5.32069 20.770026,23.032413 l 20.77004,20.759347 24.64152,-24.650547 c 20.36313,-20.370591 24.64151,-25.020412 24.64151,-26.780798 0,-4.336885 5.28587,-6.848492 8.03048,-3.815727 2.65766,2.936672 0.86725,7.895601 -2.85069,7.895601 -1.1906,0 -9.05812,7.365132 -26.41309,24.726458 l -24.7174,24.726457 4.13105,1.351198 c 6.4992,2.12578 13.18722,8.46732 14.98444,14.20815 l 0.5468,1.74659 h -22.56402 c -12.41022,0 -22.56074,-0.26198 -22.55674,-0.58219 z"
     id="path1" /></g></svg>
