<?xml version="1.0" encoding="UTF-8" standalone="no"?>
<!-- Generator: Adobe Illustrator 16.0.0, SVG Export Plug-In . SVG Version: 6.00 Build 0)  -->

<svg
   version="1.1"
   id="Layer_1"
   x="0px"
   y="0px"
   width="280px"
   height="280px"
   viewBox="0 0 280 280"
   enable-background="new 0 0 280 280"
   xml:space="preserve"
   sodipodi:docname="weatherscan.svg"
   inkscape:version="1.4 (e7c3feb100, 2024-10-09)"
   xmlns:inkscape="http://www.inkscape.org/namespaces/inkscape"
   xmlns:sodipodi="http://sodipodi.sourceforge.net/DTD/sodipodi-0.dtd"
   xmlns="http://www.w3.org/2000/svg"
   xmlns:svg="http://www.w3.org/2000/svg"><defs
   id="defs216276">
	
	
	
</defs><sodipodi:namedview
   id="namedview216274"
   pagecolor="#ffffff"
   bordercolor="#666666"
   borderopacity="1.0"
   inkscape:pageshadow="2"
   inkscape:pageopacity="0.0"
   inkscape:pagecheckerboard="0"
   showgrid="false"
   inkscape:zoom="1.4857143"
   inkscape:cx="217.40384"
   inkscape:cy="193.50961"
   inkscape:window-width="1600"
   inkscape:window-height="833"
   inkscape:window-x="0"
   inkscape:window-y="0"
   inkscape:window-maximized="1"
   inkscape:current-layer="Layer_1"
   inkscape:showpageshadow="2"
   inkscape:deskcolor="#d1d1d1" />
<g
   inkscape:groupmode="layer"
   id="layer2"
   inkscape:label="BG"><rect
     y="0"
     fill-rule="evenodd"
     clip-rule="evenodd"
     fill="#164E86"
     width="280"
     height="280"
     id="rect4994-7"
     style="fill:#2159f1;fill-opacity:1;stroke:none;stroke-width:0.999999;stroke-opacity:1"
     x="0" /></g>
<g
   inkscape:groupmode="layer"
   id="layer1"
   inkscape:label="Logo" /><path
   style="fill:#000000"
   d="m -940.6263,418.91809 v -74 h 341.5 341.5 v 74 74 h -341.5 -341.5 z m 278.76051,12.75 0.26051,-43.75 h 16.98949 16.98949 v -10.5 -10.5 h -47 -47 v 10.5 10.5 h 17 17 v 44.02988 44.02987 l 12.75,-0.27987 12.75,-0.27988 z m 149.55956,40 c 0.87549,-2.3375 5.91865,-16.625 11.20703,-31.75 5.28838,-15.125 13.18321,-37.59718 17.54407,-49.93818 4.36086,-12.34101 7.92883,-22.57851 7.92883,-22.75 0,-0.1715 -6.02082,-0.31182 -13.3796,-0.31182 h -13.37959 l -11.78726,34.75 c -13.74533,40.52255 -13.29904,39.25 -13.7652,39.25 -0.19863,0 -5.94727,-16.64734 -12.77475,-36.99409 l -12.4136,-36.99408 -13.25,-0.006 c -7.98824,-0.004 -13.25,0.38317 -13.25,0.97385 0,0.53887 0.65751,2.67637 1.46114,4.75 0.80363,2.07363 8.69174,24.92024 17.52913,50.77024 8.83739,25.85 16.55947,48.2375 17.16018,49.75 l 1.09219,2.75 h 14.24282 14.24282 l 1.59179,-4.25 z M -717.18154,304.97966 c -14.62426,-2.3018 -23.11209,-10.67185 -27.1672,-26.79025 -2.14078,-8.50925 -2.51201,-52.15883 -0.52445,-61.6655 2.6189,-12.52646 8.80451,-21.82774 17.4191,-26.19309 9.64652,-4.88826 27.6589,-5.30603 38.23555,-0.88682 8.69739,3.634 16.05931,13.94913 18.64568,26.12532 1.57704,7.42443 2.31135,42.56865 1.10423,52.84877 -2.42383,20.642 -9.04272,30.95254 -22.46286,34.99141 -5.87455,1.76798 -18.86205,2.5756 -25.25005,1.57016 z m 17.13528,-17.94725 c 6.93919,-4.23151 8.81594,-14.69878 8.16666,-45.54827 -0.51901,-24.66043 -1.56412,-30.10082 -6.73385,-35.05374 -2.5642,-2.45666 -3.87266,-2.91508 -8.44752,-2.95961 -13.17,-0.12821 -16.52571,8.59269 -16.52571,42.9473 0,33.7606 3.2303,42.35354 15.96038,42.45622 2.69935,0.0218 5.73246,-0.71525 7.58004,-1.8419 z m -181.47765,11.63568 c -0.57167,-2.8875 -4.63929,-25.05 -9.03915,-49.25 -4.39987,-24.2 -8.68896,-47.6 -9.53133,-52 -0.84236,-4.4 -1.53164,-8.1125 -1.53174,-8.25 -9e-5,-0.1375 4.94126,-0.25 10.98078,-0.25 10.57485,0 10.99919,0.0832 11.47415,2.25 0.27127,1.2375 1.83701,11.475 3.47944,22.75 1.64243,11.275 4.20196,28.825 5.68785,39 1.48588,10.175 2.98148,18.83028 3.32356,19.23395 0.34207,0.40367 3.45338,-17.14633 6.91402,-39 3.46064,-21.85367 6.53164,-40.74645 6.82446,-41.98395 0.51174,-2.16273 0.95411,-2.25 11.40493,-2.25 10.45459,0 10.89251,0.0865 11.39215,2.25 0.28579,1.2375 3.2396,19.575 6.56403,40.75 3.32442,21.175 6.30794,39.175 6.63004,40 0.4195,1.07448 12.82181,-75.78477 13.27217,-82.25 0.0287,-0.4125 5.038,-0.75 11.13171,-0.75 h 11.07945 l -0.57026,2.75 c -0.31364,1.5125 -4.84243,26.375 -10.06397,55.25 -5.22155,28.875 -9.73426,53.5125 -10.02825,54.75 -0.52036,2.19033 -0.8788,2.25 -13.51548,2.25 -9.71534,0 -12.98225,-0.31446 -12.98612,-1.25 -0.003,-0.6875 -1.30789,-9.575 -2.90011,-19.75 -1.59222,-10.175 -4.38512,-28.28228 -6.20644,-40.23839 -1.82132,-11.95612 -3.59817,-21.40612 -3.94856,-21 -0.35039,0.40611 -2.30025,11.76339 -4.33301,25.23839 -2.03277,13.475 -4.86161,31.8125 -6.28631,40.75 l -2.59036,16.25 h -12.79412 -12.79412 z m 262.89761,-52.25 v -57.5 h 25.3185 c 28.6295,0 32.57756,0.65129 39.41237,6.50163 5.61308,4.80459 8.26913,11.99208 8.26913,22.37695 0,14.04667 -4.20007,22.4529 -13.33231,26.68392 -4.08274,1.89157 -4.6879,2.46628 -3.11703,2.96018 12.94257,4.0693 14.24989,6.67403 15.91382,31.70703 1.10822,16.67243 1.51223,19.24751 3.42589,21.83587 l 2.1695,2.93442 h -12.99139 -12.99139 l -0.94117,-3.75 c -0.51765,-2.0625 -1.17327,-10.53906 -1.45694,-18.8368 -0.79143,-23.15039 -2.47847,-25.71383 -17.28198,-26.25973 l -9.397,-0.34653 v 24.59653 24.59653 h -11.5 -11.5 z m 42.41007,-9.52633 c 5.11646,-2.591 7.02082,-6.27684 7.37514,-14.2744 0.54646,-12.33479 -3.84727,-16.48677 -18.3985,-17.38618 l -8.38671,-0.51839 v 17.20527 17.20526 l 8.25,-0.37895 c 4.5375,-0.20842 9.55953,-1.0421 11.16007,-1.85261 z m 87.58993,9.52633 v -57.5 h 11.5 11.5 v 48 48 h 20.5 20.5 v 9.5 9.5 h -32 -32 z m 117,0.11199 v -57.56971 l 19.75,-0.27114 c 23.67546,-0.32503 30.59068,0.34772 36.9434,3.59404 8.80309,4.49849 13.86496,11.74563 17.01705,24.3635 1.33162,5.33053 1.68599,11.34605 1.66542,28.27132 -0.0293,24.10071 -1.16006,31.69112 -6.19985,41.61701 -3.72111,7.32875 -7.02627,10.49859 -14.67602,14.07517 -5.97513,2.79362 -6.1005,2.80667 -30.25,3.14738 l -24.25,0.34214 z m 43.67836,37.83604 c 7.17755,-5.21972 9.90489,-18.78337 9.03801,-44.94803 -0.58376,-17.61915 -2.03035,-23.97696 -6.56439,-28.85064 -3.50455,-3.76707 -6.11772,-4.67394 -15.39301,-5.34193 l -7.75897,-0.55878 v 41.22517 41.22518 l 8.92836,-0.3495 c 7.04524,-0.27579 9.52349,-0.78229 11.75,-2.40147 z M -896.1263,122.03925 c -8.80158,-4.03754 -15.06718,-14.31933 -14.29905,-23.46459 0.26944,-3.20797 7.96015,-26.8851 20.35184,-62.65657 l 19.91874,-57.5 5.01423,-5.05536 c 8.20405,-8.27133 20.00767,-9.86175 29.94958,-4.0354 5.34519,3.13249 5.48088,3.32876 32.55525,47.09076 9.52757,15.4 17.63379,28.35897 18.01384,28.79771 0.38004,0.43873 5.55309,-13.28627 11.49567,-30.5 5.94258,-17.21374 11.85455,-33.40731 13.13772,-35.9857 4.00175,-8.04112 12.26441,-12.82733 22.08006,-12.79005 13.70859,0.0521 24.20747,10.51257 24.26016,24.17148 0.0228,5.90353 0.99343,2.9307 -31.66677,96.98545 -9.44903,27.21132 -11.13451,30.17763 -19.57837,34.45646 -4.3457,2.20213 -6.08427,2.51501 -12.2462,2.20385 -5.86699,-0.29627 -8.07884,-0.91724 -12.08409,-3.39256 -4.54394,-2.80825 -6.54868,-5.67778 -27.40261,-39.22348 -12.375,-19.90645 -22.73974,-36.20022 -23.03275,-36.20836 -0.29301,-0.008 -5.41629,14.0477 -11.38506,31.2352 -5.96877,17.1875 -11.6463,32.8309 -12.61672,34.76311 -4.26533,8.49268 -11.81789,12.94297 -21.96547,12.94297 -4.18511,0 -7.92455,-0.65348 -10.5,-1.83492 z m 214.66838,-0.72454 c -8.42067,-4.1962 -13.16838,-12.05164 -13.16838,-21.78808 0,-4.50088 3.50451,-15.57541 20.02419,-63.27806 14.70114,-42.45143 20.77739,-58.75386 22.85759,-61.32643 4.38703,-5.42541 12.10414,-9.00405 19.41669,-9.00405 7.48033,0 13.14943,2.53961 18.23513,8.16887 8.08003,8.94363 8.48325,16.017 1.9664,34.49551 -2.475,7.01786 -4.5,12.88932 -4.5,13.04768 0,0.15837 12.7322,0.28794 28.29379,0.28794 h 28.29378 l 5.87133,-17.25 c 3.22923,-9.4875 6.9454,-19.725 8.25816,-22.75 4.65841,-10.73437 12.17292,-15.93996 23.06506,-15.97804 7.31649,-0.0256 11.4183,1.45909 16.59952,6.00826 5.77908,5.07411 7.99127,10.21255 7.95154,18.46978 -0.0312,6.4758 -1.43823,11.00638 -18.78946,60.5 -10.31568,29.425 -19.1634,54.9052 -19.6616,56.62267 -1.28002,4.41268 -8.5647,12.32817 -13.34341,14.49886 -4.69501,2.13266 -12.98297,2.42005 -18.92269,0.65615 -6.2601,-1.85905 -13.10633,-9.21658 -15.16475,-16.29732 -2.05204,-7.05875 -1.61751,-10.11957 3.57396,-25.17542 2.18613,-6.33999 3.97477,-12.15223 3.97477,-12.9161 0,-1.1519 -4.7548,-1.38884 -27.87064,-1.38884 h -27.87064 l -6.78855,19.75 c -9.66562,28.12032 -11.10501,30.54294 -21.17051,35.63195 -5.13662,2.59701 -14.85149,2.14402 -21.13128,-0.98533 z m 215.26076,0.22261 c -6.3319,-2.94843 -11.02881,-8.51646 -13.07113,-15.49539 -2.02227,-6.91043 -1.47331,-10.20662 4.60053,-27.62384 7.46369,-21.40271 22.21661,-64.0491 28.65139,-82.8228 6.38909,-18.64043 9.62123,-23.67432 17.71706,-27.59345 5.83796,-2.8261 15.48436,-2.83758 21.29371,-0.0253 5.89772,2.85504 10.96517,8.80796 12.82286,15.06348 2.25335,7.58783 2.03379,9.37629 -2.94536,23.9927 -2.47599,7.26832 -4.38849,13.31631 -4.25,13.43998 0.13849,0.12365 17.1268,-10.54111 37.7518,-23.69949 45.41453,-28.97365 45.19768,-28.85512 52.78744,-28.85512 19.38599,0 30.61515,20.76608 19.87046,36.74643 -2.72351,4.05062 -7.17708,7.24539 -32.37623,23.22512 -16.07009,10.19065 -30.01142,19.02203 -30.98075,19.62529 -1.54831,0.9636 0.23965,3.18779 14.71834,18.30937 20.05815,20.94879 21.48874,23.12178 21.45808,32.59379 -0.0472,14.59257 -9.73464,24.42657 -24.11315,24.47804 -10.39534,0.0372 -12.85041,-1.89461 -43.81676,-34.47804 -15.15842,-15.95 -27.89527,-29.1069 -28.3041,-29.23756 -0.40883,-0.13066 -4.78884,11.51619 -9.73336,25.8819 -7.67399,22.29585 -9.5421,26.74664 -12.76126,30.4038 -7.54113,8.56717 -18.90553,10.92036 -29.31957,6.07109 z M -596.9018,-72.69074 c -0.33485,-0.33486 -0.6473,-26.65986 -0.69431,-58.5 l -0.0855,-57.89117 h 169.54291 169.54291 l -0.0468,57.0005 c -0.0258,31.35027 -0.30578,57.67527 -0.62225,58.5 -0.50827,1.32445 -20.21445,1.4995 -168.80179,1.4995 -92.52449,0 -168.50032,-0.27397 -168.83518,-0.60883 z"
   id="path1105" /><path
   style="fill:#ffffff;stroke-width:0.70962"
   d="m 12.093605,165.66414 c -0.587175,-1.85388 -1.934136,-6.40432 -2.993247,-10.11209 -1.0591109,-3.70776 -2.0833372,-7.16096 -2.2760582,-7.67378 -0.263093,-0.70006 0.415928,-0.87688 2.7251196,-0.70962 l 3.0755226,0.22277 1.498344,6.03177 c 1.364051,5.49116 1.540797,5.82301 1.971999,3.70255 0.26051,-1.28107 0.9865,-4.09336 1.613311,-6.24951 1.097187,-3.77419 1.223287,-3.91217 3.383845,-3.70255 2.139334,0.20757 2.310498,0.45804 3.663427,5.36087 0.780583,2.82872 1.617925,5.14386 1.860761,5.14475 0.242835,7.1e-4 0.639197,-1.19587 0.880803,-2.65946 0.241605,-1.46359 0.776421,-3.85856 1.18848,-5.32215 0.708457,-2.51637 0.906242,-2.66108 3.637087,-2.66108 2.412674,0 2.829412,0.20435 2.532512,1.24184 -4.723763,16.5067 -5.952086,20.26974 -6.711539,20.56116 -0.499183,0.19156 -1.680209,0.15438 -2.624502,-0.0826 -1.484857,-0.37268 -1.901782,-1.22219 -3.084912,-6.28571 l -1.368017,-5.8548 -1.18437,4.05736 c -0.651405,2.23155 -1.378035,5.02568 -1.614735,6.20917 -0.374703,1.87352 -0.732746,2.15183 -2.768303,2.15183 -2.166202,0 -2.416359,-0.2476 -3.405528,-3.3707 z m 30.259815,1.98018 c -3.023696,-1.84365 -4.469578,-4.84849 -4.469578,-9.2887 0,-6.95655 3.745076,-11.31105 9.732586,-11.31635 4.275609,-0.004 7.63198,3.05048 8.669747,7.88943 0.422327,1.96924 0.587005,3.87308 0.365951,4.23076 -0.221055,0.35768 -3.120783,0.65032 -6.443842,0.65032 -5.338725,0 -6.01449,0.14245 -5.806201,1.22401 0.366199,1.90152 3.22911,3.02518 5.600995,2.19834 1.595382,-0.55616 2.373632,-0.43302 3.792015,0.60001 2.329775,1.69681 2.277568,2.11173 -0.477011,3.79124 -3.010747,1.83568 -7.972844,1.84516 -10.964662,0.0209 z m 7.418329,-13.68891 c -1.344909,-2.02893 -2.88502,-2.33753 -4.350762,-0.87178 -1.867546,1.86754 -1.34922,2.46842 2.129282,2.46842 3.24183,0 3.267578,-0.0185 2.22148,-1.59664 z m 14.44615,14.07348 c -3.628736,-1.97773 -4.726641,-7.33837 -2.168921,-10.58998 1.687052,-2.14474 6.253064,-3.59569 9.246394,-2.93824 2.132012,0.46826 2.511388,0.01 1.419048,-1.71563 -0.477683,-0.75445 -1.576632,-0.88155 -4.575054,-0.52914 -3.451772,0.40569 -4.038624,0.29141 -4.682586,-0.91184 -1.170385,-2.18689 -0.899485,-2.72426 1.826964,-3.62408 4.139826,-1.36626 9.948266,-0.55767 12.2075,1.69941 1.859799,1.85802 1.905378,2.11118 1.905378,10.5821 v 8.67854 l -6.74139,0.13659 c -4.436246,0.0899 -7.3213,-0.17947 -8.437333,-0.78773 z m 7.774365,-4.69598 c 1.989212,-1.0646 1.752162,-3.40083 -0.399875,-3.94096 -3.284421,-0.82434 -5.713135,1.43184 -3.896998,3.62015 1.028071,1.23876 2.391477,1.34054 4.296873,0.32081 z m 17.107932,4.05955 c -1.35299,-1.44019 -1.542941,-2.44485 -1.542941,-8.16063 0,-6.47973 -0.0105,-6.51826 -1.774051,-6.51826 -1.596645,0 -1.77405,-0.28384 -1.77405,-2.83848 0,-2.55463 0.177405,-2.83848 1.77405,-2.83848 1.58229,0 1.774051,-0.29261 1.774051,-2.70705 0,-2.40005 0.284401,-2.84267 2.507748,-3.90291 1.37926,-0.65773 2.816241,-1.19586 3.193291,-1.19586 0.377049,0 0.685542,1.75631 0.685542,3.90291 v 3.90291 h 2.483671 c 2.424538,0 2.483671,0.0676 2.483671,2.83848 0,2.7709 -0.05911,2.83848 -2.483671,2.83848 h -2.483671 v 5.32216 c 0,5.66918 0.466725,6.26163 3.608291,4.58031 1.303445,-0.69758 1.357731,-0.56002 0.910046,2.30627 -0.565759,3.62227 -1.124436,4.08737 -4.926851,4.10166 -2.114931,0.008 -3.306844,-0.43052 -4.435126,-1.63151 z m 15.994794,1.20307 c -0.27876,-0.27877 -0.50685,-6.35473 -0.50685,-13.50213 v -12.99528 l 2.81022,-1.43367 c 1.54561,-0.78852 2.98259,-1.43366 3.19329,-1.43366 0.21069,0 0.38307,1.8691 0.38307,4.15356 v 4.15355 l 3.43059,-0.32964 c 4.19273,-0.40287 7.37526,1.04972 8.55849,3.90631 0.5168,1.24764 0.75774,4.97925 0.63218,9.79074 l -0.20291,7.77472 h -2.83848 -2.83848 l -0.17726,-6.38658 c -0.24577,-8.85481 -0.4719,-9.57988 -2.98766,-9.57988 -1.14041,0 -2.33181,0.39917 -2.64756,0.88703 -0.31575,0.48786 -0.73376,4.08032 -0.92891,7.98323 l -0.35481,7.0962 -2.50903,0.21117 c -1.37997,0.11615 -2.73712,-0.0169 -3.01589,-0.29567 z m 28.17598,-0.85703 c -6.20105,-3.89993 -5.95152,-15.76579 0.41057,-19.52397 2.50901,-1.48211 6.52411,-1.51074 9.3171,-0.0664 2.45939,1.27181 4.83705,5.84804 4.86075,9.35541 l 0.0156,2.30627 h -6.38658 c -3.51262,0 -6.38658,0.25829 -6.38658,0.57399 0,0.3157 0.40533,1.12831 0.90074,1.80582 0.99377,1.35907 2.74555,1.63004 5.56338,0.86056 1.41192,-0.38555 2.32754,-0.0962 3.85595,1.21846 l 2.00437,1.72408 -1.99115,1.30466 c -2.95841,1.93842 -9.41132,2.17245 -12.16413,0.44116 z m 8.21742,-12.84538 c 0,-1.13555 -2.25157,-2.96991 -3.37204,-2.74721 -0.589,0.11707 -1.54718,0.93134 -2.12928,1.8095 -1.0461,1.57814 -1.02035,1.59664 2.22148,1.59664 1.80392,0 3.27984,-0.29652 3.27984,-0.65893 z m 11.86078,13.70241 c -0.27877,-0.27877 -0.50686,-5.22177 -0.50686,-10.98445 v -10.4776 l 6.20918,0.0352 c 8.0772,0.0458 8.76525,0.40739 7.8249,4.11206 -0.71595,2.82062 -1.47435,3.51937 -2.32534,2.14244 -0.62173,-1.00598 -3.708,-0.88136 -4.39325,0.1774 -0.31575,0.48787 -0.73376,4.08032 -0.9289,7.98323 l -0.35482,7.0962 -2.50903,0.21118 c -1.37997,0.11615 -2.73712,-0.0169 -3.01588,-0.29568 z m 19.26358,-0.6688 c -2.48563,-1.06827 -2.55236,-1.19007 -1.77723,-3.24363 0.67986,-1.80114 1.08237,-2.06607 2.58261,-1.69985 0.97747,0.2386 3.32586,0.62386 5.21864,0.85612 3.06944,0.37664 3.41443,0.28209 3.19166,-0.87467 -0.16112,-0.83661 -1.76046,-1.87704 -4.50586,-2.93122 -4.83055,-1.85485 -6.73975,-3.73844 -6.73975,-6.64933 0,-3.37247 2.69863,-5.76463 6.96571,-6.17464 3.69783,-0.35532 10.06517,0.91926 10.06517,2.0148 0,0.3212 -0.38029,1.41865 -0.84509,2.43878 -0.64603,1.41789 -1.18927,1.74939 -2.30627,1.40737 -0.80364,-0.24608 -2.81832,-0.62824 -4.47705,-0.84925 -2.479,-0.3303 -3.01589,-0.19591 -3.01589,0.75489 0,0.63619 0.0844,1.15671 0.18743,1.15671 1.32053,0 8.24041,3.17544 9.50137,4.36005 2.21628,2.08209 2.20628,5.57598 -0.0233,8.16811 -1.49487,1.73789 -2.24758,1.98666 -6.56398,2.16936 -3.25628,0.13782 -5.7332,-0.16227 -7.45809,-0.9036 z m 24.43787,-0.28241 c -1.2495,-0.76186 -2.76631,-2.34145 -3.37069,-3.5102 -1.60591,-3.10549 -1.43239,-9.64897 0.33155,-12.50308 3.12947,-5.0636 11.39791,-6.13705 15.67897,-2.03553 l 2.14103,2.05124 -2.24732,2.00797 -2.24732,2.00799 -1.37377,-1.47457 c -3.00781,-3.22851 -6.99544,-0.96497 -6.99544,3.97088 0,4.7182 3.04051,6.4173 7.14496,3.99274 1.97862,-1.1688 2.09726,-1.15402 3.83394,0.47751 1.71614,1.61223 1.73959,1.7417 0.55304,3.05282 -3.19206,3.52719 -9.39746,4.43257 -13.44895,1.96223 z m 21.86448,0.38861 c -3.62981,-1.98697 -4.72631,-7.34282 -2.16892,-10.59402 1.68705,-2.14474 6.25307,-3.59569 9.2464,-2.93824 2.1322,0.4683 2.51139,0.01 1.41871,-1.71617 -0.4718,-0.74517 -1.62257,-0.89095 -4.60401,-0.58324 -3.40244,0.35116 -4.07684,0.2199 -4.68225,-0.9113 -1.13932,-2.12885 -0.8553,-2.6752 1.85592,-3.56998 4.13982,-1.36626 9.94826,-0.55767 12.2075,1.69941 1.8598,1.85802 1.90538,2.11118 1.90538,10.5821 v 8.67854 l -6.7414,0.14064 c -4.46016,0.093 -7.31528,-0.17352 -8.43733,-0.78774 z m 8.02406,-4.89936 c 2.112,-1.54434 1.15588,-3.6786 -1.64797,-3.6786 -2.89268,0 -4.38693,1.7638 -2.95546,3.48862 1.13552,1.36822 2.8929,1.44075 4.60343,0.18998 z m 13.65952,5.42819 c -0.2602,-0.2602 -0.47308,-5.2098 -0.47308,-10.99912 v -10.52603 h 2.83848 c 1.56116,0 2.83848,0.33056 2.83848,0.73459 0,0.50637 0.42643,0.50637 1.37259,0 3.42684,-1.83399 9.04658,-0.1573 10.5528,3.1485 0.49963,1.09656 0.84777,5.19817 0.84777,9.98789 v 8.12725 h -2.83848 -2.83848 v -7.30909 c 0,-7.96654 -0.43017,-9.01218 -3.70759,-9.01218 -2.70126,0 -3.38861,2.02454 -3.38861,9.98088 v 6.34039 h -2.3654 c -1.30097,0 -2.57828,-0.21289 -2.83848,-0.47308 z m 21.66707,-15.28049 c -0.46835,-0.46835 -0.85155,-1.52214 -0.85155,-2.34175 0,-2.04946 1.32721,-3.19329 3.70524,-3.19329 2.53273,0 3.96753,2.56409 2.72939,4.87758 -0.90253,1.68638 -4.16945,2.07109 -5.58308,0.65746 z m 4.47061,-2.34175 c 0,-1.89015 -0.23762,-2.12886 -2.11914,-2.12886 -1.48012,0 -2.19367,0.38697 -2.36629,1.28329 -0.44327,2.30174 0.45524,3.438 2.52994,3.19936 1.6497,-0.18976 1.95549,-0.55782 1.95549,-2.35379 z m -3.18242,0.17741 c -0.008,-1.47836 0.33128,-1.95146 1.40042,-1.95146 1.07145,0 1.37594,0.42719 1.26446,1.77405 -0.14734,1.7804 -1.24701,2.55004 -1.26738,0.88703 -0.007,-0.59136 -0.24016,-0.53222 -0.69875,0.1774 -0.53604,0.82946 -0.69029,0.63364 -0.69875,-0.88702 z"
   id="path1" /></svg>
