<?xml version="1.0" encoding="UTF-8" standalone="no"?>
<!-- Generator: Adobe Illustrator 16.0.0, SVG Export Plug-In . SVG Version: 6.00 Build 0)  -->

<svg
   version="1.1"
   id="Layer_1"
   x="0px"
   y="0px"
   width="280px"
   height="280px"
   viewBox="0 0 280 280"
   enable-background="new 0 0 280 280"
   xml:space="preserve"
   sodipodi:docname="modern.svg"
   inkscape:version="1.4 (e7c3feb100, 2024-10-09)"
   xmlns:inkscape="http://www.inkscape.org/namespaces/inkscape"
   xmlns:sodipodi="http://sodipodi.sourceforge.net/DTD/sodipodi-0.dtd"
   xmlns="http://www.w3.org/2000/svg"
   xmlns:svg="http://www.w3.org/2000/svg"><defs
   id="defs9" /><sodipodi:namedview
   id="namedview9"
   pagecolor="#ffffff"
   bordercolor="#000000"
   borderopacity="0.25"
   inkscape:showpageshadow="2"
   inkscape:pageopacity="0.0"
   inkscape:pagecheckerboard="0"
   inkscape:deskcolor="#d1d1d1"
   inkscape:zoom="2.2214286"
   inkscape:cx="135.94855"
   inkscape:cy="137.97427"
   inkscape:window-width="1600"
   inkscape:window-height="833"
   inkscape:window-x="0"
   inkscape:window-y="0"
   inkscape:window-maximized="1"
   inkscape:current-layer="Layer_1" />
<rect
   y="-0.042"
   fill-rule="evenodd"
   clip-rule="evenodd"
   fill="#58489D"
   width="280"
   height="280"
   id="rect1"
   style="fill:#1cacd1;fill-opacity:1" />

<path
   style="fill:#ffffff;stroke-width:1.08666"
   d="m 56.174898,218.86657 c 0,-0.34897 1.431388,-1.81851 3.180863,-3.26562 l 3.180863,-2.63113 -20.115363,-0.12625 -20.115361,-0.12626 0.122582,-69.78229 0.122584,-69.782294 H 140.83923 259.12739 l 0.12258,69.787594 0.12258,69.78761 h -18.39831 -18.3983 l 3.40849,2.9336 c 1.87467,1.61348 3.28251,3.13744 3.12854,3.38657 -0.15397,0.24914 -2.06903,0.45297 -4.25569,0.45297 h -3.97574 l -3.36063,-3.38657 -3.36062,-3.38657 H 142.82402 71.487733 l -3.492587,3.38657 -3.492588,3.38657 h -4.16383 c -3.112677,0 -4.16383,-0.16018 -4.16383,-0.6345 z m 82.936492,-12.22065 c 0.89942,-0.89942 0.90713,-0.96409 0.25943,-2.17433 -0.27545,-0.51469 -0.88504,-0.93579 -1.35463,-0.93579 -1.89176,0 -2.74048,2.43209 -1.16828,3.34782 1.14724,0.66821 1.38223,0.64353 2.26348,-0.2377 z m -2.14253,-1.17494 c 0,-0.64506 0.32253,-0.96759 0.96759,-0.96759 0.64507,0 0.96759,0.32253 0.96759,0.96759 0,0.64506 -0.32252,0.96759 -0.96759,0.96759 -0.64506,0 -0.96759,-0.32253 -0.96759,-0.96759 z M 253.07994,138.70711 V 79.200178 H 140.83923 28.598517 v 59.506932 59.50693 H 140.83923 253.07994 Z"
   id="path1" /></svg>
