<?xml version="1.0" encoding="UTF-8" standalone="no"?>
<!-- Generator: Adobe Illustrator 16.0.0, SVG Export Plug-In . SVG Version: 6.00 Build 0)  -->

<svg
   version="1.1"
   id="Layer_1"
   x="0px"
   y="0px"
   width="280px"
   height="280px"
   viewBox="0 0 280 280"
   enable-background="new 0 0 280 280"
   xml:space="preserve"
   sodipodi:docname="tvp1.svg"
   inkscape:version="1.4 (e7c3feb100, 2024-10-09)"
   xmlns:inkscape="http://www.inkscape.org/namespaces/inkscape"
   xmlns:sodipodi="http://sodipodi.sourceforge.net/DTD/sodipodi-0.dtd"
   xmlns="http://www.w3.org/2000/svg"
   xmlns:svg="http://www.w3.org/2000/svg"><defs
   id="defs216276">
	
	
	
</defs><sodipodi:namedview
   id="namedview216274"
   pagecolor="#ffffff"
   bordercolor="#666666"
   borderopacity="1.0"
   inkscape:pageshadow="2"
   inkscape:pageopacity="0.0"
   inkscape:pagecheckerboard="0"
   showgrid="false"
   inkscape:zoom="0.74285714"
   inkscape:cx="236.25"
   inkscape:cy="-18.846154"
   inkscape:window-width="1600"
   inkscape:window-height="824"
   inkscape:window-x="0"
   inkscape:window-y="0"
   inkscape:window-maximized="1"
   inkscape:current-layer="g923"
   inkscape:showpageshadow="2"
   inkscape:deskcolor="#d1d1d1" />
<g
   inkscape:groupmode="layer"
   id="layer2"
   inkscape:label="BG" />
<g
   inkscape:groupmode="layer"
   id="layer1"
   inkscape:label="Logo"><g
     id="g923"
     transform="translate(-70.034609,-154.35384)"><rect
       style="fill:#0951af;fill-opacity:1;stroke-width:6.83112"
       id="rect1"
       width="280"
       height="280"
       x="70.034607"
       y="154.35384" /><g
       id="g921"
       transform="matrix(1.0180538,0,0,1.0409426,21.259321,184.80143)"
       style="fill:#ffffff;fill-opacity:1"><polygon
         class="st1"
         points="313.1,50.3 308.6,50.3 279.3,60.6 282.2,73.8 296.9,68.6 296.9,118.4 313.1,118.4 "
         id="polygon917"
         style="fill:#ffffff;fill-opacity:1" /><path
         class="st1"
         d="M 224.69,50.3 H 201 v 68.1 h 16.47 V 97.97 H 225 c 18.47,0 28.9,-11.64 28.9,-23.88 0,-13.32 -8.73,-23.79 -29.21,-23.79 z m -1.11,34.94 h -6.12 v -22.2 h 6.92 c 9.34,0 12.55,4.73 12.55,11.05 0,6.32 -4.3,11.15 -13.35,11.15 z M 193.5,50.3 160.63,118.4 h -7.56 L 120.2,50.3 h 17.79 L 156.85,90.98 175.7,50.3 Z m -80.6,0 V 64.03 H 93.4 V 118.4 H 76.9 V 64.03 H 57.4 V 50.3 Z"
         id="path919"
         style="fill:#ffffff;fill-opacity:1" /></g></g></g></svg>
