<?xml version="1.0" encoding="UTF-8" standalone="no"?>
<!-- Generator: Adobe Illustrator 16.0.0, SVG Export Plug-In . SVG Version: 6.00 Build 0)  -->

<svg
   version="1.1"
   id="Layer_1"
   x="0px"
   y="0px"
   width="280px"
   height="280px"
   viewBox="0 0 280 280"
   enable-background="new 0 0 280 280"
   xml:space="preserve"
   sodipodi:docname="tvp2.svg"
   inkscape:version="1.4 (e7c3feb100, 2024-10-09)"
   xmlns:inkscape="http://www.inkscape.org/namespaces/inkscape"
   xmlns:sodipodi="http://sodipodi.sourceforge.net/DTD/sodipodi-0.dtd"
   xmlns="http://www.w3.org/2000/svg"
   xmlns:svg="http://www.w3.org/2000/svg"><defs
   id="defs216276">
	
	
	
</defs><sodipodi:namedview
   id="namedview216274"
   pagecolor="#ffffff"
   bordercolor="#666666"
   borderopacity="1.0"
   inkscape:pageshadow="2"
   inkscape:pageopacity="0.0"
   inkscape:pagecheckerboard="0"
   showgrid="false"
   inkscape:zoom="0.74285714"
   inkscape:cx="242.98077"
   inkscape:cy="193.84615"
   inkscape:window-width="1600"
   inkscape:window-height="824"
   inkscape:window-x="0"
   inkscape:window-y="0"
   inkscape:window-maximized="1"
   inkscape:current-layer="Layer_1"
   inkscape:showpageshadow="2"
   inkscape:deskcolor="#d1d1d1" />
<g
   inkscape:groupmode="layer"
   id="layer2"
   inkscape:label="BG" /><rect
   style="fill:#ed6d08;fill-opacity:0.603922;stroke-width:6.83112"
   id="rect1"
   width="280"
   height="280"
   x="0"
   y="0" />
<g
   inkscape:groupmode="layer"
   id="layer1"
   inkscape:label="Logo"><g
     id="g144"
     transform="matrix(0.99708979,0,0,1.0492773,-44.323849,28.139651)"
     style="fill:#ffffff;fill-opacity:1"><path
       class="st1"
       d="M 207.1,87.5 V 66.2 h 6.6 c 8.9,0 12,4.5 12,10.6 0,6 -4.1,10.7 -12.8,10.7 0.1,0 -5.8,0 -5.8,0 z M 214,54.1 h -22.7 v 65.2 H 207 V 99.7 h 7.2 c 17.7,0 27.7,-11.1 27.7,-22.9 C 242,64.1 233.6,54.1 214,54.1 Z m -107,0 H 54 v 13.1 h 18.6 v 52 h 15.7 v -52 h 18.6 z m 42.2,38.9 18,-38.9 h 17 l -31.4,65.2 h -7.2 L 114.2,54.1 h 17 z"
       id="path140"
       style="fill:#ffffff;fill-opacity:1" /><path
       class="st1"
       d="m 301.3,96.5 c 8.2,-7.5 11.9,-14.1 11.9,-21.6 0,-14.6 -11,-22.8 -22.8,-22.8 -9.4,0 -18.6,4.6 -22.8,14.3 l 11,6.1 c 2.2,-4.9 6.3,-7.4 10.8,-7.4 4.9,0 8.9,3.8 8.9,9.4 0,5.1 -2.4,9.1 -10.4,16.6 l -17.5,16.3 v 11.8 h 44.3 v -13.4 h -23.6 z"
       id="path142"
       style="fill:#ffffff;fill-opacity:1" /></g></g></svg>
