<?xml version="1.0" encoding="UTF-8" standalone="no"?>
<!-- Generator: Adobe Illustrator 16.0.0, SVG Export Plug-In . SVG Version: 6.00 Build 0)  -->

<svg
   version="1.1"
   id="Layer_1"
   x="0px"
   y="0px"
   width="280px"
   height="280px"
   viewBox="0 0 280 280"
   enable-background="new 0 0 280 280"
   xml:space="preserve"
   sodipodi:docname="tvp3.svg"
   inkscape:version="1.4 (e7c3feb100, 2024-10-09)"
   xmlns:inkscape="http://www.inkscape.org/namespaces/inkscape"
   xmlns:sodipodi="http://sodipodi.sourceforge.net/DTD/sodipodi-0.dtd"
   xmlns="http://www.w3.org/2000/svg"
   xmlns:svg="http://www.w3.org/2000/svg"><defs
   id="defs216276">
	
	
	
</defs><sodipodi:namedview
   id="namedview216274"
   pagecolor="#ffffff"
   bordercolor="#666666"
   borderopacity="1.0"
   inkscape:pageshadow="2"
   inkscape:pageopacity="0.0"
   inkscape:pagecheckerboard="0"
   showgrid="false"
   inkscape:zoom="1.721488"
   inkscape:cx="167.00668"
   inkscape:cy="148.12767"
   inkscape:window-width="1600"
   inkscape:window-height="824"
   inkscape:window-x="0"
   inkscape:window-y="0"
   inkscape:window-maximized="1"
   inkscape:current-layer="layer1"
   inkscape:showpageshadow="2"
   inkscape:deskcolor="#d1d1d1" />
<g
   inkscape:groupmode="layer"
   id="layer2"
   inkscape:label="BG" />
<g
   inkscape:groupmode="layer"
   id="layer1"
   inkscape:label="Logo"><rect
     style="fill:#204a8e;fill-opacity:1;stroke-width:6.83112"
     id="rect1"
     width="280"
     height="280"
     x="0"
     y="0" /><path
     class="st1"
     d="m 260.43142,125.38702 c 8.95876,-2.63492 13.49081,-10.75049 13.49081,-18.65525 0,-15.071751 -10.75048,-23.925089 -29.8273,-23.925089 -18.33906,0 -32.14606,8.853338 -32.46225,26.665409 h 21.60635 c 0.52699,-6.00762 4.11048,-9.801901 10.32891,-9.696501 5.79681,0.10537 9.48571,4.215851 9.48571,10.750471 0,12.01524 -8.11556,13.38539 -10.64508,15.17715 2.63493,1.79175 13.06922,4.63746 12.64762,19.07682 -0.21078,6.64002 -3.3727,12.12066 -11.17206,12.12066 -8.32635,0 -11.17209,-4.74288 -11.38286,-13.4908 h -22.76574 v 1.79173 c 0,19.49843 15.38796,30.56512 32.46225,30.56512 22.13334,0 35.30794,-11.38288 35.30794,-30.24893 0,-10.0127 -5.90221,-18.65523 -17.0743,-20.13079 z M 5.1602448,102.72668 v 10.53971 H 20.548187 v 43.73968 h 11.804447 v -43.84508 h 15.387941 v -10.5397 H 5.1602448 Z m 0,0 v 10.53971 H 20.548187 v 43.73968 h 11.804447 v -43.84508 h 15.387941 v -10.5397 H 5.1602448 Z m 0,0 v 10.53971 H 20.548187 v 43.73968 h 11.804447 v -43.84508 h 15.387941 v -10.5397 H 5.1602448 Z m 100.0216152,-0.73776 -12.647616,28.56253 -0.421591,1.68635 -0.42159,-1.68635 -12.647621,-28.56253 H 66.71201 l 25.400643,56.49271 25.295237,-56.49271 z m 49.8527,0.73776 H 140.4898 v 54.27939 h 11.06668 v -16.65271 l 2.42413,0.10549 c 14.96634,0 22.34413,-9.59111 22.34413,-19.07684 0,-9.38032 -7.0616,-18.65523 -21.29018,-18.65523 z m 0,27.50859 h -3.47808 v -17.07428 h 4.00508 c 6.32381,0.10538 9.48572,2.21331 9.9073,8.43174 -0.31619,6.5346 -4.00508,8.53715 -10.4343,8.64254 z m 0,-27.50859 H 140.4898 v 54.27939 h 11.06668 v -16.65271 l 2.42413,0.10549 c 14.96634,0 22.34413,-9.59111 22.34413,-19.07684 0,-9.38032 -7.0616,-18.65523 -21.29018,-18.65523 z m 0,27.50859 h -3.47808 v -17.07428 h 4.00508 c 6.32381,0.10538 9.48572,2.21331 9.9073,8.43174 -0.31619,6.5346 -4.00508,8.53715 -10.4343,8.64254 z m -49.8527,-28.24635 -12.647616,28.56253 -0.421591,1.68635 -0.42159,-1.68635 -12.647621,-28.56253 H 66.71201 l 25.400643,56.49271 25.295237,-56.49271 z M 5.1602448,102.72668 v 10.53971 H 20.548187 v 43.73968 h 11.804447 v -43.84508 h 15.387941 v -10.5397 H 5.1602448 Z m 146.5016352,37.62668 2.42411,0.10549 c 14.96637,0 22.34414,-9.59111 22.34414,-19.07684 0,-9.38032 -7.06158,-18.65523 -21.29016,-18.65523 h -14.54476 v 54.27939 h 11.06667 z m 0,-27.19237 h 4.00506 c 6.32383,0.10538 9.48573,2.21331 9.90733,8.43174 -0.4216,6.42921 -4.11049,8.53715 -10.53971,8.64254 h -3.47808 v -17.07428 z m -34.1486,-11.17207 h -12.33142 l -12.647616,28.56253 -0.421591,1.68635 -0.42159,-1.68635 -12.647621,-28.56253 H 66.71201 l 25.400643,56.49271 z m -96.965093,54.91177 h 11.804447 v -43.7397 h 15.387941 v -10.5397 H 5.1602448 v 10.5397 H 20.548187 Z M 5.1602448,102.72668 v 10.53971 H 20.548187 v 43.73968 h 11.804447 v -43.84508 h 15.387941 v -10.5397 H 5.1602448 Z m 100.0216152,-0.73776 -12.647616,28.56253 -0.421591,1.68635 -0.42159,-1.68635 -12.647621,-28.56253 H 66.71201 l 25.400643,56.49271 25.295237,-56.49271 z m 0,0 -12.647616,28.56253 -0.421591,1.68635 -0.42159,-1.68635 -12.647621,-28.56253 H 66.71201 l 25.400643,56.49271 25.295237,-56.49271 z M 5.1602448,102.72668 v 10.53971 H 20.548187 v 43.73968 h 11.804447 v -43.84508 h 15.387941 v -10.5397 H 5.1602448 Z m 0,0 v 10.53971 H 20.548187 v 43.73968 h 11.804447 v -43.84508 h 15.387941 v -10.5397 H 5.1602448 Z m 0,0 v 10.53971 H 20.548187 v 43.73968 h 11.804447 v -43.84508 h 15.387941 v -10.5397 H 5.1602448 Z m 100.0216152,-0.73776 -12.647616,28.56253 -0.421591,1.68635 -0.42159,-1.68635 -12.647621,-28.56253 H 66.71201 l 25.400643,56.49271 25.295237,-56.49271 z m 49.8527,0.73776 H 140.4898 v 54.27939 h 11.06668 v -16.65271 l 2.42413,0.10549 c 14.96634,0 22.34413,-9.59111 22.34413,-19.07684 0,-9.38032 -7.0616,-18.65523 -21.29018,-18.65523 z m 0,27.50859 h -3.47808 v -17.07428 h 4.00508 c 6.32381,0.10538 9.48572,2.21331 9.9073,8.43174 -0.31619,6.5346 -4.00508,8.53715 -10.4343,8.64254 z m 0,-27.50859 H 140.4898 v 54.27939 h 11.06668 v -16.65271 l 2.42413,0.10549 c 14.96634,0 22.34413,-9.59111 22.34413,-19.07684 0,-9.38032 -7.0616,-18.65523 -21.29018,-18.65523 z m 0,27.50859 h -3.47808 v -17.07428 h 4.00508 c 6.32381,0.10538 9.48572,2.21331 9.9073,8.43174 -0.31619,6.5346 -4.00508,8.53715 -10.4343,8.64254 z m -49.8527,-28.24635 -12.647616,28.56253 -0.421591,1.68635 -0.42159,-1.68635 -12.647621,-28.56253 H 66.71201 l 25.400643,56.49271 25.295237,-56.49271 z"
     id="path867"
     style="fill:#ffffff;fill-opacity:1;stroke-width:1.05397"
     sodipodi:nodetypes="csscccsccsccsssccccccccccccccccccccccccccccccccccccccccccccccsscccccccccccccssccccccccccccccccccccccccccccssccccccccccccccccccccccccccccccccccccccccccccccccccccccccccccccccccccccccccccccccccccccccccccccccccccccsscccccccccccccsscccccccccccccccc" /></g></svg>
