<?xml version="1.0" encoding="UTF-8" standalone="no"?>
<!-- Generator: Adobe Illustrator 16.0.0, SVG Export Plug-In . SVG Version: 6.00 Build 0)  -->

<svg
   version="1.1"
   id="Layer_1"
   x="0px"
   y="0px"
   width="280px"
   height="280px"
   viewBox="0 0 280 280"
   enable-background="new 0 0 280 280"
   xml:space="preserve"
   sodipodi:docname="porto.svg"
   inkscape:version="1.4 (e7c3feb100, 2024-10-09)"
   xmlns:inkscape="http://www.inkscape.org/namespaces/inkscape"
   xmlns:sodipodi="http://sodipodi.sourceforge.net/DTD/sodipodi-0.dtd"
   xmlns="http://www.w3.org/2000/svg"
   xmlns:svg="http://www.w3.org/2000/svg"><defs
   id="defs23" /><sodipodi:namedview
   id="namedview23"
   pagecolor="#ffffff"
   bordercolor="#000000"
   borderopacity="0.25"
   inkscape:showpageshadow="2"
   inkscape:pageopacity="0.0"
   inkscape:pagecheckerboard="0"
   inkscape:deskcolor="#d1d1d1"
   inkscape:zoom="2.2214286"
   inkscape:cx="160.48231"
   inkscape:cy="141.35048"
   inkscape:window-width="1600"
   inkscape:window-height="824"
   inkscape:window-x="0"
   inkscape:window-y="0"
   inkscape:window-maximized="1"
   inkscape:current-layer="g23" />
<rect
   y="-0.042"
   fill-rule="evenodd"
   clip-rule="evenodd"
   fill="#4168B2"
   width="280"
   height="280"
   id="rect1"
   style="fill:#015aff;fill-opacity:1" />
<g
   id="g23">
	
	
	
	
	
	
	
	
	
	
	
	
	
	
	
	
	
	
	
	
	
	
	
<path
   style="fill:#ffffff;stroke-width:1.17058"
   d="m 39.628083,225.23424 c -5.393772,-0.95035 -8.150505,-4.74063 -7.683091,-10.56363 0.111837,-1.39329 0.494407,-3.0961 0.850148,-3.78403 2.21266,-4.27882 7.873437,-6.16754 12.376149,-4.12932 1.987396,0.89962 4.036474,2.65149 4.036474,3.45098 0,0.27889 -0.769207,0.96577 -1.70935,1.52641 l -1.709351,1.01934 -1.236309,-1.19829 c -0.979457,-0.94933 -1.595177,-1.19827 -2.963645,-1.19827 -4.215856,0 -6.02511,5.89122 -2.887649,9.40265 0.977993,1.09456 1.437168,1.294 2.979212,1.294 1.452722,0 2.066033,-0.23282 3.019403,-1.1462 1.288134,-1.23412 1.779706,-1.16604 3.997486,0.55366 l 0.902561,0.69985 -0.839805,1.06764 c -1.714628,2.17979 -5.934824,3.56856 -9.132233,3.00521 z m 17.464382,-0.14657 c -2.929569,-0.76304 -4.251874,-2.38641 -4.251874,-5.21993 0,-3.69453 2.223304,-5.37365 8.072948,-6.097 1.221034,-0.15099 2.447113,-0.45807 2.724621,-0.6824 0.819242,-0.66227 0.579426,-1.85595 -0.517228,-2.57451 -1.200257,-0.78644 -4.315807,-0.57328 -6.333604,0.43334 -0.684881,0.34165 -1.374293,0.6212 -1.53203,0.6212 -0.317647,0 -1.777941,-3.60034 -1.549251,-3.81966 0.07901,-0.0757 1.30892,-0.51884 2.733123,-0.98459 4.720477,-1.54371 10.045806,-0.78143 11.900246,1.70342 0.745785,0.99932 0.87341,1.85732 1.050719,7.06384 0.19349,5.68164 0.237625,5.93146 1.068884,6.04994 0.488249,0.0695 0.970803,0.51048 1.104518,1.00912 0.489207,1.82434 0.291831,2.25358 -1.16163,2.52625 -1.853784,0.34777 -3.285115,-0.0427 -4.45885,-1.21645 -0.824258,-0.82426 -1.023199,-0.87431 -1.446782,-0.36392 -1.265873,1.52528 -4.722857,2.24964 -7.40381,1.55135 z m 5.999153,-4.33632 c 0.72743,-0.65273 1.041619,-1.38906 1.116894,-2.61755 0.0576,-0.94014 -0.02702,-1.72446 -0.188046,-1.74295 -1.071566,-0.12293 -4.928954,1.03602 -5.564927,1.67199 -0.935467,0.93546 -0.966578,1.52353 -0.14282,2.69961 0.87002,1.24212 3.388755,1.23628 4.778899,-0.0105 z m 38.915562,4.36422 c -1.04214,-0.27184 -2.189376,-0.73872 -2.549406,-1.03752 -1.79801,-1.49222 -2.31972,-4.65824 -1.16766,-7.08601 0.75529,-1.59167 3.304336,-2.71719 7.226446,-3.1908 1.33205,-0.16083 2.64895,-0.47881 2.92644,-0.7066 0.81844,-0.67182 0.57991,-1.86195 -0.51722,-2.58081 -1.19726,-0.78448 -4.31443,-0.57397 -6.32061,0.42685 -1.48336,0.73999 -1.842266,0.5601 -2.626326,-1.31641 -0.55188,-1.32085 -0.54314,-1.48529 0.10418,-1.95864 2.291936,-1.67592 8.338346,-2.21513 11.437486,-1.02 3.08039,1.18792 3.44201,2.06249 3.67443,8.88631 0.19349,5.68107 0.23763,5.9309 1.06888,6.04938 0.48825,0.0695 0.97081,0.51048 1.10452,1.00912 0.48921,1.82434 0.29184,2.25358 -1.16163,2.52625 -1.80754,0.33909 -3.23203,-0.0263 -4.31183,-1.10614 -0.68899,-0.68898 -0.98464,-0.76474 -1.50342,-0.38526 -2.20128,1.61023 -4.86418,2.14764 -7.38433,1.49028 z m 5.87684,-4.29261 c 0.89371,-0.703 1.06355,-1.15648 1.06355,-2.83973 0,-1.77998 -0.0787,-1.96182 -0.70639,-1.63218 -0.38851,0.20405 -1.49756,0.50211 -2.46458,0.66238 -0.967,0.16026 -2.10226,0.63546 -2.52279,1.05599 -2.37132,2.37133 1.89253,4.907 4.63021,2.75354 z m -32.035526,-5.21811 v -9.2839 h 2.62371 c 2.570366,0 2.623709,0.0218 2.623709,1.07167 0,1.00345 0.04589,1.03014 0.721146,0.41905 2.117399,-1.91621 5.622607,-2.38109 8.166847,-1.08311 2.706408,1.3807 3.000858,2.38883 3.152568,10.79361 l 0.13298,7.36656 h -2.65578 -2.655768 v -6.27488 c 0,-6.12403 -0.0238,-6.2987 -0.99076,-7.26566 -1.388787,-1.38877 -3.185893,-1.31632 -4.691349,0.18912 l -1.179884,1.1799 v 6.08576 6.08576 h -2.623709 -2.62371 z m 44.804856,-3.22919 v -12.51307 h 2.6237 2.62371 v 12.51307 12.51307 h -2.62371 -2.6237 z M 86.651466,189.37773 c -8.20251,-1.48075 -13.689551,-6.18279 -15.914612,-13.63781 -0.850718,-2.85031 -0.942169,-9.0935 -0.17879,-12.20559 2.280385,-9.29655 11.084322,-15.20025 21.47284,-14.39914 11.254636,0.86789 18.656066,8.8355 18.625406,20.05019 -0.0265,9.66534 -5.29108,17.09864 -13.818166,19.51019 -2.82816,0.79985 -7.720098,1.12743 -10.186678,0.68216 z m 7.888508,-10.68803 c 3.00555,-1.44303 4.67346,-4.72597 4.70234,-9.25566 0.0238,-3.72707 -0.64881,-5.7396 -2.59495,-7.76479 -3.51033,-3.65292 -9.774558,-3.6538 -12.840569,-0.002 -1.848365,2.20165 -2.466477,4.01923 -2.487992,7.31611 -0.0343,5.25923 1.912946,8.73026 5.680353,10.12531 1.99213,0.73768 5.542358,0.54033 7.540818,-0.41917 z m 110.783816,10.68803 c -9.83072,-1.77468 -15.58368,-7.97783 -16.67569,-17.9806 -0.3631,-3.32603 0.46003,-8.35144 1.86974,-11.41505 1.31042,-2.84785 4.55793,-6.52412 7.05694,-7.98864 3.68217,-2.15789 6.07901,-2.72786 11.47735,-2.72928 4.61734,-0.001 5.28542,0.0962 7.87113,1.14813 7.1963,2.92754 10.91948,7.87003 12.41094,16.4754 0.40455,2.33417 0.37023,3.27616 -0.22795,6.25653 -1.9985,9.9575 -8.60932,15.70379 -18.84318,16.37893 -1.66504,0.1098 -3.88772,0.0444 -4.93928,-0.14542 z m 7.98788,-10.75474 c 5.29597,-2.71027 6.43998,-12.21883 2.05069,-17.04435 -2.69626,-2.96423 -7.97004,-3.47014 -11.56316,-1.10925 -3.20106,2.10328 -4.8112,7.84368 -3.48231,12.41495 0.79767,2.74386 3.06468,5.40052 5.30424,6.21591 2.1195,0.77168 5.68209,0.55059 7.69054,-0.47726 z M 33.465513,169.39892 v -19.58861 h 10.955875 c 9.828341,0 11.238345,0.0842 13.700549,0.81739 3.90906,1.16418 6.554766,3.36098 8.180499,6.7925 1.139431,2.40506 1.269829,3.06147 1.258244,6.33395 -0.01124,3.15773 -0.164497,3.96064 -1.1351,5.94448 -1.568964,3.20685 -4.434567,5.62004 -8.015794,6.7503 -2.09492,0.66117 -4.247155,0.94495 -8.419083,1.11011 l -5.604701,0.22187 -0.111919,5.49069 -0.111919,5.49069 -5.348329,0.11261 -5.348329,0.11261 z m 21.184738,-2.2292 c 1.558775,-0.59265 2.440703,-2.94435 1.84714,-4.9255 -0.689418,-2.30106 -1.900856,-2.74637 -7.471406,-2.74637 h -4.661991 v 4.03648 4.03646 h 4.615668 c 2.538618,0 5.090383,-0.18048 5.670589,-0.40107 z m 60.217479,21.52529 c -0.14801,-0.148 -0.26909,-8.95761 -0.26909,-19.5769 v -19.3078 h 11.20994 c 9.70392,0 11.57506,0.10126 13.92751,0.75355 4.53402,1.25725 7.20715,3.60974 8.56289,7.53578 1.93474,5.60273 -0.0931,11.68902 -5.11243,15.34466 l -1.08016,0.78668 3.94978,7.26565 3.94977,7.26566 -5.8656,0.11214 c -3.22608,0.0617 -5.99356,-0.0292 -6.14996,-0.20183 -0.15641,-0.17266 -1.6945,-3.08396 -3.41798,-6.46955 l -3.13361,-6.15562 h -2.72583 c -2.11323,0 -2.7809,0.14349 -2.97083,0.63849 -0.13476,0.35116 -0.24502,3.25742 -0.24502,6.45835 v 5.81987 h -5.18014 c -2.84908,0 -5.30123,-0.12108 -5.44924,-0.26909 z m 21.73162,-22.09857 c 1.71939,-1.71939 1.81198,-3.99599 0.2415,-5.93752 -0.74402,-0.91982 -0.98901,-0.95925 -5.95892,-0.95925 h -5.183 l -0.11553,3.93556 -0.11554,3.93556 h 5.07855 c 4.83061,0 5.12614,-0.0475 6.05292,-0.97435 z m 27.52484,22.11004 c -0.15431,-0.15431 -0.28057,-6.78938 -0.28057,-14.7446 v -14.46403 h -5.85289 -5.85289 v -4.84377 -4.84377 h 17.15502 17.15502 v 4.84377 4.84377 h -5.84785 -5.84786 l -0.10594,14.63222 -0.10593,14.63222 -5.06776,0.11237 c -2.78726,0.0618 -5.19402,-0.0138 -5.34832,-0.16819 z M 48.400806,138.72986 c 0.003,-3.74917 1.829198,-16.68569 3.290373,-23.30833 0.734867,-3.33073 1.064115,-4.10792 2.211314,-5.21983 0.741339,-0.71853 1.45786,-1.19646 1.592269,-1.06205 0.134409,0.13442 -0.13914,1.75677 -0.607886,3.60524 -1.352425,5.33321 -3.215674,16.83847 -3.508952,21.66722 l -0.268758,4.42503 -1.354349,0.15811 c -0.776723,0.0907 -1.354204,-0.0225 -1.354011,-0.26539 z m 127.264254,0.264 c -2.8905,-0.13806 -2.70894,0.21894 -3.12097,-6.13674 -0.46513,-7.17466 -2.68909,-20.29384 -4.85826,-28.65897 -6.33646,-24.435776 -18.25309,-42.544681 -30.48294,-46.322896 -2.91425,-0.900303 -8.37476,-0.902749 -11.30213,-0.0047 -6.07405,1.862646 -13.18073,8.199615 -18.25944,16.281785 l -1.03064,1.640155 1.31335,1.589024 c 10.11032,12.232379 17.36902,34.568332 19.30747,59.411522 l 0.16534,2.11914 h -2.7284 -2.7284 l -0.22593,-1.91732 c -0.12426,-1.05453 -0.33179,-3.098 -0.46118,-4.54104 -1.60513,-17.90152 -7.40814,-36.529923 -14.83754,-47.630402 -5.87457,-8.777377 -11.551416,-12.88704 -18.292534,-13.242615 -4.254067,-0.224376 -6.892209,0.548357 -10.803625,3.164469 -5.628727,3.76473 -10.518543,10.299069 -14.718813,19.668995 -2.107675,4.70178 -2.29346,5.3441 -1.545721,5.3441 1.092344,0 4.444861,1.639023 6.395906,3.126913 7.381723,5.62938 12.701134,17.86865 15.000066,34.51323 l 0.209077,1.51367 h -2.75314 -2.753122 l -0.288754,-2.69637 c -0.917882,-8.57139 -4.861524,-19.53141 -9.061877,-25.18477 -6.959173,-9.36653 -15.246909,-7.66465 -21.763993,4.46921 -2.837803,5.28358 -5.603535,14.40148 -6.338259,20.89557 l -0.284651,2.51598 h -2.763303 -2.763304 l 0.1832,-1.11002 c 0.100764,-0.61053 0.377203,-2.47234 0.614317,-4.13739 1.402837,-9.85087 5.56821,-20.65178 10.183419,-26.40584 2.422227,-3.01994 5.611944,-5.68664 7.806058,-6.52609 1.515008,-0.57962 1.745422,-0.872493 2.775624,-3.527903 8.458997,-21.803562 21.170299,-33.123434 34.826925,-31.014626 3.263608,0.503957 7.893318,2.423704 10.333344,4.284793 0.74124,0.565378 1.52555,1.027955 1.74292,1.027955 0.21736,0 1.29007,-1.3169 2.38378,-2.926444 1.09372,-1.609544 3.44171,-4.447375 5.21776,-6.306288 5.31035,-5.558101 10.39525,-8.694382 16.44975,-10.145887 4.3374,-1.039859 6.25989,-1.00967 10.8456,0.170331 5.96151,1.534007 9.40842,3.642744 14.90269,9.117102 2.56237,2.553064 5.45774,5.868023 6.43417,7.366561 0.97642,1.49855 1.9507,2.724625 2.16506,2.724625 0.21437,0 0.95182,-0.427542 1.6388,-0.950088 3.50843,-2.668706 9.25463,-4.676633 13.43298,-4.693969 0.92901,-0.0035 2.97175,0.262806 4.53941,0.59257 10.28602,2.16373 19.82193,12.470666 26.38633,28.519775 2.14639,5.247663 1.9816,5.01177 4.18082,5.984593 2.51726,1.11351 7.65828,6.36984 9.83492,10.05551 3.33917,5.65417 6.12368,13.83515 7.43558,21.84603 0.3454,2.10905 0.71429,4.33415 0.81976,4.94468 l 0.19176,1.11002 h -2.81544 c -1.54849,0 -2.81545,-0.10137 -2.81545,-0.22541 0,-1.06768 -1.06197,-6.79938 -1.86532,-10.06759 -1.26326,-5.13919 -3.04988,-10.14911 -4.81761,-13.50913 -1.77885,-3.38118 -5.15855,-7.71701 -5.33268,-6.84134 -0.0699,0.35156 0.34302,2.62207 0.91766,5.04559 1.61055,6.79252 3.4194,19.19019 3.42559,23.47874 l 0.004,2.11914 h -2.54693 -2.54694 l -0.91052,-7.56839 c -2.45093,-20.37242 -7.60031,-36.183543 -15.53141,-47.689106 -3.96339,-5.749643 -9.4181,-10.294504 -13.92941,-11.605984 -3.23042,-0.939108 -8.0599,-0.604603 -11.04929,0.7653 -2.13593,0.978802 -5.0167,2.863163 -5.59895,3.662374 -0.13462,0.184776 0.79966,2.637967 2.07618,5.451532 4.98428,10.985841 8.41312,23.258614 10.66197,38.162284 0.96064,6.36628 2.07059,18.01626 1.78036,18.68647 -0.0803,0.18554 -1.27472,0.28345 -2.65414,0.21756 z m -89.320364,-2.20118 c 0.004,-5.88223 1.88492,-19.70175 3.88727,-28.55806 2.142048,-9.474213 4.897198,-17.993193 8.138718,-25.16506 l 1.0662,-2.358972 0.864236,1.08385 0.86424,1.083861 -1.599706,3.898831 c -5.26555,12.833277 -8.84324,28.28174 -10.274308,44.36448 l -0.6914,7.77021 h -1.12831 c -1.09222,0 -1.12827,-0.0678 -1.12694,-2.11914 z m 51.037024,-1.00912 c 1.5779,-18.03647 6.11487,-35.33865 12.38129,-47.217413 1.92356,-3.646326 5.0224,-8.586854 5.38592,-8.586854 0.0856,0 0.36356,0.630474 0.61788,1.401065 0.42183,1.278153 0.35818,1.552584 -0.72547,3.128263 -4.36295,6.343906 -8.92123,17.884169 -11.60783,29.387659 -1.46005,6.25162 -3.39158,18.3746 -3.40687,21.38272 -0.0151,2.97079 -0.32624,3.63282 -1.70731,3.63282 h -1.21129 z m 44.62603,2.47005 c 0,-3.94661 2.80508,-15.47933 5.07289,-20.8565 2.86535,-6.79402 7.46554,-12.77417 11.34528,-14.74863 l 1.68505,-0.85754 0.27069,1.23246 c 0.14889,0.67786 0.208,1.27881 0.13138,1.33543 -0.0767,0.0567 -1.02072,0.72354 -2.09797,1.48201 -5.73244,4.03608 -10.8323,14.87679 -13.23161,28.1263 l -0.89542,4.94468 h -1.14015 c -0.78496,0 -1.14014,-0.20503 -1.14014,-0.65821 z"
   id="path1" /></g>
</svg>
