<?xml version="1.0" encoding="UTF-8" standalone="no"?>
<!-- Generator: Adobe Illustrator 16.0.0, SVG Export Plug-In . SVG Version: 6.00 Build 0)  -->

<svg
   version="1.1"
   id="Layer_1"
   x="0px"
   y="0px"
   width="280px"
   height="280px"
   viewBox="0 0 280 280"
   enable-background="new 0 0 280 280"
   xml:space="preserve"
   sodipodi:docname="recordnews.svg"
   inkscape:version="1.4 (e7c3feb100, 2024-10-09)"
   xmlns:inkscape="http://www.inkscape.org/namespaces/inkscape"
   xmlns:sodipodi="http://sodipodi.sourceforge.net/DTD/sodipodi-0.dtd"
   xmlns="http://www.w3.org/2000/svg"
   xmlns:svg="http://www.w3.org/2000/svg"><defs
   id="defs5011" /><sodipodi:namedview
   id="namedview5009"
   pagecolor="#ffffff"
   bordercolor="#000000"
   borderopacity="0.25"
   inkscape:showpageshadow="2"
   inkscape:pageopacity="0.0"
   inkscape:pagecheckerboard="0"
   inkscape:deskcolor="#d1d1d1"
   showgrid="false"
   inkscape:zoom="1.4767857"
   inkscape:cx="211.60822"
   inkscape:cy="99.540509"
   inkscape:window-width="1600"
   inkscape:window-height="824"
   inkscape:window-x="0"
   inkscape:window-y="0"
   inkscape:window-maximized="1"
   inkscape:current-layer="Layer_1"
   inkscape:pageshadow="2"
   showguides="false" />
<rect
   y="0.023242312"
   fill-rule="evenodd"
   clip-rule="evenodd"
   fill="#164E86"
   width="280"
   height="280"
   id="rect4994-7"
   style="fill:#818183;fill-opacity:1;stroke:none;stroke-width:0.999999;stroke-opacity:1"
   x="0" />

<path
   style="fill:#ffffff"
   d="m 54.008083,172.60805 c -5.308598,-1.15387 -10.556874,-3.34173 -11.886927,-4.95531 -1.034297,-1.25478 -1.849032,-3.03629 -1.752552,-3.83216 l 0.07829,-0.64583 6.268851,-0.0575 c 4.002814,-0.0367 7.517483,-0.21351 9.723115,-0.48911 23.8835,-2.98433 40.930069,-13.68344 49.91219,-31.32688 1.64616,-3.23353 1.92322,-3.07641 1.69202,0.95951 -0.49906,8.71175 -5.30544,18.19233 -13.136472,25.91168 -3.473468,3.42394 -4.959339,4.65974 -8.302876,6.90551 -4.959564,3.33122 -11.338825,6.09084 -16.859546,7.29331 -2.417604,0.52658 -3.832601,0.65944 -7.932015,0.74473 -4.537502,0.0944 -5.244463,0.0484 -7.80408,-0.50796 z M 32.7557,163.863 c -5.172932,-3.11244 -9.982454,-8.71607 -13.192022,-15.37017 -2.290579,-4.74885 -4.134362,-11.16899 -4.830527,-16.82013 -0.460661,-3.73943 -0.342336,-10.82222 0.239885,-14.3592 1.432849,-8.70452 4.927725,-15.9672 10.629987,-22.090123 1.47757,-1.58657 4.325899,-3.933381 6.840251,-5.63585 2.049881,-1.387976 5.52735,-1.691975 6.837923,-0.597768 0.514556,0.429606 0.504668,0.458201 -1.034802,2.992465 -5.476212,9.014896 -9.842213,20.612936 -11.477292,30.488776 -2.209398,13.34471 -0.638166,25.39597 4.718538,36.19089 0.740114,1.49149 1.741133,3.33377 2.224487,4.09394 0.483353,0.76018 0.965429,1.52607 1.071279,1.70198 0.350413,0.58236 -0.472382,0.34099 -2.027707,-0.59481 z m 3.595992,-1.4349 c -2.64535,-2.08083 -5.686808,-10.44427 -7.068285,-19.43647 -0.814977,-5.30479 -0.819549,-14.02334 -0.0098,-18.7696 1.632281,-9.56795 4.602185,-18.13826 9.781059,-28.225413 1.590396,-3.097686 2.799565,-5.761197 2.799565,-6.166769 0,-0.39266 -0.294217,-1.267274 -0.653817,-1.943587 -0.518712,-0.975565 -0.584804,-1.27786 -0.319839,-1.462916 0.527189,-0.368197 7.802232,0.0089 11.122609,0.576571 14.176935,2.423668 27.261031,10.613161 38.619892,24.172674 3.016698,3.60114 6.263897,8.33169 8.631435,12.57434 1.706209,3.05754 2.740969,4.07886 4.381889,4.32493 1.37236,0.2058 1.4146,0.3973 0.49313,2.23562 -6.583574,13.1341 -16.440731,20.84641 -34.129439,26.70311 -6.931756,2.29509 -13.317345,3.27861 -23.868891,3.67634 -7.06224,0.26621 -7.690943,0.38941 -8.359229,1.63812 -0.430045,0.80354 -0.521295,0.81016 -1.420237,0.10305 z m 81.489018,-23.23759 c -0.004,-1.82948 -0.007,-5.05346 -0.007,-7.1644 0,-2.11094 0.003,-8.09833 0.007,-13.30532 l 0.007,-9.46724 h 16.50371 16.50371 v 16.63164 16.63165 h -16.50371 -16.50371 z m 12.0926,-9.37984 0.0686,-6.05351 4.60569,6.04612 4.60569,6.04613 1.983,0.007 1.983,0.007 v -9.85105 -9.85105 h -2.29804 -2.29804 l -0.0688,5.73628 -0.0688,5.73629 -4.34595,-5.73629 -4.34595,-5.73628 h -2.1148 -2.11481 v 9.85105 9.85105 h 2.17028 2.17028 z m 26.03956,-3.92548 v -16.63164 h 16.63164 16.63165 v 16.63164 16.63165 h -16.63165 -16.63164 z m 24.30778,7.93202 v -2.04697 h -5.3733 -5.3733 v -1.91904 -1.91903 h 4.60569 4.60569 v -2.04698 -2.04697 h -4.60569 -4.60569 v -1.91903 -1.91904 h 5.24537 5.24536 v -1.91904 -1.91903 h -7.54821 -7.5482 v 9.68047 c 0,5.32426 0.0768,9.75723 0.17058,9.85105 0.0938,0.0938 3.54808,0.17058 7.67614,0.17058 h 7.50556 z m 14.07293,-7.93202 v -16.63164 h 16.63165 16.63164 v 16.63164 16.63165 h -16.63164 -16.63165 z m 15.45837,5.56521 c 0.55633,-2.35722 1.07669,-4.28497 1.15636,-4.28389 0.0797,10e-4 0.54018,1.69942 1.02336,3.7741 1.26546,5.43366 0.91974,4.92357 3.33704,4.92357 1.12932,0 2.05331,-0.0786 2.05331,-0.17472 0,-0.0961 0.92113,-4.40703 2.04697,-9.57986 1.12583,-5.17282 2.04697,-9.52717 2.04697,-9.67633 0,-0.17059 -0.84059,-0.27119 -2.26612,-0.27119 h -2.26611 l -0.86568,3.96601 c -0.47612,2.1813 -0.93181,3.966 -1.01264,3.966 -0.0808,0 -0.45722,-1.35292 -0.83642,-3.00649 -0.37921,-1.65356 -0.80902,-3.43827 -0.95515,-3.966 l -0.26569,-0.95952 h -2.14061 -2.14062 l -0.96316,4.09125 c -0.52974,2.25018 -1.00273,4.05167 -1.05109,4.00331 -0.0484,-0.0484 -0.43598,-1.68792 -0.86137,-3.64347 -0.42539,-1.95555 -0.83375,-3.75704 -0.90746,-4.00332 -0.11438,-0.38218 -0.4624,-0.44777 -2.37587,-0.44777 h -2.24186 l 1.74092,7.99598 c 0.95751,4.39779 1.92539,8.83528 2.15085,9.86108 l 0.40993,1.8651 2.08631,-0.074 2.08632,-0.074 z m 22.92235,-5.56521 v -16.63164 h 16.63165 16.63164 v 16.63164 16.63165 H 249.36595 232.7343 Z m 19.58438,10.09568 c 2.02518,-0.52462 3.26369,-1.38096 4.12645,-2.85315 0.59791,-1.02026 0.70948,-1.49823 0.70309,-3.01222 -0.008,-1.97604 -0.37045,-2.90994 -1.55455,-4.00919 -1.03044,-0.95662 -1.88295,-1.33576 -5.07421,-2.25672 -1.54687,-0.44641 -3.01199,-0.9922 -3.25583,-1.21287 -1.73695,-1.57193 0.29019,-3.3406 3.04347,-2.6554 0.67857,0.16887 1.8541,0.65512 2.61231,1.08055 0.76579,0.42969 1.44819,0.66638 1.53523,0.53249 0.0862,-0.13256 0.61555,-0.90246 1.17639,-1.71089 l 1.01972,-1.46986 -0.63591,-0.52337 c -1.70978,-1.40717 -5.60724,-2.4435 -7.92825,-2.10812 -3.6794,0.53167 -5.8738,2.82443 -5.8738,6.13707 0,3.41083 1.38332,4.71327 6.51348,6.13263 2.62831,0.72718 3.66499,1.27456 3.85612,2.03607 0.31589,1.25863 -0.9629,2.18845 -3.0156,2.19266 -1.02876,0.002 -2.99769,-0.72957 -4.21295,-1.5656 -0.58828,-0.4047 -1.17557,-0.73581 -1.30509,-0.73581 -0.31103,0 -2.48688,2.73459 -2.48688,3.12549 0,0.44344 1.82772,1.62664 3.47499,2.24958 2.68759,1.01635 5.00699,1.21595 7.28182,0.62666 z M 103.17444,125.05361 c -0.19612,-0.31664 -1.02236,-1.72713 -1.83608,-3.13442 C 97.652023,115.54386 93.214001,109.7131 87.92789,104.30027 83.532396,99.799407 80.309681,97.087327 75.629221,93.950327 65.842652,87.391033 55.733723,84.195235 44.732743,84.182833 c -2.351803,-0.0027 -4.157911,-0.106768 -4.157911,-0.239691 0,-0.129251 0.406689,-0.48635 0.903753,-0.793552 2.48961,-1.538664 6.403597,-3.014077 9.849194,-3.712743 2.723558,-0.552258 9.546516,-0.769142 12.660654,-0.402449 12.038706,1.417569 23.063333,6.620658 31.229748,14.738929 6.799939,6.759853 10.587219,14.638293 11.626419,24.185773 0.27306,2.50869 0.25675,2.78965 -0.23885,4.11424 -0.56786,1.51776 -2.12506,3.55598 -2.71677,3.55598 -0.19688,0 -0.51843,-0.25907 -0.71454,-0.57571 z"
   id="path1" /></svg>
