<?xml version="1.0" encoding="UTF-8" standalone="no"?>
<!-- Generator: Adobe Illustrator 16.0.0, SVG Export Plug-In . SVG Version: 6.00 Build 0)  -->

<svg
   version="1.1"
   id="Layer_1"
   x="0px"
   y="0px"
   width="280px"
   height="280px"
   viewBox="0 0 280 280"
   enable-background="new 0 0 280 280"
   xml:space="preserve"
   sodipodi:docname="sicnoticias.svg"
   inkscape:version="1.4 (e7c3feb100, 2024-10-09)"
   xmlns:inkscape="http://www.inkscape.org/namespaces/inkscape"
   xmlns:sodipodi="http://sodipodi.sourceforge.net/DTD/sodipodi-0.dtd"
   xmlns="http://www.w3.org/2000/svg"
   xmlns:svg="http://www.w3.org/2000/svg"><defs
   id="defs216276">
	
	
	
</defs><sodipodi:namedview
   id="namedview216274"
   pagecolor="#ffffff"
   bordercolor="#666666"
   borderopacity="1.0"
   inkscape:pageshadow="2"
   inkscape:pageopacity="0.0"
   inkscape:pagecheckerboard="0"
   showgrid="false"
   inkscape:zoom="1.4857143"
   inkscape:cx="223.125"
   inkscape:cy="222.11538"
   inkscape:window-width="1600"
   inkscape:window-height="824"
   inkscape:window-x="0"
   inkscape:window-y="0"
   inkscape:window-maximized="1"
   inkscape:current-layer="Layer_1"
   inkscape:showpageshadow="2"
   inkscape:deskcolor="#d1d1d1" />
<g
   inkscape:groupmode="layer"
   id="layer2"
   inkscape:label="BG"><rect
     y="0"
     fill-rule="evenodd"
     clip-rule="evenodd"
     fill="#164E86"
     width="280"
     height="280"
     id="rect4994-7"
     style="fill:#e60012;fill-opacity:1;stroke:none;stroke-width:0.999999;stroke-opacity:1"
     x="0" /></g>
<g
   inkscape:groupmode="layer"
   id="layer1"
   inkscape:label="Logo" /><path
   style="fill:#000000"
   d="m -940.6263,418.91809 v -74 h 341.5 341.5 v 74 74 h -341.5 -341.5 z m 278.76051,12.75 0.26051,-43.75 h 16.98949 16.98949 v -10.5 -10.5 h -47 -47 v 10.5 10.5 h 17 17 v 44.02988 44.02987 l 12.75,-0.27987 12.75,-0.27988 z m 149.55956,40 c 0.87549,-2.3375 5.91865,-16.625 11.20703,-31.75 5.28838,-15.125 13.18321,-37.59718 17.54407,-49.93818 4.36086,-12.34101 7.92883,-22.57851 7.92883,-22.75 0,-0.1715 -6.02082,-0.31182 -13.3796,-0.31182 h -13.37959 l -11.78726,34.75 c -13.74533,40.52255 -13.29904,39.25 -13.7652,39.25 -0.19863,0 -5.94727,-16.64734 -12.77475,-36.99409 l -12.4136,-36.99408 -13.25,-0.006 c -7.98824,-0.004 -13.25,0.38317 -13.25,0.97385 0,0.53887 0.65751,2.67637 1.46114,4.75 0.80363,2.07363 8.69174,24.92024 17.52913,50.77024 8.83739,25.85 16.55947,48.2375 17.16018,49.75 l 1.09219,2.75 h 14.24282 14.24282 l 1.59179,-4.25 z M -717.18154,304.97966 c -14.62426,-2.3018 -23.11209,-10.67185 -27.1672,-26.79025 -2.14078,-8.50925 -2.51201,-52.15883 -0.52445,-61.6655 2.6189,-12.52646 8.80451,-21.82774 17.4191,-26.19309 9.64652,-4.88826 27.6589,-5.30603 38.23555,-0.88682 8.69739,3.634 16.05931,13.94913 18.64568,26.12532 1.57704,7.42443 2.31135,42.56865 1.10423,52.84877 -2.42383,20.642 -9.04272,30.95254 -22.46286,34.99141 -5.87455,1.76798 -18.86205,2.5756 -25.25005,1.57016 z m 17.13528,-17.94725 c 6.93919,-4.23151 8.81594,-14.69878 8.16666,-45.54827 -0.51901,-24.66043 -1.56412,-30.10082 -6.73385,-35.05374 -2.5642,-2.45666 -3.87266,-2.91508 -8.44752,-2.95961 -13.17,-0.12821 -16.52571,8.59269 -16.52571,42.9473 0,33.7606 3.2303,42.35354 15.96038,42.45622 2.69935,0.0218 5.73246,-0.71525 7.58004,-1.8419 z m -181.47765,11.63568 c -0.57167,-2.8875 -4.63929,-25.05 -9.03915,-49.25 -4.39987,-24.2 -8.68896,-47.6 -9.53133,-52 -0.84236,-4.4 -1.53164,-8.1125 -1.53174,-8.25 -9e-5,-0.1375 4.94126,-0.25 10.98078,-0.25 10.57485,0 10.99919,0.0832 11.47415,2.25 0.27127,1.2375 1.83701,11.475 3.47944,22.75 1.64243,11.275 4.20196,28.825 5.68785,39 1.48588,10.175 2.98148,18.83028 3.32356,19.23395 0.34207,0.40367 3.45338,-17.14633 6.91402,-39 3.46064,-21.85367 6.53164,-40.74645 6.82446,-41.98395 0.51174,-2.16273 0.95411,-2.25 11.40493,-2.25 10.45459,0 10.89251,0.0865 11.39215,2.25 0.28579,1.2375 3.2396,19.575 6.56403,40.75 3.32442,21.175 6.30794,39.175 6.63004,40 0.4195,1.07448 12.82181,-75.78477 13.27217,-82.25 0.0287,-0.4125 5.038,-0.75 11.13171,-0.75 h 11.07945 l -0.57026,2.75 c -0.31364,1.5125 -4.84243,26.375 -10.06397,55.25 -5.22155,28.875 -9.73426,53.5125 -10.02825,54.75 -0.52036,2.19033 -0.8788,2.25 -13.51548,2.25 -9.71534,0 -12.98225,-0.31446 -12.98612,-1.25 -0.003,-0.6875 -1.30789,-9.575 -2.90011,-19.75 -1.59222,-10.175 -4.38512,-28.28228 -6.20644,-40.23839 -1.82132,-11.95612 -3.59817,-21.40612 -3.94856,-21 -0.35039,0.40611 -2.30025,11.76339 -4.33301,25.23839 -2.03277,13.475 -4.86161,31.8125 -6.28631,40.75 l -2.59036,16.25 h -12.79412 -12.79412 z m 262.89761,-52.25 v -57.5 h 25.3185 c 28.6295,0 32.57756,0.65129 39.41237,6.50163 5.61308,4.80459 8.26913,11.99208 8.26913,22.37695 0,14.04667 -4.20007,22.4529 -13.33231,26.68392 -4.08274,1.89157 -4.6879,2.46628 -3.11703,2.96018 12.94257,4.0693 14.24989,6.67403 15.91382,31.70703 1.10822,16.67243 1.51223,19.24751 3.42589,21.83587 l 2.1695,2.93442 h -12.99139 -12.99139 l -0.94117,-3.75 c -0.51765,-2.0625 -1.17327,-10.53906 -1.45694,-18.8368 -0.79143,-23.15039 -2.47847,-25.71383 -17.28198,-26.25973 l -9.397,-0.34653 v 24.59653 24.59653 h -11.5 -11.5 z m 42.41007,-9.52633 c 5.11646,-2.591 7.02082,-6.27684 7.37514,-14.2744 0.54646,-12.33479 -3.84727,-16.48677 -18.3985,-17.38618 l -8.38671,-0.51839 v 17.20527 17.20526 l 8.25,-0.37895 c 4.5375,-0.20842 9.55953,-1.0421 11.16007,-1.85261 z m 87.58993,9.52633 v -57.5 h 11.5 11.5 v 48 48 h 20.5 20.5 v 9.5 9.5 h -32 -32 z m 117,0.11199 v -57.56971 l 19.75,-0.27114 c 23.67546,-0.32503 30.59068,0.34772 36.9434,3.59404 8.80309,4.49849 13.86496,11.74563 17.01705,24.3635 1.33162,5.33053 1.68599,11.34605 1.66542,28.27132 -0.0293,24.10071 -1.16006,31.69112 -6.19985,41.61701 -3.72111,7.32875 -7.02627,10.49859 -14.67602,14.07517 -5.97513,2.79362 -6.1005,2.80667 -30.25,3.14738 l -24.25,0.34214 z m 43.67836,37.83604 c 7.17755,-5.21972 9.90489,-18.78337 9.03801,-44.94803 -0.58376,-17.61915 -2.03035,-23.97696 -6.56439,-28.85064 -3.50455,-3.76707 -6.11772,-4.67394 -15.39301,-5.34193 l -7.75897,-0.55878 v 41.22517 41.22518 l 8.92836,-0.3495 c 7.04524,-0.27579 9.52349,-0.78229 11.75,-2.40147 z M -896.1263,122.03925 c -8.80158,-4.03754 -15.06718,-14.31933 -14.29905,-23.46459 0.26944,-3.20797 7.96015,-26.8851 20.35184,-62.65657 l 19.91874,-57.5 5.01423,-5.05536 c 8.20405,-8.27133 20.00767,-9.86175 29.94958,-4.0354 5.34519,3.13249 5.48088,3.32876 32.55525,47.09076 9.52757,15.4 17.63379,28.35897 18.01384,28.79771 0.38004,0.43873 5.55309,-13.28627 11.49567,-30.5 5.94258,-17.21374 11.85455,-33.40731 13.13772,-35.9857 4.00175,-8.04112 12.26441,-12.82733 22.08006,-12.79005 13.70859,0.0521 24.20747,10.51257 24.26016,24.17148 0.0228,5.90353 0.99343,2.9307 -31.66677,96.98545 -9.44903,27.21132 -11.13451,30.17763 -19.57837,34.45646 -4.3457,2.20213 -6.08427,2.51501 -12.2462,2.20385 -5.86699,-0.29627 -8.07884,-0.91724 -12.08409,-3.39256 -4.54394,-2.80825 -6.54868,-5.67778 -27.40261,-39.22348 -12.375,-19.90645 -22.73974,-36.20022 -23.03275,-36.20836 -0.29301,-0.008 -5.41629,14.0477 -11.38506,31.2352 -5.96877,17.1875 -11.6463,32.8309 -12.61672,34.76311 -4.26533,8.49268 -11.81789,12.94297 -21.96547,12.94297 -4.18511,0 -7.92455,-0.65348 -10.5,-1.83492 z m 214.66838,-0.72454 c -8.42067,-4.1962 -13.16838,-12.05164 -13.16838,-21.78808 0,-4.50088 3.50451,-15.57541 20.02419,-63.27806 14.70114,-42.45143 20.77739,-58.75386 22.85759,-61.32643 4.38703,-5.42541 12.10414,-9.00405 19.41669,-9.00405 7.48033,0 13.14943,2.53961 18.23513,8.16887 8.08003,8.94363 8.48325,16.017 1.9664,34.49551 -2.475,7.01786 -4.5,12.88932 -4.5,13.04768 0,0.15837 12.7322,0.28794 28.29379,0.28794 h 28.29378 l 5.87133,-17.25 c 3.22923,-9.4875 6.9454,-19.725 8.25816,-22.75 4.65841,-10.73437 12.17292,-15.93996 23.06506,-15.97804 7.31649,-0.0256 11.4183,1.45909 16.59952,6.00826 5.77908,5.07411 7.99127,10.21255 7.95154,18.46978 -0.0312,6.4758 -1.43823,11.00638 -18.78946,60.5 -10.31568,29.425 -19.1634,54.9052 -19.6616,56.62267 -1.28002,4.41268 -8.5647,12.32817 -13.34341,14.49886 -4.69501,2.13266 -12.98297,2.42005 -18.92269,0.65615 -6.2601,-1.85905 -13.10633,-9.21658 -15.16475,-16.29732 -2.05204,-7.05875 -1.61751,-10.11957 3.57396,-25.17542 2.18613,-6.33999 3.97477,-12.15223 3.97477,-12.9161 0,-1.1519 -4.7548,-1.38884 -27.87064,-1.38884 h -27.87064 l -6.78855,19.75 c -9.66562,28.12032 -11.10501,30.54294 -21.17051,35.63195 -5.13662,2.59701 -14.85149,2.14402 -21.13128,-0.98533 z m 215.26076,0.22261 c -6.3319,-2.94843 -11.02881,-8.51646 -13.07113,-15.49539 -2.02227,-6.91043 -1.47331,-10.20662 4.60053,-27.62384 7.46369,-21.40271 22.21661,-64.0491 28.65139,-82.8228 6.38909,-18.64043 9.62123,-23.67432 17.71706,-27.59345 5.83796,-2.8261 15.48436,-2.83758 21.29371,-0.0253 5.89772,2.85504 10.96517,8.80796 12.82286,15.06348 2.25335,7.58783 2.03379,9.37629 -2.94536,23.9927 -2.47599,7.26832 -4.38849,13.31631 -4.25,13.43998 0.13849,0.12365 17.1268,-10.54111 37.7518,-23.69949 45.41453,-28.97365 45.19768,-28.85512 52.78744,-28.85512 19.38599,0 30.61515,20.76608 19.87046,36.74643 -2.72351,4.05062 -7.17708,7.24539 -32.37623,23.22512 -16.07009,10.19065 -30.01142,19.02203 -30.98075,19.62529 -1.54831,0.9636 0.23965,3.18779 14.71834,18.30937 20.05815,20.94879 21.48874,23.12178 21.45808,32.59379 -0.0472,14.59257 -9.73464,24.42657 -24.11315,24.47804 -10.39534,0.0372 -12.85041,-1.89461 -43.81676,-34.47804 -15.15842,-15.95 -27.89527,-29.1069 -28.3041,-29.23756 -0.40883,-0.13066 -4.78884,11.51619 -9.73336,25.8819 -7.67399,22.29585 -9.5421,26.74664 -12.76126,30.4038 -7.54113,8.56717 -18.90553,10.92036 -29.31957,6.07109 z M -596.9018,-72.69074 c -0.33485,-0.33486 -0.6473,-26.65986 -0.69431,-58.5 l -0.0855,-57.89117 h 169.54291 169.54291 l -0.0468,57.0005 c -0.0258,31.35027 -0.30578,57.67527 -0.62225,58.5 -0.50827,1.32445 -20.21445,1.4995 -168.80179,1.4995 -92.52449,0 -168.50032,-0.27397 -168.83518,-0.60883 z"
   id="path1105" /><path
   style="fill:#f9f9f9;stroke-width:0.392247"
   d="m 15.711537,152.69926 v -2.94185 h 3.935076 c 2.41324,0 4.423214,-0.20437 5.197276,-0.52842 1.826516,-0.76465 4.130287,-3.4992 4.680234,-5.5554 l 0.471035,-1.76114 h 2.894981 2.89498 l -0.280771,1.66187 c -0.707296,4.18645 -2.883257,7.67214 -6.063214,9.71271 -2.827355,1.81431 -5.045384,2.35409 -9.673341,2.35409 h -4.056256 z m 25.103845,-10.98293 v -13.92479 h 2.941857 2.941857 v 13.92479 13.92479 h -2.941857 -2.941857 z m 19.643407,13.28029 c -5.86983,-2.05482 -9.44497,-7.08172 -9.44497,-13.28029 0,-5.59696 2.721868,-9.95914 7.76335,-12.44187 2.589129,-1.27504 2.673089,-1.28806 9.192251,-1.42441 l 6.579255,-0.13761 v 2.94694 2.94695 l -6.243295,0.13252 c -6.217134,0.13197 -6.250337,0.13748 -7.924199,1.3147 -3.983922,2.80187 -4.811841,8.12319 -1.827203,11.74407 2.070417,2.51178 3.556131,2.94126 10.209045,2.95117 l 5.785652,0.009 v 2.94186 2.94186 l -6.1779,-0.0188 c -4.527239,-0.0137 -6.641226,-0.18093 -7.911986,-0.62577 z M 87.1006,141.71633 v -13.92479 h 7.603781 c 9.348319,0 10.817379,0.35674 13.839359,3.36068 3.01681,2.99881 3.26846,4.18004 3.26846,15.34227 v 9.14663 h -2.94186 -2.94186 l -10e-4,-9.11976 c -0.001,-8.3532 -0.0658,-9.22531 -0.76715,-10.37552 -1.2663,-2.0768 -2.51613,-2.47059 -7.841348,-2.47059 h -4.726349 v 10.98293 10.98294 H 89.84652 87.100787 Z m 38.47129,13.28029 c -3.64646,-1.27649 -6.83454,-4.13639 -8.41048,-7.54469 -1.2495,-2.70229 -1.20333,-8.90192 0.0857,-11.50806 1.45841,-2.94858 3.7396,-5.23958 6.63784,-6.66637 2.33779,-1.1509 2.97487,-1.28868 5.96113,-1.28923 2.84073,-3.9e-4 3.69756,0.16454 5.69708,1.09749 6.24087,2.91189 9.51105,9.54456 7.87825,15.97891 -1.60543,6.32658 -7.17317,10.60908 -13.72624,10.55772 -1.31406,-0.0103 -3.16954,-0.2919 -4.12329,-0.62577 z m 8.67016,-6.43219 c 4.20141,-2.78454 4.97177,-8.463 1.64733,-12.14276 -3.6337,-4.02207 -9.83464,-3.47826 -12.74958,1.11813 -1.96503,3.09852 -1.38821,7.64182 1.28701,10.13718 2.46836,2.30241 7.05466,2.71708 9.81524,0.88745 z m 17.48038,6.26499 c -0.80954,-0.42736 -1.95687,-1.50949 -2.54961,-2.40474 l -1.07772,-1.62772 -0.12069,-14.05232 -0.12071,-14.05232 h 2.9645 2.96448 v 2.54961 2.54961 h 3.53023 3.53023 v 2.94186 2.94185 h -3.53023 -3.53023 v 7.1693 c 0,8.97366 -0.0282,8.91286 4.14084,8.91286 h 2.91962 v 2.94185 2.94186 l -3.82441,-0.0173 c -3.03172,-0.0137 -4.1295,-0.1784 -5.2963,-0.79437 z m 14.21993,-13.11309 v -13.92479 h 2.94186 c 2.82716,0 2.94186,0.036 2.94186,0.92261 0,1.31354 -1.53148,3.38437 -3.13186,4.23481 l -1.36676,0.72629 h 2.24931 2.24931 v 10.98293 10.98294 h -2.94186 -2.94186 z m 20.11683,13.35573 c -7.05624,-2.20524 -11.24428,-9.52783 -9.53187,-16.66598 0.68056,-2.83686 3.11283,-6.31011 5.59629,-7.99139 3.15174,-2.13371 5.41538,-2.62315 12.13178,-2.62315 h 5.81251 v 2.94186 2.94185 h -5.8067 c -5.47335,0 -5.92467,0.0588 -7.86187,1.02413 -1.59175,0.79322 -2.32092,1.47867 -3.23376,3.03993 -1.03334,1.76735 -1.16196,2.31691 -1.04368,4.45926 0.16612,3.00902 1.59551,5.28119 4.18098,6.64616 1.59227,0.84063 2.20384,0.91268 7.74689,0.91268 h 6.01814 v 2.94185 2.94186 l -6.1779,-0.0262 c -3.93993,-0.0168 -6.77667,-0.21337 -7.83081,-0.54282 z m 19.10793,-13.35573 v -13.92479 h 2.94186 2.94186 v 13.92479 13.92479 h -2.94186 -2.94186 z m 19.64341,13.28029 c -3.64646,-1.27649 -6.83454,-4.13639 -8.41049,-7.54469 -1.24949,-2.70229 -1.20331,-8.90192 0.0857,-11.50806 1.458,-2.94776 3.73969,-5.23954 6.63763,-6.66699 l 2.61731,-1.28922 7.7566,-0.13353 7.7566,-0.13353 v 13.96026 13.96026 l -7.35464,-0.0187 c -5.59079,-0.0142 -7.77053,-0.16431 -9.08873,-0.62577 z m 10.55966,-13.32263 v -8.08341 l -4.47963,0.14221 c -4.24724,0.13482 -4.56773,0.20406 -6.1779,1.33455 -5.2401,3.67907 -4.54218,11.55497 1.24638,14.06522 0.91886,0.39847 2.69418,0.59919 5.39061,0.60949 l 4.02054,0.0153 z m 10.98293,11.0656 v -2.98218 l 3.82441,-0.009 c 2.86881,-0.006 4.22339,-0.18982 5.42115,-0.73383 2.03125,-0.92257 3.89914,-3.18073 4.45411,-5.38473 l 0.43254,-1.71778 h 2.87762 2.87764 l -0.30709,1.94266 c -0.69801,4.41548 -3.75719,8.54948 -7.76338,10.49095 -1.95277,0.94634 -2.76032,1.08715 -7.01197,1.22262 l -4.80503,0.15311 z M 15.711537,140.77702 c 0,-0.40874 0.371444,-1.94577 0.825435,-3.41562 0.711024,-2.30201 1.189039,-3.03604 3.448711,-5.29571 3.344845,-3.34486 5.921164,-4.27415 11.849322,-4.27415 h 3.881159 v 2.94186 2.94185 l -3.824414,0.009 c -4.472888,0.0101 -6.269507,0.64042 -8.247977,2.89376 -0.703371,0.80109 -1.48864,2.2409 -1.745046,3.19956 l -0.466185,1.74302 h -2.860503 c -2.545994,0 -2.860502,-0.0817 -2.860502,-0.74318 z M 246.4975,139.68883 c 0.60197,-4.39183 3.65306,-8.46539 7.89504,-10.5408 2.0777,-1.01652 2.7929,-1.14583 7.13715,-1.29046 l 4.82805,-0.16074 v 2.98921 2.98921 h -3.84546 c -3.35805,0 -4.10566,0.12966 -5.89838,1.02302 -2.32422,1.15821 -3.87894,3.12052 -4.23953,5.35101 l -0.23781,1.47093 h -2.94503 -2.94504 z m 22.2447,-10.55712 c 0.0188,-0.45694 0.11176,-0.54989 0.23698,-0.23698 0.11331,0.28316 0.0994,0.62147 -0.0309,0.75181 -0.13033,0.13034 -0.22304,-0.10133 -0.20601,-0.51483 z"
   id="path1" /></svg>
