<?xml version="1.0" encoding="UTF-8" standalone="no"?>
<!-- Generator: Adobe Illustrator 16.0.0, SVG Export Plug-In . SVG Version: 6.00 Build 0)  -->

<svg
   version="1.1"
   id="Layer_1"
   x="0px"
   y="0px"
   width="280px"
   height="280px"
   viewBox="0 0 280 280"
   enable-background="new 0 0 280 280"
   xml:space="preserve"
   sodipodi:docname="tvi.svg"
   inkscape:version="1.4 (e7c3feb100, 2024-10-09)"
   xmlns:inkscape="http://www.inkscape.org/namespaces/inkscape"
   xmlns:sodipodi="http://sodipodi.sourceforge.net/DTD/sodipodi-0.dtd"
   xmlns="http://www.w3.org/2000/svg"
   xmlns:svg="http://www.w3.org/2000/svg"><defs
   id="defs216276">
	
	
	
</defs><sodipodi:namedview
   id="namedview216274"
   pagecolor="#ffffff"
   bordercolor="#666666"
   borderopacity="1.0"
   inkscape:pageshadow="2"
   inkscape:pageopacity="0.0"
   inkscape:pagecheckerboard="0"
   showgrid="false"
   inkscape:zoom="2.1011173"
   inkscape:cx="94.473545"
   inkscape:cy="139.44962"
   inkscape:window-width="1600"
   inkscape:window-height="824"
   inkscape:window-x="0"
   inkscape:window-y="0"
   inkscape:window-maximized="1"
   inkscape:current-layer="layer1"
   inkscape:showpageshadow="2"
   inkscape:deskcolor="#d1d1d1" />
<g
   inkscape:groupmode="layer"
   id="layer2"
   inkscape:label="BG" />
<g
   inkscape:groupmode="layer"
   id="layer1"
   inkscape:label="Logo"><rect
     style="fill:#1a1a1a;stroke-width:6.83112"
     id="rect1"
     width="280"
     height="280"
     x="0"
     y="0" /><path
     style="fill:#f9f9f9;stroke-width:1.18492"
     d="M 74.589945,218.7061 C 65.959294,218.00599 60.43382,216.3306 54.134758,212.50386 43.978659,206.33393 39.09509,197.80114 36.91543,182.41745 c -0.396559,-2.79884 -0.473288,-6.67708 -0.568105,-28.71429 l -0.109628,-25.4784 H 28.916285 21.594868 V 112.05447 95.884167 h 7.334765 7.334766 l 0.07095,-11.2105 0.07095,-11.210496 20.518607,-5.62887 c 11.285234,-3.095876 20.91607,-5.708283 21.401858,-5.805352 l 0.88325,-0.176469 v 17.015837 17.01585 h 28.909556 28.90959 l 2.20413,8.764573 c 1.21227,4.82051 4.45985,17.6922 7.21686,28.60376 5.13544,20.3249 6.55912,26.64458 8.1427,36.14535 0.63606,3.81612 1.01129,5.4354 1.25949,5.4354 0.25156,0 0.7279,-2.23403 1.65147,-7.74544 0.71386,-4.25999 1.62098,-9.27413 2.01581,-11.14256 0.68744,-3.25318 13.58636,-58.602923 13.88603,-59.585483 0.13728,-0.45017 2.30888,-0.4756 40.6204,-0.4756 h 40.47536 v 60.196973 60.19697 H 232.62396 210.7465 l -0.0393,-15.55881 c -0.0217,-8.55734 -0.1134,-29.95915 -0.20383,-47.55958 l -0.16443,-32.00078 -7.31424,20.17879 c -9.09861,25.10167 -12.14837,33.63368 -20.27868,56.73182 l -6.45706,18.34445 h -21.9372 -21.93721 l -2.7901,-7.88132 c -3.17114,-8.95761 -6.1875,-17.18832 -7.46981,-20.38272 -0.48002,-1.19579 -5.47964,-15.13757 -11.11026,-30.98174 l -10.2375,-28.80757 -10.7984,-0.0711 -10.798378,-0.0711 v 19.37384 c 0,19.91688 0.10067,22.27064 1.112426,26.00974 0.73823,2.72824 1.703621,4.41523 3.429094,5.99221 1.788713,1.63479 3.639125,2.34971 7.086598,2.73795 3.51138,0.39544 9.6989,0.0225 12.08584,-0.72833 0.4527,-0.14242 0.474,0.73448 0.40765,16.78636 l -0.07,16.93663 -1.89993,0.63451 c -2.718673,0.90794 -7.09757,1.85513 -10.87325,2.35197 -4.075153,0.53626 -11.782141,0.72662 -15.898515,0.3927 z M 225.81349,82.719427 c -9.04892,-2.33967 -14.8966,-9.317386 -15.51941,-18.518468 -0.31144,-4.601312 0.96221,-9.755671 3.26698,-13.221027 1.68226,-2.52938 4.75959,-5.198556 7.61238,-6.602729 4.00562,-1.971593 6.01275,-2.390638 11.45054,-2.390638 3.89581,0 4.95861,0.09242 6.77957,0.58965 7.64271,2.086873 12.89611,7.249562 14.85302,14.596548 0.43162,1.620466 0.57958,3.005052 0.59369,5.555512 0.0225,4.074356 -0.38441,5.894327 -2.09885,9.386391 -2.60877,5.313711 -7.37365,9.014791 -13.65836,10.609041 -3.67587,0.93245 -9.6641,0.93053 -13.27956,-0.005 z"
     id="path1" /></g></svg>
