<?xml version="1.0" encoding="UTF-8" standalone="no"?>
<!-- Generator: Adobe Illustrator 16.0.0, SVG Export Plug-In . SVG Version: 6.00 Build 0)  -->

<svg
   version="1.1"
   id="Layer_1"
   x="0px"
   y="0px"
   width="280px"
   height="280px"
   viewBox="0 0 280 280"
   enable-background="new 0 0 280 280"
   xml:space="preserve"
   sodipodi:docname="tvificao.svg"
   inkscape:version="1.4 (e7c3feb100, 2024-10-09)"
   xmlns:inkscape="http://www.inkscape.org/namespaces/inkscape"
   xmlns:sodipodi="http://sodipodi.sourceforge.net/DTD/sodipodi-0.dtd"
   xmlns="http://www.w3.org/2000/svg"
   xmlns:svg="http://www.w3.org/2000/svg"><defs
   id="defs5011" /><sodipodi:namedview
   id="namedview5009"
   pagecolor="#ffffff"
   bordercolor="#000000"
   borderopacity="0.25"
   inkscape:showpageshadow="2"
   inkscape:pageopacity="0.0"
   inkscape:pagecheckerboard="0"
   inkscape:deskcolor="#d1d1d1"
   showgrid="false"
   inkscape:zoom="0.5221226"
   inkscape:cx="-79.483248"
   inkscape:cy="279.62781"
   inkscape:window-width="1600"
   inkscape:window-height="824"
   inkscape:window-x="0"
   inkscape:window-y="0"
   inkscape:window-maximized="1"
   inkscape:current-layer="Layer_1"
   inkscape:pageshadow="2"
   showguides="false" />
<rect
   y="0.023242312"
   fill-rule="evenodd"
   clip-rule="evenodd"
   fill="#164E86"
   width="280"
   height="280"
   id="rect4994-7"
   style="fill:#ef5ca0;fill-opacity:1;stroke:none;stroke-width:0.999999;stroke-opacity:1"
   x="0" />

<path
   style="fill:#f9f9f9;stroke-width:0.365401"
   d="m 175.29277,187.59253 c -2.14537,-0.76472 -2.19774,-0.9158 -1.32885,-3.83336 0.64295,-2.15895 0.89423,-2.5896 1.39812,-2.39624 0.33787,0.12966 1.38901,0.40188 2.33588,0.60494 2.07963,0.44601 3.6962,-0.15006 3.87864,-1.43015 0.0947,-0.6647 -0.18905,-0.96401 -1.4616,-1.54151 -0.86855,-0.39416 -1.99025,-0.72277 -2.49267,-0.73026 -1.96107,-0.0292 -2.0587,-0.4576 -0.76448,-3.35399 0.65805,-1.47266 1.27742,-2.87307 1.3764,-3.11201 0.11083,-0.26755 -0.42833,-0.58824 -1.40354,-0.83481 -3.32764,-0.84135 -6.10842,-2.27622 -8.35986,-4.31366 -1.44777,-1.31015 -2.19644,-1.79736 -2.06317,-1.34262 0.11503,0.39254 0.31892,1.64945 0.453,2.79312 l 0.24381,2.07939 -2.14046,0.64747 c -3.14358,0.9509 -12.59975,0.94314 -15.66028,-0.0128 -3.33549,-1.04188 -5.58789,-2.30521 -7.74168,-4.34217 -2.2063,-2.08662 -3.152,-3.48057 -4.36978,-6.44093 l -0.84293,-2.04912 -0.009,6.48586 -0.009,6.48587 h -7.12533 -7.12532 v -19.18356 -19.18355 h 7.12532 7.12533 l 0.0155,6.85127 0.0155,6.85127 0.86167,-2.07368 c 3.32134,-7.99309 10.82173,-12.3729 21.155,-12.35332 2.94684,0.005 8.06687,0.75419 8.56497,1.25231 0.0981,0.0981 -0.09,1.64633 -0.41827,3.44035 -0.32822,1.79403 -0.59677,3.36581 -0.59677,3.49286 0,0.12703 0.94547,-0.7261 2.10106,-1.89587 2.51132,-2.54213 4.49314,-3.74174 8.35302,-5.05611 3.90757,-1.33061 11.05529,-1.62861 14.9413,-0.62293 2.28709,0.59189 2.54571,0.74897 2.44348,1.4841 -0.14179,1.01973 -0.15789,1.02027 2.93408,-0.0951 7.02959,-2.53571 16.43048,-2.69084 21.70507,-0.35817 3.98832,1.76383 7.46809,6.32933 8.04782,10.55881 0.21241,1.54983 0.86155,2.39581 0.86155,1.12283 0,-1.42549 2.4962,-5.59312 4.5914,-7.66573 3.7381,-3.69778 7.64065,-5.24085 14.04405,-5.55307 4.8035,-0.23421 7.43855,0.26014 11.22655,2.10611 7.9451,3.8718 11.77432,13.61888 9.24126,23.52308 -0.93402,3.65199 -2.38251,6.14876 -5.03489,8.67872 -3.70253,3.5316 -7.47848,5.01703 -13.50035,5.31092 -6.32255,0.30856 -9.73437,-0.597 -14.22796,-3.77633 -2.5452,-1.8008 -4.5728,-4.35445 -5.86769,-7.39003 l -0.88366,-2.07153 0.17739,6.30317 0.1774,6.30315 h -6.34389 -6.34387 l -0.24629,-1.64238 -0.24629,-1.64236 -1.39135,1.10197 c -2.43364,1.92747 -4.59112,2.67063 -8.24793,2.84106 -4.083,0.1903 -6.67958,-0.47668 -9.12621,-2.34423 l -1.72124,-1.31385 0.22474,1.12369 c 0.21784,1.08918 0.16746,1.14071 -1.6399,1.67745 -1.02556,0.30455 -2.8946,0.65925 -4.15341,0.78823 -1.95042,0.19982 -2.34831,0.36518 -2.69158,1.11856 -0.53182,1.1672 -0.50817,1.58048 0.0905,1.58048 0.86788,0 3.47878,2.13727 4.12014,3.37275 0.80298,1.54681 0.80995,4.8487 0.0135,6.38283 -0.72854,1.40329 -2.65801,2.93856 -4.53482,3.60832 -1.81308,0.64703 -7.89817,0.63735 -9.72962,-0.0155 z m 35.03665,-26.29817 c 1.84857,-0.77239 2.73375,-2.46448 2.7354,-5.22897 l 0.001,-2.28375 -1.73566,0.003 c -2.45689,0.003 -4.24146,0.58173 -5.5436,1.79811 -0.92849,0.86732 -1.12294,1.3284 -1.11334,2.63991 0.0226,3.08624 2.45742,4.40903 5.65582,3.07265 z m 39.29649,-0.58407 c 0.53774,-0.3829 1.36873,-1.5641 1.84664,-2.62486 0.75888,-1.68439 0.86927,-2.48407 0.8716,-6.31349 0.003,-4.05636 -0.0733,-4.53951 -1.01151,-6.44994 -1.22352,-2.49149 -2.33341,-3.29409 -4.55526,-3.29409 -1.98304,0 -3.22182,0.80146 -4.36856,2.82635 -2.39877,4.23566 -1.67593,12.95026 1.2972,15.63904 1.56112,1.41182 4.11066,1.50528 5.91989,0.21699 z m -86.16657,-0.68548 c 0.14871,-0.13381 0.009,-1.46992 -0.31037,-2.96917 -0.72433,-3.39977 -0.5032,-8.44402 0.50049,-11.41708 0.48366,-1.43261 0.58718,-2.18791 0.32234,-2.35159 -0.72157,-0.44596 -6.24964,-0.55099 -7.74487,-0.14714 -1.98514,0.53616 -4.3169,2.59819 -5.10334,4.513 -0.80358,1.95648 -0.79995,5.89775 0.008,7.82997 1.15239,2.75873 3.3755,4.41161 6.56302,4.87963 1.91754,0.28155 5.29731,0.0837 5.76553,-0.33762 z m 25.56098,0.46829 c 1.32972,-0.21985 1.35326,-0.2533 1.60407,-2.27973 0.5094,-4.1157 2.06655,-6.85718 5.16446,-9.09238 3.32062,-2.39589 6.88249,-3.53762 12.87662,-4.12747 2.10144,-0.20679 3.88239,-0.43758 3.95767,-0.51286 0.38005,-0.38005 -0.86804,-1.78813 -2.00669,-2.26388 -2.73656,-1.14341 -10.1025,-0.30673 -13.7063,1.55688 -0.59716,0.30879 -1.1362,0.50821 -1.19789,0.44315 -0.0617,-0.0651 -0.59876,-1.92703 -1.19349,-4.13771 l -1.08132,-4.0194 -0.66752,3.7702 c -0.62206,3.51346 -0.71888,3.75379 -1.42172,3.5292 -0.4148,-0.13256 -2.19813,-0.32852 -3.96297,-0.4355 -3.98907,-0.24177 -5.79868,0.36019 -7.88412,2.62261 -1.76737,1.91738 -2.39016,3.95286 -2.14687,7.0167 0.45719,5.75752 5.221,8.99579 11.66607,7.93019 z M 28.147453,171.21025 c -3.819512,-1.0838 -6.291198,-3.2967 -7.781146,-6.96646 -0.690714,-1.70123 -0.773189,-2.76519 -0.888908,-11.467 l -0.127554,-9.59178 H 17.00164 14.65343 v -5.29831 -5.29832 h 2.375107 2.375106 v -3.5741 -3.5741 l 6.310184,-1.72422 c 3.470601,-0.94831 6.594779,-1.72421 6.942619,-1.72421 0.570571,0 0.632436,0.51829 0.632436,5.29832 v 5.29831 h 9.09606 9.096059 l 2.589637,10.50528 c 1.424301,5.7779 2.720985,11.32744 2.881524,12.33229 l 0.291889,1.827 1.020843,-4.93291 c 0.561467,-2.7131 1.795972,-8.22153 2.743344,-12.24094 l 1.722492,-7.30802 13.049557,-0.096 13.04955,-0.096 v 19.18818 19.18817 H 81.708662 74.58749 l -0.0955,-14.5661 -0.0955,-14.56609 -5.298314,14.56342 -5.298315,14.56342 -7.12532,-0.001 -7.12532,-0.001 -4.913898,-13.88158 -4.913894,-13.88113 h -3.216278 -3.216275 v 6.77166 c 0,7.65453 0.271591,8.87576 2.146611,9.65241 0.687816,0.28492 2.010611,0.40939 3.333557,0.3137 l 2.193254,-0.15865 v 5.37724 5.37723 l -1.187553,0.43869 c -1.773701,0.6552 -9.608941,0.82566 -11.627298,0.25295 z m 70.06866,-0.4907 c -0.13819,-0.1382 -0.25125,-6.39 -0.25125,-13.8929 v -13.64164 h -2.37511 -2.375104 v -5.29831 -5.29832 h 2.346024 2.34602 l 0.25752,-2.46645 c 0.72437,-6.93776 3.511077,-11.23604 8.897357,-13.72345 2.0284,-0.93673 2.98141,-1.14003 5.97369,-1.27434 1.95814,-0.0879 4.46571,-0.0467 5.57237,0.0916 l 2.0121,0.25139 v 5.43077 5.43077 l -2.68958,-0.0514 c -1.94072,-0.0371 -2.94287,0.11453 -3.59938,0.54469 -1.16288,0.76195 -2.11527,2.76618 -2.11527,4.45145 v 1.31504 h 3.47131 3.47131 v 5.2983 5.29832 h -3.28421 -3.28422 l -0.0957,13.79389 -0.0957,13.79389 -6.96542,0.099 c -3.83098,0.0545 -7.078487,-0.0141 -7.216667,-0.15225 z M 78.932429,128.60706 c -2.793845,-0.91145 -4.353231,-3.20729 -4.353231,-6.40915 0,-2.35811 0.58978,-3.73448 2.17,-5.06415 2.453556,-2.06453 6.454174,-2.27263 9.167732,-0.47688 4.036918,2.67151 3.7675,9.22146 -0.469431,11.41246 -1.318313,0.68173 -5.113501,0.99496 -6.51507,0.53772 z m 46.985601,-0.36331 c -2.62057,-1.20947 -3.8367,-3.13327 -3.8367,-6.0693 0,-0.8782 0.17538,-2.05962 0.38974,-2.62537 2.06029,-5.4377 11.41087,-5.4377 13.47115,0 0.55023,1.4522 0.48383,4.49054 -0.12366,5.65808 -1.69537,3.25846 -6.33593,4.68176 -9.90055,3.03659 z m 71.43591,-2.16626 c 0,-2.69364 0.84242,-5.55507 2.06224,-7.00474 2.30456,-2.73881 5.41357,-2.96102 9.95517,-0.71152 1.64907,0.81681 3.27496,1.43182 3.61307,1.36671 0.53183,-0.10242 0.87017,-0.76998 1.39907,-2.76045 0.0852,-0.32078 1.0609,-0.45675 3.27743,-0.45675 h 3.15606 l -0.13308,2.83185 c -0.35282,7.5076 -5.28729,10.1249 -12.27304,6.50978 -3.11754,-1.61334 -3.96736,-1.43693 -4.34123,0.90113 l -0.23187,1.45007 h -3.24191 -3.24191 z"
   id="path1" /></svg>
