<?xml version="1.0" encoding="UTF-8" standalone="no"?>
<!-- Generator: Adobe Illustrator 16.0.0, SVG Export Plug-In . SVG Version: 6.00 Build 0)  -->

<svg
   version="1.1"
   id="Layer_1"
   x="0px"
   y="0px"
   width="280px"
   height="280px"
   viewBox="0 0 280 280"
   enable-background="new 0 0 280 280"
   xml:space="preserve"
   sodipodi:docname="tviv.svg"
   inkscape:version="1.4 (e7c3feb100, 2024-10-09)"
   xmlns:inkscape="http://www.inkscape.org/namespaces/inkscape"
   xmlns:sodipodi="http://sodipodi.sourceforge.net/DTD/sodipodi-0.dtd"
   xmlns="http://www.w3.org/2000/svg"
   xmlns:svg="http://www.w3.org/2000/svg"><defs
   id="defs9" /><sodipodi:namedview
   id="namedview9"
   pagecolor="#ffffff"
   bordercolor="#000000"
   borderopacity="0.25"
   inkscape:showpageshadow="2"
   inkscape:pageopacity="0.0"
   inkscape:pagecheckerboard="0"
   inkscape:deskcolor="#d1d1d1"
   inkscape:zoom="2.2214286"
   inkscape:cx="156.65595"
   inkscape:cy="164.0836"
   inkscape:window-width="1600"
   inkscape:window-height="833"
   inkscape:window-x="0"
   inkscape:window-y="0"
   inkscape:window-maximized="1"
   inkscape:current-layer="Layer_1" />
<rect
   y="-0.042"
   fill-rule="evenodd"
   clip-rule="evenodd"
   fill="#58489D"
   width="280"
   height="280"
   id="rect1"
   style="fill:#7749f5;fill-opacity:1" />

<path
   style="fill:#f9f9f9;stroke-width:0.705616"
   d="M 47.437808,139.73019 C 29.512747,111.36847 15.036706,87.856141 15.268825,87.480566 c 0.254537,-0.411852 6.971037,-0.655315 16.923462,-0.613452 14.379625,0.06048 16.630369,0.218617 17.504189,1.229802 0.551524,0.638215 11.518757,18.069924 24.371635,38.737124 l 23.368864,37.57673 -8.173751,12.87478 c -4.495562,7.08113 -8.412398,13.13051 -8.704071,13.44309 -0.29168,0.31257 -15.196284,-22.63673 -33.121345,-50.99845 z m 125.528222,45.32139 v -6.16717 l 12.87034,-12.88445 12.87033,-12.88445 h -37.87804 c -20.83292,0 -38.01359,-0.23815 -38.17927,-0.52921 -0.16568,-0.29107 3.48859,-6.48285 8.1206,-13.75951 l 8.42184,-13.23029 h 16.87576 16.87577 l 0.18774,-19.22801 0.18774,-19.22803 13.23029,-0.191974 13.23029,-0.191973 v 19.419997 19.41999 h 19.41967 19.41966 l -0.19164,13.5831 -0.19164,13.5831 -19.22802,0.18775 -19.22803,0.18774 v 19.04028 19.04027 h -13.40669 -13.4067 z m 40.9257,-38.20431 c 0,-1.44113 -0.41161,-2.14219 -1.41123,-2.40359 -1.15285,-0.30148 -1.41123,-0.96248 -1.41123,-3.61038 0,-2.28273 0.28748,-3.24133 0.97203,-3.24133 1.44433,0 2.20243,1.25876 3.93089,6.52694 1.55865,4.75063 1.56947,4.7629 4.19712,4.7629 2.61964,0 2.64369,-0.0267 4.2783,-4.7629 0.90412,-2.6196 1.91543,-5.06456 2.24734,-5.43324 0.34002,-0.37768 0.60348,1.70166 0.60348,4.76291 v 5.43323 h 2.46965 2.46966 v -7.4412 -7.4412 l -4.72955,0.20864 -4.72956,0.20865 -1.14576,4.5865 c -0.79027,3.16353 -1.26978,4.14866 -1.54554,3.17527 -0.21987,-0.77618 -0.79252,-2.91949 -1.27254,-4.76291 l -0.87277,-3.35167 h -3.43637 c -3.19506,0 -3.43638,-0.12388 -3.43638,-1.76404 0,-1.26856 -0.38017,-1.76404 -1.35352,-1.76404 -2.11644,0 -3.58579,0.76286 -3.58579,1.86168 0,0.5528 -0.47629,1.18785 -1.05842,1.41123 -0.58213,0.22339 -1.05842,1.13203 -1.05842,2.01921 0,0.88718 0.47629,1.79582 1.05842,2.01921 0.76961,0.29533 1.05842,1.50417 1.05842,4.43003 0,5.00303 1.2243,6.60464 5.04867,6.60464 2.51976,0 2.7131,-0.14498 2.7131,-2.03454 z m 18.21243,-17.24122 c -0.16943,-1.19007 -0.69792,-1.53989 -2.32641,-1.53989 -2.5018,0 -3.35163,2.20355 -1.40015,3.6305 1.71854,1.25663 4.01932,-0.0342 3.72656,-2.09061 z M 104.89895,145.39303 C 96.54006,132.1517 90.412932,121.89381 90.432047,121.17289 c 0.01263,-0.47768 4.710323,-8.33039 10.439253,-17.45046 l 10.41624,-16.58197 16.85499,-0.189477 c 9.27024,-0.104213 17.08056,0.05455 17.35626,0.352808 0.52849,0.571734 -37.42702,60.854709 -38.32254,60.865899 -0.2862,0.004 -1.31099,-1.24592 -2.2773,-2.77666 z"
   id="path1" /></svg>
