<?xml version="1.0" encoding="UTF-8" standalone="no"?>
<!-- Generator: Adobe Illustrator 16.0.0, SVG Export Plug-In . SVG Version: 6.00 Build 0)  -->

<svg
   version="1.1"
   id="Layer_1"
   x="0px"
   y="0px"
   width="280px"
   height="280px"
   viewBox="0 0 280 280"
   enable-background="new 0 0 280 280"
   xml:space="preserve"
   sodipodi:docname="tvpworld.svg"
   inkscape:version="1.4 (e7c3feb100, 2024-10-09)"
   xmlns:inkscape="http://www.inkscape.org/namespaces/inkscape"
   xmlns:sodipodi="http://sodipodi.sourceforge.net/DTD/sodipodi-0.dtd"
   xmlns="http://www.w3.org/2000/svg"
   xmlns:svg="http://www.w3.org/2000/svg"><defs
   id="defs216276">
	
	
	
</defs><sodipodi:namedview
   id="namedview216274"
   pagecolor="#ffffff"
   bordercolor="#666666"
   borderopacity="1.0"
   inkscape:pageshadow="2"
   inkscape:pageopacity="0.0"
   inkscape:pagecheckerboard="0"
   showgrid="false"
   inkscape:zoom="0.74285714"
   inkscape:cx="137.30769"
   inkscape:cy="152.11539"
   inkscape:window-width="1600"
   inkscape:window-height="824"
   inkscape:window-x="0"
   inkscape:window-y="0"
   inkscape:window-maximized="1"
   inkscape:current-layer="layer1"
   inkscape:showpageshadow="2"
   inkscape:deskcolor="#d1d1d1" />
<g
   inkscape:groupmode="layer"
   id="layer2"
   inkscape:label="BG" />
<g
   inkscape:groupmode="layer"
   id="layer1"
   inkscape:label="Logo"><rect
     style="fill:#2f4157;fill-opacity:0.98039216;stroke-width:4.52076"
     id="rect1"
     width="280"
     height="280"
     x="0"
     y="0" /><path
     style="fill:#ffffff;stroke-width:1.59022;fill-opacity:0.86666667"
     d="m 156.87145,164.54063 c -2.32409,-2.32408 1.14505,-5.4103 6.08159,-5.4103 7.82322,0 12.93791,-2.92491 15.85153,-9.06489 2.98975,-6.30046 1.48792,-12.90086 -4.34919,-19.11417 -2.46589,-2.62483 -2.95742,-4.15546 -1.72894,-5.38394 5.12897,-5.12897 15.98342,11.54098 14.08923,21.63784 -1.20708,6.43429 -6.04088,12.80295 -12.09274,15.93248 -4.50699,2.33066 -16.01905,3.23542 -17.85148,1.40298 z M 12.581891,144.02324 V 125.7357 h 42.140842 42.140843 v 18.28754 18.28753 H 54.722733 12.581891 Z m 27.033748,0 V 127.32592 H 26.893875 14.172111 v 16.69732 16.69731 h 12.721764 12.721764 z m -14.311984,3.03156 c 0,-7.5577 -0.47818,-9.02013 -3.180441,-9.72679 -1.749243,-0.45744 -3.180441,-1.82164 -3.180441,-3.03156 0,-1.60635 2.35968,-2.19987 8.746212,-2.19987 6.714261,0 8.746213,0.55418 8.746213,2.38533 0,1.32518 -1.413531,2.38533 -3.180441,2.38533 -2.827062,0 -3.180441,1.06016 -3.180441,9.54133 0,7.42103 -0.530068,9.54132 -2.385331,9.54132 -1.836005,0 -2.38533,-2.04849 -2.38533,-8.89509 z m 42.935952,-3.03156 V 127.32592 H 55.517844 42.79608 v 16.69732 16.69731 h 12.721764 12.721763 z m -18.245044,1.98777 c -2.391835,-5.46638 -4.708723,-10.83337 -5.148657,-11.92665 -0.439935,-1.09328 0.332992,-1.98778 1.717597,-1.98778 1.384621,0 3.911465,2.6835 5.615243,5.96333 l 3.097766,5.96333 2.527337,-5.96333 c 2.699161,-6.36875 8.336143,-8.69342 6.416842,-2.64627 -1.373776,4.32841 -8.797815,20.53625 -9.406663,20.53625 -0.258872,0 -2.427631,-4.47249 -4.819465,-9.93888 z m 45.278792,-1.98777 V 127.32592 H 82.551592 69.829828 v 16.69732 16.69731 h 12.721764 12.721763 z m -20.344978,0.39755 c 0.448442,-11.06582 0.631938,-11.54826 4.566366,-12.00584 2.271152,-0.26414 5.746516,0.85722 7.793273,2.51458 5.075395,4.10981 3.414982,11.02031 -3.202164,13.32705 -2.997709,1.04501 -4.714701,2.74515 -4.714701,4.66844 0,1.66677 -1.10223,3.02487 -2.454999,3.02487 -2.030393,0 -2.374183,-1.99399 -1.987775,-11.5291 z m 10.803656,-3.65428 c 0,-2.98785 -3.137569,-4.57823 -5.120383,-2.59541 -2.374708,2.37471 -0.285731,6.79127 2.674862,5.65519 1.34504,-0.51614 2.445521,-1.89303 2.445521,-3.05978 z m 33.020797,11.86426 c -1.34168,-3.85952 -3.94279,-10.77421 -5.78026,-15.36597 l -3.34083,-8.34866 h 3.88852 c 3.15883,0 4.24614,1.19364 5.79429,6.36088 1.04816,3.49849 2.45986,6.36089 3.1371,6.36089 1.9368,0 3.35392,-6.03414 2.24078,-9.54133 -0.78309,-2.4673 -0.28576,-3.18044 2.21799,-3.18044 2.2655,0 4.12305,2.01438 6.23229,6.75844 l 3.00483,6.75844 2.0777,-6.75844 c 1.62867,-5.29777 2.84074,-6.75844 5.60822,-6.75844 3.49759,0 3.47747,0.14249 -2.1558,15.27547 l -5.68631,15.27547 -3.39966,-7.72192 -3.39965,-7.72192 -3.99988,7.81242 -3.9999,7.81242 z m 33.88388,0.71933 c -5.13687,-6.53048 -4.35679,-14.14975 2.11089,-20.61743 5.21028,-5.21028 9.12674,-6.44238 14.24054,-4.48003 3.81772,1.46499 1.13802,5.43416 -3.66875,5.43416 -8.38029,0 -12.88543,11.2458 -7.07655,17.66457 2.44869,2.70576 1.92566,6.18874 -0.92932,6.18874 -0.75953,0 -2.86409,-1.88551 -4.67681,-4.19001 z m 38.04987,-10.12197 v -14.31199 h 7.70464 c 11.25159,0 16.38401,7.29538 11.09291,15.76779 -1.50097,2.40344 -1.34225,3.81645 0.79511,7.07846 3.46237,5.28426 3.38019,5.77772 -0.96225,5.77772 -2.35466,0 -4.62998,-1.68827 -6.46737,-4.79871 -3.17227,-5.37022 -5.80216,-4.95459 -5.80216,0.91701 0,2.82155 -0.86862,3.8817 -3.18044,3.8817 -2.94485,0 -3.18044,-1.06015 -3.18044,-14.31198 z m 13.51688,-4.77066 c 0,-1.31194 -1.6101,-2.61401 -3.578,-2.89349 -2.75377,-0.3911 -3.578,0.27544 -3.578,2.89349 0,2.61804 0.82423,3.28458 3.578,2.89348 1.9679,-0.27948 3.578,-1.58155 3.578,-2.89348 z m 13.51687,4.77066 c 0,-13.25184 0.23559,-14.31199 3.18044,-14.31199 2.87754,0 3.18044,1.06015 3.18044,11.13155 v 11.13154 h 6.19075 c 3.84408,0 6.5151,0.84525 7.04642,2.22985 1.32954,3.46471 -0.33534,4.13103 -10.32177,4.13103 h -9.27628 z m 25.44353,0 v -14.31199 h 8.02338 c 6.39836,0 8.81394,0.79055 11.92665,3.90328 3.88268,3.88266 5.17132,11.61479 2.91546,17.49346 -1.47684,3.84855 -9.15571,7.22723 -16.42564,7.22723 h -6.43985 z m 14.9935,5.45218 c 5.17569,-5.17568 2.12172,-13.40329 -4.97511,-13.40329 -3.32886,0 -3.65751,0.71446 -3.65751,7.95111 0,6.7928 0.44677,7.9511 3.06685,7.9511 1.68678,0 4.19138,-1.12451 5.56577,-2.49892 z"
     id="path381" /></g></svg>
