<?xml version="1.0" encoding="UTF-8" standalone="no"?>
<!-- Generator: Adobe Illustrator 16.0.0, SVG Export Plug-In . SVG Version: 6.00 Build 0)  -->

<svg
   version="1.1"
   id="Layer_1"
   x="0px"
   y="0px"
   width="280px"
   height="280px"
   viewBox="0 0 280 280"
   enable-background="new 0 0 280 280"
   xml:space="preserve"
   sodipodi:docname="kbsworld.svg"
   inkscape:version="1.1.2 (0a00cf5339, 2022-02-04)"
   xmlns:inkscape="http://www.inkscape.org/namespaces/inkscape"
   xmlns:sodipodi="http://sodipodi.sourceforge.net/DTD/sodipodi-0.dtd"
   xmlns="http://www.w3.org/2000/svg"
   xmlns:svg="http://www.w3.org/2000/svg"><defs
   id="defs216276">
	
	
	
</defs><sodipodi:namedview
   id="namedview216274"
   pagecolor="#ffffff"
   bordercolor="#666666"
   borderopacity="1.0"
   inkscape:pageshadow="2"
   inkscape:pageopacity="0.0"
   inkscape:pagecheckerboard="0"
   showgrid="false"
   inkscape:zoom="2.1011173"
   inkscape:cx="164.91226"
   inkscape:cy="148.01649"
   inkscape:window-width="1600"
   inkscape:window-height="828"
   inkscape:window-x="0"
   inkscape:window-y="0"
   inkscape:window-maximized="1"
   inkscape:current-layer="layer2"
   inkscape:showpageshadow="2"
   inkscape:deskcolor="#d1d1d1" />
<g
   inkscape:groupmode="layer"
   id="layer2"
   inkscape:label="BG"><rect
     y="0"
     fill-rule="evenodd"
     clip-rule="evenodd"
     fill="#164E86"
     width="280"
     height="280"
     id="rect4994-7"
     style="fill:#29b7eb;fill-opacity:1;stroke:none;stroke-width:0.999999;stroke-opacity:1"
     x="0" /><path
     style="fill:#ffffff;stroke-width:0.772272"
     d="M 9.5586897,120.05016 V 98.426536 H 141.23109 272.90351 v 21.623624 21.62363 H 141.23109 9.5586897 Z M 112.27089,120.4363 V 99.971086 H 61.687065 11.103235 v 20.465214 20.46521 h 50.58383 50.583825 z m -60.237227,0.0354 v -14.44512 l 9.960952,0.25444 c 8.45387,0.21594 10.204248,0.47496 11.568977,1.71193 2.34465,2.12518 2.863601,6.03216 1.179839,8.88255 -1.276836,2.1615 -1.286706,2.44534 -0.129512,3.72404 2.373832,2.62305 2.992316,5.46883 1.805749,8.30868 -1.852858,4.43451 -4.005506,5.25736 -14.794387,5.65508 l -9.591621,0.3536 z m 17.040757,8.81857 c 1.712298,-0.9164 2.076154,-5.25972 0.567048,-6.76882 -0.551526,-0.55152 -3.209223,-0.92673 -6.564313,-0.92673 h -5.637588 v 4.24749 4.24751 h 5.07054 c 2.788798,0 5.742739,-0.35975 6.564313,-0.79945 z m -0.518256,-12.56029 c 0.912957,-0.66757 1.285462,-1.76614 1.112945,-3.28217 l -0.259322,-2.27879 -5.98511,-0.22555 -5.98511,-0.22555 v 3.5077 3.50771 h 4.872166 c 2.777407,0 5.462158,-0.43142 6.244431,-1.00342 z m -44.324301,3.32023 v -13.90089 h 3.089088 3.089089 v 6.6593 6.65932 l 5.459779,-6.65932 c 5.376636,-6.5579 5.512378,-6.6593 8.914022,-6.6593 h 3.45425 l -4.404863,5.59897 c -2.422672,3.07943 -4.87693,6.15514 -5.453911,6.8349 -0.914363,1.07721 -0.352982,2.10604 4.371957,8.01244 2.981566,3.72708 5.421027,6.9068 5.421027,7.06601 0,0.15921 -1.535006,0.28948 -3.411126,0.28948 -3.371371,0 -3.472623,-0.0788 -8.688063,-6.75738 l -5.276936,-6.75738 -0.223133,6.75738 -0.22314,6.75738 h -3.059016 -3.059024 z m 56.375872,11.97023 c 0,-1.92484 0.0224,-1.93068 7.387355,-1.93068 8.567981,0 10.374905,-0.66961 10.374905,-3.84476 0,-3.29004 -2.433322,-4.65024 -8.319047,-4.65024 -6.020873,0 -9.032504,-1.42934 -10.141571,-4.81328 -1.095607,-3.34283 -0.123884,-6.66466 2.528982,-8.6453 1.797788,-1.34224 3.523392,-1.6371 10.963308,-1.87328 l 8.829683,-0.28028 v 2.37314 2.37316 l -7.828996,0.22007 c -7.207245,0.20262 -7.877702,0.35209 -8.44221,1.8823 -1.121763,3.0407 0.813049,4.39882 6.717518,4.71524 2.918409,0.15638 6.244941,0.64507 7.392298,1.08598 5.07613,1.95062 6.27579,9.00619 2.22079,13.06119 -2.2557,2.25572 -2.26469,2.25742 -11.97021,2.25742 h -9.712805 z m 95.243405,1.64955 c 8.37052,-3.49742 10.76642,-16.68375 4.2525,-23.40441 -3.10957,-3.20827 -6.64778,-4.38612 -11.87385,-3.95274 -7.5053,0.6224 -11.93938,5.85071 -11.93938,14.07792 0,6.52146 3.26037,11.80845 8.49498,13.77541 2.21995,0.83415 8.56243,0.54978 11.06575,-0.49618 z m -7.76819,-4.96874 c -4.72101,-0.71117 -6.74208,-10.21741 -3.07792,-14.47723 2.44814,-2.84613 6.89412,-2.85712 9.72512,-0.0241 1.70466,1.70591 2.01905,2.69368 1.98498,6.23629 -0.0584,6.07149 -3.20347,9.08276 -8.63218,8.26497 z m -31.05711,-1.70059 c 0.98553,-3.82275 1.99473,-6.95045 2.24263,-6.95045 0.24789,0 1.26674,3.1277 2.26409,6.95045 l 1.81336,6.95046 h 3.23745 3.23744 l 3.64301,-12.93557 c 2.00365,-7.11455 3.63308,-13.21617 3.62094,-13.55917 -0.012,-0.34298 -1.46549,-0.51674 -3.22965,-0.38613 l -3.20756,0.23747 -1.6827,6.17817 c -0.9255,3.398 -1.84923,6.67669 -2.05276,7.286 -0.20354,0.60929 -1.2475,-2.17089 -2.31992,-6.17819 l -1.94986,-7.28598 h -3.35499 -3.35498 l -1.76108,6.47402 c -0.96862,3.56073 -1.87977,6.83003 -2.0248,7.26514 -0.14504,0.43511 -1.12987,-2.4782 -2.18853,-6.47402 l -1.92483,-7.26514 -3.24747,-0.23747 c -1.78611,-0.13063 -3.25741,0.0432 -3.26955,0.38613 -0.0122,0.343 1.61728,6.44462 3.62093,13.55917 l 3.64301,12.93557 h 3.22695 3.22696 z m 55.56136,1.93068 c 0,-4.72766 0.10362,-5.01977 1.78172,-5.01977 1.30003,0 2.77822,1.35714 5.46751,5.01977 3.67025,4.99863 3.70178,5.01978 7.48554,5.01978 2.08986,0 3.79096,-0.26064 3.7802,-0.57921 -0.0107,-0.31857 -1.72683,-2.8381 -3.81351,-5.59898 l -3.79395,-5.01976 1.86342,-0.97984 c 2.45838,-1.29268 3.45217,-3.2921 3.42222,-6.88518 -0.0265,-3.18192 -0.83988,-4.59961 -3.81558,-6.65052 -1.50943,-1.04035 -3.65301,-1.31604 -10.23259,-1.31604 h -8.32316 v 13.51477 13.51476 h 3.08909 3.08909 z m 0,-13.9009 v -2.70295 h 3.80619 c 4.52676,0 6.69236,1.5607 5.43237,3.91499 -0.63891,1.19383 -1.63891,1.49092 -5.01824,1.49092 h -4.22032 z m 41.70269,16.21772 v -2.70295 h -7.33659 -7.33658 V 117.7334 106.92159 h -3.08908 -3.0891 v 13.51477 13.51476 h 10.42568 10.42567 z m 20.09921,0 c 3.52255,-3.35216 4.61351,-5.92056 4.61351,-10.86137 0,-5.29893 -2.20088,-9.70119 -6.03459,-12.07055 -2.00203,-1.23734 -4.32614,-1.70747 -9.87589,-1.99777 l -7.25769,-0.3796 v 14.07642 14.07641 l 8.06005,-0.26335 c 7.7379,-0.25285 8.15735,-0.35597 10.49461,-2.58019 z m -11.60421,-10.91223 v -8.20929 l 3.63781,0.41003 c 4.13062,0.46558 6.07139,2.26441 6.83507,6.33519 0.98968,5.27542 -2.94639,9.67336 -8.65744,9.67336 -1.79189,0 -1.81544,-0.10657 -1.81544,-8.20929 z"
     id="path119" /></g>
<g
   inkscape:groupmode="layer"
   id="layer1"
   inkscape:label="Logo" /></svg>
