<?xml version="1.0" encoding="UTF-8" standalone="no"?>
<!-- Generator: Adobe Illustrator 16.0.0, SVG Export Plug-In . SVG Version: 6.00 Build 0)  -->

<svg
   version="1.1"
   id="Layer_1"
   x="0px"
   y="0px"
   width="280px"
   height="280px"
   viewBox="0 0 280 280"
   enable-background="new 0 0 280 280"
   xml:space="preserve"
   sodipodi:docname="ebs1.svg"
   inkscape:version="1.1.2 (0a00cf5339, 2022-02-04)"
   xmlns:inkscape="http://www.inkscape.org/namespaces/inkscape"
   xmlns:sodipodi="http://sodipodi.sourceforge.net/DTD/sodipodi-0.dtd"
   xmlns="http://www.w3.org/2000/svg"
   xmlns:svg="http://www.w3.org/2000/svg"><defs
   id="defs5011" /><sodipodi:namedview
   id="namedview5009"
   pagecolor="#ffffff"
   bordercolor="#000000"
   borderopacity="0.25"
   inkscape:showpageshadow="2"
   inkscape:pageopacity="0.0"
   inkscape:pagecheckerboard="0"
   inkscape:deskcolor="#d1d1d1"
   showgrid="false"
   inkscape:zoom="1.0442452"
   inkscape:cx="101.02991"
   inkscape:cy="247.06841"
   inkscape:window-width="1600"
   inkscape:window-height="828"
   inkscape:window-x="0"
   inkscape:window-y="0"
   inkscape:window-maximized="1"
   inkscape:current-layer="Layer_1"
   inkscape:pageshadow="2"
   showguides="false" />
<rect
   y="0.023242312"
   fill-rule="evenodd"
   clip-rule="evenodd"
   fill="#164E86"
   width="280"
   height="280"
   id="rect4994-7"
   style="fill:#003487;fill-opacity:1;stroke:none;stroke-width:0.999999;stroke-opacity:1"
   x="0" />

<path
   style="fill:#ffffff;stroke-width:0.526139"
   d="m 167.66321,190.28981 c -2.4597,-0.39316 -4.88652,-0.72488 -5.39293,-0.73715 -0.84484,-0.0205 -0.92074,-0.87302 -0.92074,-10.34333 v -10.32104 l 1.44688,0.31198 c 7.49022,1.61507 11.4095,2.00681 18.02026,1.80115 7.70237,-0.23962 10.0988,-0.88426 12.75886,-3.43216 2.71672,-2.60216 1.51279,-6.4009 -2.59246,-8.17998 -2.12705,-0.92179 -15.30023,-5.75701 -17.53235,-6.43526 -4.65472,-1.41438 -10.0679,-6.86163 -12.14547,-12.22193 -1.60223,-4.1339 -1.96969,-11.80981 -0.78847,-16.47063 2.61493,-10.31798 10.25336,-17.82833 20.62256,-20.2768 6.19781,-1.46348 23.65831,-0.2026 29.73285,2.14711 0.72442,0.28022 0.91326,1.77572 1.23794,9.80372 0.21072,5.21018 0.2839,9.5723 0.16262,9.69358 -0.12129,0.12128 -1.0335,-0.0169 -2.02715,-0.30701 -3.37624,-0.98582 -12.04362,-2.08518 -16.43957,-2.08518 -7.84433,0 -12.50129,2.40414 -12.61779,6.51389 -0.0579,2.04264 1.54408,4.24756 3.52615,4.85328 4.87015,1.48833 20.46732,7.36778 22.16425,8.35495 2.87105,1.67021 6.90364,6.07501 8.0852,8.83148 3.1318,7.30619 2.80039,17.605 -0.79481,24.6998 -3.26509,6.44335 -11.75417,12.20871 -20.37671,13.83886 -5.1843,0.98013 -19.88983,0.958 -26.12912,-0.0393 z M 11.399981,147.70233 v -42.35417 h 27.622286 27.622288 v 9.4705 9.4705 H 50.071182 33.49781 v 7.36594 7.36594 h 14.205747 14.205748 v 8.68129 8.68129 H 47.703557 33.49781 v 7.36595 7.36594 h 16.573372 16.573373 v 9.4705 9.4705 H 39.022267 11.399981 Z m 72.081016,0.0217 v -42.4524 l 20.387883,0.20616 c 19.30631,0.19522 20.59712,0.26903 24.33221,1.39143 5.19395,1.56078 8.43357,3.37644 11.61879,6.51182 6.34159,6.24235 8.41865,16.19798 5.18467,24.85078 -0.88842,2.37702 -1.99185,3.95553 -4.46692,6.39011 l -3.28704,3.23327 2.61337,1.6934 c 7.33087,4.75024 10.10388,17.17614 5.78906,25.9408 -2.0827,4.23057 -6.66383,8.62679 -11.27008,10.81519 -6.2294,2.95956 -9.21405,3.30592 -31.0402,3.60222 l -19.861743,0.26963 z m 35.172253,23.05679 c 1.84183,-0.50877 3.56947,-1.48163 4.99832,-2.81464 1.95386,-1.8228 2.17845,-2.28325 2.13471,-4.37648 -0.0629,-3.00849 -1.60152,-5.18661 -4.7356,-6.70379 -3.08175,-1.49185 -9.08906,-2.35205 -12.98618,-1.85953 l -3.03879,0.38404 0.14502,7.98407 0.14503,7.98408 2.63069,0.26671 c 3.59983,0.36497 7.35309,0.0619 10.7068,-0.86446 z m 1.53807,-31.75037 c 8.41455,-3.64479 7.32609,-11.70167 -1.94912,-14.42758 -2.8043,-0.82416 -10.69934,-1.15671 -12.35727,-0.5205 -0.70711,0.27134 -0.83224,1.49206 -0.83224,8.11855 0,9.12832 -0.6503,8.40657 7.36594,8.1754 3.81308,-0.10996 5.6562,-0.42911 7.77269,-1.34587 z M 250.267,152.70064 v -36.82972 h -5.78753 -5.78752 v -6.31366 -6.31367 h 12.62733 12.62733 v 43.14338 43.14339 h -6.8398 -6.83981 z"
   id="path99" /></svg>
