<?xml version="1.0" encoding="UTF-8" standalone="no"?>
<!-- Generator: Adobe Illustrator 16.0.0, SVG Export Plug-In . SVG Version: 6.00 Build 0)  -->

<svg
   version="1.1"
   id="Layer_1"
   x="0px"
   y="0px"
   width="280px"
   height="280px"
   viewBox="0 0 280 280"
   enable-background="new 0 0 280 280"
   xml:space="preserve"
   sodipodi:docname="ebs2.svg"
   inkscape:version="1.1.2 (0a00cf5339, 2022-02-04)"
   xmlns:inkscape="http://www.inkscape.org/namespaces/inkscape"
   xmlns:sodipodi="http://sodipodi.sourceforge.net/DTD/sodipodi-0.dtd"
   xmlns="http://www.w3.org/2000/svg"
   xmlns:svg="http://www.w3.org/2000/svg"><defs
   id="defs5011" /><sodipodi:namedview
   id="namedview5009"
   pagecolor="#ffffff"
   bordercolor="#000000"
   borderopacity="0.25"
   inkscape:showpageshadow="2"
   inkscape:pageopacity="0.0"
   inkscape:pagecheckerboard="0"
   inkscape:deskcolor="#d1d1d1"
   showgrid="false"
   inkscape:zoom="1.0442452"
   inkscape:cx="57.936584"
   inkscape:cy="254.72944"
   inkscape:window-width="1600"
   inkscape:window-height="828"
   inkscape:window-x="0"
   inkscape:window-y="0"
   inkscape:window-maximized="1"
   inkscape:current-layer="Layer_1"
   inkscape:pageshadow="2"
   showguides="false" />
<rect
   y="0"
   fill-rule="evenodd"
   clip-rule="evenodd"
   fill="#164E86"
   width="280"
   height="280"
   id="rect4994-7"
   style="fill:#81c341;fill-opacity:1;stroke:none;stroke-width:0.999999;stroke-opacity:1"
   x="0" />

<path
   style="fill:#ffffff;stroke-width:0.605512"
   d="m 154.04634,186.20373 c -1.09977,-0.15143 -3.73493,-0.58512 -5.85592,-0.96375 l -3.85635,-0.68843 v -9.56848 c 0,-5.26265 0.1126,-9.56846 0.25021,-9.56846 0.13761,0 2.00151,0.4806 4.142,1.06802 5.81709,1.59637 16.27983,1.43298 19.78554,-0.309 4.56068,-2.2662 5.10574,-6.75067 1.09356,-8.9974 -1.17329,-0.65701 -5.47542,-2.55296 -9.56028,-4.2132 -9.16106,-3.7234 -11.94977,-5.89499 -14.58625,-11.35847 -1.91977,-3.97826 -1.98173,-4.3274 -1.98173,-11.16606 0,-6.63463 0.10951,-7.31041 1.82017,-11.23086 2.05207,-4.70289 3.43905,-6.58567 7.27342,-9.87345 5.78981,-4.96447 14.09098,-6.04229 27.00814,-3.50675 l 7.03214,1.38035 v 9.27741 c 0,7.94613 -0.12189,9.22485 -0.84939,8.91126 -2.19045,-0.94421 -14.07343,-2.45075 -16.98967,-2.15398 -5.87101,0.5975 -9.14196,4.27105 -7.22284,8.11188 0.66345,1.32777 2.53315,2.33744 9.65728,5.2151 10.58473,4.2755 11.9494,5.04722 14.83831,8.39115 3.5425,4.10047 4.71604,8.48339 4.44563,16.60342 -0.19213,5.7692 -0.44604,7.21976 -1.76514,10.08407 -2.99729,6.50833 -7.2613,10.45842 -14.03423,13.00105 -2.76871,1.0394 -5.42625,1.42046 -11.14054,1.59746 -4.12746,0.12785 -8.40428,0.10855 -9.50406,-0.0429 z m -133.305576,-1.3223 c -0.209482,-0.2353 -0.380877,-17.99611 -0.380877,-39.46845 v -39.04062 h 22.852386 22.852384 v 8.98469 8.9847 H 52.353227 38.641796 v 6.73851 6.73851 h 11.997502 11.997501 v 8.02205 8.02204 H 50.639298 38.641796 v 6.73853 6.73851 h 13.711431 13.71143 v 8.98469 8.98468 H 43.593146 c -12.359333,0 -22.642905,-0.19252 -22.852382,-0.42784 z m 59.035323,-38.97788 v -39.53119 l 15.568186,0.0112 c 16.938837,0.0122 21.102117,0.56611 26.484257,3.52407 3.94392,2.16754 7.7591,6.87081 9.28175,11.44232 2.5631,7.69532 1.04692,16.78476 -3.65631,21.91949 l -2.44332,2.66745 2.88056,2.78723 c 3.98975,3.86052 5.24679,7.22438 5.27781,14.12349 0.0203,4.52593 -0.21364,5.99865 -1.37382,8.64707 -1.65983,3.78899 -5.3381,8.095 -8.42702,9.86518 -5.34989,3.0659 -8.09594,3.45996 -26.309979,3.77551 l -17.282114,0.29942 z m 29.387943,21.31478 c 2.6281,-0.7417 6.03326,-4.27695 6.03326,-6.26376 0,-2.50191 -1.63104,-5.00736 -4.12641,-6.33866 -2.84836,-1.51962 -8.13446,-2.36471 -11.00612,-1.75954 l -2.006767,0.42289 v 7.31246 7.31247 l 2.142407,0.24143 c 2.55345,0.28776 5.87627,-0.056 8.96363,-0.92729 z m -0.46152,-28.84603 c 5.15118,-1.45704 7.89093,-6.37176 5.60006,-10.04577 -1.76962,-2.83806 -5.21897,-4.19399 -10.81714,-4.2522 l -5.141781,-0.0534 -0.163966,6.69514 c -0.09018,3.68233 -0.03399,7.07565 0.124899,7.54073 0.366832,1.07382 6.758948,1.14488 10.397928,0.11558 z m 96.19039,41.58145 c 0,-4.01058 0.18265,-4.89613 1.2244,-5.93631 0.67343,-0.67241 7.75598,-8.94964 15.73901,-18.39386 15.3648,-18.17714 17.29814,-21.14079 17.30958,-26.53415 0.008,-4.03673 -1.92914,-6.78911 -5.54495,-7.87625 -2.72252,-0.81856 -3.11434,-0.78473 -5.41749,0.4677 -3.11158,1.69204 -4.48808,4.26641 -4.88049,9.12764 l -0.30686,3.80144 h -9.42889 -9.4289 l 0.3121,-4.97367 c 0.91654,-14.60644 9.31167,-24.07797 22.84639,-25.77571 11.46101,-1.43763 21.56589,2.62009 26.74089,10.7381 3.19143,5.00639 4.18329,9.2459 3.82315,16.34125 -0.25589,5.04144 -0.56065,6.31679 -2.61548,10.94538 -1.94717,4.38609 -3.76857,6.96302 -11.18752,15.82814 -4.87394,5.824 -8.87156,10.80569 -8.88363,11.07042 -0.012,0.26473 4.73424,0.48132 10.54732,0.48132 h 10.56922 v 7.70116 7.70117 H 230.60183 204.8929 Z"
   id="path5911" /></svg>
