<?xml version="1.0" encoding="UTF-8" standalone="no"?>
<!-- Generator: Adobe Illustrator 16.0.0, SVG Export Plug-In . SVG Version: 6.00 Build 0)  -->

<svg
   version="1.1"
   id="Layer_1"
   x="0px"
   y="0px"
   width="280px"
   height="280px"
   viewBox="0 0 280 280"
   enable-background="new 0 0 280 280"
   xml:space="preserve"
   sodipodi:docname="kbs1.svg"
   inkscape:version="1.1.2 (0a00cf5339, 2022-02-04)"
   xmlns:inkscape="http://www.inkscape.org/namespaces/inkscape"
   xmlns:sodipodi="http://sodipodi.sourceforge.net/DTD/sodipodi-0.dtd"
   xmlns="http://www.w3.org/2000/svg"
   xmlns:svg="http://www.w3.org/2000/svg"><defs
   id="defs5011" /><sodipodi:namedview
   id="namedview5009"
   pagecolor="#ffffff"
   bordercolor="#000000"
   borderopacity="0.25"
   inkscape:showpageshadow="2"
   inkscape:pageopacity="0.0"
   inkscape:pagecheckerboard="0"
   inkscape:deskcolor="#d1d1d1"
   showgrid="false"
   inkscape:zoom="1.0442452"
   inkscape:cx="57.936584"
   inkscape:cy="254.72944"
   inkscape:window-width="1600"
   inkscape:window-height="828"
   inkscape:window-x="0"
   inkscape:window-y="0"
   inkscape:window-maximized="1"
   inkscape:current-layer="Layer_1"
   inkscape:pageshadow="2"
   showguides="false" />
<rect
   y="0"
   fill-rule="evenodd"
   clip-rule="evenodd"
   fill="#164E86"
   width="280"
   height="280"
   id="rect4994-7"
   style="fill:#015aff;fill-opacity:1;stroke:none;stroke-width:0.999999;stroke-opacity:1"
   x="0" />

<path
   style="fill:#ffffff"
   d="m 203.2407,176.81715 c -3.82296,-1.36629 -4,-2.86853 -4,-33.94045 0,-35.7937 -0.92586,-33.36557 12.72251,-33.36557 4.55262,0 8.27749,0.32335 8.27749,0.71855 0,0.39521 -2.3521,3.10025 -5.2269,6.0112 l -5.2269,5.29264 5.20561,5.20561 5.20561,5.20561 3.52129,-3.41297 3.52129,-3.41297 v 26.19616 26.19617 l -11.25,-0.0789 c -6.1875,-0.0434 -11.925,-0.32018 -12.75,-0.61503 z m 40,-10.5507 c 0,-6.28766 -0.29678,-21.62983 -0.65952,-34.09371 l -0.65951,-22.66161 h 10.15951 c 15.21098,0 14.15952,-2.51059 14.15952,33.80887 0,24.1515 -0.26912,30.17727 -1.41801,31.75 -1.20781,1.65338 -2.91257,1.99208 -11.5,2.28484 l -10.08199,0.3437 z M 16.240712,143.51113 v -32 h 6.5 6.5 v 15 c 0,8.25 0.3375,14.98081 0.75,14.95735 0.4125,-0.0235 5.925,-6.75959 12.25,-14.96917 l 11.5,-14.92651 8.797286,-0.0308 8.79729,-0.0308 -12.477893,15.33703 -12.477891,15.33702 8.08277,10.41298 c 4.445524,5.72713 10.303044,13.22547 13.016704,16.66297 l 4.93394,6.25 h -9.48167 -9.481678 l -11.301933,-16 c -6.216063,-8.8 -11.663056,-16 -12.104429,-16 -0.441373,0 -0.802496,7.2 -0.802496,16 v 16 h -6.5 -6.5 z m 57.999996,0.0523 v -32.05226 l 20.25,0.022 c 22.774352,0.0247 26.385172,0.84821 30.779782,7.01988 4.34071,6.09597 3.67464,17.9505 -1.20045,21.36514 -1.80723,1.26583 -1.73549,1.48687 1.54822,4.77058 8.00719,8.00719 6.74364,21.22776 -2.69813,28.23049 -2.6375,1.95617 -4.30877,2.11157 -25.749982,2.39421 l -22.92944,0.30226 z m 40.076932,19.02466 c 3.33697,-3.33698 3.81173,-7.36316 1.29238,-10.96005 -2.66734,-3.80816 -7.35732,-5.11687 -18.337192,-5.11687 h -10.03212 v 9.5 9.5 h 12.07693 c 12.014842,0 12.091942,-0.015 15.000002,-2.92308 z m -2.29943,-27.63362 c 3.3298,-2.33229 3.10228,-8.60611 -0.41236,-11.37072 -2.29841,-1.80793 -4.02222,-2.07258 -13.500002,-2.07258 h -10.86514 v 7.5 7.5 h 11.2775 c 8.588542,0 11.807412,-0.37117 13.500002,-1.5567 z m 22.22249,35.5567 v -5 h 18.04545 c 17.82604,0 18.0753,-0.0298 20.5,-2.45455 1.69979,-1.69978 2.45455,-3.56496 2.45455,-6.06574 0,-8.20937 -4.17164,-10.47971 -19.25599,-10.47971 -8.7311,0 -10.99827,-0.34646 -14.72358,-2.25 -6.09915,-3.11651 -8.31152,-6.51852 -8.7705,-13.48656 -0.52403,-7.95573 2.51355,-13.88776 8.71196,-17.01344 4.19095,-2.11337 5.69716,-2.25 24.80479,-2.25 h 20.3429 l -0.30479,4.75 -0.30479,4.75 -18,0.55864 c -9.9,0.30726 -18.13422,0.64476 -18.29827,0.75 -0.16405,0.10525 -0.89994,1.62228 -1.6353,3.37119 -1.56982,3.73352 -0.42471,8.29046 2.47301,9.84128 1.00599,0.53839 6.27699,0.97889 11.71332,0.97889 12.15285,0 18.69658,1.77777 22.90452,6.2226 4.44015,4.69011 5.34272,6.92744 5.34272,13.24378 0,6.62089 -1.68828,11.03748 -5.62684,14.72 -4.71145,4.40517 -7.20939,4.81362 -29.43826,4.81362 h -20.9349 z"
   id="path135" /></svg>
