<?xml version="1.0" encoding="UTF-8" standalone="no"?>
<!-- Generator: Adobe Illustrator 16.0.0, SVG Export Plug-In . SVG Version: 6.00 Build 0)  -->

<svg
   version="1.1"
   id="Layer_1"
   x="0px"
   y="0px"
   width="280px"
   height="280px"
   viewBox="0 0 280 280"
   enable-background="new 0 0 280 280"
   xml:space="preserve"
   sodipodi:docname="kbs2.svg"
   inkscape:version="1.1.2 (0a00cf5339, 2022-02-04)"
   xmlns:inkscape="http://www.inkscape.org/namespaces/inkscape"
   xmlns:sodipodi="http://sodipodi.sourceforge.net/DTD/sodipodi-0.dtd"
   xmlns="http://www.w3.org/2000/svg"
   xmlns:svg="http://www.w3.org/2000/svg"><defs
   id="defs216276">
	
	
	
</defs><sodipodi:namedview
   id="namedview216274"
   pagecolor="#ffffff"
   bordercolor="#666666"
   borderopacity="1.0"
   inkscape:pageshadow="2"
   inkscape:pageopacity="0.0"
   inkscape:pagecheckerboard="0"
   showgrid="false"
   inkscape:zoom="1.4857143"
   inkscape:cx="185.43269"
   inkscape:cy="85.480768"
   inkscape:window-width="1600"
   inkscape:window-height="828"
   inkscape:window-x="0"
   inkscape:window-y="0"
   inkscape:window-maximized="1"
   inkscape:current-layer="Layer_1"
   inkscape:showpageshadow="2"
   inkscape:deskcolor="#d1d1d1" />
<g
   inkscape:groupmode="layer"
   id="layer2"
   inkscape:label="BG"><rect
     y="0"
     fill-rule="evenodd"
     clip-rule="evenodd"
     fill="#164E86"
     width="280"
     height="280"
     id="rect4994-7"
     style="fill:#eb8d1b;fill-opacity:1;stroke:none;stroke-width:0.999999;stroke-opacity:1"
     x="0" /></g>
<g
   inkscape:groupmode="layer"
   id="layer1"
   inkscape:label="Logo" /><path
   style="fill:#000000"
   id="path211"
   d="" /><path
   style="fill:#000000"
   id="path101"
   d="" /><path
   style="fill:#000000"
   id="path395"
   d="" /><path
   style="fill:#ffffff;stroke:none;stroke-width:0.464684"
   d="m 235.67782,152.00777 h 15.79924 c 1.78579,0 4.75186,0.55391 6.31134,-0.47769 2.73745,-1.81087 3.16681,-8.19726 3.51904,-11.13939 1.40057,-11.69665 -2.71746,-24.18558 -11.26624,-32.44864 -14.81133,-14.316776 -39.71652,-14.187584 -54.30805,0.40377 -8.49071,8.49107 -12.41217,20.6985 -10.76626,32.50954 0.43635,3.13291 0.84294,7.50419 2.88337,10.07527 1.8104,2.28207 8.45909,1.07714 11.11756,1.07714 11.25417,0 26.91121,-4.84525 32.74672,-15.33456 4.86152,-8.73888 -2.77045,-19.98409 -12.76533,-15.7505 -4.4591,1.88875 -5.84479,8.17398 -10.68773,9.04307 -5.75742,1.03323 -8.16309,-5.8202 -5.97861,-10.02118 9.15427,-17.60389 35.56875,-16.70515 42.36427,2.32342 4.47584,12.53336 -2.2105,20.14506 -8.96932,29.73975 M 23.782074,106.93346 v 57.15609 h 12.081779 v -29.27508 h 0.464676 c 2.916731,7.69298 10.142138,15.15149 14.935123,21.84014 1.456271,2.03206 3.31133,6.11431 5.662265,7.15473 4.135406,1.82946 12.052779,0.28021 16.577303,0.28021 l -16.319128,-21.37545 -5.708875,-8.3643 5.647906,-7.89963 15.450734,-19.51671 -15.200082,0.28039 -6.267888,7.15455 -14.777358,19.51671 H 35.863853 V 106.93346 H 23.782074 m 51.115197,0 v 57.15609 h 26.486979 c 5.17611,0 10.58595,0.57295 15.33456,-1.92147 10.24581,-5.38197 11.08502,-22.77298 0.46468,-28.28297 8.11709,-6.6696 7.02834,-20.24316 -2.7881,-24.94092 -5.04507,-2.41422 -10.36802,-2.01073 -15.799248,-2.01073 H 74.897271 m 52.509269,47.86242 v 9.29367 h 25.09291 c 5.0316,0 10.12127,0.52881 14.86988,-1.43727 9.69794,-4.01533 13.19561,-18.13289 6.72443,-26.44194 -5.2658,-6.76151 -13.82898,-6.97207 -21.59431,-6.97207 -3.36059,0 -7.75139,0.74438 -10.68075,-1.25599 -4.6803,-3.19656 -3.46701,-9.72206 1.85176,-11.45362 8.67751,-2.82494 20.68028,-0.76621 29.73976,-0.76621 v -8.82899 h -24.62824 c -4.6236,0 -9.58038,-0.52073 -13.9405,1.3381 -9.06878,3.86617 -12.62825,16.79209 -6.25976,24.66556 8.2723,10.22707 21.98186,1.25756 31.3457,7.43957 5.31041,3.50609 4.42936,12.14549 -1.85177,14.11575 -3.04275,0.95445 -7.05808,0.30344 -10.22304,0.30344 H 127.40654 M 86.049686,129.70296 v -13.47583 c 5.679823,0 15.906584,-1.96049 20.903794,0.97096 4.42239,2.59466 4.2421,9.4512 -0.45957,11.58949 -5.5776,2.53671 -14.415422,0.91538 -20.444224,0.91538 m 0,25.09292 c 0,-3.4303 -1.662177,-12.817 0.477692,-15.51886 1.263004,-1.59502 6.056687,-0.74507 7.886612,-0.74507 4.755108,0 10.79321,-0.95256 14.86291,2.09071 5.59293,4.18251 3.31878,12.36234 -3.24581,13.79264 -2.4382,0.53113 -4.95586,0.38058 -7.434948,0.38058 H 86.049686 m 112.453444,10.22303 c 8.31969,10.77927 27.57433,11.02927 39.03343,6.50371 3.6473,-1.44051 7.78809,-3.34897 10.22304,-6.50371 z"
   id="path669" /></svg>
