<?xml version="1.0" encoding="UTF-8" standalone="no"?>
<!-- Generator: Adobe Illustrator 16.0.0, SVG Export Plug-In . SVG Version: 6.00 Build 0)  -->

<svg
   version="1.1"
   id="Layer_1"
   x="0px"
   y="0px"
   width="280px"
   height="280px"
   viewBox="0 0 280 280"
   enable-background="new 0 0 280 280"
   xml:space="preserve"
   sodipodi:docname="kbsworld.svg"
   inkscape:version="1.1.2 (0a00cf5339, 2022-02-04)"
   xmlns:inkscape="http://www.inkscape.org/namespaces/inkscape"
   xmlns:sodipodi="http://sodipodi.sourceforge.net/DTD/sodipodi-0.dtd"
   xmlns="http://www.w3.org/2000/svg"
   xmlns:svg="http://www.w3.org/2000/svg"><defs
   id="defs5011" /><sodipodi:namedview
   id="namedview5009"
   pagecolor="#ffffff"
   bordercolor="#000000"
   borderopacity="0.25"
   inkscape:showpageshadow="2"
   inkscape:pageopacity="0.0"
   inkscape:pagecheckerboard="0"
   inkscape:deskcolor="#d1d1d1"
   showgrid="false"
   inkscape:zoom="0.73839285"
   inkscape:cx="-37.243048"
   inkscape:cy="70.423217"
   inkscape:window-width="1600"
   inkscape:window-height="828"
   inkscape:window-x="0"
   inkscape:window-y="0"
   inkscape:window-maximized="1"
   inkscape:current-layer="Layer_1"
   inkscape:pageshadow="2"
   showguides="false" />
<rect
   y="0.023242312"
   fill-rule="evenodd"
   clip-rule="evenodd"
   fill="#164E86"
   width="280"
   height="280"
   id="rect4994-7"
   style="fill:#29b7eb;fill-opacity:1;stroke:none;stroke-width:0.999999;stroke-opacity:1"
   x="0" />

<path
   style="fill:#ffffff"
   d="m 19.757781,151.70762 v -21 h 125.000009 125 v 21 21 h -125 -125.000009 z m 98.000009,0 v -20 H 69.257785 20.757781 v 20 20 h 48.500004 48.500005 z m -84.000005,0 v -13 h 2.5 c 2.39269,0 2.5,0.26111 2.5,6.08333 0,3.34584 0.40023,5.93334 0.88942,5.75 0.48918,-0.18333 2.9889,-2.92083 5.55494,-6.08333 3.80429,-4.68858 5.22005,-5.75 7.66959,-5.75 3.49554,0 3.38647,0.30215 -2.71198,7.51278 l -4.2396,5.01278 5.47116,6.73722 5.47116,6.73722 -3.80235,-0.0426 c -3.52753,-0.0395 -4.12758,-0.50819 -8.30234,-6.48503 -2.475,-3.54335 -4.8375,-6.44919 -5.25,-6.45743 -0.4125,-0.008 -0.75,2.91003 -0.75,6.48503 0,6.26667 -0.0897,6.5 -2.5,6.5 h -2.5 z m 27,0 v -13 h 9 c 7.66666,0 9.29629,0.2963 11,2 2.17892,2.17892 2.66178,6.93822 0.88427,8.71573 -0.82098,0.82097 -0.68888,1.72514 0.5,3.42251 2.19922,3.13983 2.03143,7.44606 -0.38427,9.86176 -1.7193,1.7193 -3.33334,2 -11.5,2 h -9.5 z m 15,8.71023 c 3.25193,-1.63936 3.79968,-5.21188 1.02664,-6.69597 -1.1521,-0.61658 -4.21691,-0.98453 -6.81068,-0.81766 -4.35012,0.27986 -4.74114,0.52329 -5.04054,3.13787 -0.17851,1.55896 -0.0801,3.47146 0.21862,4.25 0.68372,1.78176 7.16846,1.85865 10.60596,0.12576 z m 1.55516,-13.88403 c 0.99662,-3.14007 -2.01553,-4.98207 -7.55516,-4.62018 -4.27481,0.27927 -4.51569,0.45662 -4.81336,3.54398 l -0.31336,3.25 h 5.99597 c 5.27751,0 6.07864,-0.26047 6.68591,-2.1738 z m 10.44301,16.4238 c -0.002,-1.51124 0.8221,-1.70352 6.037124,-1.40931 4.33387,0.2445 6.734321,-0.11494 8.501821,-1.27305 5.14779,-3.37296 1.88521,-7.56764 -5.886041,-7.56764 -6.771184,0 -9.651074,-1.95653 -9.651074,-6.5567 0,-5.99018 2.53792,-7.4433 13.000004,-7.4433 7.333331,0 9.000001,0.27778 9.000001,1.5 0,1.15771 -1.31211,1.50336 -5.75,1.51474 -13.168385,0.0338 -15.430495,6.60381 -2.72647,7.91873 8.05033,0.83324 11.04911,3.37673 10.05593,8.52916 -1.0165,5.27338 -3.66349,6.53737 -13.690251,6.53737 -7.798564,0 -8.889444,-0.21472 -8.891044,-1.75 z m 89.789475,0.76008 c 4.83743,-2.19553 7.21488,-6.3933 7.20862,-12.72796 -0.005,-5.51623 -2.99664,-9.73495 -8.35265,-11.78043 -3.99487,-1.52565 -5.02762,-1.56847 -8.80473,-0.36504 -11.4317,3.64228 -11.99999,21.70083 -0.80425,25.55691 4.72844,1.62859 5.81031,1.55982 10.75301,-0.68348 z m -10.71506,-6.64494 c -2.31609,-2.94444 -2.64617,-6.40689 -0.92288,-9.68088 1.51317,-2.87478 2.79088,-3.65045 6.0436,-3.66895 3.54492,-0.0202 5.8067,3.31103 5.8067,8.55221 0,7.21797 -6.70722,10.16273 -10.92742,4.79762 z m -26.31212,0.38486 1.97349,-7.25 1.18689,4.5 c 2.44097,9.25474 2.57536,9.4842 5.74008,9.80097 l 3.00689,0.30097 3.21749,-11.30097 c 1.76961,-6.21553 3.44968,-12.08847 3.73348,-13.05097 0.42343,-1.43606 -0.12398,-1.75 -3.05139,-1.75 -2.70757,0 -3.58211,0.42179 -3.62848,1.75 -0.0336,0.9625 -0.84747,4.225 -1.80859,7.25 l -1.74749,5.5 -1.79913,-7.25 c -1.7921,-7.22162 -1.81242,-7.25 -5.19142,-7.25 -2.03991,0 -3.3977,0.49833 -3.40586,1.25 -0.007,0.6875 -0.82666,3.95 -1.82042,7.25 l -1.80682,6 -1.78731,-7.25 c -1.70519,-6.91691 -1.92019,-7.25 -4.67959,-7.25 -1.59075,0 -2.89228,0.49535 -2.89228,1.10078 0,0.91754 5.13333,19.54917 6.51576,23.64922 0.23181,0.6875 1.73766,1.25 3.34634,1.25 2.78273,0 3.02077,-0.35232 4.89836,-7.25 z m 52.23954,2.25 c 0,-4.1342 0.30936,-5 1.78655,-5 0.98259,0 3.46632,2.25 5.51939,5 3.23065,4.32733 4.2011,5 7.21345,5 1.91434,0 3.48061,-0.22111 3.48061,-0.49135 0,-0.27024 -1.59769,-2.58443 -3.55042,-5.14265 l -3.55042,-4.6513 2.55042,-2.66207 c 3.97743,-4.15155 3.08783,-9.10821 -2.13384,-11.88929 -1.20134,-0.63984 -5.58884,-1.16334 -9.75,-1.16334 h -7.56574 v 13 13 h 3 c 2.93333,0 3,-0.11111 3,-5 z m 0,-12.5 c 0,-2.2963 0.36667,-2.5 4.5,-2.5 3.74856,0 4.5,0.31611 4.5,1.89301 0,2.1555 -1.8625,3.10699 -6.08179,3.10699 -2.44609,0 -2.91821,-0.40446 -2.91821,-2.5 z m 39.81642,14.75 c -0.3064,-2.66288 -0.53026,-2.75937 -7.06642,-3.04569 l -6.75,-0.29569 v -9.95431 -9.95431 h -3 -3 v 13 13 h 10.06642 10.06642 z m 20.20638,-1.10825 c 5.10997,-6.12092 4.61722,-14.74254 -1.11841,-19.56875 -2.68385,-2.25831 -3.96575,-2.573 -10.48112,-2.573 h -7.42327 v 12.33333 c 0,6.78334 0.3375,12.67484 0.75,13.09222 0.4125,0.41739 4.07162,0.59316 8.13137,0.3906 6.93482,-0.346 7.54834,-0.56829 10.14143,-3.6744 z m -12.0228,-9.44095 v -7.2992 l 3.5217,0.41114 c 8.75198,1.02174 8.67922,14.18726 -0.0784,14.18726 h -3.4433 z"
   id="path100" /></svg>
