<?xml version="1.0" encoding="UTF-8" standalone="no"?>
<!-- Generator: Adobe Illustrator 16.0.0, SVG Export Plug-In . SVG Version: 6.00 Build 0)  -->

<svg
   version="1.1"
   id="Layer_1"
   x="0px"
   y="0px"
   width="280px"
   height="280px"
   viewBox="0 0 280 280"
   enable-background="new 0 0 280 280"
   xml:space="preserve"
   sodipodi:docname="mbc.svg"
   inkscape:version="1.1.2 (0a00cf5339, 2022-02-04)"
   xmlns:inkscape="http://www.inkscape.org/namespaces/inkscape"
   xmlns:sodipodi="http://sodipodi.sourceforge.net/DTD/sodipodi-0.dtd"
   xmlns="http://www.w3.org/2000/svg"
   xmlns:svg="http://www.w3.org/2000/svg"><defs
   id="defs216276">
	
	
	
</defs><sodipodi:namedview
   id="namedview216274"
   pagecolor="#ffffff"
   bordercolor="#666666"
   borderopacity="1.0"
   inkscape:pageshadow="2"
   inkscape:pageopacity="0.0"
   inkscape:pagecheckerboard="0"
   showgrid="false"
   inkscape:zoom="2.1011173"
   inkscape:cx="138.25977"
   inkscape:cy="139.44962"
   inkscape:window-width="1600"
   inkscape:window-height="828"
   inkscape:window-x="0"
   inkscape:window-y="0"
   inkscape:window-maximized="1"
   inkscape:current-layer="layer1"
   inkscape:showpageshadow="2"
   inkscape:deskcolor="#d1d1d1" />
<g
   inkscape:groupmode="layer"
   id="layer2"
   inkscape:label="BG"><rect
     y="-280"
     fill-rule="evenodd"
     clip-rule="evenodd"
     fill="#164E86"
     width="280"
     height="280"
     id="rect4994-7"
     style="fill:#2b2b2b;fill-opacity:1;stroke:none;stroke-width:0.999999;stroke-opacity:1"
     x="0"
     transform="scale(1,-1)" /></g>
<g
   inkscape:groupmode="layer"
   id="layer1"
   inkscape:label="Logo"><g
     id="g143"
     transform="translate(104.00633,-185.31874)"><path
       style="fill:#ffffff;stroke-width:0.51029"
       d="m -59.372916,360.88697 c -8.33929,-0.60301 -12.41794,-1.55445 -21.62374,-5.04425 -4.45558,-1.68905 -8.18708,-3.071 -8.29221,-3.071 -0.10514,0 -0.19116,-5.16291 -0.19116,-11.47314 v -11.47314 l 5.48561,3.39261 c 11.30826,6.99364 18.75316,9.46237 28.70382,9.51823 6.29954,0.0354 9.04968,-0.51354 11.77502,-2.35015 2.74033,-1.84671 4.04397,-4.18727 4.04397,-7.26057 0,-3.15763 -1.28553,-5.37443 -4.34433,-7.49149 -2.29675,-1.58964 -10.4749,-5.16936 -17.343,-7.59134 -9.45761,-3.33515 -18.8438,-8.91355 -23.87717,-14.19069 -5.05454,-5.29933 -6.76733,-10.84788 -6.39019,-20.70089 0.21578,-5.6372 0.30236,-6.01093 2.34978,-10.14278 7.39082,-14.91531 28.41092,-21.3788 52.4115,-16.11608 4.23743,0.92916 15.6546,4.56071 17.73258,5.64034 0.80304,0.41723 0.893,1.44434 0.893,10.19612 0,9.0707 -0.0607,9.70678 -0.893,9.35893 -4.39176,-1.83547 -15.61344,-5.71481 -19.51859,-6.7476 -3.88566,-1.02762 -6.16618,-1.29457 -11.49091,-1.34511 -6.53439,-0.062 -6.69888,-0.0356 -10.04681,1.6119 -4.04246,1.98931 -5.50765,3.94898 -5.50765,7.36637 0,1.72587 0.37161,2.80008 1.51446,4.37773 1.79057,2.47181 5.17814,4.20292 16.60083,8.48331 9.44171,3.53806 14.11688,5.75316 19.39102,9.18745 10.93368,7.11956 14.66477,13.39266 14.74265,24.78694 0.037,5.41466 -0.68916,8.99128 -2.74556,13.52269 -3.4091,7.51214 -12.78324,14.28745 -22.4814,16.24877 -3.38877,0.68533 -5.45338,0.93347 -12.98903,1.56115 -1.12264,0.0935 -4.68191,-0.0209 -7.90949,-0.25431 z m 182.022876,0.0222 c -3.02977,-0.22005 -7.39275,-0.78034 -9.69551,-1.2451 -3.80304,-0.76755 -15.920521,-4.97045 -19.367951,-6.71769 l -1.4033,-0.71123 v -11.24339 c 0,-6.18386 0.17223,-11.14831 0.38272,-11.0321 0.2105,0.11621 3.02347,1.81617 6.25105,3.7777 6.491431,3.9451 9.468201,5.38715 14.032981,6.79809 4.29735,1.32828 11.11446,2.54231 14.21692,2.53183 3.9452,-0.0133 9.44559,-1.34273 11.68373,-2.82386 2.17658,-1.44039 3.9289,-4.61505 3.9289,-7.11793 0,-2.58852 -1.72952,-5.62214 -4.13556,-7.25389 -2.37165,-1.60842 -13.64593,-6.5858 -18.29479,-8.07678 -7.13079,-2.287 -17.27125,-8.1104 -22.594171,-12.97525 -6.04738,-5.52697 -8.84475,-16.35447 -6.76318,-26.17762 1.67995,-7.92787 7.03461,-14.45211 15.133941,-18.43954 14.01381,-6.89923 31.1236,-6.79764 51.47458,0.30561 l 6.37862,2.22638 0.13859,9.80863 c 0.0762,5.39474 0.054,9.80862 -0.0495,9.80862 -0.10347,0 -2.9214,-1.03874 -6.26208,-2.30832 -20.0528,-7.6208 -32.703,-8.31573 -39.35557,-2.16199 -2.69034,2.48862 -2.70599,6.8306 -0.0356,9.87204 2.22988,2.53969 7.68532,5.10241 21.64972,10.17005 7.99716,2.90214 16.9477,8.43948 21.97878,13.5974 9.21342,9.44568 9.08883,28.22928 -0.25194,37.98545 -6.42448,6.71018 -14.54863,10.24744 -25.62322,11.15636 -2.10494,0.17275 -4.7457,0.38892 -5.86833,0.48037 -1.12264,0.0914 -4.52007,-0.0138 -7.54985,-0.23382 z M -2.7307359,308.37649 v -52.04958 l 23.3457649,0.002 c 24.65615,0.002 28.64501,0.28296 35.91406,2.52814 6.73396,2.07991 12.81902,7.39326 16.62012,14.51235 1.90239,3.56296 1.93512,3.71904 1.93718,9.23739 0.002,5.03913 -0.13927,5.91489 -1.38026,8.56329 -1.60063,3.41591 -6.06116,8.30885 -9.70778,10.64889 l -2.53149,1.62444 2.98367,1.08037 c 14.37481,5.20499 21.36908,17.50849 18.29006,32.17375 -1.68616,8.03115 -7.99023,16.60795 -14.54676,19.7911 -7.0668,3.43089 -12.61444,3.91766 -44.7722,3.92854 l -26.1523649,0.009 z m 51.6073649,31.94995 c 5.38049,-1.99722 7.86991,-5.83349 7.72767,-11.90852 -0.11341,-4.84375 -2.82402,-8.04244 -8.87881,-10.47755 -2.45358,-0.98678 -3.91917,-1.12384 -13.84292,-1.29457 l -11.0988,-0.19094 v 12.59298 12.59299 l 11.86424,-0.21837 c 9.569,-0.17612 12.32165,-0.38815 14.22862,-1.09602 z m -6.55788,-43.35414 c 9.39075,-3.93522 9.46958,-16.20874 0.13204,-20.55686 -2.3846,-1.11041 -3.21466,-1.19819 -11.37481,-1.20281 l -8.8025,-0.005 v 11.22638 11.22638 h 9.20161 c 6.56761,0 9.67165,-0.19698 10.84366,-0.68811 z"
       id="path135" /></g></g></svg>
