<?xml version="1.0" encoding="UTF-8" standalone="no"?>
<!-- Generator: Adobe Illustrator 16.0.0, SVG Export Plug-In . SVG Version: 6.00 Build 0)  -->

<svg
   version="1.1"
   id="Layer_1"
   x="0px"
   y="0px"
   width="280px"
   height="280px"
   viewBox="0 0 280 280"
   enable-background="new 0 0 280 280"
   xml:space="preserve"
   sodipodi:docname="sbs.svg"
   inkscape:version="1.1.2 (0a00cf5339, 2022-02-04)"
   xmlns:inkscape="http://www.inkscape.org/namespaces/inkscape"
   xmlns:sodipodi="http://sodipodi.sourceforge.net/DTD/sodipodi-0.dtd"
   xmlns="http://www.w3.org/2000/svg"
   xmlns:svg="http://www.w3.org/2000/svg"><defs
   id="defs5011" /><sodipodi:namedview
   id="namedview5009"
   pagecolor="#ffffff"
   bordercolor="#000000"
   borderopacity="0.25"
   inkscape:showpageshadow="2"
   inkscape:pageopacity="0.0"
   inkscape:pagecheckerboard="0"
   inkscape:deskcolor="#d1d1d1"
   showgrid="false"
   inkscape:zoom="1.4767857"
   inkscape:cx="48.415962"
   inkscape:cy="87.351875"
   inkscape:window-width="1600"
   inkscape:window-height="828"
   inkscape:window-x="0"
   inkscape:window-y="0"
   inkscape:window-maximized="1"
   inkscape:current-layer="Layer_1"
   inkscape:pageshadow="2"
   showguides="false" />
<rect
   y="0.023242312"
   fill-rule="evenodd"
   clip-rule="evenodd"
   fill="#164E86"
   width="280"
   height="280"
   id="rect4994-7"
   style="fill:#818183;fill-opacity:1;stroke:none;stroke-width:0.999999;stroke-opacity:1"
   x="0" />

<path
   style="fill:#ffffff;stroke-width:0.12622"
   d="m 14.787174,134.10049 c 0.03932,-24.66075 0.06716,-27.98029 0.242261,-28.88249 0.710839,-3.66253 1.89755,-6.021116 4.09566,-8.1401 2.686168,-2.589473 5.396442,-3.769709 10.455541,-4.553048 1.371926,-0.212426 48.903421,-0.315681 51.407647,-0.111676 4.58113,0.3732 7.780389,1.376549 10.491696,3.2904 2.393581,1.689575 4.240457,4.342894 5.108904,7.339724 0.738601,2.54875 0.708921,1.23744 0.708921,31.32582 v 27.59449 h -9.908287 -9.908291 v -25.24535 -25.24533 l -5.711467,0.0328 -5.711467,0.0328 -0.03187,25.21249 -0.03187,25.2125 h -9.907978 -9.90798 V 136.71955 111.4755 H 40.435572 34.69255 v 25.24405 25.24406 h -9.974901 -9.974901 z m 93.239366,-6.97796 V 92.28144 l 25.90671,0.04654 c 27.04772,0.04859 26.42916,0.03607 29.81953,0.603653 2.94599,0.493186 4.79361,1.042678 6.95503,2.068438 1.88674,0.895408 3.18032,1.786592 4.47824,3.085186 2.81778,2.819243 4.15596,6.304113 4.15443,10.818933 -0.001,4.17922 -1.26404,7.29381 -4.0747,10.05134 -2.37555,2.33063 -6.11324,4.17589 -10.12457,4.99843 -1.59431,0.3269 -4.03472,0.64845 -4.92161,0.64845 -0.37417,0 -0.71007,0.0482 -0.74644,0.10699 -0.0363,0.0589 0.71286,0.14132 1.66497,0.18327 4.14478,0.18259 8.64686,1.11263 11.77267,2.43203 3.50444,1.47921 6.11642,3.56044 7.947,6.33216 1.78913,2.70897 2.64846,5.86617 2.64846,9.73056 0,3.72115 -0.77004,6.48918 -2.55929,9.1999 -2.83477,4.29464 -7.53305,7.09881 -14.10179,8.41663 -4.76709,0.95636 -4.8428,0.95853 -33.41682,0.95911 l -25.40182,5.1e-4 z m 49.857,0.1305 V 111.4755 H 143.11577 128.348 v 15.77753 15.77754 h 14.76777 14.76777 z m 47.83747,34.62676 c -5.30815,-0.37121 -9.10162,-1.80027 -11.96453,-4.50726 -2.22684,-2.10553 -3.46454,-4.43193 -4.2833,-8.05095 -0.18961,-0.83806 -0.21406,-2.87565 -0.25577,-21.31122 -0.0329,-14.56515 -0.005,-20.72689 0.0958,-21.58367 0.99598,-8.41595 6.54055,-13.261861 16.02283,-14.003829 1.10889,-0.08677 10.31232,-0.132837 26.53781,-0.132837 h 24.84017 v 9.529626 9.52963 h -23.47697 -23.47698 v 15.84065 15.84064 h 23.6663 23.6663 v 9.46652 9.46652 l -25.40183,-0.022 c -13.971,-0.0121 -25.65742,-0.0399 -25.96982,-0.0617 z"
   id="path19" /></svg>
