<?xml version="1.0" encoding="UTF-8" standalone="no"?>
<!-- Generator: Adobe Illustrator 16.0.0, SVG Export Plug-In . SVG Version: 6.00 Build 0)  -->

<svg
   version="1.1"
   id="Layer_1"
   x="0px"
   y="0px"
   width="280px"
   height="280px"
   viewBox="0 0 280 280"
   enable-background="new 0 0 280 280"
   xml:space="preserve"
   sodipodi:docname="anime.svg"
   inkscape:version="1.1.2 (0a00cf5339, 2022-02-04)"
   xmlns:inkscape="http://www.inkscape.org/namespaces/inkscape"
   xmlns:sodipodi="http://sodipodi.sourceforge.net/DTD/sodipodi-0.dtd"
   xmlns="http://www.w3.org/2000/svg"
   xmlns:svg="http://www.w3.org/2000/svg"><defs
   id="defs216276">
	
	
	
</defs><sodipodi:namedview
   id="namedview216274"
   pagecolor="#ffffff"
   bordercolor="#666666"
   borderopacity="1.0"
   inkscape:pageshadow="2"
   inkscape:pageopacity="0.0"
   inkscape:pagecheckerboard="0"
   showgrid="false"
   inkscape:zoom="1.4857143"
   inkscape:cx="111.73077"
   inkscape:cy="109.03846"
   inkscape:window-width="1600"
   inkscape:window-height="828"
   inkscape:window-x="0"
   inkscape:window-y="0"
   inkscape:window-maximized="1"
   inkscape:current-layer="Layer_1"
   inkscape:showpageshadow="2"
   inkscape:deskcolor="#d1d1d1" />
<g
   inkscape:groupmode="layer"
   id="layer2"
   inkscape:label="BG"><rect
     y="0"
     fill-rule="evenodd"
     clip-rule="evenodd"
     fill="#164E86"
     width="280"
     height="280"
     id="rect4994-7"
     style="fill:#e60012;fill-opacity:1;stroke:none;stroke-width:0.999999;stroke-opacity:1"
     x="0" /></g>
<g
   inkscape:groupmode="layer"
   id="layer1"
   inkscape:label="Logo" /><path
   style="fill:#000000"
   d="m -940.6263,418.91809 v -74 h 341.5 341.5 v 74 74 h -341.5 -341.5 z m 278.76051,12.75 0.26051,-43.75 h 16.98949 16.98949 v -10.5 -10.5 h -47 -47 v 10.5 10.5 h 17 17 v 44.02988 44.02987 l 12.75,-0.27987 12.75,-0.27988 z m 149.55956,40 c 0.87549,-2.3375 5.91865,-16.625 11.20703,-31.75 5.28838,-15.125 13.18321,-37.59718 17.54407,-49.93818 4.36086,-12.34101 7.92883,-22.57851 7.92883,-22.75 0,-0.1715 -6.02082,-0.31182 -13.3796,-0.31182 h -13.37959 l -11.78726,34.75 c -13.74533,40.52255 -13.29904,39.25 -13.7652,39.25 -0.19863,0 -5.94727,-16.64734 -12.77475,-36.99409 l -12.4136,-36.99408 -13.25,-0.006 c -7.98824,-0.004 -13.25,0.38317 -13.25,0.97385 0,0.53887 0.65751,2.67637 1.46114,4.75 0.80363,2.07363 8.69174,24.92024 17.52913,50.77024 8.83739,25.85 16.55947,48.2375 17.16018,49.75 l 1.09219,2.75 h 14.24282 14.24282 l 1.59179,-4.25 z M -717.18154,304.97966 c -14.62426,-2.3018 -23.11209,-10.67185 -27.1672,-26.79025 -2.14078,-8.50925 -2.51201,-52.15883 -0.52445,-61.6655 2.6189,-12.52646 8.80451,-21.82774 17.4191,-26.19309 9.64652,-4.88826 27.6589,-5.30603 38.23555,-0.88682 8.69739,3.634 16.05931,13.94913 18.64568,26.12532 1.57704,7.42443 2.31135,42.56865 1.10423,52.84877 -2.42383,20.642 -9.04272,30.95254 -22.46286,34.99141 -5.87455,1.76798 -18.86205,2.5756 -25.25005,1.57016 z m 17.13528,-17.94725 c 6.93919,-4.23151 8.81594,-14.69878 8.16666,-45.54827 -0.51901,-24.66043 -1.56412,-30.10082 -6.73385,-35.05374 -2.5642,-2.45666 -3.87266,-2.91508 -8.44752,-2.95961 -13.17,-0.12821 -16.52571,8.59269 -16.52571,42.9473 0,33.7606 3.2303,42.35354 15.96038,42.45622 2.69935,0.0218 5.73246,-0.71525 7.58004,-1.8419 z m -181.47765,11.63568 c -0.57167,-2.8875 -4.63929,-25.05 -9.03915,-49.25 -4.39987,-24.2 -8.68896,-47.6 -9.53133,-52 -0.84236,-4.4 -1.53164,-8.1125 -1.53174,-8.25 -9e-5,-0.1375 4.94126,-0.25 10.98078,-0.25 10.57485,0 10.99919,0.0832 11.47415,2.25 0.27127,1.2375 1.83701,11.475 3.47944,22.75 1.64243,11.275 4.20196,28.825 5.68785,39 1.48588,10.175 2.98148,18.83028 3.32356,19.23395 0.34207,0.40367 3.45338,-17.14633 6.91402,-39 3.46064,-21.85367 6.53164,-40.74645 6.82446,-41.98395 0.51174,-2.16273 0.95411,-2.25 11.40493,-2.25 10.45459,0 10.89251,0.0865 11.39215,2.25 0.28579,1.2375 3.2396,19.575 6.56403,40.75 3.32442,21.175 6.30794,39.175 6.63004,40 0.4195,1.07448 12.82181,-75.78477 13.27217,-82.25 0.0287,-0.4125 5.038,-0.75 11.13171,-0.75 h 11.07945 l -0.57026,2.75 c -0.31364,1.5125 -4.84243,26.375 -10.06397,55.25 -5.22155,28.875 -9.73426,53.5125 -10.02825,54.75 -0.52036,2.19033 -0.8788,2.25 -13.51548,2.25 -9.71534,0 -12.98225,-0.31446 -12.98612,-1.25 -0.003,-0.6875 -1.30789,-9.575 -2.90011,-19.75 -1.59222,-10.175 -4.38512,-28.28228 -6.20644,-40.23839 -1.82132,-11.95612 -3.59817,-21.40612 -3.94856,-21 -0.35039,0.40611 -2.30025,11.76339 -4.33301,25.23839 -2.03277,13.475 -4.86161,31.8125 -6.28631,40.75 l -2.59036,16.25 h -12.79412 -12.79412 z m 262.89761,-52.25 v -57.5 h 25.3185 c 28.6295,0 32.57756,0.65129 39.41237,6.50163 5.61308,4.80459 8.26913,11.99208 8.26913,22.37695 0,14.04667 -4.20007,22.4529 -13.33231,26.68392 -4.08274,1.89157 -4.6879,2.46628 -3.11703,2.96018 12.94257,4.0693 14.24989,6.67403 15.91382,31.70703 1.10822,16.67243 1.51223,19.24751 3.42589,21.83587 l 2.1695,2.93442 h -12.99139 -12.99139 l -0.94117,-3.75 c -0.51765,-2.0625 -1.17327,-10.53906 -1.45694,-18.8368 -0.79143,-23.15039 -2.47847,-25.71383 -17.28198,-26.25973 l -9.397,-0.34653 v 24.59653 24.59653 h -11.5 -11.5 z m 42.41007,-9.52633 c 5.11646,-2.591 7.02082,-6.27684 7.37514,-14.2744 0.54646,-12.33479 -3.84727,-16.48677 -18.3985,-17.38618 l -8.38671,-0.51839 v 17.20527 17.20526 l 8.25,-0.37895 c 4.5375,-0.20842 9.55953,-1.0421 11.16007,-1.85261 z m 87.58993,9.52633 v -57.5 h 11.5 11.5 v 48 48 h 20.5 20.5 v 9.5 9.5 h -32 -32 z m 117,0.11199 v -57.56971 l 19.75,-0.27114 c 23.67546,-0.32503 30.59068,0.34772 36.9434,3.59404 8.80309,4.49849 13.86496,11.74563 17.01705,24.3635 1.33162,5.33053 1.68599,11.34605 1.66542,28.27132 -0.0293,24.10071 -1.16006,31.69112 -6.19985,41.61701 -3.72111,7.32875 -7.02627,10.49859 -14.67602,14.07517 -5.97513,2.79362 -6.1005,2.80667 -30.25,3.14738 l -24.25,0.34214 z m 43.67836,37.83604 c 7.17755,-5.21972 9.90489,-18.78337 9.03801,-44.94803 -0.58376,-17.61915 -2.03035,-23.97696 -6.56439,-28.85064 -3.50455,-3.76707 -6.11772,-4.67394 -15.39301,-5.34193 l -7.75897,-0.55878 v 41.22517 41.22518 l 8.92836,-0.3495 c 7.04524,-0.27579 9.52349,-0.78229 11.75,-2.40147 z M -896.1263,122.03925 c -8.80158,-4.03754 -15.06718,-14.31933 -14.29905,-23.46459 0.26944,-3.20797 7.96015,-26.8851 20.35184,-62.65657 l 19.91874,-57.5 5.01423,-5.05536 c 8.20405,-8.27133 20.00767,-9.86175 29.94958,-4.0354 5.34519,3.13249 5.48088,3.32876 32.55525,47.09076 9.52757,15.4 17.63379,28.35897 18.01384,28.79771 0.38004,0.43873 5.55309,-13.28627 11.49567,-30.5 5.94258,-17.21374 11.85455,-33.40731 13.13772,-35.9857 4.00175,-8.04112 12.26441,-12.82733 22.08006,-12.79005 13.70859,0.0521 24.20747,10.51257 24.26016,24.17148 0.0228,5.90353 0.99343,2.9307 -31.66677,96.98545 -9.44903,27.21132 -11.13451,30.17763 -19.57837,34.45646 -4.3457,2.20213 -6.08427,2.51501 -12.2462,2.20385 -5.86699,-0.29627 -8.07884,-0.91724 -12.08409,-3.39256 -4.54394,-2.80825 -6.54868,-5.67778 -27.40261,-39.22348 -12.375,-19.90645 -22.73974,-36.20022 -23.03275,-36.20836 -0.29301,-0.008 -5.41629,14.0477 -11.38506,31.2352 -5.96877,17.1875 -11.6463,32.8309 -12.61672,34.76311 -4.26533,8.49268 -11.81789,12.94297 -21.96547,12.94297 -4.18511,0 -7.92455,-0.65348 -10.5,-1.83492 z m 214.66838,-0.72454 c -8.42067,-4.1962 -13.16838,-12.05164 -13.16838,-21.78808 0,-4.50088 3.50451,-15.57541 20.02419,-63.27806 14.70114,-42.45143 20.77739,-58.75386 22.85759,-61.32643 4.38703,-5.42541 12.10414,-9.00405 19.41669,-9.00405 7.48033,0 13.14943,2.53961 18.23513,8.16887 8.08003,8.94363 8.48325,16.017 1.9664,34.49551 -2.475,7.01786 -4.5,12.88932 -4.5,13.04768 0,0.15837 12.7322,0.28794 28.29379,0.28794 h 28.29378 l 5.87133,-17.25 c 3.22923,-9.4875 6.9454,-19.725 8.25816,-22.75 4.65841,-10.73437 12.17292,-15.93996 23.06506,-15.97804 7.31649,-0.0256 11.4183,1.45909 16.59952,6.00826 5.77908,5.07411 7.99127,10.21255 7.95154,18.46978 -0.0312,6.4758 -1.43823,11.00638 -18.78946,60.5 -10.31568,29.425 -19.1634,54.9052 -19.6616,56.62267 -1.28002,4.41268 -8.5647,12.32817 -13.34341,14.49886 -4.69501,2.13266 -12.98297,2.42005 -18.92269,0.65615 -6.2601,-1.85905 -13.10633,-9.21658 -15.16475,-16.29732 -2.05204,-7.05875 -1.61751,-10.11957 3.57396,-25.17542 2.18613,-6.33999 3.97477,-12.15223 3.97477,-12.9161 0,-1.1519 -4.7548,-1.38884 -27.87064,-1.38884 h -27.87064 l -6.78855,19.75 c -9.66562,28.12032 -11.10501,30.54294 -21.17051,35.63195 -5.13662,2.59701 -14.85149,2.14402 -21.13128,-0.98533 z m 215.26076,0.22261 c -6.3319,-2.94843 -11.02881,-8.51646 -13.07113,-15.49539 -2.02227,-6.91043 -1.47331,-10.20662 4.60053,-27.62384 7.46369,-21.40271 22.21661,-64.0491 28.65139,-82.8228 6.38909,-18.64043 9.62123,-23.67432 17.71706,-27.59345 5.83796,-2.8261 15.48436,-2.83758 21.29371,-0.0253 5.89772,2.85504 10.96517,8.80796 12.82286,15.06348 2.25335,7.58783 2.03379,9.37629 -2.94536,23.9927 -2.47599,7.26832 -4.38849,13.31631 -4.25,13.43998 0.13849,0.12365 17.1268,-10.54111 37.7518,-23.69949 45.41453,-28.97365 45.19768,-28.85512 52.78744,-28.85512 19.38599,0 30.61515,20.76608 19.87046,36.74643 -2.72351,4.05062 -7.17708,7.24539 -32.37623,23.22512 -16.07009,10.19065 -30.01142,19.02203 -30.98075,19.62529 -1.54831,0.9636 0.23965,3.18779 14.71834,18.30937 20.05815,20.94879 21.48874,23.12178 21.45808,32.59379 -0.0472,14.59257 -9.73464,24.42657 -24.11315,24.47804 -10.39534,0.0372 -12.85041,-1.89461 -43.81676,-34.47804 -15.15842,-15.95 -27.89527,-29.1069 -28.3041,-29.23756 -0.40883,-0.13066 -4.78884,11.51619 -9.73336,25.8819 -7.67399,22.29585 -9.5421,26.74664 -12.76126,30.4038 -7.54113,8.56717 -18.90553,10.92036 -29.31957,6.07109 z M -596.9018,-72.69074 c -0.33485,-0.33486 -0.6473,-26.65986 -0.69431,-58.5 l -0.0855,-57.89117 h 169.54291 169.54291 l -0.0468,57.0005 c -0.0258,31.35027 -0.30578,57.67527 -0.62225,58.5 -0.50827,1.32445 -20.21445,1.4995 -168.80179,1.4995 -92.52449,0 -168.50032,-0.27397 -168.83518,-0.60883 z"
   id="path1105" /><path
   d="m 221.89426,175.04381 -0.06,-0.06 c 17.59264,0.30022 33.08375,4.56329 42.51053,7.86565 0.36026,0.24017 0.90064,0.24017 1.2609,0.24017 0.72052,0 1.56112,-0.24017 2.2216,-0.66047 0.96069,-0.66047 1.62115,-1.86134 1.62115,-3.12225 v -13.62978 c 0,-1.20086 -0.42029,-2.04146 -1.32094,-2.94211 -1.20086,-1.32094 -2.34168,-2.52181 -3.54254,-3.66262 -0.60044,-0.60044 -1.20087,-1.02074 -1.92138,-1.26091 -2.52182,-0.72051 -8.16586,-1.92138 -9.78703,-2.22159 0.06,-0.06 0.24018,-0.30022 0.30022,-0.36026 l 7.20518,-12.36888 c 0.66046,-1.20086 0.66046,-2.64189 0,-3.84276 -0.36027,-0.60043 -3.54255,-3.96285 -3.54255,-3.96285 1.74125,-0.3002 3.36241,-0.66046 4.92353,-0.96068 0.60044,-0.06 1.2609,-0.30022 1.92138,-0.42031 1.74125,-0.36026 2.94211,-1.92137 2.94211,-3.66262 v -13.56978 c 0,-1.02073 -0.36026,-1.92138 -1.26091,-2.94211 -3.12224,-3.42245 -3.84275,-4.14297 -4.20301,-4.50323 -0.96069,-0.66047 -2.22159,-0.96068 -3.36242,-0.60044 -10.50753,3.12224 -26.479,4.86349 -43.77142,4.86349 -0.90065,0 -1.74125,0.30022 -2.34168,0.72053 -0.66047,-0.54039 -1.50107,-0.90065 -2.46176,-0.90065 H 196.7963 c -0.24018,-0.66048 -0.60043,-1.32095 -1.20086,-2.04147 -0.60044,-0.66048 -3.60259,-3.84276 -3.84277,-4.14297 -0.24017,-0.24017 -0.54038,-0.36025 -0.72052,-0.60042 -1.20085,-0.66048 -2.6419,-0.66048 -3.84275,0 l -12.36888,7.20516 c -0.54039,0.30022 -0.96069,0.66047 -1.26091,1.20086 -0.66047,-1.02073 -1.86133,-1.62116 -3.24232,-1.62116 h -8.82634 l -0.90064,-2.34168 13.44965,-13.269519 c 1.32095,-1.32096 1.56112,-3.66264 0.30022,-5.16371 -1.20087,-1.32095 -2.82204,-3.12225 -4.14298,-4.32311 -1.20086,-1.2609 -3.00216,-1.62116 -4.62332,-0.72051 l -11.82848,6.42461 v 0 c -0.24018,-0.60043 -0.60043,-0.96069 -1.02074,-1.56112 -1.32094,-1.44104 -2.70194,-2.94212 -3.54255,-3.84276 -0.72051,-0.90064 -1.86132,-1.32095 -3.00214,-1.32095 -1.56113,0 -3.00216,1.02073 -3.54255,2.6419 l -4.26306,12.549009 -21.13517,11.58831 c -1.26091,0.66047 -1.92138,1.92138 -1.92138,3.42246 v 16.93215 c -1.74125,-2.82202 -3.00216,-5.34384 -3.96285,-7.32526 v -5.46391 c 0,-1.20087 -0.42029,-2.04147 -1.2609,-2.94212 -0.90064,-0.90065 -2.70194,-2.94211 -3.54254,-3.84276 -0.72052,-0.90065 -1.74125,-1.32094 -2.94211,-1.32094 H 89.979616 c -1.260909,0 -2.341681,0.60043 -3.002158,1.44103 -0.660477,-0.90065 -1.74125,-1.44103 -3.002159,-1.44103 -18.793486,0 -36.926502,-2.2216 -47.253914,-5.76414 -1.200862,-0.36026 -2.461767,-0.24018 -3.542543,0.54039 -0.960689,0.66048 -1.621163,1.86133 -1.621163,3.12224 v 13.68982 c 0,1.02073 0.300215,1.86133 1.200861,2.70195 0.900647,0.90063 2.70194,2.9421 3.902801,4.26305 0.300216,0.30022 0.96069,0.72051 1.621165,0.9607 1.501077,0.36025 3.002154,0.72051 4.623318,1.20085 0.540388,0.06 0.900647,0.24018 1.320948,0.30021 -0.96069,2.22161 -2.161551,4.50324 -3.542543,6.72483 -4.623318,7.86565 -12.549007,14.89069 -17.8328,17.83281 -1.020732,0.60043 -1.741249,1.62115 -1.921379,2.82202 -0.240172,1.02074 0.06005,2.2216 0.900647,3.00216 6.60474,7.02504 7.025043,7.3853 13.990041,14.3503 0.900647,0.90065 1.74125,1.20086 2.701939,1.20086 0.660475,0 1.441035,-0.24018 2.041466,-0.60043 2.641896,-1.62117 5.343836,-3.84276 8.105819,-6.12439 3.662629,-3.24233 7.325257,-7.32526 10.507542,-11.76846 0.240172,0 0.360258,0 0.540387,0 h 12.669095 c 1.260904,2.04147 2.521809,3.90281 3.902801,5.64406 1.320948,1.74125 3.242327,3.90279 3.9028,4.62332 0.240173,0.24017 0.240173,0.30021 0.300216,0.60043 0.240173,0.54038 0.240173,0.66046 0.420303,1.20086 0.06005,0.30022 0.660473,0.72051 0.660473,1.20085"
   id="path4"
   style="stroke-width:0.600431;fill:#ffffff" /><g
   id="g24"
   transform="matrix(0.60043098,0,0,0.60043098,-27.704887,48.412921)"><g
     id="g22"
     style="fill:#e60012;fill-opacity:1"><g
       id="g8"
       style="fill:#e60012;fill-opacity:1"><polygon
         class="st0"
         points="276,201 298.8,201 298.8,112.2 276,134.8 "
         id="polygon6"
         style="fill:#e60012;fill-opacity:1" /></g><g
       id="g12"
       style="fill:#e60012;fill-opacity:1"><path
         class="st0"
         d="m 244.7,114.1 v 48.6 C 231.2,148.6 222.6,132.8 218.8,124.4 V 114 H 196 v 65.5 c -4.7,-6.4 -9.2,-14.7 -12.6,-24.2 -2.4,-6.9 -4.1,-13.5 -5,-19.6 2.6,0 5.2,0 7.6,0 V 114 c -33.4,0 -63.3,-4.1 -80.5,-9.8 V 127 c 2.4,0.6 4.9,1.2 7.5,2 5.4,1.2 11.3,2.2 17.8,3.2 -2,7.7 -5.5,16.3 -10.7,25.2 -8.1,13.6 -21.7,26.3 -31.9,31.9 l 16.6,16.6 c 4.4,-2.7 8.7,-6.1 12.6,-9.7 8.1,-7.1 15.7,-16.6 22.1,-27.1 6.9,-11.3 11.7,-23.2 14,-34.2 0.9,0 1.6,0.1 2.4,0.1 0.6,7 2.2,14.1 4.4,21.4 H 150 c -2.1,4.7 -4.5,9.4 -7.4,14 -1,1.6 -2,3.2 -3.1,4.7 h 27.6 c 3.4,7 7.4,13.5 11.5,19.1 2.1,2.7 4.2,5.2 6.4,7.2 l 11,-6 v 6 h 22.8 v -35.2 c 7.5,11.3 18.2,20.9 25.9,27.2 v 8 h 22.8 V 102 Z"
         id="path10"
         style="fill:#e60012;fill-opacity:1" /></g><g
       id="g16"
       style="fill:#e60012;fill-opacity:1"><path
         class="st0"
         d="m 474.1,186.1 c -12.3,-2.7 -26.9,-4.9 -42.8,-5.9 2,-4.5 3.6,-9 4.9,-13 h 19.6 l 12,-20.6 h -26.9 c 0.6,-4.9 0.7,-9.1 0.7,-12.6 12,-1.1 23.1,-2.9 32.5,-5 1.1,-0.4 2.1,-0.5 3.2,-0.7 v -22.7 c -17.2,5 -44.3,8.5 -74.7,8.5 v 21.7 c 5.5,0 11.2,-0.1 16.6,-0.4 0,3.9 -0.4,7.6 -1,11.2 h -4.9 l -12,20.6 h 11.5 c -1.7,4.7 -3.6,8.7 -5.4,12 -1.6,0 -3.2,0 -5,0 v 21.7 c 33.4,0 62.6,4.1 79.4,9.8 V 188 c -2.3,-0.7 -4.8,-1.3 -7.7,-1.9 z"
         id="path14"
         style="fill:#e60012;fill-opacity:1" /></g><g
       id="g20"
       style="fill:#e60012;fill-opacity:1"><path
         class="st0"
         d="m 371.9,113.9 v 6.4 c -3.2,1.5 -6.9,2.5 -10.6,3.2 V 102 l -20.6,12 v 9.4 c -3.7,-0.6 -7.4,-1.7 -10.5,-3.2 v -6.4 h -22.8 c 0,0 0,57.1 0,87 h 22.8 V 144 c 3.4,1 7,1.6 10.5,2.1 v 49 l 20.6,-11.3 V 146 c 3.6,-0.5 7.1,-1.1 10.6,-2.1 V 201 h 22.8 c 0,-30 0,-87 0,-87 h -22.8 z"
         id="path18"
         style="fill:#e60012;fill-opacity:1" /></g></g></g><polygon
   class="st1"
   points="272.3,122.2 289.6,105.1 305.6,109.8 299.8,94.9 325.3,70 296.2,85.9 289.9,70.5 282,93.7 270.8,99.8 279,102.1 "
   id="polygon26"
   style="fill:#e60012;fill-opacity:1"
   transform="matrix(0.60043098,0,0,0.60043098,-27.704887,48.412921)" /><g
   id="g90"
   transform="matrix(0.60043098,0,0,0.60043098,-123.71949,157.14169)"
   style="fill:#999999" /></svg>
