<?xml version="1.0" encoding="UTF-8" standalone="no"?>
<!-- Generator: Adobe Illustrator 16.0.0, SVG Export Plug-In . SVG Version: 6.00 Build 0)  -->

<svg
   version="1.1"
   id="Layer_1"
   x="0px"
   y="0px"
   width="280px"
   height="280px"
   viewBox="0 0 280 280"
   enable-background="new 0 0 280 280"
   xml:space="preserve"
   sodipodi:docname="canaleducao.svg"
   inkscape:version="1.1.2 (0a00cf5339, 2022-02-04)"
   xmlns:inkscape="http://www.inkscape.org/namespaces/inkscape"
   xmlns:sodipodi="http://sodipodi.sourceforge.net/DTD/sodipodi-0.dtd"
   xmlns="http://www.w3.org/2000/svg"
   xmlns:svg="http://www.w3.org/2000/svg"><defs
   id="defs5011" /><sodipodi:namedview
   id="namedview5009"
   pagecolor="#ffffff"
   bordercolor="#000000"
   borderopacity="0.25"
   inkscape:showpageshadow="2"
   inkscape:pageopacity="0.0"
   inkscape:pagecheckerboard="0"
   inkscape:deskcolor="#d1d1d1"
   showgrid="false"
   inkscape:zoom="1.0442452"
   inkscape:cx="98.635838"
   inkscape:cy="10.05511"
   inkscape:window-width="1276"
   inkscape:window-height="811"
   inkscape:window-x="26"
   inkscape:window-y="17"
   inkscape:window-maximized="0"
   inkscape:current-layer="Layer_1"
   inkscape:pageshadow="2"
   showguides="true" />


<rect
   y="0"
   fill-rule="evenodd"
   clip-rule="evenodd"
   fill="#164E86"
   width="280"
   height="280"
   id="rect4994-7"
   style="fill:#eb8d1b;fill-opacity:1;stroke:none;stroke-width:0.999999;stroke-opacity:1"
   x="0" /><path
   style="fill:#ffffff"
   d="m 109.50165,164.68546 v -8 h 3 c 2.88889,0 3,0.16667 3,4.5 v 4.5 h 26 26 v -4.5 c 0,-4.33333 0.11111,-4.5 3,-4.5 h 3 v 8 8 h -32 -32 z m 105.5,-4 c -0.8714,-1.40996 0.31026,-2.98563 2.30902,-3.07895 0.9472,-0.0442 1.16587,-0.29256 0.49716,-0.56461 -0.65661,-0.26711 -0.94596,-1.13158 -0.64301,-1.92105 0.30294,-0.78946 0.0322,-1.43539 -0.60164,-1.43539 -0.63384,0 -2.25698,-1.10455 -3.60698,-2.45455 -5.48072,-5.48071 -1.18637,-16.54545 6.42147,-16.54545 3.63208,0 8.12398,1.89096 8.12398,3.41997 0,1.70659 -3.9175,3.74099 -5.95718,3.09362 -1.74655,-0.55433 -5.04282,1.69123 -5.04282,3.43539 0,1.70474 3.07978,3.24781 5.34666,2.67886 1.66425,-0.4177 2.93444,0.0253 4.2543,1.48372 1.84949,2.04367 1.8415,2.11174 -0.46754,3.98148 -1.44569,1.17065 -2.11678,2.50794 -1.74489,3.47706 1.10256,2.87324 -1.18797,5.4299 -4.8647,5.4299 -1.87319,0 -3.68391,-0.45 -4.02383,-1 z m -80.19745,-7.15833 c -1.20859,-0.60522 -2.94792,-2.68192 -3.86518,-4.6149 -1.37082,-2.88878 -1.46838,-4.17992 -0.54796,-7.25201 1.44963,-4.83841 3.40939,-6.3738 8.20658,-6.4295 l 3.89767,-0.0453 0.003,-4.25 c 0.003,-4.18987 0.0529,-4.25 3.50334,-4.25 h 3.5 v 13.5 13.5 h -3.375 c -1.85625,0 -4.66875,0.21197 -6.25,0.47103 -1.58125,0.25907 -3.86385,-0.0241 -5.07245,-0.62936 z m 7.51442,-9.09736 c 0.38222,-3.32296 -2.22298,-4.76687 -4.49729,-2.49256 -2.18796,2.18796 -0.8191,5.96046 2.01621,5.55655 1.52165,-0.21678 2.25821,-1.12638 2.48108,-3.06399 z m 14.68303,9.10096 c -3.65292,-1.99799 -4.5,-4.07549 -4.5,-11.0364 v -6.80887 h 3 c 2.96142,0 3,0.0692 3,5.37755 0,6.55088 2.3153,9.55355 3.98343,5.16604 0.55911,-1.47058 1.01657,-4.44449 1.01657,-6.60869 0,-3.70544 0.17494,-3.9349 3,-3.9349 h 3 v 6.57692 c 0,5.9359 -0.2849,6.86183 -2.92308,9.5 -3.04805,3.04806 -6.17994,3.62635 -9.57692,1.76835 z m 19.50115,-0.55604 c -1.92437,-0.98408 -4.09411,-3.04276 -4.82164,-4.57484 -3.96628,-8.35249 7.0437,-17.44891 14.66143,-12.11324 2.19025,1.53411 2.21258,1.68223 0.53324,3.53788 -1.24388,1.37447 -2.52246,1.76768 -4.40411,1.3544 -1.7868,-0.39245 -3.09205,-0.0514 -4.00274,1.04593 -1.97817,2.38356 0.0293,4.96064 3.8642,4.96064 1.69927,0 3.87876,0.7875 4.84331,1.75 1.5471,1.54381 1.57962,1.92411 0.27605,3.22768 -2.43812,2.43812 -7.09416,2.78321 -10.94974,0.81155 z m 17.48944,0.50489 c -6.22579,-3.29859 -7.40479,-11.03377 -2.4387,-15.99986 2.78318,-2.78318 3.45582,-2.99652 7.63957,-2.42307 2.52323,0.34584 5.64988,0.62881 6.94811,0.62881 2.29612,0 2.36043,0.23243 2.36043,8.53138 0,5.95357 -0.3777,8.64746 -1.25,8.91554 -3.46778,1.0657 -11.50603,1.27619 -13.25941,0.3472 z m 7.50941,-8.68713 c 0,-3.23366 -2.43995,-4.81668 -4.62675,-3.0018 -1.44497,1.19922 -1.83674,4.09799 -0.70658,5.22814 0.36666,0.36667 1.71666,0.66667 3,0.66667 1.90675,0 2.33333,-0.5289 2.33333,-2.89301 z m 32.38812,8.93713 c -2.94586,-1.224 -6.38812,-5.86562 -6.38812,-8.61388 0,-3.6708 1.71713,-7.19879 4.34033,-8.91758 1.91482,-1.25463 3.83119,-1.44833 9.04463,-0.9142 l 6.61504,0.67773 v 8.8619 8.86191 l -3.75,0.0136 c -2.0625,0.007 -4.65,0.21487 -5.75,0.4608 -1.1,0.24593 -2.95035,0.0523 -4.11188,-0.43034 z m 6.97351,-7.54412 c 1.29558,-3.37624 -2.34792,-6.5862 -4.98838,-4.39481 -1.69186,1.40412 -1.75493,3.11313 -0.17325,4.69481 1.66443,1.66443 4.47039,1.50134 5.16163,-0.3 z m 15.63837,7.79629 c -0.825,-0.30019 -2.7375,-1.69886 -4.25,-3.10814 -3.63221,-3.38434 -3.7759,-8.88394 -0.33658,-12.88239 2.0659,-2.40175 3.15831,-2.80576 7.58658,-2.80576 4.42827,0 5.52068,0.40401 7.58658,2.80576 4.59934,5.34705 2.48312,13.19644 -4.24771,15.7555 -2.68846,1.02215 -4.03818,1.0722 -6.33887,0.23503 z m 5.8041,-9.41854 c 0.32391,-2.79313 -1.63161,-4.26491 -4.3041,-3.23938 -1.53387,0.5886 -2.0678,4.46049 -0.79115,5.73715 1.62973,1.62973 4.79662,0.0773 5.09525,-2.49777 z m -152.8041,-3.87775 v -13 h 9.5 c 9.41737,0 9.5,0.0213 9.5,2.45228 0,2.30924 -0.36398,2.46965 -6.23996,2.75 -4.92901,0.23517 -6.30789,0.65449 -6.56335,1.99593 -0.26922,1.41374 0.65038,1.74875 5.48996,2 5.48305,0.28464 5.83104,0.4551 6.12478,3.00005 0.30337,2.62841 0.16097,2.70608 -5.5,3 -5.1568,0.26775 -5.84743,0.55519 -6.13098,2.55174 -0.30357,2.13743 0.009,2.25 6.25,2.25 h 6.56955 v 3 3 h -9.5 -9.5 z m -92.90439,9.427 c -8.9900395,-7.56462 -3.68498,-22.427 8.005218,-22.427 6.880559,0 10.891381,3.10172 7.572527,5.85613 -0.969492,0.8046 -2.191264,0.77465 -4.538298,-0.11125 -4.049935,-1.52868 -8.023199,0.396 -9.405155,4.55594 -2.057428,6.19322 4.057822,12.11991 9.804058,9.50175 2.023337,-0.92189 2.819591,-0.79258 4.503518,0.73135 l 2.045606,1.85125 -2.291543,1.27198 c -1.260349,0.69959 -4.619517,1.28792 -7.464818,1.30741 -4.130056,0.0283 -5.789904,-0.48342 -8.231113,-2.53756 z m 20.976968,-0.0619 c -2.86213,-3.63861 -2.711442,-8.81719 0.345517,-11.87415 2.081502,-2.0815 3.334289,-2.41106 9,-2.36758 l 6.581903,0.0505 v 8.41304 8.41303 h -6.92742 c -6.292731,0 -7.117309,-0.2414 -9,-2.63486 z m 9.881739,-2.8101 c 0.659565,-0.79473 1.052165,-2.48223 0.872445,-3.75 -0.25827,-1.82188 -0.955601,-2.30504 -3.326764,-2.30504 -2.420893,0 -3.066592,0.47177 -3.34497,2.44397 -0.212051,1.5023 0.343221,2.94719 1.44113,3.75 2.269197,1.65928 2.881992,1.63974 4.358159,-0.13893 z m 10.255239,-2.80504 0.290442,-8.25 6.365227,-0.30071 c 8.800295,-0.41575 10.134773,0.89515 10.134773,9.9557 v 6.84501 h -3 -3 v -6.06955 c 0,-5.72237 -0.128703,-6.05128 -2.25,-5.75 -1.993185,0.28307 -2.284231,0.97585 -2.549904,6.06955 -0.294757,5.65132 -0.351225,5.75 -3.290442,5.75 h -2.990539 z m 22.526599,7 c -1.683994,-1.27878 -3.736157,-5.80388 -3.736157,-8.23838 0,-0.74699 1.14412,-2.71788 2.542489,-4.37975 2.393577,-2.8446 2.949989,-3.01774 9.5,-2.95611 l 6.957511,0.0655 v 8.37939 8.37938 h -6.80887 c -3.902509,0 -7.511508,-0.53356 -8.454973,-1.25 z m 8.692414,-4.32143 c 1.85909,-1.85909 1.875039,-1.99276 0.536245,-4.49431 -1.686474,-3.15121 -6.964816,-1.86716 -6.964816,1.69431 0,1.40357 2.715686,4.37143 4,4.37143 0.471429,0 1.564286,-0.70715 2.428571,-1.57143 z m 10.571429,-7.49812 c 0,-12.98163 0.01514,-13.0674 2.250002,-12.75 2.18179,0.30986 2.25848,0.70605 2.52988,13.06955 l 0.27987,12.75 h -2.52987 -2.529882 z m 131.265772,-7.68045 c -0.26386,-0.6875 -0.21235,-1.94682 0.11447,-2.7985 0.47667,-1.24218 1.88924,-1.46624 7.14094,-1.13271 7.3177,0.46475 8.3923,1.01208 6.83083,3.47917 -1.33961,2.11657 -13.30008,2.50039 -14.08624,0.45204 z m -120.5991,-7.91667 c -0.36667,-0.36666 -0.66667,-3.96666 -0.66667,-8 v -7.33333 h 32 32 v 8 8 h -2.94521 c -2.80414,0 -2.95981,-0.22752 -3.25,-4.75 l -0.30479,-4.75 h -25.5 -25.5 l -0.30479,4.75 c -0.26871,4.18771 -0.57452,4.75 -2.58333,4.75 -1.2532,0 -2.57855,-0.3 -2.94521,-0.66667 z"
   id="path870" /></svg>
