<?xml version="1.0" encoding="UTF-8" standalone="no"?>
<!-- Generator: Adobe Illustrator 16.0.0, SVG Export Plug-In . SVG Version: 6.00 Build 0)  -->

<svg
   version="1.1"
   id="Layer_1"
   x="0px"
   y="0px"
   width="280px"
   height="280px"
   viewBox="0 0 280 280"
   enable-background="new 0 0 280 280"
   xml:space="preserve"
   sodipodi:docname="portocanal.svg"
   inkscape:version="1.1.2 (0a00cf5339, 2022-02-04)"
   xmlns:inkscape="http://www.inkscape.org/namespaces/inkscape"
   xmlns:sodipodi="http://sodipodi.sourceforge.net/DTD/sodipodi-0.dtd"
   xmlns="http://www.w3.org/2000/svg"
   xmlns:svg="http://www.w3.org/2000/svg"><defs
   id="defs5011" /><sodipodi:namedview
   id="namedview5009"
   pagecolor="#ffffff"
   bordercolor="#000000"
   borderopacity="0.25"
   inkscape:showpageshadow="2"
   inkscape:pageopacity="0.0"
   inkscape:pagecheckerboard="0"
   inkscape:deskcolor="#d1d1d1"
   showgrid="false"
   inkscape:zoom="1.0442452"
   inkscape:cx="2.8728885"
   inkscape:cy="247.06841"
   inkscape:window-width="1600"
   inkscape:window-height="828"
   inkscape:window-x="0"
   inkscape:window-y="0"
   inkscape:window-maximized="1"
   inkscape:current-layer="Layer_1"
   inkscape:pageshadow="2"
   showguides="false" />
<rect
   y="0"
   fill-rule="evenodd"
   clip-rule="evenodd"
   fill="#164E86"
   width="280"
   height="280"
   id="rect4994-7"
   style="fill:#015aff;fill-opacity:1;stroke:none;stroke-width:0.999999;stroke-opacity:1"
   x="0" />

<path
   style="fill:#ffffff;stroke-width:0.394707"
   d="m 51.884153,226.07267 c -5.27431,-0.92929 -7.96998,-4.63562 -7.51292,-10.32965 0.10936,-1.36243 0.48345,-3.02753 0.83132,-3.70022 2.16365,-4.18403 7.69905,-6.03093 12.10203,-4.03786 1.94337,0.8797 3.94707,2.59276 3.94707,3.37455 0,0.27271 -0.75217,0.94438 -1.67149,1.4926 l -1.67149,0.99675 -1.20893,-1.17173 c -0.95776,-0.9283 -1.55985,-1.17174 -2.898,-1.17174 -4.12248,0 -5.89166,5.76074 -2.82369,9.19439 0.95633,1.07032 1.40533,1.26535 2.91322,1.26535 1.42055,0 2.02027,-0.22767 2.95253,-1.12083 1.2596,-1.20677 1.74029,-1.14019 3.90895,0.5414 l 0.88256,0.68436 -0.8212,1.04399 c -1.67665,2.13151 -5.80337,3.48952 -8.92996,2.93864 z m 17.07756,-0.14331 c -2.86468,-0.74615 -4.1577,-2.33356 -4.1577,-5.10432 0,-3.6127 2.17406,-5.25463 7.89414,-5.96196 1.19399,-0.14764 2.39291,-0.44793 2.66427,-0.66729 0.8011,-0.64759 0.5666,-1.81484 -0.50577,-2.51748 -1.17367,-0.76902 -4.22021,-0.56058 -6.19332,0.42373 -0.66971,0.3341 -1.34385,0.60745 -1.4981,0.60745 -0.31061,0 -1.73856,-3.52058 -1.51493,-3.73505 0.0773,-0.0741 1.27993,-0.50736 2.67259,-0.96279 4.61592,-1.50952 9.8233,-0.76412 11.63666,1.6657 0.72927,0.97719 0.85407,1.81618 1.02745,6.90737 0.1892,5.55581 0.23236,5.80008 1.04521,5.91595 0.47744,0.068 0.9493,0.49917 1.08005,0.98677 0.47837,1.78393 0.28537,2.20366 -1.1359,2.47029 -1.81272,0.34007 -3.21235,-0.0418 -4.36009,-1.18951 -0.806,-0.806 -1.00054,-0.85493 -1.41474,-0.35585 -1.23783,1.4915 -4.61825,2.19981 -7.23982,1.51699 z m 5.86628,-4.24028 c 0.71132,-0.63827 1.01855,-1.35829 1.09216,-2.55958 0.0563,-0.91932 -0.0264,-1.68627 -0.18389,-1.70433 -1.04783,-0.12022 -4.81978,1.01306 -5.44167,1.63495 -0.91474,0.91475 -0.94516,1.48978 -0.13965,2.63981 0.85075,1.21461 3.3137,1.20889 4.67305,-0.0109 z m 38.053627,4.26755 c -1.01906,-0.26581 -2.14088,-0.72235 -2.49294,-1.01454 -1.75819,-1.45916 -2.26834,-4.55506 -1.14181,-6.92906 0.73857,-1.55642 3.23116,-2.657 7.06641,-3.12011 1.30254,-0.15729 2.59027,-0.46822 2.86163,-0.69097 0.8003,-0.65693 0.56706,-1.82069 -0.50577,-2.52364 -1.17075,-0.7671 -4.21887,-0.56125 -6.18063,0.4174 -1.4505,0.7236 -1.80146,0.54769 -2.56815,-1.28726 -0.53966,-1.29159 -0.53111,-1.45238 0.10192,-1.91526 2.24118,-1.63879 8.15367,-2.16606 11.18416,-0.9974 3.01216,1.1616 3.36578,2.01681 3.59305,8.68949 0.1892,5.55523 0.23236,5.79952 1.0452,5.91539 0.47744,0.068 0.9493,0.49917 1.08006,0.98677 0.47837,1.78393 0.28536,2.20366 -1.1359,2.47029 -1.76751,0.33159 -3.16045,-0.0257 -4.21633,-1.08163 -0.67372,-0.67372 -0.96283,-0.74781 -1.47011,-0.37673 -2.15254,1.57456 -4.75645,2.10007 -7.22079,1.45726 z m 5.74668,-4.19752 c 0.87391,-0.68743 1.03999,-1.13087 1.03999,-2.77684 0,-1.74056 -0.0769,-1.91836 -0.69073,-1.59602 -0.37991,0.19952 -1.46441,0.49098 -2.40999,0.6477 -0.94559,0.15671 -2.05571,0.62138 -2.46693,1.0326 -2.3188,2.3188 1.85061,4.79832 4.52766,2.69256 z m -31.325987,-5.10255 v -9.07826 h 2.5656 c 2.51343,0 2.56559,0.0213 2.56559,1.04794 0,0.98122 0.0449,1.00731 0.70519,0.40976 2.07049,-1.87377 5.49807,-2.32835 7.985957,-1.05912 2.64646,1.35012 2.93439,2.33592 3.08274,10.55454 l 0.13002,7.2034 h -2.59694 -2.596947 v -6.1359 c 0,-5.98838 -0.0233,-6.15919 -0.96882,-7.10472 -1.35802,-1.35802 -3.11532,-1.28718 -4.58744,0.18493 l -1.15376,1.15376 v 5.95097 5.95096 h -2.56559 -2.5656 z m 43.812487,-3.15765 v -12.23592 h 2.56559 2.5656 v 12.23592 12.23591 h -2.5656 -2.56559 z M 97.866013,191.01035 c -8.02083,-1.44794 -13.38634,-6.04585 -15.56212,-13.33574 -0.83187,-2.78718 -0.9213,-8.89209 -0.17483,-11.93526 2.22987,-9.09063 10.83882,-14.86356 20.997237,-14.0802 11.00537,0.84867 18.24287,8.6398 18.21289,19.6061 -0.0258,9.45126 -5.17389,16.71992 -13.51211,19.07806 -2.76554,0.78212 -7.54912,1.10246 -9.961067,0.66704 z m 7.713777,-10.45129 c 2.939,-1.41107 4.56997,-4.6213 4.59821,-9.05066 0.0233,-3.64452 -0.63445,-5.61248 -2.53748,-7.59281 -3.43259,-3.57201 -9.558067,-3.57287 -12.556167,-0.002 -1.80743,2.15288 -2.41185,3.9302 -2.43288,7.15406 -0.0336,5.14275 1.87057,8.5369 5.55453,9.90104 1.948007,0.72134 5.419607,0.52836 7.373787,-0.40988 z m 108.33009,10.45129 c -9.61297,-1.73537 -15.23852,-7.80112 -16.30635,-17.58234 -0.35506,-3.25236 0.44985,-8.16646 1.82833,-11.16222 1.2814,-2.78478 4.45698,-6.37962 6.90064,-7.8117 3.60062,-2.1101 5.94436,-2.66744 11.22314,-2.66883 4.51507,-0.001 5.16835,0.0941 7.69679,1.1227 7.03691,2.86269 10.67763,7.69571 12.13605,16.11048 0.39559,2.28247 0.36203,3.2036 -0.22289,6.11796 -1.95424,9.73696 -8.41864,15.35596 -18.42583,16.01616 -1.62817,0.10741 -3.80161,0.0434 -4.82988,-0.14221 z m 7.81095,-10.51652 c 5.17867,-2.65025 6.29735,-11.9482 2.00528,-16.66684 -2.63655,-2.89857 -7.79352,-3.39328 -11.30706,-1.08468 -3.13016,2.05669 -4.70464,7.66994 -3.40517,12.13996 0.78,2.68309 2.9968,5.28091 5.18675,6.07824 2.07256,0.75458 5.55624,0.5384 7.5202,-0.46668 z M 45.858073,171.47406 v -19.15475 h 10.71322 c 9.61065,0 10.98942,0.0823 13.39709,0.7993 3.82248,1.13838 6.40959,3.28652 7.99931,6.64204 1.11419,2.35179 1.2417,2.99367 1.23037,6.19367 -0.0109,3.08778 -0.16085,3.87291 -1.10995,5.81281 -1.53422,3.13582 -4.33635,5.49556 -7.83826,6.60078 -2.04852,0.64653 -4.15308,0.92402 -8.23261,1.08552 l -5.48056,0.21696 -0.10943,5.36908 -0.10944,5.36907 -5.22987,0.11014 -5.22987,0.11013 z m 20.71552,-2.17983 c 1.52425,-0.57952 2.38664,-2.87914 1.80623,-4.8164 -0.67415,-2.2501 -1.85876,-2.68555 -7.30593,-2.68555 h -4.55873 v 3.94707 3.94707 h 4.51344 c 2.48239,0 4.97763,-0.17649 5.54499,-0.39219 z m 58.883737,21.04853 c -0.14473,-0.14473 -0.26314,-8.75921 -0.26314,-19.14329 v -18.88016 h 10.96166 c 9.48899,0 11.31868,0.099 13.61903,0.73687 4.43359,1.22939 7.04752,3.52979 8.37323,7.36886 1.89189,5.47864 -0.091,11.43013 -4.99919,15.00479 l -1.05624,0.76926 3.86229,7.10473 3.86229,7.10472 -5.73568,0.10962 c -3.15462,0.0603 -5.86081,-0.0285 -6.01375,-0.19735 -0.15293,-0.16884 -1.65696,-3.01565 -3.34227,-6.32626 l -3.0642,-6.01928 h -2.66545 c -2.06644,0 -2.7193,0.14031 -2.90504,0.62434 -0.13178,0.34339 -0.23959,3.18528 -0.23959,6.31532 v 5.69097 h -5.0654 c -2.78598,0 -5.18383,-0.11842 -5.32855,-0.26314 z m 21.25029,-21.60911 c 1.6813,-1.6813 1.77185,-3.90748 0.23615,-5.80601 -0.72754,-0.89944 -0.9671,-0.938 -5.82693,-0.938 h -5.0682 l -0.11297,3.84839 -0.11297,3.84839 h 4.96607 c 4.72362,0 5.01259,-0.0465 5.91885,-0.95277 z m 26.91519,21.62032 c -0.1509,-0.15089 -0.27436,-6.639 -0.27436,-14.41802 v -14.14367 h -5.72325 -5.72325 v -4.73648 -4.73649 h 16.77505 16.77505 v 4.73649 4.73648 h -5.71833 -5.71833 l -0.1036,14.30813 -0.1036,14.30813 -4.95551,0.1099 c -2.72554,0.0604 -5.07898,-0.0136 -5.22987,-0.16447 z M 60.462563,141.48429 c 0.003,-3.66614 1.78869,-16.31612 3.2175,-22.79208 0.71859,-3.25696 1.04054,-4.01693 2.16233,-5.10421 0.72492,-0.70262 1.42557,-1.16996 1.557,-1.03852 0.13144,0.13143 -0.13605,1.71785 -0.59442,3.52538 -1.32247,5.21508 -3.14445,16.46551 -3.43123,21.18731 l -0.26281,4.32702 -1.32434,0.15461 c -0.75953,0.0887 -1.32421,-0.022 -1.32403,-0.25951 z m 124.445487,0.25815 c -2.82646,-0.135 -2.64893,0.21409 -3.05184,-6.00082 -0.45483,-7.01574 -2.62953,-19.84435 -4.75065,-28.0242 -6.19611,-23.894541 -17.8488,-41.602347 -29.80777,-45.296881 -2.84971,-0.88037 -8.18927,-0.882758 -11.0518,-0.0049 -5.93952,1.821392 -12.8888,8.018 -17.85501,15.92115 l -1.00782,1.60383 1.28426,1.55382 c 9.88639,11.96145 16.98432,33.802681 18.87983,58.095611 l 0.16169,2.07221 h -2.66797 -2.66797 l -0.22093,-1.87486 c -0.1215,-1.03117 -0.32444,-3.02938 -0.45096,-4.44045 -1.56959,-17.50502 -7.24407,-35.720821 -14.50891,-46.575421 -5.74445,-8.58296 -11.29557,-12.60162 -17.887377,-12.9493 -4.15985,-0.21941 -6.73955,0.5362 -10.56435,3.09438 -5.50405,3.68133 -10.28556,10.07094 -14.3928,19.23334 -2.061,4.597641 -2.24266,5.225731 -1.51149,5.225731 1.06815,0 4.34642,1.60272 6.25425,3.05765 7.21822,5.50469 12.41981,17.47287 14.66783,33.74878 l 0.20444,1.48015 h -2.69215 -2.69215 l -0.28236,-2.63661 c -0.89755,-8.38122 -4.75385,-19.09847 -8.86117,-24.62663 -6.80503,-9.15906 -14.9092,-7.49487 -21.28194,4.37023 -2.77495,5.16656 -5.47942,14.08251 -6.19787,20.43276 l -0.27835,2.46025 h -2.7021 -2.7021 l 0.17915,-1.08544 c 0.0985,-0.597 0.36885,-2.41757 0.60071,-4.04575 1.37176,-9.63268 5.44488,-20.19435 9.95787,-25.82097 2.36857,-2.95305 5.48764,-5.56068 7.63316,-6.38155 1.48145,-0.56678 1.70676,-0.85317 2.71414,-3.44975 8.27164,-21.320641 20.7014,-32.389784 34.055547,-30.327684 3.19132,0.492791 7.7185,2.370018 10.10448,4.189903 0.72482,0.55285 1.49177,1.00518 1.70432,1.00518 0.21255,0 1.2615,-1.28774 2.33099,-2.861634 1.06949,-1.573895 3.36547,-4.348867 5.10218,-6.166603 5.19274,-5.435007 10.16502,-8.501817 16.0854,-9.921176 4.24134,-1.016824 6.12124,-0.9873 10.60539,0.166559 5.82946,1.500036 9.20003,3.562069 14.57262,8.91517 2.50561,2.496522 5.33685,5.738053 6.29165,7.203403 0.9548,1.465351 1.9075,2.664281 2.11711,2.664281 0.20961,0 0.93073,-0.41807 1.60249,-0.92905 3.43073,-2.609594 9.04966,-4.573052 13.13546,-4.590005 0.90844,-0.0036 2.90593,0.256982 4.43887,0.579446 10.05819,2.115807 19.38289,12.194449 25.80189,27.888099 2.09885,5.131421 1.93771,4.900761 4.08823,5.852031 2.4615,1.08885 7.48865,6.22875 9.61708,9.83278 3.26521,5.52894 5.98805,13.52871 7.2709,21.36216 0.33774,2.06234 0.69846,4.23816 0.80159,4.83516 l 0.18752,1.08544 h -2.75308 c -1.5142,0 -2.75309,-0.0992 -2.75309,-0.22041 0,-1.04403 -1.03845,-6.64879 -1.82401,-9.84461 -1.23528,-5.02535 -2.98234,-9.92431 -4.7109,-13.20991 -1.73946,-3.3063 -5.04429,-7.54609 -5.21458,-6.68981 -0.0684,0.34377 0.33544,2.564 0.89735,4.93384 1.57487,6.64207 3.34365,18.76514 3.34971,22.9587 l 0.003,2.07221 h -2.49052 -2.49052 l -0.89036,-7.4008 c -2.39666,-19.9212 -7.43197,-35.382121 -15.18741,-46.632841 -3.8756,-5.6223 -9.2095,-10.0665 -13.62089,-11.34893 -3.15886,-0.9183 -7.88138,-0.59121 -10.80455,0.74835 -2.08862,0.95712 -4.90559,2.79975 -5.47495,3.58125 -0.13163,0.18069 0.78195,2.57955 2.0302,5.3308 4.87389,10.74252 8.22677,22.743451 10.42582,37.317021 0.93935,6.22526 2.02472,17.61721 1.74092,18.27258 -0.0786,0.18143 -1.24648,0.27716 -2.59535,0.21274 z m -87.341997,-2.15243 c 0.004,-5.75194 1.84316,-19.26537 3.801157,-27.92552 2.09461,-9.26438 4.78874,-17.594661 7.95846,-24.607681 l 1.04258,-2.30672 0.8451,1.05985 0.84509,1.05985 -1.56427,3.81247 c -5.14893,12.549041 -8.64737,27.655331 -10.04674,43.381851 l -0.676097,7.59811 h -1.10331 c -1.06803,0 -1.10328,-0.0663 -1.10197,-2.07221 z m 49.906597,-0.98677 c 1.54296,-17.63698 5.97944,-34.55593 12.10707,-46.171581 1.88095,-3.56556 4.91115,-8.39667 5.26663,-8.39667 0.0836,0 0.3555,0.61652 0.60418,1.37004 0.41249,1.24984 0.35026,1.51819 -0.7094,3.05898 -4.26631,6.2034 -8.72363,17.488041 -11.35073,28.736741 -1.42771,6.11315 -3.31646,17.96762 -3.33141,20.90911 -0.0148,2.90499 -0.31902,3.55236 -1.66949,3.55236 h -1.18446 z m 43.63762,2.41535 c 0,-3.8592 2.74295,-15.13648 4.96052,-20.39456 2.80189,-6.64353 7.30019,-12.49122 11.09401,-14.42196 l 1.64771,-0.83855 0.2647,1.20517 c 0.14559,0.66285 0.2034,1.25048 0.12847,1.30586 -0.0749,0.0554 -0.99811,0.7075 -2.0515,1.44917 -5.60547,3.94669 -10.59238,14.5473 -12.93855,27.50334 l -0.87559,4.83516 h -1.11488 c -0.76759,0 -1.11489,-0.2005 -1.11489,-0.64363 z"
   id="path9816" /></svg>
