<?xml version="1.0" encoding="UTF-8" standalone="no"?>
<!-- Generator: Adobe Illustrator 16.0.0, SVG Export Plug-In . SVG Version: 6.00 Build 0)  -->

<svg
   version="1.1"
   id="Layer_1"
   x="0px"
   y="0px"
   width="280px"
   height="280px"
   viewBox="0 0 280 280"
   enable-background="new 0 0 280 280"
   xml:space="preserve"
   sodipodi:docname="vplus.svg"
   inkscape:version="1.1.2 (0a00cf5339, 2022-02-04)"
   xmlns:inkscape="http://www.inkscape.org/namespaces/inkscape"
   xmlns:sodipodi="http://sodipodi.sourceforge.net/DTD/sodipodi-0.dtd"
   xmlns="http://www.w3.org/2000/svg"
   xmlns:svg="http://www.w3.org/2000/svg"><defs
   id="defs216276">
	
	
	
</defs><sodipodi:namedview
   id="namedview216274"
   pagecolor="#ffffff"
   bordercolor="#666666"
   borderopacity="1.0"
   inkscape:pageshadow="2"
   inkscape:pageopacity="0.0"
   inkscape:pagecheckerboard="0"
   showgrid="false"
   inkscape:zoom="0.74285714"
   inkscape:cx="240.96154"
   inkscape:cy="193.84615"
   inkscape:window-width="1600"
   inkscape:window-height="828"
   inkscape:window-x="0"
   inkscape:window-y="0"
   inkscape:window-maximized="1"
   inkscape:current-layer="layer1"
   inkscape:showpageshadow="2"
   inkscape:deskcolor="#d1d1d1" />
<g
   inkscape:groupmode="layer"
   id="layer2"
   inkscape:label="BG"><rect
     y="0"
     fill-rule="evenodd"
     clip-rule="evenodd"
     fill="#164E86"
     width="280"
     height="280"
     id="rect4994-7"
     style="fill:#2b2b2b;fill-opacity:1;stroke:none;stroke-width:0.999999;stroke-opacity:1"
     x="0" /></g>
<g
   inkscape:groupmode="layer"
   id="layer1"
   inkscape:label="Logo"><path
     style="fill:#ffffff;stroke-width:0.620906"
     d="m 187.46736,191.34501 c -0.24903,-0.22199 -0.45278,-2.382 -0.45278,-4.80003 v -4.39641 l 12.33059,-11.18759 12.33058,-11.18758 -35.64029,-0.29312 -35.64029,-0.29311 7.46245,-10.55218 7.46246,-10.55217 15.84725,-0.15697 15.84725,-0.15698 v -16.11095 -16.11096 h 12.495 12.49499 v 16.12137 16.12138 h 17.75604 17.75605 v 10.84528 10.84529 h -17.74548 -17.74547 l -0.17498,15.97482 -0.17498,15.97482 -11.8778,0.15935 c -6.5328,0.0876 -12.08156,-0.0223 -12.33059,-0.24426 z M 224.5428,156.5285 c 1.76381,-0.84148 1.58966,-2.59016 -0.37205,-3.73597 -2.04945,-1.19706 -2.42563,-5.03773 -0.49323,-5.03564 0.83525,5.9e-4 1.61156,1.16647 2.83078,4.25019 l 1.67992,4.24893 h 2.85824 2.85823 l 1.49091,-3.51739 1.4909,-3.51739 0.21843,3.51739 0.21844,3.51739 2.79493,0.18026 2.79494,0.18027 v -6.18914 -6.18914 h -4.90689 -4.90688 l -0.71841,2.49148 c -0.39512,1.37032 -0.8068,2.75529 -0.91484,3.07772 -0.10804,0.32242 -0.61831,-0.73279 -1.13393,-2.34493 l -0.93749,-2.93116 -3.26966,-0.29311 c -3.00255,-0.26917 -3.28698,-0.42786 -3.48177,-1.94249 -0.19587,-1.52301 -0.37222,-1.61878 -2.30171,-1.25009 -2.79028,0.53319 -3.07604,0.72407 -3.07604,2.05471 0,0.62583 -0.29593,1.13787 -0.65763,1.13787 -0.3617,0 -0.65763,0.79141 -0.65763,1.75869 0,0.96728 0.29593,1.7587 0.65763,1.7587 0.3617,0 0.65763,1.33636 0.65763,2.9697 0,3.43041 0.80992,5.09129 2.83792,5.81968 1.95421,0.70188 2.94109,0.69821 4.43926,-0.0165 z m 17.58128,-14.16619 c 1.20475,-1.07394 0.94225,-2.69962 -0.55094,-3.41199 -2.67345,-1.27544 -5.24412,0.85616 -3.80228,3.15286 0.70565,1.12403 3.2154,1.27343 4.35322,0.25913 z M 75.847056,156.41347 C 62.298729,137.32057 48.632448,118.06487 45.477541,113.62304 l -5.736201,-8.07608 15.929485,0.0176 15.929479,0.0176 22.255004,31.93062 22.255002,31.9306 -7.40369,10.40704 c -4.07203,5.72388 -7.58877,10.60288 -7.81497,10.84223 -0.2262,0.23935 -11.496266,-15.18627 -25.044594,-34.27917 z m 41.944724,-11.66051 -7.73428,-11.09721 9.64663,-13.8152 c 5.30564,-7.59837 9.97593,-13.92785 10.37841,-14.06553 0.40248,-0.13768 7.61799,-0.17937 16.03445,-0.0926 l 15.30267,0.15769 -17.53077,24.62173 c -9.64193,13.54195 -17.71799,24.79422 -17.9468,25.00504 -0.22882,0.21082 -3.89645,-4.61044 -8.15031,-10.71389 z"
     id="path9500" /><path
     style="fill:#000000"
     id="path9426"
     d="" /></g></svg>
