<?xml version="1.0" encoding="UTF-8" standalone="no"?>
<!-- Generator: Adobe Illustrator 16.0.0, SVG Export Plug-In . SVG Version: 6.00 Build 0)  -->

<svg
   version="1.1"
   id="Layer_1"
   x="0px"
   y="0px"
   width="280px"
   height="280px"
   viewBox="0 0 280 280"
   enable-background="new 0 0 280 280"
   xml:space="preserve"
   sodipodi:docname="kbsworld.svg"
   inkscape:version="1.1.2 (0a00cf5339, 2022-02-04)"
   xmlns:inkscape="http://www.inkscape.org/namespaces/inkscape"
   xmlns:sodipodi="http://sodipodi.sourceforge.net/DTD/sodipodi-0.dtd"
   xmlns="http://www.w3.org/2000/svg"
   xmlns:svg="http://www.w3.org/2000/svg"><defs
   id="defs5011" /><sodipodi:namedview
   id="namedview5009"
   pagecolor="#ffffff"
   bordercolor="#000000"
   borderopacity="0.25"
   inkscape:showpageshadow="2"
   inkscape:pageopacity="0.0"
   inkscape:pagecheckerboard="0"
   inkscape:deskcolor="#d1d1d1"
   showgrid="false"
   inkscape:zoom="1.0442452"
   inkscape:cx="328.94573"
   inkscape:cy="137.89865"
   inkscape:window-width="1600"
   inkscape:window-height="828"
   inkscape:window-x="0"
   inkscape:window-y="0"
   inkscape:window-maximized="1"
   inkscape:current-layer="Layer_1"
   inkscape:pageshadow="2"
   showguides="false" />
<rect
   y="0"
   fill-rule="evenodd"
   clip-rule="evenodd"
   fill="#164E86"
   width="280"
   height="280"
   id="rect4994-7"
   style="fill:#015aff;fill-opacity:1;stroke:none;stroke-width:0.999999;stroke-opacity:1"
   x="0" />

<path
   style="fill:#ffffff;stroke-width:1.0145"
   d="M 9.7755869,147.3655 V 126.65288 H 140.21306 270.65053 v 20.71262 20.71262 H 140.21306 9.7755869 Z m 102.2629731,0 V 127.6392 H 61.428826 10.819086 v 19.7263 19.72631 h 50.60974 50.609734 z m -87.653977,0 v -12.8221 h 2.60875 c 2.496771,0 2.608749,0.25754 2.608749,6.00008 0,3.30006 0.417651,5.85215 0.92811,5.67132 0.510459,-0.18083 3.118916,-2.88086 5.796579,-6.00009 3.969775,-4.62441 5.447131,-5.67131 8.003226,-5.67131 3.647584,0 3.53377,0.29802 -2.829951,7.40997 l -4.424022,4.94418 5.709144,6.64503 5.709154,6.64502 -3.967741,-0.042 c -3.680987,-0.039 -4.307128,-0.50123 -8.6635,-6.39628 -2.582662,-3.49486 -5.04793,-6.36094 -5.478374,-6.36906 -0.430443,-0.008 -0.782625,2.8702 -0.782625,6.39628 0,6.18091 -0.0936,6.41105 -2.608749,6.41105 h -2.60875 z m 28.174495,0 v -12.8221 h 9.391498 c 8.000168,0 9.700687,0.29225 11.478497,1.97263 2.273703,2.1491 2.777567,6.84327 0.922736,8.59646 -0.856682,0.80974 -0.718846,1.70153 0.52175,3.37567 2.294896,3.09687 2.119796,7.34417 -0.400986,9.72681 -1.794089,1.69577 -3.478329,1.97263 -12.000248,1.97263 h -9.913247 z m 15.652496,8.59103 c 3.393389,-1.61692 3.964966,-5.14055 1.071299,-6.60433 -1.202206,-0.60815 -4.400334,-0.97106 -7.106943,-0.80647 -4.539339,0.27603 -4.947379,0.51612 -5.259792,3.09492 -0.186286,1.53763 -0.08358,3.42396 0.228119,4.19184 0.713472,1.75738 7.480297,1.83322 11.067317,0.12404 z m 1.622809,-13.69403 c 1.039973,-3.0971 -2.103194,-4.91389 -7.883807,-4.55695 -4.460764,0.27545 -4.712111,0.45037 -5.022741,3.49548 l -0.326991,3.20552 h 6.256794 c 5.507091,0 6.343059,-0.2569 6.976745,-2.14405 z m 10.897289,16.19905 c -0.0021,-1.49056 0.857862,-1.68021 6.299723,-1.39003 4.522395,0.24116 7.027264,-0.11336 8.87165,-1.25563 5.371715,-3.3268 1.967219,-7.46407 -6.142071,-7.46407 -7.065738,0 -10.070902,-1.92976 -10.070902,-6.46698 0,-5.9082 2.648319,-7.34144 13.565499,-7.34144 7.652329,0 9.391499,0.27398 9.391499,1.47948 0,1.14186 -1.36919,1.48278 -6.000125,1.49401 -13.741193,0.0333 -16.101704,6.51343 -2.84507,7.81036 8.400515,0.82184 11.529745,3.33052 10.493355,8.41244 -1.06072,5.20122 -3.82284,6.44791 -14.285757,6.44791 -8.137798,0 -9.276131,-0.21178 -9.277801,-1.72605 z m 93.695278,0.74968 c 5.04786,-2.16549 7.52873,-6.30581 7.5222,-12.55379 -0.005,-5.44074 -3.127,-9.60173 -8.71599,-11.61921 -4.16865,-1.50478 -5.24632,-1.54701 -9.18774,-0.36005 -11.92897,3.59244 -12.52198,21.40386 -0.83923,25.20717 4.93413,1.60631 6.06306,1.53848 11.22076,-0.67412 z m -11.18116,-6.55401 c -2.41684,-2.90415 -2.76128,-6.31921 -0.96303,-9.5484 1.579,-2.83544 2.91229,-3.60049 6.3065,-3.61874 3.69912,-0.0199 6.05929,3.26572 6.05929,8.43517 0,7.1192 -6.99898,10.02366 -11.40276,4.73197 z m -27.45669,0.37959 2.05933,-7.15078 1.23852,4.43842 c 2.54716,9.12809 2.68739,9.35441 5.98978,9.66684 l 3.13769,0.29685 3.35745,-11.14632 c 1.84658,-6.13047 3.59974,-11.92304 3.89588,-12.87237 0.44185,-1.4164 -0.12937,-1.72605 -3.18412,-1.72605 -2.82535,0 -3.73793,0.41602 -3.78632,1.72605 -0.0351,0.94933 -0.88434,4.16719 -1.88727,7.15079 l -1.8235,5.42473 -1.87739,-7.15078 c -1.87006,-7.1228 -1.89126,-7.15079 -5.41725,-7.15079 -2.12864,0 -3.5455,0.49151 -3.55401,1.2329 -0.007,0.67809 -0.86262,3.89594 -1.89961,7.15078 l -1.88542,5.91789 -1.86505,-7.15078 c -1.77937,-6.82226 -2.00372,-7.15079 -4.88315,-7.15079 -1.65995,0 -3.0181,0.48857 -3.0181,1.08572 0,0.90498 5.35663,19.28164 6.7992,23.32558 0.24189,0.6781 1.81324,1.2329 3.4919,1.2329 2.90378,0 3.15217,-0.3475 5.11144,-7.15079 z m 54.51195,2.21921 c 0,-4.07762 0.32281,-4.93157 1.86426,-4.93157 1.02533,0 3.61711,2.21921 5.75948,4.93157 3.37119,4.26811 4.38385,4.93158 7.52724,4.93158 1.99761,0 3.63201,-0.21809 3.63201,-0.48463 0,-0.26654 -1.66719,-2.54906 -3.70486,-5.07227 l -3.70486,-4.58766 2.66136,-2.62563 c 4.15045,-4.09474 3.22215,-8.98357 -2.22666,-11.72659 -1.2536,-0.63108 -5.83195,-1.14742 -10.17412,-1.14742 h -7.89485 v 12.8221 12.8221 h 3.1305 c 3.06093,0 3.1305,-0.10959 3.1305,-4.93158 z m 0,-12.32894 c 0,-2.26487 0.38262,-2.46579 4.69575,-2.46579 3.91162,0 4.69574,0.31179 4.69574,1.86711 0,2.126 -1.94351,3.06447 -6.34634,3.06447 -2.5525,0 -3.04515,-0.39893 -3.04515,-2.46579 z m 41.54842,14.54815 c -0.31973,-2.62644 -0.55332,-2.72161 -7.37381,-3.00401 l -7.04362,-0.29164 v -9.81809 -9.81809 h -3.1305 -3.1305 v 12.8221 12.8221 h 10.50431 10.50431 z m 21.08536,-1.09308 c 5.33225,-6.03716 4.81806,-14.54079 -1.16707,-19.30096 -2.80059,-2.2274 -4.13825,-2.53779 -10.93704,-2.53779 h -7.74618 v 12.16455 c 0,6.69052 0.35218,12.50139 0.78262,12.91306 0.43045,0.41168 4.24874,0.58504 8.48509,0.38525 7.23648,-0.34126 7.87669,-0.56051 10.58258,-3.62411 z m -12.54579,-9.31175 v -7.19932 l 3.67489,0.40552 c 9.13269,1.00775 9.05676,13.99311 -0.0818,13.99311 h -3.59308 z"
   id="path37" /></svg>
