<?xml version="1.0" encoding="UTF-8" standalone="no"?>
<!-- Generator: Adobe Illustrator 16.0.0, SVG Export Plug-In . SVG Version: 6.00 Build 0)  -->

<svg
   version="1.1"
   id="Layer_1"
   x="0px"
   y="0px"
   width="280px"
   height="280px"
   viewBox="0 0 280 280"
   enable-background="new 0 0 280 280"
   xml:space="preserve"
   sodipodi:docname="tbs.svg"
   inkscape:version="1.1.2 (0a00cf5339, 2022-02-04)"
   xmlns:inkscape="http://www.inkscape.org/namespaces/inkscape"
   xmlns:sodipodi="http://sodipodi.sourceforge.net/DTD/sodipodi-0.dtd"
   xmlns="http://www.w3.org/2000/svg"
   xmlns:svg="http://www.w3.org/2000/svg"><defs
   id="defs5011" /><sodipodi:namedview
   id="namedview5009"
   pagecolor="#ffffff"
   bordercolor="#000000"
   borderopacity="0.25"
   inkscape:showpageshadow="2"
   inkscape:pageopacity="0.0"
   inkscape:pagecheckerboard="0"
   inkscape:deskcolor="#d1d1d1"
   showgrid="false"
   inkscape:zoom="0.73839285"
   inkscape:cx="41.305925"
   inkscape:cy="357.53326"
   inkscape:window-width="1600"
   inkscape:window-height="828"
   inkscape:window-x="0"
   inkscape:window-y="0"
   inkscape:window-maximized="1"
   inkscape:current-layer="Layer_1"
   inkscape:pageshadow="2"
   showguides="false" />
<rect
   y="0"
   fill-rule="evenodd"
   clip-rule="evenodd"
   fill="#164E86"
   width="280"
   height="280"
   id="rect4994-7"
   style="fill:#7749f5;fill-opacity:1;stroke:none;stroke-width:0.999999;stroke-opacity:1"
   x="0" />

<path
   style="fill:#ffffff;stroke-width:2.91912"
   d="M 26.021424,134.94705 V 71.285459 h 114.845806 114.8458 v 63.661591 63.66159 H 140.86723 26.021424 Z m 226.746846,0 V 74.179169 H 140.86723 28.966188 v 60.767881 60.76788 H 140.86723 252.76827 Z M 59.15002,158.19273 c -14.540096,-13.40589 -2.983222,-29.0331 21.471012,-29.0331 8.652306,0 10.457829,-0.91542 9.027881,-4.57724 -0.983109,-2.51747 -1.787442,-5.1218 -1.787442,-5.78742 0,-2.58205 -17.421902,-1.04975 -19.140967,1.68354 -2.105124,3.34709 -13.273583,3.95888 -13.206354,0.72342 0.150183,-7.22345 13.22417,-15.19197 24.925661,-15.19197 4.237663,0 10.933998,3.18838 14.917409,7.10273 6.30943,6.20003 7.22808,9.69971 7.22808,27.53621 0,20.38126 -0.0206,20.43326 -8.09811,20.35353 -4.453956,-0.044 -12.736105,0.6804 -18.404776,1.60966 -7.996477,1.31082 -11.791807,0.32025 -16.932394,-4.41936 z m 28.122498,-9.35588 c 6.12505,-6.01886 3.980585,-10.99609 -4.737743,-10.99609 -9.972267,0 -19.940558,6.51625 -17.035136,11.13583 2.752706,4.37673 17.271542,4.28355 21.772879,-0.13977 z M 192.4006,160.38906 c -3.23924,-1.8255 -7.50382,-5.36685 -9.47684,-7.86971 -4.30783,-5.46465 -4.90453,-27.45296 -0.94238,-34.72791 3.85464,-7.07755 18.99697,-12.83528 27.94914,-10.62741 8.25738,2.03656 19.27963,12.44194 19.27963,18.20068 0,5.96196 -9.95586,4.43455 -14.15421,-2.17156 -5.39234,-8.48479 -18.53031,-6.50335 -23.40022,3.52914 -8.25358,17.0032 11.46806,34.30706 23.06328,20.23582 9.29971,-11.28552 19.674,-5.86251 10.71656,5.60196 -8.23931,10.54531 -22.30147,13.87791 -33.03496,7.82899 z m -80.98101,-25.44201 v -26.04338 h 9.9043 c 9.72544,0 9.97197,0.31351 13.65381,17.36225 2.06225,9.54924 4.71254,17.36225 5.88953,17.36225 1.17699,0 3.82728,-7.81301 5.88953,-17.36225 3.68184,-17.04874 3.92837,-17.36225 13.65381,-17.36225 h 9.9043 v 26.04338 c 0,23.90206 -0.47269,26.04338 -5.749,26.04338 -4.99544,0 -5.86394,-2.37068 -6.62572,-18.08568 l -0.87672,-18.08568 -4.53926,17.36225 c -3.61862,13.84081 -5.82598,17.54563 -10.88335,18.26639 -5.44864,0.77653 -7.15905,-1.67415 -12.1177,-17.36225 l -5.77357,-18.26639 -0.27533,18.08568 c -0.24471,16.0663 -0.93305,18.08568 -6.16499,18.08568 -5.45326,0 -5.88952,-1.92915 -5.88952,-26.04338 z"
   id="path99" /></svg>
