<?xml version="1.0" encoding="UTF-8" standalone="no"?>
<!-- Generator: Adobe Illustrator 16.0.0, SVG Export Plug-In . SVG Version: 6.00 Build 0)  -->

<svg
   version="1.1"
   id="Layer_1"
   x="0px"
   y="0px"
   width="280px"
   height="280px"
   viewBox="0 0 280 280"
   enable-background="new 0 0 280 280"
   xml:space="preserve"
   sodipodi:docname="tbs.svg"
   inkscape:version="1.1.2 (0a00cf5339, 2022-02-04)"
   xmlns:inkscape="http://www.inkscape.org/namespaces/inkscape"
   xmlns:sodipodi="http://sodipodi.sourceforge.net/DTD/sodipodi-0.dtd"
   xmlns="http://www.w3.org/2000/svg"
   xmlns:svg="http://www.w3.org/2000/svg"><defs
   id="defs5011" /><sodipodi:namedview
   id="namedview5009"
   pagecolor="#ffffff"
   bordercolor="#000000"
   borderopacity="0.25"
   inkscape:showpageshadow="2"
   inkscape:pageopacity="0.0"
   inkscape:pagecheckerboard="0"
   inkscape:deskcolor="#d1d1d1"
   showgrid="false"
   inkscape:zoom="1.4767857"
   inkscape:cx="48.754535"
   inkscape:cy="87.351875"
   inkscape:window-width="1600"
   inkscape:window-height="828"
   inkscape:window-x="0"
   inkscape:window-y="0"
   inkscape:window-maximized="1"
   inkscape:current-layer="Layer_1"
   inkscape:pageshadow="2"
   showguides="false" />
<rect
   y="0.023242312"
   fill-rule="evenodd"
   clip-rule="evenodd"
   fill="#164E86"
   width="280"
   height="280"
   id="rect4994-7"
   style="fill:#818183;fill-opacity:1;stroke:none;stroke-width:0.999999;stroke-opacity:1"
   x="0" />

<path
   style="fill:#ffffff;stroke-width:0.227574"
   d="M 29.491119,135.52459 V 71.462409 H 143.27829 257.06547 v 64.062181 64.06219 H 143.27829 29.491119 Z m 225.753761,0 V 73.510578 H 143.27829 31.311714 v 62.014012 62.01402 H 143.27829 255.24488 Z M 71.933732,164.04856 c -7.94361,-1.48899 -14.016571,-6.66045 -15.724481,-13.39027 -0.583225,-2.29813 -0.350651,-6.61858 0.477385,-8.86821 3.23146,-8.77926 13.337912,-12.75136 32.44412,-12.75136 H 93.7259 l -0.15996,-1.62332 c -0.218825,-2.2207 -0.863999,-4.18363 -1.9028,-5.78925 -1.006738,-1.55607 -1.972147,-2.35535 -3.97939,-3.29465 -3.825665,-1.79025 -10.408734,-1.25329 -13.963534,1.13896 -1.614728,1.08664 -2.562475,2.24617 -3.07592,3.76323 l -0.385739,1.13976 -6.087652,0.0607 c -4.089663,0.0407 -6.136378,-0.0182 -6.236119,-0.17952 -0.238072,-0.38522 0.230722,-2.94021 0.833693,-4.54365 1.1923,-3.1706 3.969668,-6.67822 6.793171,-8.57927 2.77441,-1.868 5.315328,-2.94126 8.8754,-3.7489 2.970958,-0.674 10.039418,-0.84146 13.383535,-0.31706 9.151473,1.43503 14.639925,6.24764 16.883415,14.80439 1.01962,3.88884 1.08164,5.11395 1.18943,23.49706 l 0.10304,17.58012 h -5.93714 -5.937148 v -2.04817 c 0,-1.1265 -0.06789,-2.04817 -0.150755,-2.04817 -0.08294,0 -0.623832,0.30357 -1.202035,0.6746 -2.635021,1.69089 -7.184118,3.39383 -11.283061,4.22377 -2.975636,0.6025 -7.224652,0.7356 -9.552649,0.29922 z m 11.833867,-10.99824 c 2.391895,-0.65666 4.993285,-2.06109 6.597685,-3.56193 2.465275,-2.30615 3.524912,-5.02442 3.52806,-9.05054 l 0.0013,-1.6864 -5.8289,0.14999 c -10.45,0.2689 -15.360183,1.45113 -18.022423,4.33933 -0.950768,1.03147 -1.638182,2.75536 -1.635729,4.1021 0.0051,2.90778 2.495492,5.19769 6.477057,5.95605 2.088513,0.39782 7.032427,0.25945 8.882936,-0.2486 z m 117.357651,10.89891 c -6.72172,-1.12737 -12.39591,-4.88447 -16.35238,-10.82755 -8.50513,-12.77572 -6.50048,-31.39306 4.36504,-40.53846 6.70804,-5.64607 16.70941,-7.39544 25.48053,-4.45685 8.52685,2.85677 15.01925,10.44568 17.0633,19.94516 l 0.15914,0.73962 h -6.12072 -6.1207 l -0.53352,-1.30855 c -1.67443,-4.10689 -4.96576,-7.39493 -8.7163,-8.70762 -1.97522,-0.69133 -5.26832,-0.85614 -7.20301,-0.3605 -2.55829,0.6554 -4.28148,1.66013 -6.27458,3.65846 -3.79281,3.80276 -5.58621,8.76101 -5.26981,14.56953 0.36641,6.7263 3.68151,12.31163 8.84406,14.90055 2.24712,1.1269 3.87452,1.46238 6.32524,1.30394 2.07057,-0.13385 4.20511,-0.7854 5.97917,-1.82507 2.43907,-1.42938 5.04506,-4.51555 6.18799,-7.32817 l 0.55341,-1.36189 6.26512,-0.0604 6.26513,-0.0604 -0.13484,0.74321 c -0.28369,1.5637 -1.50635,4.87976 -2.53001,6.86174 -1.40492,2.72017 -3.2231,5.09855 -5.69841,7.45414 -3.89758,3.70904 -7.95364,5.77195 -13.12027,6.67293 -2.44426,0.42625 -6.82865,0.41989 -9.41358,-0.0137 z m -87.65919,-28.42464 v -27.42271 h 9.73385 9.73385 l 5.19754,19.5145 c 2.85867,10.73298 5.26538,19.63953 5.34828,19.79232 0.0829,0.15281 1.82817,-6.24772 3.87837,-14.22339 2.05021,-7.97566 4.3413,-16.88222 5.09131,-19.79232 l 1.36365,-5.29111 h 9.86639 9.86638 v 27.42271 27.42272 h -6.25709 -6.25711 l -0.058,-20.71064 -0.0582,-20.71064 -5.52217,19.85724 c -3.03719,10.92147 -5.62829,20.24295 -5.75798,20.71439 l -0.23582,0.85716 -5.94769,-0.0607 -5.94771,-0.0607 -5.70375,-20.64283 -5.70376,-20.64282 -0.058,20.69972 -0.0582,20.69972 h -6.25709 -6.2571 z"
   id="path99" /></svg>
