<?xml version="1.0" encoding="UTF-8" standalone="no"?>
<!-- Generator: Adobe Illustrator 16.0.0, SVG Export Plug-In . SVG Version: 6.00 Build 0)  -->

<svg
   version="1.1"
   id="Layer_1"
   x="0px"
   y="0px"
   width="280px"
   height="280px"
   viewBox="0 0 280 280"
   enable-background="new 0 0 280 280"
   xml:space="preserve"
   sodipodi:docname="freeform.svg"
   inkscape:version="1.2.2 (b0a8486541, 2022-12-01)"
   xmlns:inkscape="http://www.inkscape.org/namespaces/inkscape"
   xmlns:sodipodi="http://sodipodi.sourceforge.net/DTD/sodipodi-0.dtd"
   xmlns="http://www.w3.org/2000/svg"
   xmlns:svg="http://www.w3.org/2000/svg"><defs
   id="defs5011" /><sodipodi:namedview
   id="namedview5009"
   pagecolor="#ffffff"
   bordercolor="#000000"
   borderopacity="0.25"
   inkscape:showpageshadow="2"
   inkscape:pageopacity="0.0"
   inkscape:pagecheckerboard="0"
   inkscape:deskcolor="#d1d1d1"
   showgrid="false"
   inkscape:zoom="0.73839285"
   inkscape:cx="-155.74365"
   inkscape:cy="349.4075"
   inkscape:window-width="1600"
   inkscape:window-height="826"
   inkscape:window-x="0"
   inkscape:window-y="0"
   inkscape:window-maximized="1"
   inkscape:current-layer="Layer_1"
   inkscape:pageshadow="2"
   showguides="false" />


<path
   style="fill:#fb41e5;stroke-width:0.802213;fill-opacity:1"
   d="m 81.52048,160.14318 c -9.798858,-4.84868 -11.011745,-20.0432 -2.139907,-26.80781 3.702245,-2.8229 11.172773,-3.63619 15.76841,-1.71665 4.636329,1.93653 8.702157,8.62883 8.702157,14.32364 v 2.28655 H 93.019473 c -12.181639,0 -12.922635,0.43936 -8.387404,4.97307 2.115712,2.115 2.843329,2.37869 5.413199,1.9618 1.632917,-0.26489 3.370984,-1.03128 3.86237,-1.70306 0.924359,-1.26371 9.144142,-1.82128 9.138152,-0.61987 -0.002,0.33086 -0.73122,1.79558 -1.62127,3.25494 -3.313401,5.4328 -13.087556,7.42034 -19.90404,4.04739 z m 11.546925,-21.17759 c -1.60141,-2.44325 -6.7245,-2.77704 -8.627421,-0.56213 -3.043522,3.54254 -2.562861,4.12643 3.603203,4.37707 6.384052,0.25949 7.259221,-0.40504 5.024218,-3.81494 z m 21.582205,21.39099 c -7.02211,-3.18863 -10.36137,-10.91044 -8.09235,-18.71299 1.33847,-4.60261 4.90366,-8.74833 8.77953,-10.2091 1.24227,-0.46821 4.09899,-0.85127 6.34826,-0.85127 8.06589,0 14.25989,6.20689 14.25989,14.28957 v 3.35612 h -10.43048 c -9.46037,0 -10.43049,0.1326 -10.43049,1.42568 0,4.635 6.43086,7.27175 10.46445,4.29058 1.63579,-1.20899 3.48609,-1.70588 6.35231,-1.70588 2.22432,0 4.04421,0.34838 4.04421,0.77417 0,1.49086 -5.21443,6.69361 -7.78455,7.76712 -3.61824,1.51128 -9.66685,1.32147 -13.51078,-0.424 z m 12.46953,-18.2356 c 0,-0.49194 -0.74832,-1.84545 -1.66291,-3.00779 -2.95653,-3.75735 -10.37226,-1.97097 -10.37226,2.49858 0,1.21204 0.82145,1.40363 6.01759,1.40363 3.89105,0 6.01758,-0.31608 6.01758,-0.89442 z m 38.40911,18.13428 c -10.47148,-5.53143 -11.44823,-20.61445 -1.76451,-27.24763 4.16636,-2.85388 11.72782,-3.23194 16.68273,-0.83411 8.47408,4.10086 10.94148,16.68431 4.72067,24.07486 -4.60171,5.467 -13.45518,7.27335 -19.63889,4.00688 z m 11.39801,-7.1522 c 2.06495,-2.06424 2.34532,-2.91322 2.34532,-7.10156 0,-3.93779 -0.33885,-5.12255 -1.96754,-6.87935 -2.56924,-2.77132 -6.21897,-2.8343 -8.90058,-0.15358 -1.62165,1.6211 -1.9694,2.76115 -1.9694,6.45645 0,4.91902 1.59499,8.89267 3.80024,9.46759 3.1132,0.81164 4.44661,0.45507 6.69196,-1.78955 z m -156.501409,5.35233 c 0.0221,-3.27011 2.645695,-9.15525 5.336029,-11.96959 l 2.049671,-2.14415 -4.572246,-11.49116 c -2.514735,-6.32014 -4.760694,-11.94232 -4.99102,-12.49376 -0.327129,-0.78319 3.19956,-1.00259 16.115144,-1.00259 h 16.53392 v 4.01039 4.01038 H 40.46586 30.035372 v 4.38673 4.38674 l 9.828729,0.2252 9.828729,0.22521 0.257119,2.68311 c 0.425456,4.43975 -0.07706,4.95342 -3.612786,3.69286 -4.174991,-1.48848 -10.783977,-1.43096 -14.680864,0.12773 -1.774089,0.70962 -3.225616,1.54181 -3.225616,1.84933 0,0.30753 1.263692,3.69198 2.808207,7.52104 1.544515,3.82905 2.808208,7.32807 2.808208,7.7756 0,0.48637 -2.743348,0.81368 -6.819934,0.81368 H 20.40723 Z m 32.878533,-12.23168 v -14.83842 h 4.412899 c 4.197871,0 4.412899,0.0999 4.412899,2.04992 v 2.04993 l 1.845434,-2.14473 c 1.374576,-1.59751 2.654056,-2.17171 5.014659,-2.25045 l 3.169222,-0.10575 0.244548,3.80987 0.244547,3.80987 h -2.807428 c -1.808162,0 -3.605807,0.6865 -5.050467,1.92873 -2.176727,1.87171 -2.251772,2.2037 -2.538373,11.22908 l -0.29533,9.30034 h -4.326305 -4.326305 z m 85.048596,14.17302 c 0,-1.70278 9.09235,-17.82722 9.90064,-17.55788 0.50398,0.16794 1.63571,1.53671 2.51498,3.04173 1.84404,3.15637 2.15012,10.49032 0.5583,13.37689 -0.89417,1.62149 -1.60315,1.80467 -6.98456,1.80467 -3.29414,0 -5.98936,-0.29943 -5.98936,-0.66541 z m 52.95478,-14.17302 v -14.83842 h 4.4129 c 4.27326,0 4.41367,0.0698 4.4373,2.20572 0.0208,1.88572 0.14304,2.00208 0.84222,0.80205 1.07564,-1.84615 4.9507,-3.80984 7.51816,-3.80984 1.91996,0 2.0457,0.24652 2.0457,4.01038 0,3.99671 -0.009,4.01039 -2.62968,4.01039 -5.8417,0 -7.78895,3.85635 -7.79631,15.43998 l -0.005,7.01817 h -4.4129 -4.4129 z m 21.66332,0 v -14.83842 h 4.4129 c 4.19787,0 4.41289,0.0999 4.41289,2.04992 v 2.04993 l 1.86992,-2.17319 c 1.51287,-1.75823 2.73184,-2.24463 6.38402,-2.54739 4.1846,-0.34691 4.69043,-0.19793 6.93018,2.04106 2.0629,2.06222 2.55791,2.24446 3.38628,1.24667 2.5911,-3.12103 8.65013,-4.36672 13.06965,-2.687 1.13174,0.43016 2.77865,1.96413 3.65977,3.40884 1.40958,2.31113 1.60242,4.04818 1.60506,14.45737 l 0.003,11.83064 h -4.4129 -4.4129 v -10.3697 c 0,-11.1459 -0.58292,-12.90415 -4.26962,-12.87825 -4.24757,0.0298 -5.35851,3.03133 -5.35851,14.47732 v 8.77063 h -4.4129 -4.4129 v -10.3697 c 0,-11.19148 -0.57281,-12.89054 -4.34586,-12.89054 -3.77045,0 -4.47994,2.07412 -4.47994,13.09691 v 10.16333 h -4.81407 -4.81407 z m -68.97111,-6.5807 c -1.96899,-1.01261 -4.40611,-1.84111 -5.41583,-1.84111 -1.60175,0 -1.83586,-0.40229 -1.83586,-3.15502 0,-2.84561 0.2164,-3.17993 2.20646,-3.40884 1.79938,-0.20696 2.24703,-0.6977 2.42646,-2.66002 0.63547,-6.95012 3.29238,-9.216 10.81223,-9.22088 l 4.61348,-0.003 v 3.20831 c 0,2.70762 -0.25866,3.20831 -1.65743,3.20831 -2.76366,0 -4.76132,1.52617 -4.76132,3.63756 0,1.77664 0.33009,1.97698 3.25781,1.97698 h 3.25781 l -0.249,3.00778 c -0.24173,2.9196 -0.34903,3.01503 -3.65901,3.25443 -1.87548,0.13565 -3.40996,0.51783 -3.40996,0.84929 0,0.33146 -0.45133,1.13921 -1.00294,1.79499 -0.87839,1.04428 -1.44742,0.96374 -4.5829,-0.64877 z"
   id="path867" /><path
   style="fill:#000000"
   id="path865"
   d="" /></svg>
