<?xml version="1.0" encoding="UTF-8" standalone="no"?>
<!-- Generator: Adobe Illustrator 16.0.0, SVG Export Plug-In . SVG Version: 6.00 Build 0)  -->

<svg
   version="1.1"
   id="Layer_1"
   x="0px"
   y="0px"
   width="280px"
   height="280px"
   viewBox="0 0 280 280"
   enable-background="new 0 0 280 280"
   xml:space="preserve"
   sodipodi:docname="sicnoticias.svg"
   inkscape:version="1.2.2 (b0a8486541, 2022-12-01)"
   xmlns:inkscape="http://www.inkscape.org/namespaces/inkscape"
   xmlns:sodipodi="http://sodipodi.sourceforge.net/DTD/sodipodi-0.dtd"
   xmlns="http://www.w3.org/2000/svg"
   xmlns:svg="http://www.w3.org/2000/svg"><defs
   id="defs5011" /><sodipodi:namedview
   id="namedview5009"
   pagecolor="#ffffff"
   bordercolor="#000000"
   borderopacity="0.25"
   inkscape:showpageshadow="2"
   inkscape:pageopacity="0.0"
   inkscape:pagecheckerboard="0"
   inkscape:deskcolor="#d1d1d1"
   showgrid="false"
   inkscape:zoom="0.73839285"
   inkscape:cx="425.24789"
   inkscape:cy="349.4075"
   inkscape:window-width="1600"
   inkscape:window-height="826"
   inkscape:window-x="0"
   inkscape:window-y="0"
   inkscape:window-maximized="1"
   inkscape:current-layer="Layer_1"
   inkscape:pageshadow="2"
   showguides="false" />


<path
   style="fill:#ff0000;stroke-width:0.884656;fill-opacity:1"
   d="m 24.152752,155.61051 c 0,-1.79735 0.425119,-2.09086 3.043721,-2.10146 4.128503,-0.0167 7.477964,-1.66347 8.948137,-4.39934 0.857786,-1.59626 1.934289,-2.27359 3.613505,-2.27359 2.109065,0 2.3194,0.25721 1.779631,2.17618 -1.526262,5.42612 -6.611533,8.68735 -13.546281,8.68735 -3.470273,0 -3.838713,-0.20052 -3.838713,-2.08914 z m 23.413238,-9.19222 v -11.28136 h 2.341324 2.341324 v 11.28136 11.28136 H 49.907314 47.56599 Z m 16.173575,10.04242 c -6.222911,-2.41388 -8.741127,-10.54626 -4.973131,-16.06036 2.598588,-3.80279 6.364636,-5.26342 13.571081,-5.26342 5.918529,0 6.13395,0.0734 6.13395,2.08914 0,1.99923 -0.24494,2.08914 -5.691215,2.08914 -5.041592,0 -6.003698,0.27883 -8.428766,2.44269 -3.333933,2.97484 -3.502433,5.86288 -0.522406,8.95421 1.911158,1.98254 3.067856,2.34633 8.428766,2.65092 5.811859,0.33022 6.213621,0.48182 6.213621,2.34483 0,1.88965 -0.300167,1.99011 -5.85331,1.95908 -3.21932,-0.018 -7.214686,-0.56079 -8.87859,-1.20623 z m 26.906784,-10.04242 v -11.28136 h 7.945718 c 7.454183,0 8.134943,0.15075 11.004223,2.43683 3.03896,2.42128 3.06054,2.49333 3.37788,11.28136 l 0.31938,8.84453 h -2.89484 -2.89483 v -8.32717 c 0,-9.53956 -0.40661,-10.05727 -7.898937,-10.05727 h -4.275947 v 9.19222 9.19222 h -2.341324 -2.341323 z m 33.063541,9.64681 c -4.24523,-2.30967 -6.06028,-5.19888 -6.06028,-9.64681 0,-13.00982 20.7179,-15.47701 24.50776,-2.91851 2.90337,9.62095 -8.98085,17.71577 -18.44748,12.56532 z m 9.37599,-3.51588 c 2.99644,-1.42403 4.32354,-3.29837 4.35716,-6.1539 0.0634,-5.38349 -5.59536,-8.41668 -11.02672,-5.91053 -4.52059,2.08589 -5.44989,7.33147 -1.82078,10.27757 3.43272,2.78668 5.47989,3.21752 8.49034,1.78686 z m 15.69327,2.94859 c -1.74378,-1.97808 -1.94103,-3.33681 -1.94103,-13.3705 v -11.16866 h 2.80959 c 2.37254,0 2.80959,0.32498 2.80959,2.08914 0,1.83049 0.40582,2.08914 3.27785,2.08914 2.87203,0 3.27785,0.25865 3.27785,2.08914 0,1.83504 -0.4033,2.08914 -3.31572,2.08914 h -3.31573 l 0.27201,6.89417 0.272,6.89416 3.04372,0.26186 c 2.52089,0.21688 3.04372,0.61163 3.04372,2.29806 0,1.85122 -0.37667,2.03619 -4.14641,2.03619 -3.36395,0 -4.51269,-0.4155 -6.08744,-2.20184 z m 14.9165,-9.07952 v -11.28136 h 2.34132 c 2.93536,0 3.05573,1.85845 0.23414,3.6147 l -2.10719,1.31158 2.57545,0.0438 2.57546,0.0438 v 8.77439 8.77439 h -2.80959 -2.80959 z m 16.20602,9.64681 c -6.2445,-3.39741 -8.12751,-8.83645 -5.03353,-14.53934 2.53798,-4.67808 6.29247,-6.38883 14.02121,-6.38883 5.39376,0 5.71177,0.1109 5.71177,1.99179 0,1.86297 -0.40179,2.01462 -6.21258,2.34477 -5.07682,0.28845 -6.53212,0.7051 -7.9605,2.27906 -1.74863,1.92688 -2.26057,5.42611 -1.16616,7.97093 0.93,2.16249 5.49877,3.79789 10.61009,3.79789 4.42008,0 4.72915,0.13654 4.72915,2.08914 0,2.00591 -0.23319,2.08901 -5.8533,2.08601 -4.14866,-0.002 -6.72491,-0.47732 -8.84615,-1.63142 z m 20.31863,-9.64681 v -11.28136 h 2.34133 2.34132 v 11.28136 11.28136 h -2.34132 -2.34133 z m 15.97875,9.75439 c -6.03681,-2.88886 -8.21693,-9.61962 -4.90216,-15.13463 2.53382,-4.21569 6.78871,-5.90112 14.8975,-5.90112 h 6.80445 v 11.28136 11.28136 h -6.80445 c -4.80152,0 -7.74372,-0.44948 -9.99534,-1.52697 z m 12.11714,-9.75439 v -7.10308 h -4.08808 c -7.07647,0 -11.47029,4.90039 -8.81848,9.83515 1.50012,2.79157 4.84343,4.34272 9.39457,4.35869 l 3.51199,0.0123 z m 10.30182,9.19222 c 0,-1.79735 0.42512,-2.09086 3.04372,-2.10146 4.12851,-0.0167 7.47797,-1.66347 8.94814,-4.39934 0.85779,-1.59626 1.93429,-2.27359 3.61351,-2.27359 2.10906,0 2.3194,0.25721 1.77963,2.17618 -1.52627,5.42612 -6.61154,8.68735 -13.54628,8.68735 -3.47028,0 -3.83872,-0.20052 -3.83872,-2.08914 z M 24.152752,144.70548 c 0,-2.41169 2.885925,-6.29189 5.898778,-7.93106 1.85918,-1.01152 4.688304,-1.63242 7.446768,-1.63436 4.121666,-0.003 4.448515,0.15037 4.448515,2.08601 0,1.86808 -0.383031,2.08914 -3.619818,2.08914 -3.946891,0 -8.054584,2.29045 -9.031085,5.03573 -0.719526,2.02284 -5.143158,2.32777 -5.143158,0.35454 z m 214.465258,0.43248 c 0,-0.47436 0.6068,-2.15834 1.34844,-3.74215 1.80769,-3.8604 6.39389,-6.25182 11.99711,-6.25575 4.12167,-0.003 4.44851,0.15037 4.44851,2.08601 0,1.86808 -0.38303,2.08914 -3.61981,2.08914 -3.9469,0 -8.05459,2.29045 -9.03109,5.03573 -0.61284,1.72291 -5.14316,2.41615 -5.14316,0.78702 z"
   id="path327" /></svg>
