<?xml version="1.0" encoding="UTF-8" standalone="no"?>
<!-- Generator: Adobe Illustrator 16.0.0, SVG Export Plug-In . SVG Version: 6.00 Build 0)  -->

<svg
   version="1.1"
   id="Layer_1"
   x="0px"
   y="0px"
   width="280px"
   height="280px"
   viewBox="0 0 280 280"
   enable-background="new 0 0 280 280"
   xml:space="preserve"
   sodipodi:docname="weather.svg"
   inkscape:version="1.2.2 (b0a8486541, 2022-12-01)"
   xmlns:inkscape="http://www.inkscape.org/namespaces/inkscape"
   xmlns:sodipodi="http://sodipodi.sourceforge.net/DTD/sodipodi-0.dtd"
   xmlns="http://www.w3.org/2000/svg"
   xmlns:svg="http://www.w3.org/2000/svg"><defs
   id="defs55" /><sodipodi:namedview
   id="namedview53"
   pagecolor="#ffffff"
   bordercolor="#000000"
   borderopacity="0.25"
   inkscape:showpageshadow="2"
   inkscape:pageopacity="0.0"
   inkscape:pagecheckerboard="0"
   inkscape:deskcolor="#d1d1d1"
   showgrid="false"
   inkscape:zoom="1.2321429"
   inkscape:cx="78.724635"
   inkscape:cy="76.289852"
   inkscape:window-width="1600"
   inkscape:window-height="826"
   inkscape:window-x="0"
   inkscape:window-y="0"
   inkscape:window-maximized="1"
   inkscape:current-layer="g50" />

<g
   id="g50">
	
	
	
	
	
	
	
	
	
	
	
	
	
	
	
	
	
	
	
	
	
	
	
<rect
   style="fill:#ffffff;stroke-width:5.3636"
   id="rect359"
   width="202.98236"
   height="163.21597"
   x="28.966854"
   y="78.609413"
   rx="23.239824"
   ry="0.55713695" /><path
   style="fill:#0c75bc;fill-opacity:1;stroke-width:0.907773"
   d="M 27.156213,136.74879 V 21.564411 H 138.9406 250.72501 V 136.74879 251.93317 H 138.9406 27.156213 Z m 41.36023,92.28546 c 2.90673,-1.72185 2.91723,-1.80131 0.61464,-4.65052 -1.55618,-1.92562 -2.07382,-2.07333 -4.03656,-1.15185 -1.2383,0.58137 -3.60523,1.05704 -5.25985,1.05704 -6.17959,0 -9.60428,-8.67157 -7.63989,-19.3448 1.42741,-7.75562 5.06511,-10.37879 11.40365,-8.22325 2.91513,0.99134 3.30728,0.90073 4.80859,-1.111 2.25097,-3.01625 2.1202,-3.47469 -1.42684,-5.00181 -7.85708,-3.38275 -16.86915,-0.27208 -21.49133,7.4181 -2.43578,4.05255 -2.68282,5.19148 -2.68282,12.36837 0,6.93513 0.29717,8.42568 2.42261,12.15109 1.33243,2.33545 3.43847,4.93215 4.6801,5.77044 4.99362,3.37145 13.56981,3.70247 18.6077,0.71819 z m 50.605867,1.15249 c 1.87187,-1.35099 2.17417,-1.35099 3.62293,0 2.20095,2.05242 3.39643,1.84801 5.12924,-0.87703 1.12562,-1.77017 1.24118,-2.6125 0.46775,-3.40945 -0.64145,-0.66096 -1.02721,-4.64946 -1.02721,-10.62053 0,-9.33998 -0.0607,-9.62464 -2.61404,-12.25562 -2.30568,-2.37581 -3.22871,-2.68832 -7.8249,-2.64928 -5.15374,0.0438 -11.01804,2.15295 -11.6588,4.19325 -0.17486,0.55679 0.42356,1.95591 1.32983,3.10914 1.60243,2.03911 1.72787,2.05411 4.56015,0.54493 3.91183,-2.08441 7.62648,-1.60084 7.99124,1.04031 0.23488,1.70077 -0.26084,2.11053 -3.12996,2.58714 -6.60007,1.09642 -7.60682,1.47665 -9.746,3.68089 -3.965,4.0856 -2.40176,13.12337 2.63196,15.21651 3.11173,1.29394 8.07387,1.02318 10.26781,-0.56026 z m -6.55211,-6.78449 c -0.89619,-2.90952 1.03346,-5.56366 4.04498,-5.56366 2.41802,0 2.65136,0.27516 2.65136,3.12658 0,2.00097 -0.50925,3.32793 -1.41455,3.6859 -2.65586,1.05015 -4.7243,0.56109 -5.28179,-1.24882 z m 99.71638,5.94657 c 2.92756,-1.55995 3.24877,-2.8101 1.37607,-5.35577 -1.14707,-1.55927 -1.42682,-1.57558 -3.95138,-0.23037 -5.09262,2.7136 -9.95995,0.87455 -9.95995,-3.76322 0,-2.10678 0.20147,-2.16087 8.04848,-2.16087 h 8.04848 l -0.005,-2.99479 c -0.0152,-9.1243 -4.38731,-14.51323 -11.77479,-14.51323 -2.64756,0 -5.56133,0.6531 -7.10458,1.59245 -5.08129,3.09289 -7.72401,13.37245 -5.2015,20.23259 3.07173,8.35378 12.28572,11.58305 20.52417,7.19321 z m -12.53526,-19.31035 c 0,-2.10338 2.15994,-4.17905 4.34871,-4.17905 1.4912,0 3.69977,2.78966 3.69977,4.67319 0,1.49192 -0.64586,1.77713 -4.02424,1.77713 -3.68102,0 -4.02424,-0.19371 -4.02424,-2.27127 z m 32.90814,20.21914 c 0.75888,-0.63183 -1.07864,-5.04722 -2.10046,-5.04722 -0.94448,0 -1.24967,-3.81569 -1.46804,-18.35483 -0.15163,-10.09515 -0.53689,-18.62301 -0.85613,-18.9508 -0.31924,-0.32778 -2.1736,-0.15393 -4.1208,0.38634 l -3.54035,0.98232 0.36791,17.73812 c 0.20236,9.75596 0.56165,18.69721 0.79843,19.86942 0.52055,2.5771 5.23089,4.88898 8.41666,4.13098 1.22963,-0.29258 2.35588,-0.63203 2.50278,-0.75433 z M 82.601273,220.19453 c 0,-9.85201 0.13057,-10.63895 1.98754,-11.97918 2.56195,-1.84904 5.71943,-1.83766 6.4124,0.0231 0.29855,0.80166 0.54281,6.21613 0.54281,12.03215 v 10.57458 l 3.80066,-0.28335 3.80067,-0.28335 -0.0269,-12.43992 c -0.0307,-14.18195 -0.61929,-16.02185 -5.61992,-17.56565 -2.75545,-0.85066 -4.01542,-0.77133 -6.80168,0.42825 -1.88087,0.80978 -3.57182,1.47233 -3.75768,1.47233 -0.18586,0 -0.33792,-3.31731 -0.33792,-7.3718 0,-4.05449 -0.30182,-7.36949 -0.67071,-7.36666 -0.36889,0.003 -2.1798,0.43698 -4.02424,0.96478 l -3.35353,0.95966 v 20.07555 c 0,11.04156 0.26828,20.35201 0.59619,20.68987 0.32789,0.33788 2.1388,0.61432 4.02423,0.61432 h 3.42806 z m 59.022147,-0.40119 v -10.94591 l 2.62885,-1.12202 c 1.44587,-0.61712 3.05557,-0.85029 3.5771,-0.51815 0.58594,0.37314 0.94826,4.98417 0.94826,12.06793 v 11.46405 h 4.09021 4.09021 l -0.28955,-13.44492 c -0.27658,-12.84316 -0.38402,-13.52366 -2.40072,-15.20433 -2.47121,-2.05945 -7.61546,-2.2673 -10.82303,-0.43729 -1.88785,1.07708 -2.34156,1.06143 -3.17243,-0.10942 -0.72243,-1.01802 -1.83598,-1.19874 -4.36914,-0.70906 -3.20697,0.61992 -3.36927,0.81357 -2.86393,3.4171 0.29464,1.51797 0.5357,8.09874 0.5357,14.62393 v 11.86399 h 4.02424 4.02423 z m 29.31477,-0.20705 c 0.24613,-10.49258 0.29391,-10.71244 2.55934,-11.77604 4.13755,-1.94253 4.79118,-0.3004 4.79118,12.0371 v 10.99786 l 3.80068,-0.28335 3.80067,-0.28335 0.27493,-9.21475 c 0.50167,-16.81422 -1.034,-20.73319 -8.12443,-20.73319 -2.1039,0 -4.69611,0.62852 -5.76049,1.39671 -1.74425,1.25888 -2.01681,1.24647 -2.76206,-0.1257 -0.65024,-1.19728 -1.54502,-1.38358 -4.18963,-0.87235 l -3.36281,0.65004 0.56023,4.21164 c 0.30812,2.31639 0.56023,8.94623 0.56023,14.73297 v 10.52133 l 3.80067,-0.28335 3.80067,-0.28335 z m -30.89674,-48.01683 c -0.56445,-1.15956 -1.14366,-6.39515 -1.28713,-11.63463 -0.25044,-9.14576 -0.3611,-9.61512 -2.76998,-11.74881 -3.18463,-2.82081 -10.05289,-2.99883 -15.59995,-0.40434 -4.16297,1.94711 -4.47653,2.71269 -2.42951,5.93186 l 1.37116,2.1563 3.28931,-1.72798 c 1.80911,-0.9504 3.92856,-1.72799 4.7099,-1.72799 1.88993,0 3.56687,1.81955 3.56687,3.87019 0,1.31621 -0.72651,1.65866 -3.51888,1.65866 -7.58139,0 -11.69946,3.56132 -11.65536,10.07961 0.0304,4.49394 1.04227,6.48803 4.16058,8.19937 2.74455,1.50622 8.90043,1.33369 11.34682,-0.31801 1.88693,-1.27396 2.19704,-1.23258 3.71495,0.49571 l 1.65617,1.8857 2.23566,-2.30366 c 1.91534,-1.97361 2.08863,-2.60574 1.20939,-4.41198 z m -14.73855,-0.7999 c -3.60363,-2.16277 -0.97066,-7.29799 3.74188,-7.29799 1.51149,0 1.84734,0.58044 1.84734,3.19274 0,2.21348 -0.53054,3.48532 -1.72976,4.14664 -2.05865,1.13527 -1.89599,1.13701 -3.85946,-0.0414 z m -65.495847,4.45081 c 0.27005,-1.14032 1.40877,-6.98383 2.53048,-12.98557 l 2.03947,-10.91226 2.46225,12.29447 c 1.35424,6.76196 2.78427,12.63206 3.17784,13.04468 0.39358,0.41261 2.4665,0.61994 4.60649,0.46074 l 3.89088,-0.28947 4.68504,-19.81172 c 2.57678,-10.89644 4.70358,-20.12271 4.72623,-20.50281 0.0226,-0.38011 -1.90375,-0.69111 -4.2809,-0.69111 h -4.3221 l -1.92341,9.44512 c -1.05788,5.19481 -2.209,11.3111 -2.55807,13.59175 l -0.63466,4.14664 -1.11279,-6.70604 c -0.61202,-3.68833 -1.7818,-9.80462 -2.59948,-13.59176 l -1.48671,-6.88571 h -4.33958 c -5.01315,0 -4.77985,-0.46062 -7.71039,15.22242 -0.89747,4.80285 -1.85424,8.73324 -2.12615,8.73419 -0.27192,9.2e-4 -1.41095,-4.90007 -2.5312,-10.89116 -1.12024,-5.99109 -2.34519,-11.40704 -2.7221,-12.03543 -0.426,-0.71026 -2.19157,-1.03409 -4.66658,-0.85591 l -3.98131,0.28663 4.13581,17.96876 c 2.2747,9.88282 4.41471,19.10909 4.75557,20.50282 0.57185,2.33815 0.9628,2.53405 5.05706,2.53405 3.85998,0 4.50118,-0.26975 4.92831,-2.07332 z m 48.448517,0.14684 3.86211,-1.92648 -1.50217,-2.62032 c -1.43266,-2.49908 -1.61693,-2.55917 -3.9825,-1.29869 -4.87265,2.5964 -10.617617,0.74128 -10.617617,-3.42855 0,-1.52659 0.82155,-1.70013 8.048477,-1.70013 h 8.04847 v -4.17623 c 0,-8.65438 -4.7388,-14.24637 -12.07271,-14.24637 -8.025397,0 -13.654057,7.61079 -12.696787,17.16795 0.60787,6.0689 2.63325,9.70224 6.79477,12.18917 4.12221,2.46344 9.230107,2.47778 14.117957,0.0396 z M 96.015393,156.15202 c 0,-0.98489 0.85105,-2.40492 1.89121,-3.15565 2.868267,-2.07011 6.112627,-0.30959 6.143577,3.33377 0.011,1.29898 -0.76891,1.61258 -4.01055,1.61258 -3.388907,0 -4.024237,-0.28271 -4.024237,-1.7907 z m 61.529537,20.54791 c 1.59104,-0.4391 1.99837,-1.11826 1.78855,-2.9822 -0.22267,-1.97822 -0.79598,-2.46572 -3.17808,-2.70238 l -2.9064,-0.28875 v -9.15637 -9.15636 h 2.25782 c 1.60077,0 2.51163,-0.68785 3.12997,-2.36368 1.34643,-3.64908 1.10468,-4.08665 -2.25782,-4.08665 -3.11341,0 -3.12997,-0.0219 -3.12997,-4.14663 0,-4.57496 0.0569,-4.53649 -4.69494,-3.17672 -3.04793,0.8722 -3.35353,1.24962 -3.35353,4.1415 0,2.214 -0.40804,3.18185 -1.34142,3.18185 -0.93686,0 -1.34141,0.97268 -1.34141,3.22517 0,2.25249 0.40455,3.22516 1.34141,3.22516 1.10964,0 1.34142,1.72099 1.34142,9.9601 0,6.58376 0.37893,10.44953 1.11784,11.40388 2.43757,3.14829 6.53892,4.2158 11.22656,2.92208 z m 54.44657,-1.33272 3.86211,-1.92648 -1.50216,-2.62032 c -1.43267,-2.49908 -1.61693,-2.55917 -3.98251,-1.29869 -4.87265,2.5964 -10.61762,0.74128 -10.61762,-3.42855 0,-1.52659 0.82155,-1.70013 8.04848,-1.70013 h 8.04848 v -4.17623 c 0,-9.44119 -4.89729,-14.62998 -13.21035,-13.99669 -5.72334,0.436 -9.55753,3.69025 -11.04577,9.37502 -1.21809,4.65284 -0.47489,11.62866 1.63565,15.35231 3.40055,5.99968 11.68453,7.95096 18.76369,4.41976 z m -12.24018,-19.21519 c 0,-0.98489 0.88679,-2.43073 1.97064,-3.21298 1.67651,-1.20998 2.24379,-1.2364 3.80067,-0.17701 1.00652,0.68489 1.95863,2.13073 2.1158,3.21297 0.25635,1.76519 -0.13483,1.96772 -3.80067,1.96772 -3.45051,0 -4.08644,-0.27867 -4.08644,-1.7907 z m -28.61681,9.67548 c 0,-9.852 0.13056,-10.63894 1.98753,-11.97917 5.30976,-3.83221 6.95523,-0.77836 6.95523,12.90839 v 9.6155 h 3.5771 3.5771 v -12.94253 c 0,-12.64154 -0.0529,-12.99714 -2.27846,-15.2903 -1.9451,-2.00426 -2.89372,-2.29169 -6.48351,-1.96452 -2.31276,0.21079 -4.89169,0.70155 -5.73094,1.09058 -1.35609,0.6286 -1.55515,-0.0967 -1.78855,-6.51725 -0.28508,-7.84179 -0.0296,-7.56853 -5.85186,-6.2596 l -2.01212,0.45235 v 20.71564 20.71563 h 4.02424 4.02424 z m 57.23362,0.47431 c 0,-10.97631 0.76812,-12.96647 5.00452,-12.96647 2.15109,0 3.93823,-2.74525 3.93823,-6.04957 0,-1.75874 -4.48987,-1.73836 -6.75971,0.0307 -2.26636,1.76632 -3.07732,1.74703 -3.07732,-0.0733 0,-1.21617 -0.60667,-1.368 -3.35353,-0.8393 -1.84444,0.35501 -3.42353,0.71517 -3.50908,0.80036 -0.0856,0.0851 0.0756,6.68283 0.35829,14.66142 l 0.51383,14.50654 h 3.44239 3.44238 z M 122.79039,122.23413 c 3.63302,-1.90246 4.09089,-2.91363 2.39897,-5.29784 -1.08687,-1.53158 -1.57463,-1.61941 -3.63124,-0.65385 -3.08726,1.44943 -8.08848,1.42967 -9.22683,-0.0365 -0.49188,-0.63352 -1.1719,-2.08484 -1.51117,-3.22517 -0.61032,-2.05134 -0.52496,-2.07329 8.06414,-2.07329 h 8.68099 l -0.50467,-5.03841 c -0.61967,-6.186648 -2.78588,-10.154218 -6.54848,-11.993998 -6.28599,-3.07362 -13.51715,-0.474 -16.67042,5.99307 -2.04299,4.190018 -2.04299,12.359798 0,16.549828 3.31286,6.79438 11.96671,9.43235 18.94871,5.77615 z m -11.85257,-19.34955 c 1.59347,-4.605908 5.99205,-5.521768 7.45658,-1.5526 0.47968,1.30002 0.87214,2.54403 0.87214,2.76444 0,0.22041 -1.99949,0.40075 -4.4433,0.40075 -3.84807,0 -4.36858,-0.21603 -3.88542,-1.61259 z m -51.587697,3.45554 V 89.753562 h 4.37569 c 4.64157,0 5.46133,-0.77206 5.46133,-5.14348 V 82.38176 h -13.86126 -13.86127 v 3.685902 3.6859 h 4.47138 4.47138 v 16.586558 16.58655 h 4.47137 4.47138 z m 22.35688,5.61898 v -10.96756 l 2.81521,-1.011228 c 4.69823,-1.68763 5.23326,-0.46063 5.23326,12.001478 v 10.94488 h 4.09183 4.09183 L 97.647963,109.944 c -0.28986,-12.924898 -0.30233,-12.992558 -2.80028,-15.204348 -2.87454,-2.54522 -7.42716,-2.92817 -11.17297,-0.93982 l -2.41485,1.28184 -0.16177,-6.90059 c -0.089,-3.79532 -0.36366,-7.108632 -0.61044,-7.362914 -0.24677,-0.254281 -2.08549,-0.177382 -4.08605,0.170889 l -3.63735,0.63322 v 20.652193 20.6522 h 4.47137 4.47138 z"
   id="path318" /></g>
</svg>
