<?xml version="1.0" encoding="UTF-8" standalone="no"?>
<!-- Generator: Adobe Illustrator 16.0.0, SVG Export Plug-In . SVG Version: 6.00 Build 0)  -->

<svg
   version="1.1"
   id="Layer_1"
   x="0px"
   y="0px"
   width="280px"
   height="280px"
   viewBox="0 0 280 280"
   enable-background="new 0 0 280 280"
   xml:space="preserve"
   sodipodi:docname="4.svg"
   inkscape:version="1.1.2 (0a00cf5339, 2022-02-04)"
   xmlns:inkscape="http://www.inkscape.org/namespaces/inkscape"
   xmlns:sodipodi="http://sodipodi.sourceforge.net/DTD/sodipodi-0.dtd"
   xmlns="http://www.w3.org/2000/svg"
   xmlns:svg="http://www.w3.org/2000/svg"><defs
   id="defs5011" /><sodipodi:namedview
   id="namedview5009"
   pagecolor="#ffffff"
   bordercolor="#000000"
   borderopacity="0.25"
   inkscape:showpageshadow="2"
   inkscape:pageopacity="0.0"
   inkscape:pagecheckerboard="0"
   inkscape:deskcolor="#d1d1d1"
   showgrid="false"
   inkscape:zoom="1.4767857"
   inkscape:cx="49.431681"
   inkscape:cy="87.351875"
   inkscape:window-width="1600"
   inkscape:window-height="828"
   inkscape:window-x="0"
   inkscape:window-y="0"
   inkscape:window-maximized="1"
   inkscape:current-layer="g1225"
   inkscape:pageshadow="2"
   showguides="false" />


<g
   id="g1225"
   transform="matrix(0.51308475,0,0,0.51308475,6.8233866,50.825267)"><polygon
     class="st0"
     points="394.6,87.5 422.2,87.5 451.9,156.4 473.9,156.4 512,68 488,68 462.9,127.6 437.8,68 422.5,68 413.8,68 344.7,68 344.7,87.5 372.7,87.5 372.7,155.9 394.6,155.9 "
     id="polygon1211"
     style="fill:#ca53e2;fill-opacity:1" /><path
     class="st0"
     d="m 360.3,180.2 c 0,99.5 -80.7,180.2 -180.2,180.2 C 80.6,360.4 0,279.7 0,180.2 0,80.7 80.7,0 180.2,0 279.7,0 360.3,80.7 360.3,180.2 Z"
     id="path1213"
     style="fill:#ca53e2;fill-opacity:1" /><path
     class="st1"
     d="m 273,169.1 h 18.2 v 11.3 h -46.3 v -25.1 h 10.2 v 13.8 h 7.4 V 155.3 H 273 Z"
     id="path1215"
     style="fill:#ffffff" /><path
     class="st1"
     d="m 291.2,77.4 -25.8,17.2 h 25.8 V 106 H 244.9 V 95.8 l 25.7,-17 H 244.9 V 67.4 h 46.3 z"
     id="path1217"
     style="fill:#ffffff" /><path
     class="st1"
     d="m 291.9,130.9 c 0,10.5 -6.4,16.8 -18,16.8 h -29 v -11.4 h 28.5 c 5.2,0 7.9,-1.6 7.9,-5.5 0,-4 -2.6,-5.9 -7.9,-5.9 h -28.5 v -11.3 h 29 c 11.3,0 18,6.9 18,17.3 z"
     id="path1219"
     style="fill:#ffffff" /><polygon
     class="st1"
     points="237.9,249.5 291.2,249.5 291.2,188.3 237.9,188.3 237.9,67.4 141.3,67.4 49.8,188.3 49.8,249.5 160.5,249.5 160.5,295.8 237.9,295.8 "
     id="polygon1221"
     style="fill:#ffffff" /><polygon
     class="st0"
     points="141.3,130.8 160.7,146.5 180.1,162.2 160.7,177.9 141.3,193.6 141.3,162.2 "
     id="polygon1223"
     style="fill:#ca53e2;fill-opacity:1" /></g></svg>
