<?xml version="1.0" encoding="UTF-8" standalone="no"?>
<!-- Generator: Adobe Illustrator 16.0.0, SVG Export Plug-In . SVG Version: 6.00 Build 0)  -->

<svg
   version="1.1"
   id="Layer_1"
   x="0px"
   y="0px"
   width="280px"
   height="280px"
   viewBox="0 0 280 280"
   enable-background="new 0 0 280 280"
   xml:space="preserve"
   sodipodi:docname="polsat.svg"
   inkscape:version="1.1.2 (0a00cf5339, 2022-02-04)"
   xmlns:inkscape="http://www.inkscape.org/namespaces/inkscape"
   xmlns:sodipodi="http://sodipodi.sourceforge.net/DTD/sodipodi-0.dtd"
   xmlns="http://www.w3.org/2000/svg"
   xmlns:svg="http://www.w3.org/2000/svg"><defs
   id="defs216276">
	
	
	
</defs><sodipodi:namedview
   id="namedview216274"
   pagecolor="#ffffff"
   bordercolor="#666666"
   borderopacity="1.0"
   inkscape:pageshadow="2"
   inkscape:pageopacity="0.0"
   inkscape:pagecheckerboard="0"
   showgrid="false"
   inkscape:zoom="0.74285714"
   inkscape:cx="242.30769"
   inkscape:cy="193.84615"
   inkscape:window-width="1600"
   inkscape:window-height="828"
   inkscape:window-x="0"
   inkscape:window-y="0"
   inkscape:window-maximized="1"
   inkscape:current-layer="layer1"
   inkscape:showpageshadow="2"
   inkscape:deskcolor="#d1d1d1" />
<g
   inkscape:groupmode="layer"
   id="layer2"
   inkscape:label="BG" />
<g
   inkscape:groupmode="layer"
   id="layer1"
   inkscape:label="Logo"><path
     style="fill:#ffb530;fill-opacity:1"
     d="m 34.937529,233.18412 v -25 h 5.12883 5.12883 l -0.66327,5 c -0.54599,4.11583 -0.39193,5 0.87117,5 1.02786,0 1.53444,-0.96108 1.53444,-2.91111 0,-6.93922 10.53819,-10.40578 18.80789,-6.1869 10.08266,5.14379 10.79239,26.36354 1.09638,32.78006 -5.0239,3.32466 -10.44925,3.91447 -14.90427,1.62031 -1.925,-0.9913 -3.94421,-2.81486 -4.48713,-4.05236 -1.98446,-4.52327 -2.5609,-2.01657 -1.89715,8.25 l 0.67885,10.5 h -5.64729 -5.64728 z m 26.70327,1.43984 c 4.51114,-2.91706 4.20638,-13.78746 -0.49045,-17.49403 -3.5579,-2.80776 -10.74906,-2.23675 -13.42336,1.06587 -2.03815,2.51701 -2.45815,10.87034 -0.71072,14.13544 2.3873,4.46071 9.53813,5.58177 14.62453,2.29272 z m 26.70085,8.22751 c -6.26351,-2.9899 -9.33293,-7.57748 -10.11048,-15.11121 -0.47452,-4.59768 -0.14398,-6.34175 2.05295,-10.83211 3.26464,-6.67268 8.54856,-9.73265 16.76294,-9.70758 10.819921,0.033 17.842371,7.18877 17.874021,18.21331 0.0237,8.24097 -2.29032,13.27967 -7.5009,16.33328 -6.35945,3.72688 -12.803161,4.09986 -19.078531,1.10431 z m 15.733671,-9.29205 c 1.44441,-1.30717 1.86221,-3.11213 1.86221,-8.04499 0,-6.09037 -0.13764,-6.44601 -3.25,-8.39753 -3.800531,-2.38302 -9.799951,-2.10254 -12.783611,0.59764 -2.68099,2.42626 -3.49064,9.2791 -1.62411,13.74635 1.13971,2.7277 2.3415,3.84877 4.8371,4.51221 3.80696,1.01206 8.255781,0.0322 10.958411,-2.41368 z m 22.11221,9.63566 c -1.7875,-1.08986 -3.3301,-2.10068 -3.428,-2.24626 -0.0979,-0.14559 -0.43541,-10.95285 -0.75,-24.01614 l -0.572,-23.75144 4.75,0.001 4.75,0.001 v 20.37756 c 0,22.18802 0.32658,23.51024 5.48701,22.21506 2.39895,-0.6021 2.51299,-0.43094 2.51299,3.7717 0,3.72014 -0.3487,4.49586 -2.25,5.00539 -4.00927,1.07445 -7.18282,0.66377 -10.5,-1.35875 z m 22.75,1.16567 c -3.28261,-0.6346 -3.5192,-0.94271 -3.80915,-4.96053 -0.30734,-4.25868 -0.29262,-4.27928 2.5,-3.5 1.54503,0.43115 5.95915,0.7839 9.80915,0.7839 6.517,0 7.02224,-0.15669 7.32228,-2.27083 0.36864,-2.5975 -3.17772,-4.48704 -10.77061,-5.73869 -6.09852,-1.00532 -10.05167,-5.01328 -10.05167,-10.19105 0,-7.59109 5.47244,-11.37025 16.21788,-11.19975 10.00328,0.15872 11.22959,0.76081 11.58962,5.69017 0.16912,2.31558 0.1132,4.21015 -0.12428,4.21015 -0.23747,0 -2.34492,-0.675 -4.68322,-1.5 -7.28789,-2.57132 -14,-1.81774 -14,1.57181 0,2.39168 2.12336,3.47991 9.42297,4.82932 6.87938,1.27172 9.17144,3.01309 10.70554,8.13345 1.52078,5.07592 -0.16978,9.96787 -4.28474,12.39863 -3.39785,2.00716 -13.7671,2.91818 -19.84377,1.74342 z m 41,0.15231 c -6.9915,-2.86237 -10.94367,-9.56289 -10.97804,-18.61218 -0.0431,-11.34768 6.28695,-18.71676 16.07771,-18.71676 4.82389,0 7.62972,1.2768 10.64536,4.8442 l 2.24504,2.6558 0.005,-3.25 c 0.005,-3.18445 0.0957,-3.25 4.50497,-3.25 h 4.5 v 18 18 h -4.975 c -4.96667,0 -4.9742,-0.005 -4.5,-3 0.26125,-1.65 0.68875,-4.35 0.95,-6 0.69066,-4.36207 -0.79902,-3.67282 -2.50583,1.15941 -0.80805,2.28768 -2.63313,5.02063 -4.05575,6.07324 -2.69329,1.99279 -9.31868,3.1586 -11.91342,2.09629 z m 14,-10.22469 c 1.96589,-1.41976 2.56672,-2.83807 2.81229,-6.6386 0.43805,-6.77917 -0.39704,-9.19956 -3.77712,-10.94746 -5.7583,-2.97774 -12.24268,-1.23029 -13.98539,3.76887 -4.13176,11.85236 5.43195,20.69127 14.95022,13.81719 z m 31.5,9.95039 c -5.01478,-2.0525 -5.98031,-4.59076 -6.33605,-16.65658 l -0.33606,-11.39806 h -2.91394 c -2.73294,0 -2.91395,-0.24847 -2.91395,-4 0,-3.77778 0.16667,-4 3,-4 2.88889,0 3,-0.16667 3,-4.5 v -4.5 h 4.5 4.5 v 4.5 4.5 h 4 4 v 4 4 h -4 -4 v 8.87756 c 0,10.22879 0.90035,11.72485 6.50846,10.81478 l 3.49154,-0.5666 v 4.31213 c 0,4.02959 -0.20476,4.35308 -3.125,4.93713 -4.01269,0.80254 -6.87006,0.7049 -9.375,-0.32036 z m -106.5,-86.90759 c -2.86515,-0.58602 -1.9098,-0.83705 5.26701,-1.38398 15.38884,-1.17275 31.21004,-6.89526 43.22251,-15.63353 5.44143,-3.95828 6.09644,-4.49101 12.01048,-9.76843 4.79071,-4.275 12.06226,-8.67369 13.52991,-8.18447 1.50534,0.50178 -3.98784,8.42703 -10.22435,14.75111 -7.19872,7.29979 -17.09198,13.46321 -27.57562,17.17937 -7.53508,2.67098 -10.37236,3.13978 -20.72994,3.42516 -6.6,0.18185 -13.575,0.009 -15.5,-0.38523 z m -6.1875,-1.83016 c 0.72187,-0.28887 1.58437,-0.25335 1.91667,0.0789 0.33229,0.33229 -0.25834,0.56864 -1.3125,0.52522 -1.16495,-0.048 -1.4019,-0.28494 -0.60417,-0.60416 z m -12.68336,-6.89314 c -6.30079,-1.69475 -11.599891,-4.08111 -13.114231,-5.90578 -0.5924,-0.7138 0.84941,-0.33485 3.204001,0.84211 3.69832,1.84862 5.98267,2.13705 16.78109,2.11884 11.3019,-0.0191 13.17093,-0.28788 19.5,-2.80464 15.90088,-6.32298 16.44556,-6.67281 42.80209,-27.4899 2.30885,-1.82359 6.85518,-5.08609 10.10295,-7.25 5.2906,-3.525 6.5525,-3.93438 12.12755,-3.93438 7.84857,0 9.09382,1.1772 7.36148,6.95923 -0.84542,2.82175 -1.55251,3.78233 -2.26197,3.07287 -1.77047,-1.77047 -7.49671,-1.13522 -12.41534,1.37731 -2.59422,1.32518 -9.01111,5.93768 -14.25977,10.25 -12.63995,10.38505 -15.09195,12.07668 -23.40688,16.14831 -14.71899,7.20755 -34.00347,9.95602 -46.42097,6.61603 z M 96.437529,136.11726 c -6.31661,-2.64132 -12.60246,-7.43382 -15.45224,-11.7812 -2.2897,-3.49298 -1.69535,-3.40441 3.5488,0.52886 6.68301,5.01245 18.429291,6.57593 29.403441,3.91371 10.9822,-2.66416 22.92262,-9.63525 46.5,-27.14774 16.65017,-12.367188 18.15834,-13.362858 25.39128,-16.763008 7.77103,-3.65311 14.60213,-4.51421 18.75889,-2.36466 4.37186,2.26077 8.61163,8.78963 7.8022,12.01466 l -0.64793,2.58153 -2.79813,-2.06875 c -1.53898,-1.13781 -4.76218,-2.29013 -7.16267,-2.5607 -8.62339,-0.97198 -14.51784,1.94089 -31.87259,15.750538 -16.6615,13.25802 -33.15185,23.12943 -45.15607,27.03122 -3.47324,1.12892 -10.13998,2.25593 -14.81498,2.50445 -7.05058,0.37481 -9.3526,0.0953 -13.500001,-1.63891 z m -7.50647,-16.86748 c -6.78184,-2.06294 -11.37223,-5.81979 -14.37656,-11.766 -2.35886,-4.6687 -2.0946,-4.76668 2.99859,-1.1118 4.43721,3.18415 4.96853,3.31018 13.75,3.26144 8.12284,-0.0451 9.825711,-0.3913 15.376451,-3.12623 5.94176,-2.9276 20.56062,-12.541598 30.25799,-19.898958 17.83823,-13.53381 30.51213,-21.20273 39.5,-23.90126 9.39416,-2.82051 21.66855,-1.33301 26.84675,3.25348 3.0292,2.68305 7.65325,9.35821 7.65325,11.04802 0,1.20776 -0.46722,1.09707 -2.25,-0.53306 -2.84286,-2.59944 -7.33496,-4.85345 -11.42887,-5.73468 -6.99549,-1.50583 -20.3713,2.83577 -30.77465,9.989 -2.77556,1.90845 -6.17148,4.24708 -7.54648,5.19696 -1.375,0.94987 -5.86311,4.20888 -9.97357,7.24224 -4.11046,3.03335 -8.46518,6.19019 -9.67716,7.015188 -1.21197,0.825 -4.82386,3.32655 -8.02643,5.559 -17.19812,11.98849 -31.899161,16.67937 -42.329311,13.50666 z M 76.268319,96.434122 c -4.32959,-4.62616 -5.46194,-6.87927 -4.79427,-9.53947 l 0.62777,-2.50125 4.16785,2.38331 c 2.32681,1.33054 5.8196,2.38864 7.90713,2.39537 4.46495,0.0144 12.58353,-2.91414 16.466071,-5.93961 1.53706,-1.19776 7.51966,-5.86773 13.29466,-10.37772 15.6256,-12.20282 25.8604,-18.72861 37.5,-23.91031 13.06374,-5.81569 26.50887,-7.43258 35.48132,-4.26691 5.76113,2.03265 13.4131,7.81504 15.88424,12.00331 l 2.03676,3.45204 -5.81577,-3.9698 c -10.1637,-6.93769 -24.77135,-7.07952 -39.08655,-0.37951 -10.263,4.80344 -16.8903,9.14193 -39.5,25.85826 -19.71331,14.5749 -25.581041,17.54229 -34.688211,17.54229 -6.24463,0 -7.1542,-0.26383 -9.481,-2.75 z m -0.0808,-20.28116 c -2.61063,-1.04935 -2.60879,-1.03925 -1.1045,-6.06014 0.96915,-3.23475 1.42087,-3.67596 2.93426,-2.86601 0.98381,0.52652 2.73117,0.95731 3.88301,0.95731 3.78836,0 13.37968,-5.68649 23.037231,-13.65827 15.6955,-12.95578 25.35243,-18.2003 39.5,-21.45177 14.79572,-3.40045 34.34797,-1.60599 40.30087,3.69872 l 2.69913,2.40522 -5,-2.20477 c -4.08047,-1.79929 -6.83907,-2.20104 -15,-2.1845 -8.74381,0.0177 -11.17954,0.43742 -19.38983,3.34115 -13.51766,4.78078 -19.4242,8.25229 -33.38643,19.62259 -12.34445,10.05284 -22.288531,17.1464 -25.622961,18.27802 -3.97795,1.35002 -9.66202,1.40418 -12.85078,0.12245 z m 5.98121,-21.63615 c 1.19008,-2.01702 5.3374,-6.87692 9.21628,-10.79979 13.219011,-13.3689 31.250291,-20.72314 50.552511,-20.61833 5.775,0.0314 12.075,0.46734 14,0.96886 3.11139,0.8106 2.72278,0.92495 -3.5,1.02988 -10.27849,0.1733 -24.27467,3.44448 -32.53401,7.60382 -8.79279,4.42798 -14.85813,8.61968 -26.249971,18.14111 -5.6262,4.70245 -9.65838,7.34176 -11.21628,7.34176 h -2.43228 z"
     id="path1060" /></g></svg>
