<?xml version="1.0" encoding="UTF-8" standalone="no"?>
<!-- Generator: Adobe Illustrator 16.0.0, SVG Export Plug-In . SVG Version: 6.00 Build 0)  -->

<svg
   version="1.1"
   id="Layer_1"
   x="0px"
   y="0px"
   width="280px"
   height="280px"
   viewBox="0 0 280 280"
   enable-background="new 0 0 280 280"
   xml:space="preserve"
   sodipodi:docname="tv4.svg"
   inkscape:version="1.1.2 (0a00cf5339, 2022-02-04)"
   xmlns:inkscape="http://www.inkscape.org/namespaces/inkscape"
   xmlns:sodipodi="http://sodipodi.sourceforge.net/DTD/sodipodi-0.dtd"
   xmlns="http://www.w3.org/2000/svg"
   xmlns:svg="http://www.w3.org/2000/svg"><defs
   id="defs5011" /><sodipodi:namedview
   id="namedview5009"
   pagecolor="#ffffff"
   bordercolor="#000000"
   borderopacity="0.25"
   inkscape:showpageshadow="2"
   inkscape:pageopacity="0.0"
   inkscape:pagecheckerboard="0"
   inkscape:deskcolor="#d1d1d1"
   showgrid="false"
   inkscape:zoom="1.4767857"
   inkscape:cx="49.431681"
   inkscape:cy="87.351875"
   inkscape:window-width="1600"
   inkscape:window-height="828"
   inkscape:window-x="0"
   inkscape:window-y="0"
   inkscape:window-maximized="1"
   inkscape:current-layer="Layer_1"
   inkscape:pageshadow="2"
   showguides="false" />


<polygon
   class="cls-1"
   points="137.46,16.06 105.34,16.06 17.34,130.08 17.34,161.87 182.43,161.87 182.43,178.25 0,178.25 0,125.9 97.32,0 154.81,0 154.81,125.9 137.46,125.9 "
   id="polygon6"
   style="fill:#ffc700"
   transform="translate(40.362002,34.044594)" /><polygon
   class="cls-2"
   points="182.43,134.57 182.43,150.95 28.91,150.95 28.91,132.64 110.16,27.62 126.22,27.62 126.22,125.9 108.88,125.9 108.88,55.88 47.85,134.57 "
   id="polygon8"
   style="fill:#ed1c25"
   transform="translate(40.362002,34.044594)" /><rect
   class="cls-3"
   x="177.82201"
   y="220.9646"
   width="17.34"
   height="34.040001"
   id="rect10"
   style="fill:#ffa200" /><rect
   class="cls-2"
   x="149.242"
   y="220.9646"
   width="17.34"
   height="34.040001"
   id="rect12"
   style="fill:#ed1c25" /></svg>
