<?xml version="1.0" encoding="UTF-8" standalone="no"?>
<!-- Generator: Adobe Illustrator 16.0.0, SVG Export Plug-In . SVG Version: 6.00 Build 0)  -->

<svg
   version="1.1"
   id="Layer_1"
   x="0px"
   y="0px"
   width="280px"
   height="280px"
   viewBox="0 0 280 280"
   enable-background="new 0 0 280 280"
   xml:space="preserve"
   sodipodi:docname="tvpuls.svg"
   inkscape:version="1.1.2 (0a00cf5339, 2022-02-04)"
   xmlns:inkscape="http://www.inkscape.org/namespaces/inkscape"
   xmlns:sodipodi="http://sodipodi.sourceforge.net/DTD/sodipodi-0.dtd"
   xmlns="http://www.w3.org/2000/svg"
   xmlns:svg="http://www.w3.org/2000/svg"><defs
   id="defs5011" /><sodipodi:namedview
   id="namedview5009"
   pagecolor="#ffffff"
   bordercolor="#000000"
   borderopacity="0.25"
   inkscape:showpageshadow="2"
   inkscape:pageopacity="0.0"
   inkscape:pagecheckerboard="0"
   inkscape:deskcolor="#d1d1d1"
   showgrid="false"
   inkscape:zoom="1.4767857"
   inkscape:cx="90.06046"
   inkscape:cy="148.29504"
   inkscape:window-width="1600"
   inkscape:window-height="828"
   inkscape:window-x="0"
   inkscape:window-y="0"
   inkscape:window-maximized="1"
   inkscape:current-layer="Layer_1"
   inkscape:pageshadow="2"
   showguides="false" />


<path
   style="fill:#c62127;stroke-width:0.133929;fill-opacity:1"
   d="m 164.16899,215.66854 c -12.36607,-0.75839 -23.54209,-2.97784 -35.41928,-7.03399 -12.94365,-4.42033 -25.52531,-11.05881 -36.17212,-19.08557 -4.515609,-3.40435 -11.981243,-9.79885 -17.806288,-15.25148 -4.155624,-3.88997 -11.946254,-11.72092 -15.731986,-15.81342 -3.030965,-3.27658 -4.625245,-5.09291 -4.625245,-5.26944 0,-0.11453 -0.08614,-0.25653 -0.191379,-0.31545 -0.105274,-0.059 -0.180609,-0.14429 -0.167413,-0.1899 0.01311,-0.0456 -1.209931,-1.54325 -2.718051,-3.32822 -3.513151,-4.15809 -5.362924,-6.47778 -5.24954,-6.5831 0.255554,-0.2374 7.530793,-5.30376 11.791199,-8.21118 22.950976,-15.66251 51.016153,-33.10836 80.374803,-49.962514 10.82003,-6.211542 17.99314,-9.976419 24.44208,-12.828676 17.56776,-7.769933 31.04556,-9.124911 44.66535,-4.490383 8.41893,2.864792 16.13303,7.722546 23.01685,14.494284 5.88306,5.787273 10.12983,11.67436 13.87126,19.228989 4.91212,9.91843 7.57881,20.44971 8.52904,33.68317 0.19731,2.7477 0.19501,9.98995 -0.004,12.58935 -1.08477,14.16553 -4.85729,25.77881 -11.69692,36.00761 -4.70304,7.03354 -11.05227,13.27389 -18.38126,18.06608 -17.01904,11.12826 -41.6028,16.02393 -66.33759,13.21061 -1.34938,-0.15349 -2.48041,-0.25206 -2.5134,-0.21905 -0.14002,0.13999 6.53642,0.81754 10.19003,1.03407 2.92659,0.17347 10.2105,0.17484 13.0581,0.002 18.14934,-1.09828 34.00865,-5.89444 46.27248,-13.99372 3.9456,-2.60571 6.89112,-5.01082 10.2486,-8.36836 5.95207,-5.95202 10.39566,-12.55129 13.77661,-20.45993 6.48388,-15.16659 7.81466,-34.3885 3.70423,-53.50164 -2.33566,-10.86037 -7.15917,-21.594797 -13.46734,-29.970428 -1.40882,-1.870548 -1.48899,-2.011471 -1.31827,-2.316555 0.0716,-0.128552 0.18678,-0.199204 0.25497,-0.157018 0.0681,0.04221 0.0877,-0.01743 0.0437,-0.132644 -0.0585,-0.153083 -0.0213,-0.186738 0.13881,-0.125105 0.33399,0.128121 0.49644,0.514765 0.30626,0.728875 -0.13314,0.150205 -0.12374,0.153259 0.0566,0.01781 0.18835,-0.141335 0.35407,0.01508 1.21473,1.144856 5.80328,7.617936 9.89275,15.830689 12.62912,25.362299 4.02786,14.03041 4.79061,31.08539 1.99104,44.51798 -1.39566,6.69661 -3.16919,11.91325 -6.01036,17.67863 -2.3352,4.73874 -4.44387,8.06944 -7.63099,12.05363 -1.87074,2.33859 -5.87202,6.4712 -8.15176,8.41936 -12.79332,10.9325 -29.93989,17.34949 -51.24655,19.17869 -2.88938,0.24803 -12.82728,0.36738 -15.73667,0.18893 z m -10.68085,-1.42834 c -0.1289,-0.0337 -0.33984,-0.0337 -0.46875,0 -0.12891,0.0337 -0.0234,0.0613 0.23438,0.0613 0.2578,0 0.36327,-0.0276 0.23437,-0.0613 z m -0.87055,-0.13039 c -0.092,-0.0372 -0.24275,-0.0372 -0.33482,0 -0.092,0.0372 -0.0167,0.0675 0.16741,0.0675 0.18418,0 0.25949,-0.0303 0.16742,-0.0675 z m -0.93751,-0.13391 c -0.092,-0.0372 -0.24273,-0.0372 -0.33481,0 -0.0921,0.0372 -0.0167,0.0675 0.16741,0.0675 0.18416,0 0.25949,-0.0303 0.1674,-0.0675 z M 110.8002,177.40155 c -0.003,-4.93078 0.0456,-8.73886 0.11191,-8.73886 0.0647,0 0.28905,0.24741 0.49861,0.54983 0.64595,0.93212 2.5193,2.57495 3.69879,3.24369 2.75901,1.56425 6.76946,2.19363 10.42096,1.63542 4.41294,-0.67463 6.80955,-2.70289 7.80495,-6.60538 l 0.29774,-1.16732 v -22.29919 -22.2992 l -0.30067,-1.1384 c -0.90973,-3.44444 -2.94309,-5.41313 -6.52971,-6.32204 -1.07189,-0.27164 -1.51681,-0.30467 -4.01787,-0.29824 -2.61716,0.007 -2.90555,0.0322 -4.15181,0.36679 -1.40464,0.37711 -3.40194,1.26754 -4.43037,1.97513 -0.85672,0.58943 -2.20086,1.87244 -2.8691,2.73861 -0.31237,0.4049 -0.62089,0.73617 -0.6856,0.73617 -0.0647,0 -0.11765,-1.08482 -0.11765,-2.41073 v -2.41071 h -8.23664 -8.236645 v 35.62613 35.62616 l 8.374395,-0.0345 8.37439,-0.0345 -0.005,-8.73887 z m 1.73911,-14.04168 c -0.69,-0.29889 -1.17155,-0.82091 -1.40466,-1.52275 -0.18249,-0.54939 -0.20232,-2.6351 -0.17098,-17.95836 0.0342,-16.6948 0.0448,-17.35566 0.28868,-17.84658 0.5372,-1.08148 1.93162,-1.63317 3.36694,-1.3321 0.92325,0.19362 1.45637,0.56558 1.84049,1.28398 l 0.29831,0.55792 0.0413,17.14293 c 0.0301,12.50123 0,17.33559 -0.11195,17.85449 -0.1754,0.81489 -0.76076,1.57356 -1.42962,1.85305 -0.57551,0.24046 -2.13113,0.22182 -2.71846,-0.0325 z m 117.05406,10.7327 c 4.09569,-0.55899 7.4893,-1.8044 9.75938,-3.5816 1.69419,-1.32634 3.15358,-3.60523 3.79953,-5.93311 0.28645,-1.03207 0.29734,-1.28789 0.29734,-6.96433 0,-5.69642 -0.01,-5.92835 -0.29989,-6.95707 -0.38882,-1.38 -1.19826,-3.02419 -1.96233,-3.98627 -1.15361,-1.45253 -3.93837,-3.60967 -7.77705,-6.02424 -1.10491,-0.69501 -3.67537,-2.29903 -5.71218,-3.56447 -4.32626,-2.68793 -4.83923,-3.07109 -5.66998,-4.23523 -1.10596,-1.54993 -1.2072,-1.98866 -1.2072,-5.23284 0,-2.58784 0.0227,-2.8618 0.28541,-3.42972 0.39249,-0.84869 1.04373,-1.31264 2.09533,-1.49277 0.73946,-0.12663 0.95949,-0.11177 1.64374,0.11136 0.6232,0.20316 0.87943,0.37571 1.21335,0.8169 0.63857,0.84386 0.72201,1.64369 0.72201,6.91818 v 4.64308 l 8.40407,1.3e-4 8.40406,1.3e-4 -0.0325,-1.84172 c -0.0176,-1.01282 -0.0505,-3.5291 -0.0726,-5.59161 l -0.0401,-3.75002 -0.41657,-1.24288 c -0.57725,-1.72253 -1.34837,-2.95397 -2.65313,-4.23693 -3.42997,-3.37279 -8.96414,-5.02972 -16.80705,-5.03202 -9.48667,-0.002 -16.3061,2.71213 -18.61802,7.41209 -1.02373,2.08119 -1.09809,2.65092 -1.03861,7.95878 0.0517,4.62 0.0545,4.65769 0.42023,5.85528 0.2025,0.66297 0.61125,1.65739 0.90837,2.20986 1.47508,2.74275 3.54841,4.45275 11.6299,9.59182 6.60546,4.20039 7.26995,4.65776 8.12803,5.59415 0.89087,0.97227 1.4588,2.01796 1.65353,3.04445 0.16994,0.89516 0.16837,6.10797 -0.002,7.14912 -0.24058,1.47018 -1.10835,2.31226 -2.51286,2.4384 -1.45666,0.13079 -2.55961,-0.44591 -3.06574,-1.60303 -0.22773,-0.52055 -0.25155,-1.07449 -0.28801,-6.69477 l -0.0398,-6.12725 h -8.43827 -8.43818 l 0.0466,6.66298 c 0.0445,6.3642 0.0595,6.70359 0.33288,7.56911 1.77807,5.62687 6.97973,8.86516 15.63889,9.73596 1.77959,0.17895 7.88173,0.0597 9.70991,-0.1899 z m -76.47354,-0.51527 c 1.72056,-0.45163 2.56019,-0.78346 3.75653,-1.48458 1.13186,-0.66333 2.7375,-2.09876 3.60412,-3.22204 0.31555,-0.40905 0.62531,-0.74371 0.68837,-0.74371 0.063,0 0.13106,1.09989 0.15108,2.4442 l 0.0366,2.44421 h 8.23665 8.23663 v -29.06261 -29.06262 l -8.4022,-0.0345 -8.40221,-0.0345 -0.0354,23.27119 -0.0354,23.27118 -0.2883,0.53573 c -0.57596,1.0702 -1.18226,1.40624 -2.53722,1.40624 -1.30671,0 -2.18816,-0.45708 -2.71178,-1.40624 -0.20312,-0.36819 -0.22725,-2.34987 -0.28862,-23.70545 l -0.067,-23.30367 -8.40639,-0.0345 -8.40636,-0.0345 0.0358,25.81584 0.0358,25.81586 0.29759,1.04471 c 0.3633,1.27539 1.09763,2.7038 1.8005,3.50231 1.08475,1.23232 3.09027,2.27592 5.13407,2.67159 1.67045,0.32336 1.74349,0.32841 4.08485,0.28284 1.83211,-0.0356 2.42729,-0.10005 3.48215,-0.377 z m 46.66091,-0.72933 c -0.008,-0.092 -0.0225,-16.43979 -0.0335,-36.32828 l -0.0202,-36.16085 h -8.37057 -8.37058 v 36.27248 c 0,19.94984 0.0407,36.31308 0.0903,36.36275 0.0498,0.0498 3.83147,0.0748 8.40405,0.0558 6.55198,-0.0272 8.31091,-0.07 8.30036,-0.2019 z M 43.030099,128.79267 c -7.421642,-0.7948 -14.550233,-5.69185 -19.116869,-13.13251 -3.341022,-5.44373 -4.993091,-12.18963 -4.81325,-19.654016 0.131056,-5.438963 1.05307,-9.465347 3.158918,-13.794699 2.064892,-4.245179 4.737783,-7.478942 8.516687,-10.303819 1.96624,-1.469839 3.106405,-2.157498 5.424127,-3.271384 5.28866,-2.541703 11.191524,-3.927249 17.544715,-4.118173 3.080559,-0.09259 3.146959,-0.09955 3.148995,-0.331349 0.0019,-0.215084 0.774421,-0.208478 3.078709,0.02633 9.216131,0.939108 19.197534,4.89311 27.85726,11.035287 6.666037,4.728095 14.545329,12.383682 19.891039,19.326315 0.92464,1.200854 0.92173,1.128897 0.0644,1.590812 -0.68909,0.37127 -28.44547,17.427656 -39.776942,24.443076 -7.942719,4.91739 -14.30003,7.49342 -20.08937,8.14033 -1.143592,0.12776 -3.875666,0.15227 -4.888411,0.0438 z M 45.306897,96.474895 V 84.421273 h 3.938611 3.938614 l 0.264845,0.770093 c 0.145643,0.423552 1.150691,3.301355 2.233416,6.395119 4.553027,13.009875 5.829933,16.692555 5.829933,16.813805 0,0.0735 0.59364,0.12822 1.389462,0.12822 h 1.389475 l 0.408667,-1.17188 c 0.224763,-0.64452 1.894218,-5.45091 3.709883,-10.680845 1.815658,-5.229929 3.688433,-10.61233 4.161711,-11.960895 0.473263,-1.34856 0.860494,-2.480769 0.860494,-2.516019 0,-0.03526 -0.579271,-0.04685 -1.287262,-0.02576 l -1.287256,0.03834 -0.899589,2.611621 c -0.494775,1.43639 -2.244693,6.559179 -3.888699,11.383972 -1.64402,4.824796 -3.025461,8.813956 -3.069874,8.864786 -0.04442,0.0508 -1.297543,-3.47483 -2.784732,-7.834837 -1.487187,-4.360006 -3.257209,-9.539823 -3.93339,-11.510701 l -1.229402,-3.58341 -10.530953,0.03429 -10.530969,0.0343 v 1.071434 1.071433 l 4.319214,0.03536 4.319212,0.03534 v 12.051765 12.051766 h 1.339294 1.339295 z M 235.82106,86.832 c -0.0832,-0.134836 -0.0607,-0.153494 0.22084,-0.184174 0.0843,-0.0092 0.20099,-0.137283 0.25845,-0.2846 0.0656,-0.168353 0.10609,-0.193238 0.10949,-0.06698 0.005,0.207164 -0.29056,0.669648 -0.42843,0.669648 -0.0427,0 -0.11531,-0.0603 -0.16073,-0.133954 z"
   id="path851" /></svg>
