<?xml version="1.0" encoding="UTF-8" standalone="no"?>
<!-- Generator: Adobe Illustrator 16.0.0, SVG Export Plug-In . SVG Version: 6.00 Build 0)  -->

<svg
   version="1.1"
   id="Layer_1"
   x="0px"
   y="0px"
   width="280px"
   height="280px"
   viewBox="0 0 280 280"
   enable-background="new 0 0 280 280"
   xml:space="preserve"
   sodipodi:docname="4fun.svg"
   inkscape:version="1.1.2 (0a00cf5339, 2022-02-04)"
   xmlns:inkscape="http://www.inkscape.org/namespaces/inkscape"
   xmlns:sodipodi="http://sodipodi.sourceforge.net/DTD/sodipodi-0.dtd"
   xmlns="http://www.w3.org/2000/svg"
   xmlns:svg="http://www.w3.org/2000/svg"><defs
   id="defs5011" /><sodipodi:namedview
   id="namedview5009"
   pagecolor="#ffffff"
   bordercolor="#000000"
   borderopacity="0.25"
   inkscape:showpageshadow="2"
   inkscape:pageopacity="0.0"
   inkscape:pagecheckerboard="0"
   inkscape:deskcolor="#d1d1d1"
   showgrid="false"
   inkscape:zoom="1.4767857"
   inkscape:cx="186.89238"
   inkscape:cy="102.24909"
   inkscape:window-width="1600"
   inkscape:window-height="828"
   inkscape:window-x="0"
   inkscape:window-y="0"
   inkscape:window-maximized="1"
   inkscape:current-layer="g1307"
   inkscape:pageshadow="2"
   showguides="false" />


<g
   id="g1307"
   transform="matrix(0.26836627,0,0,0.26836627,3.1535141,98.95725)"><path
     class="st0"
     d="m 656.9,2.5 c -16.8,1.9 -32.6,3.7 -48.7,5.6 0,60.4 0,120.2 0,180.6 18,-1.9 35.4,-3.7 53.4,-5.6 0,-3.3 0,-5.8 0,-8.4 0,-31 -0.3,-62.1 0.3,-93.1 0.1,-7.3 2.5,-15 5.5,-21.7 2.9,-6.5 9.3,-9.4 16.7,-8.6 7.4,0.9 12.6,5.1 14.3,12.2 1.6,6.4 2.5,13.1 2.5,19.7 0.2,32.2 0.1,64.5 0.1,96.7 0,2.8 0,5.5 0,8.9 18.6,-2 36,-3.8 53.8,-5.7 0,-3.5 0,-6.1 0,-8.7 0,-30.8 -0.4,-61.6 0.3,-92.4 0.2,-7.5 2.6,-15.4 5.7,-22.4 2.9,-6.5 9.5,-9.3 16.8,-8.3 7.3,1 12.5,5.2 14.1,12.4 1.4,6.5 2.5,13.1 2.5,19.7 0.2,32.2 0.1,64.5 0.1,96.7 0,2.7 0,5.5 0,8.6 18.5,-2 35.8,-3.8 53.3,-5.7 0.1,-2.6 0.4,-4.7 0.4,-6.9 0,-32.7 0.2,-65.4 -0.2,-98.2 -0.1,-9.5 -1.1,-19.1 -3,-28.4 C 837.8,15.8 814.9,0 779,3.1 762.8,4.5 749.5,11.7 738.4,23.4 727.5,9.3 713.4,2 696.1,2.6 c -17.5,0.6 -30.3,9.5 -39.2,24.8 0,-8.1 0,-16.2 0,-24.9 z"
     id="path1291" /><path
     class="st0"
     d="M 87.6,137.3 C 114,93.5 139.5,51.2 165.4,8.2 c -47.1,0 -92.9,0 -139,0 -3.5,14.7 -7,29.2 -10.7,44.8 22.4,0 44,0 67,0 C 55.5,97.8 29,141.4 2.2,185.6 c 51.7,0 102,0 152.7,0 4.3,-16 8.6,-31.8 13.1,-48.3 -27,0 -52.9,0 -80.4,0 z"
     id="path1293" /><path
     class="st0"
     d="m 179,102.3 c 0.1,-52.9 38.2,-94.4 85.7,-98.8 43.1,-3.9 77.9,11 99.7,48.8 30.3,52.3 1,119.1 -57.8,135 -48,13 -96.9,-7.3 -118,-49.2 -6.5,-13 -9.8,-26.8 -9.6,-35.8 z m 99,38.9 c 24.3,-0.1 44.7,-20.8 44.4,-44.9 C 322.1,73.1 301.5,52.8 278,52.7 253.6,52.6 232.8,73 232.9,97 c 0,24.2 20.6,44.3 45.1,44.2 z"
     id="path1295" /><circle
     transform="matrix(0.1934,-0.9811,0.9811,0.1934,388.6926,557.2856)"
     class="st1"
     cx="533.29999"
     cy="42.200001"
     id="ellipse1297"
     r="27.799999"
     style="fill:#a71e44;fill-opacity:1" /><path
     class="st0"
     d="m 576.9,55.5 c -5.7,18.7 -23,32.3 -43.6,32.3 -0.4,0 -0.8,0 -1.2,-0.1 0.6,2.8 1,5.7 1,8.6 0.3,24.1 -20.2,44.8 -44.5,44.9 -24.5,0.1 -45.1,-20.1 -45.1,-44.3 0,-23.7 20.2,-43.9 44.4,-44.3 0.3,0 0.6,0 1,0 -0.8,-3.4 -1.3,-6.9 -1.3,-10.5 0,-15.7 8,-29.6 20.1,-37.8 -10.1,-1.7 -20.9,-2 -32.3,-0.9 -47.4,4.5 -85.4,45.7 -85.6,100 -0.2,8 3.1,22 9.9,35.2 21.2,41.5 69.7,61.5 117.6,48.7 57.6,-15.5 86.9,-79.8 59.6,-131.8 z"
     id="path1299" /><g
     id="g1305"><path
       class="st0"
       d="m 907.7,2.3 v 20.8 h 18.8 v 10 h -18.8 v 39 c 0,9 2.5,14 9.9,14 3.4,0 6,-0.5 7.6,-0.9 l 0.6,9.9 c -2.5,1 -6.6,1.8 -11.7,1.8 -6.1,0 -11.1,-1.9 -14.2,-5.5 -3.7,-3.9 -5.1,-10.3 -5.1,-18.8 V 33.1 h -11.2 v -10 h 11.2 V 5.7 Z"
       id="path1301" /><path
       class="st0"
       d="M 947.8,23.1 962,63.7 c 2.4,6.6 4.3,12.6 5.8,18.5 h 0.4 c 1.6,-6 3.7,-12 6.1,-18.5 l 14,-40.6 H 1002 L 973.6,95.4 H 961 L 933.5,23.1 c 0.2,0 14.3,0 14.3,0 z"
       id="path1303" /></g></g></svg>
